%TF.GenerationSoftware,KiCad,Pcbnew,9.0.7*%
%TF.CreationDate,2026-05-30T16:46:01+02:00*%
%TF.ProjectId,BatteryGaulgue,42617474-6572-4794-9761-756c6775652e,rev?*%
%TF.SameCoordinates,Original*%
%TF.FileFunction,Copper,L2,Bot*%
%TF.FilePolarity,Positive*%
%FSLAX46Y46*%
G04 Gerber Fmt 4.6, Leading zero omitted, Abs format (unit mm)*
G04 Created by KiCad (PCBNEW 9.0.7) date 2026-05-30 16:46:01*
%MOMM*%
%LPD*%
G01*
G04 APERTURE LIST*
G04 Aperture macros list*
%AMRoundRect*
0 Rectangle with rounded corners*
0 $1 Rounding radius*
0 $2 $3 $4 $5 $6 $7 $8 $9 X,Y pos of 4 corners*
0 Add a 4 corners polygon primitive as box body*
4,1,4,$2,$3,$4,$5,$6,$7,$8,$9,$2,$3,0*
0 Add four circle primitives for the rounded corners*
1,1,$1+$1,$2,$3*
1,1,$1+$1,$4,$5*
1,1,$1+$1,$6,$7*
1,1,$1+$1,$8,$9*
0 Add four rect primitives between the rounded corners*
20,1,$1+$1,$2,$3,$4,$5,0*
20,1,$1+$1,$4,$5,$6,$7,0*
20,1,$1+$1,$6,$7,$8,$9,0*
20,1,$1+$1,$8,$9,$2,$3,0*%
G04 Aperture macros list end*
%TA.AperFunction,ComponentPad*%
%ADD10C,1.400000*%
%TD*%
%TA.AperFunction,ComponentPad*%
%ADD11RoundRect,0.250000X1.050000X1.050000X-1.050000X1.050000X-1.050000X-1.050000X1.050000X-1.050000X0*%
%TD*%
%TA.AperFunction,ComponentPad*%
%ADD12C,2.600000*%
%TD*%
%TA.AperFunction,ComponentPad*%
%ADD13R,1.700000X1.700000*%
%TD*%
%TA.AperFunction,ComponentPad*%
%ADD14RoundRect,0.250000X-1.050000X1.050000X-1.050000X-1.050000X1.050000X-1.050000X1.050000X1.050000X0*%
%TD*%
%TA.AperFunction,ComponentPad*%
%ADD15R,1.050000X1.500000*%
%TD*%
%TA.AperFunction,ComponentPad*%
%ADD16O,1.050000X1.500000*%
%TD*%
%TA.AperFunction,ComponentPad*%
%ADD17RoundRect,0.250000X1.050000X-1.050000X1.050000X1.050000X-1.050000X1.050000X-1.050000X-1.050000X0*%
%TD*%
%TA.AperFunction,ComponentPad*%
%ADD18C,1.700000*%
%TD*%
%TA.AperFunction,ComponentPad*%
%ADD19RoundRect,0.250000X-0.550000X-0.550000X0.550000X-0.550000X0.550000X0.550000X-0.550000X0.550000X0*%
%TD*%
%TA.AperFunction,ComponentPad*%
%ADD20C,1.600000*%
%TD*%
%TA.AperFunction,ViaPad*%
%ADD21C,0.600000*%
%TD*%
%TA.AperFunction,Conductor*%
%ADD22C,0.200000*%
%TD*%
G04 APERTURE END LIST*
D10*
%TO.P,TH1,2*%
%TO.N,/REG25*%
X123790000Y-96000000D03*
%TO.P,TH1,1*%
%TO.N,Net-(U1-P6_TS)*%
X118710000Y-96000000D03*
%TD*%
D11*
%TO.P,J2,1,Pin_1*%
%TO.N,Net-(J2-Pin_1)*%
X123500000Y-67000000D03*
D12*
%TO.P,J2,2,Pin_2*%
%TO.N,Net-(J2-Pin_2)*%
X118500000Y-67000000D03*
%TD*%
D13*
%TO.P,J5,1,Pin_1*%
%TO.N,Net-(J5-Pin_1)*%
X116250000Y-75000000D03*
%TD*%
%TO.P,J4,1,Pin_1*%
%TO.N,/REG25*%
X130000000Y-74500000D03*
%TD*%
D14*
%TO.P,J1,1,Pin_1*%
%TO.N,Net-(J1-Pin_1)*%
X108327500Y-77500000D03*
D12*
%TO.P,J1,2,Pin_2*%
%TO.N,GND*%
X108327500Y-82500000D03*
%TO.P,J1,3,Pin_3*%
%TO.N,Net-(J1-Pin_3)*%
X108327500Y-87500000D03*
%TD*%
D13*
%TO.P,J6,1,Pin_1*%
%TO.N,Net-(J6-Pin_1)*%
X137000000Y-89500000D03*
%TD*%
D15*
%TO.P,Q1,1,C*%
%TO.N,Net-(J1-Pin_3)*%
X154270000Y-86090000D03*
D16*
%TO.P,Q1,2,B*%
%TO.N,Net-(D1-K)*%
X153000000Y-86090000D03*
%TO.P,Q1,3,E*%
%TO.N,/REGIN*%
X151730000Y-86090000D03*
%TD*%
D11*
%TO.P,J7,1,Pin_1*%
%TO.N,Net-(J7-Pin_1)*%
X155500000Y-67000000D03*
D12*
%TO.P,J7,2,Pin_2*%
%TO.N,GND*%
X150500000Y-67000000D03*
%TD*%
D17*
%TO.P,J3,1,Pin_1*%
%TO.N,Net-(J3-Pin_1)*%
X165172500Y-86500000D03*
D12*
%TO.P,J3,2,Pin_2*%
%TO.N,Net-(J3-Pin_2)*%
X165172500Y-81500000D03*
%TO.P,J3,3,Pin_3*%
%TO.N,Net-(J3-Pin_3)*%
X165172500Y-76500000D03*
%TD*%
D13*
%TO.P,J9,1,Pin_1*%
%TO.N,Net-(J9-Pin_1)*%
X116250000Y-91250000D03*
%TD*%
%TO.P,J10,1,Pin_1*%
%TO.N,/REGIN*%
X153500000Y-93000000D03*
%TD*%
%TO.P,J8,1,Pin_1*%
%TO.N,/REGIN*%
X139790000Y-64250000D03*
D18*
%TO.P,J8,2,Pin_2*%
%TO.N,Net-(J8-Pin_2)*%
X137250000Y-64250000D03*
%TO.P,J8,3,Pin_3*%
%TO.N,Net-(J7-Pin_1)*%
X134710000Y-64250000D03*
%TD*%
D19*
%TO.P,D1,1,K*%
%TO.N,Net-(D1-K)*%
X149190000Y-76000000D03*
D20*
%TO.P,D1,2,A*%
%TO.N,GND*%
X156810000Y-76000000D03*
%TD*%
D21*
%TO.N,Net-(J1-Pin_3)*%
X158250000Y-85750000D03*
X133250000Y-97750000D03*
%TO.N,Net-(J3-Pin_1)*%
X130250000Y-65500000D03*
%TO.N,/REG25*%
X130500000Y-77500000D03*
X129500000Y-92000000D03*
%TO.N,Net-(J3-Pin_1)*%
X160250000Y-90750000D03*
X133750000Y-85000000D03*
%TO.N,Net-(J5-Pin_1)*%
X132250000Y-87750000D03*
%TO.N,/REGIN*%
X149000000Y-87000000D03*
X150500000Y-92500000D03*
%TO.N,Net-(J2-Pin_2)*%
X135000000Y-85250000D03*
X121750000Y-73500000D03*
%TO.N,Net-(J2-Pin_1)*%
X138040689Y-85650000D03*
X128250000Y-68000000D03*
%TO.N,Net-(J5-Pin_1)*%
X133500000Y-77750000D03*
%TO.N,/REGIN*%
X147000000Y-76000000D03*
X145500000Y-66250000D03*
%TD*%
D22*
%TO.N,Net-(J2-Pin_1)*%
X138040689Y-85459311D02*
X138040689Y-85650000D01*
X139250000Y-84250000D02*
X138040689Y-85459311D01*
X139250000Y-79000000D02*
X139250000Y-84250000D01*
X128250000Y-68000000D02*
X139250000Y-79000000D01*
%TO.N,Net-(J2-Pin_2)*%
X123901000Y-75651000D02*
X132401000Y-75651000D01*
X132401000Y-75651000D02*
X135000000Y-78250000D01*
X121750000Y-73500000D02*
X123901000Y-75651000D01*
X135000000Y-78250000D02*
X135000000Y-85250000D01*
%TO.N,Net-(J5-Pin_1)*%
X132250000Y-87750000D02*
X132250000Y-78000000D01*
X132500000Y-77750000D02*
X133500000Y-77750000D01*
X132250000Y-78000000D02*
X132500000Y-77750000D01*
%TO.N,Net-(J3-Pin_1)*%
X140750000Y-74750000D02*
X140750000Y-95552000D01*
X131500000Y-65500000D02*
X140750000Y-74750000D01*
X130250000Y-65500000D02*
X131500000Y-65500000D01*
%TO.N,Net-(J1-Pin_3)*%
X162500000Y-90000000D02*
X158250000Y-85750000D01*
X133250000Y-97750000D02*
X155750000Y-97750000D01*
X155750000Y-97750000D02*
X162500000Y-91000000D01*
X162500000Y-91000000D02*
X162500000Y-90000000D01*
%TO.N,Net-(J3-Pin_1)*%
X140750000Y-95552000D02*
X141448000Y-96250000D01*
X133750000Y-88552000D02*
X140750000Y-95552000D01*
%TO.N,/REG25*%
X129500000Y-78500000D02*
X130500000Y-77500000D01*
X129500000Y-92000000D02*
X129500000Y-78500000D01*
%TO.N,Net-(J3-Pin_1)*%
X160250000Y-92000000D02*
X160250000Y-90750000D01*
X156000000Y-96250000D02*
X160250000Y-92000000D01*
X141448000Y-96250000D02*
X156000000Y-96250000D01*
X133750000Y-85000000D02*
X133750000Y-88552000D01*
%TO.N,/REGIN*%
X149000000Y-91000000D02*
X149000000Y-87000000D01*
X150500000Y-92500000D02*
X149000000Y-91000000D01*
X147000000Y-67750000D02*
X147000000Y-76000000D01*
X145500000Y-66250000D02*
X147000000Y-67750000D01*
%TD*%
%TA.AperFunction,Conductor*%
%TO.N,GND*%
G36*
X170442539Y-62520185D02*
G01*
X170488294Y-62572989D01*
X170499500Y-62624500D01*
X170499500Y-99375500D01*
X170479815Y-99442539D01*
X170427011Y-99488294D01*
X170375500Y-99499500D01*
X103124500Y-99499500D01*
X103057461Y-99479815D01*
X103011706Y-99427011D01*
X103000500Y-99375500D01*
X103000500Y-95115186D01*
X106099500Y-95115186D01*
X106099500Y-95384813D01*
X106129686Y-95652719D01*
X106129688Y-95652731D01*
X106189684Y-95915594D01*
X106189687Y-95915602D01*
X106278734Y-96170082D01*
X106395714Y-96412994D01*
X106395716Y-96412997D01*
X106539162Y-96641289D01*
X106707266Y-96852085D01*
X106897915Y-97042734D01*
X107108711Y-97210838D01*
X107267029Y-97310316D01*
X107337005Y-97354285D01*
X107370288Y-97370313D01*
X107579921Y-97471267D01*
X107771049Y-97538145D01*
X107834397Y-97560312D01*
X107834405Y-97560315D01*
X107834408Y-97560315D01*
X107834409Y-97560316D01*
X108097268Y-97620312D01*
X108365187Y-97650499D01*
X108365188Y-97650500D01*
X108365191Y-97650500D01*
X108634812Y-97650500D01*
X108634812Y-97650499D01*
X108902732Y-97620312D01*
X109165591Y-97560316D01*
X109420079Y-97471267D01*
X109662997Y-97354284D01*
X109891289Y-97210838D01*
X110102085Y-97042734D01*
X110292734Y-96852085D01*
X110460838Y-96641289D01*
X110604284Y-96412997D01*
X110721267Y-96170079D01*
X110810316Y-95915591D01*
X110812616Y-95905513D01*
X117509500Y-95905513D01*
X117509500Y-96094486D01*
X117539059Y-96281118D01*
X117597454Y-96460836D01*
X117669424Y-96602084D01*
X117683240Y-96629199D01*
X117794310Y-96782073D01*
X117927927Y-96915690D01*
X118080801Y-97026760D01*
X118137605Y-97055703D01*
X118249163Y-97112545D01*
X118249165Y-97112545D01*
X118249168Y-97112547D01*
X118345497Y-97143846D01*
X118428881Y-97170940D01*
X118615514Y-97200500D01*
X118615519Y-97200500D01*
X118804486Y-97200500D01*
X118991118Y-97170940D01*
X119170832Y-97112547D01*
X119339199Y-97026760D01*
X119492073Y-96915690D01*
X119625690Y-96782073D01*
X119736760Y-96629199D01*
X119822547Y-96460832D01*
X119880940Y-96281118D01*
X119910500Y-96094486D01*
X119910500Y-95905513D01*
X122589500Y-95905513D01*
X122589500Y-96094486D01*
X122619059Y-96281118D01*
X122677454Y-96460836D01*
X122749424Y-96602084D01*
X122763240Y-96629199D01*
X122874310Y-96782073D01*
X123007927Y-96915690D01*
X123160801Y-97026760D01*
X123217605Y-97055703D01*
X123329163Y-97112545D01*
X123329165Y-97112545D01*
X123329168Y-97112547D01*
X123425497Y-97143846D01*
X123508881Y-97170940D01*
X123695514Y-97200500D01*
X123695519Y-97200500D01*
X123884486Y-97200500D01*
X124071118Y-97170940D01*
X124250832Y-97112547D01*
X124419199Y-97026760D01*
X124572073Y-96915690D01*
X124705690Y-96782073D01*
X124816760Y-96629199D01*
X124902547Y-96460832D01*
X124960940Y-96281118D01*
X124990500Y-96094486D01*
X124990500Y-95905513D01*
X124960940Y-95718881D01*
X124902545Y-95539163D01*
X124857290Y-95450347D01*
X124816760Y-95370801D01*
X124705690Y-95217927D01*
X124572073Y-95084310D01*
X124419199Y-94973240D01*
X124250836Y-94887454D01*
X124071118Y-94829059D01*
X123884486Y-94799500D01*
X123884481Y-94799500D01*
X123695519Y-94799500D01*
X123695514Y-94799500D01*
X123508881Y-94829059D01*
X123329163Y-94887454D01*
X123160800Y-94973240D01*
X123073579Y-95036610D01*
X123007927Y-95084310D01*
X123007925Y-95084312D01*
X123007924Y-95084312D01*
X122874312Y-95217924D01*
X122874312Y-95217925D01*
X122874310Y-95217927D01*
X122849625Y-95251903D01*
X122763240Y-95370800D01*
X122677454Y-95539163D01*
X122619059Y-95718881D01*
X122589500Y-95905513D01*
X119910500Y-95905513D01*
X119880940Y-95718881D01*
X119822545Y-95539163D01*
X119777290Y-95450347D01*
X119736760Y-95370801D01*
X119625690Y-95217927D01*
X119492073Y-95084310D01*
X119339199Y-94973240D01*
X119170836Y-94887454D01*
X118991118Y-94829059D01*
X118804486Y-94799500D01*
X118804481Y-94799500D01*
X118615519Y-94799500D01*
X118615514Y-94799500D01*
X118428881Y-94829059D01*
X118249163Y-94887454D01*
X118080800Y-94973240D01*
X117993579Y-95036610D01*
X117927927Y-95084310D01*
X117927925Y-95084312D01*
X117927924Y-95084312D01*
X117794312Y-95217924D01*
X117794312Y-95217925D01*
X117794310Y-95217927D01*
X117769625Y-95251903D01*
X117683240Y-95370800D01*
X117597454Y-95539163D01*
X117539059Y-95718881D01*
X117509500Y-95905513D01*
X110812616Y-95905513D01*
X110870312Y-95652732D01*
X110900500Y-95384809D01*
X110900500Y-95115191D01*
X110870312Y-94847268D01*
X110810316Y-94584409D01*
X110721267Y-94329921D01*
X110604284Y-94087003D01*
X110460838Y-93858711D01*
X110292734Y-93647915D01*
X110102085Y-93457266D01*
X109891289Y-93289162D01*
X109662997Y-93145716D01*
X109662994Y-93145714D01*
X109420082Y-93028734D01*
X109165602Y-92939687D01*
X109165594Y-92939684D01*
X108968446Y-92894687D01*
X108902732Y-92879688D01*
X108902728Y-92879687D01*
X108902719Y-92879686D01*
X108634813Y-92849500D01*
X108634809Y-92849500D01*
X108365191Y-92849500D01*
X108365186Y-92849500D01*
X108097280Y-92879686D01*
X108097268Y-92879688D01*
X107834405Y-92939684D01*
X107834397Y-92939687D01*
X107579917Y-93028734D01*
X107337005Y-93145714D01*
X107108712Y-93289161D01*
X106897915Y-93457265D01*
X106707265Y-93647915D01*
X106539161Y-93858712D01*
X106395714Y-94087005D01*
X106278734Y-94329917D01*
X106189687Y-94584397D01*
X106189684Y-94584405D01*
X106129688Y-94847268D01*
X106129686Y-94847280D01*
X106099500Y-95115186D01*
X103000500Y-95115186D01*
X103000500Y-90352135D01*
X114899500Y-90352135D01*
X114899500Y-92147870D01*
X114899501Y-92147876D01*
X114905908Y-92207483D01*
X114956202Y-92342328D01*
X114956206Y-92342335D01*
X115042452Y-92457544D01*
X115042455Y-92457547D01*
X115157664Y-92543793D01*
X115157671Y-92543797D01*
X115292517Y-92594091D01*
X115292516Y-92594091D01*
X115299444Y-92594835D01*
X115352127Y-92600500D01*
X117147872Y-92600499D01*
X117207483Y-92594091D01*
X117342331Y-92543796D01*
X117457546Y-92457546D01*
X117543796Y-92342331D01*
X117594091Y-92207483D01*
X117600500Y-92147873D01*
X117600500Y-91921153D01*
X128699500Y-91921153D01*
X128699500Y-92078846D01*
X128730261Y-92233489D01*
X128730264Y-92233501D01*
X128790602Y-92379172D01*
X128790609Y-92379185D01*
X128878210Y-92510288D01*
X128878213Y-92510292D01*
X128989707Y-92621786D01*
X128989711Y-92621789D01*
X129120814Y-92709390D01*
X129120827Y-92709397D01*
X129266498Y-92769735D01*
X129266503Y-92769737D01*
X129421153Y-92800499D01*
X129421156Y-92800500D01*
X129421158Y-92800500D01*
X129578844Y-92800500D01*
X129578845Y-92800499D01*
X129733497Y-92769737D01*
X129879179Y-92709394D01*
X130010289Y-92621789D01*
X130121789Y-92510289D01*
X130209394Y-92379179D01*
X130269737Y-92233497D01*
X130300500Y-92078842D01*
X130300500Y-91921158D01*
X130300500Y-91921155D01*
X130300499Y-91921153D01*
X130291957Y-91878210D01*
X130269737Y-91766503D01*
X130263425Y-91751264D01*
X130209397Y-91620827D01*
X130209390Y-91620814D01*
X130121398Y-91489125D01*
X130100520Y-91422447D01*
X130100500Y-91420234D01*
X130100500Y-78800097D01*
X130120185Y-78733058D01*
X130136819Y-78712416D01*
X130299138Y-78550097D01*
X130514665Y-78334570D01*
X130575984Y-78301088D01*
X130578151Y-78300637D01*
X130578840Y-78300500D01*
X130578842Y-78300500D01*
X130733497Y-78269737D01*
X130879179Y-78209394D01*
X131010289Y-78121789D01*
X131121789Y-78010289D01*
X131209394Y-77879179D01*
X131269737Y-77733497D01*
X131300500Y-77578842D01*
X131300500Y-77421158D01*
X131300500Y-77421155D01*
X131300499Y-77421153D01*
X131292569Y-77381286D01*
X131269737Y-77266503D01*
X131256610Y-77234812D01*
X131209397Y-77120827D01*
X131209390Y-77120814D01*
X131121789Y-76989711D01*
X131121786Y-76989707D01*
X131010292Y-76878213D01*
X131010288Y-76878210D01*
X130879185Y-76790609D01*
X130879172Y-76790602D01*
X130733501Y-76730264D01*
X130733489Y-76730261D01*
X130578845Y-76699500D01*
X130578842Y-76699500D01*
X130421158Y-76699500D01*
X130421155Y-76699500D01*
X130266510Y-76730261D01*
X130266498Y-76730264D01*
X130120827Y-76790602D01*
X130120814Y-76790609D01*
X129989711Y-76878210D01*
X129989707Y-76878213D01*
X129878213Y-76989707D01*
X129878210Y-76989711D01*
X129790609Y-77120814D01*
X129790602Y-77120827D01*
X129730264Y-77266498D01*
X129730261Y-77266508D01*
X129699362Y-77421848D01*
X129666977Y-77483759D01*
X129665426Y-77485337D01*
X129131286Y-78019478D01*
X129019481Y-78131282D01*
X129019479Y-78131285D01*
X128974840Y-78208604D01*
X128974839Y-78208605D01*
X128974382Y-78209397D01*
X128940423Y-78268215D01*
X128899499Y-78420943D01*
X128899499Y-78420945D01*
X128899499Y-78589046D01*
X128899500Y-78589059D01*
X128899500Y-91420234D01*
X128879815Y-91487273D01*
X128878602Y-91489125D01*
X128790609Y-91620814D01*
X128790602Y-91620827D01*
X128730264Y-91766498D01*
X128730261Y-91766510D01*
X128699500Y-91921153D01*
X117600500Y-91921153D01*
X117600499Y-91231790D01*
X117600499Y-90352129D01*
X117600498Y-90352123D01*
X117600497Y-90352116D01*
X117594091Y-90292517D01*
X117587087Y-90273739D01*
X117543797Y-90157671D01*
X117543793Y-90157664D01*
X117457547Y-90042455D01*
X117457544Y-90042452D01*
X117342335Y-89956206D01*
X117342328Y-89956202D01*
X117207482Y-89905908D01*
X117207483Y-89905908D01*
X117147883Y-89899501D01*
X117147881Y-89899500D01*
X117147873Y-89899500D01*
X117147864Y-89899500D01*
X115352129Y-89899500D01*
X115352123Y-89899501D01*
X115292516Y-89905908D01*
X115157671Y-89956202D01*
X115157664Y-89956206D01*
X115042455Y-90042452D01*
X115042452Y-90042455D01*
X114956206Y-90157664D01*
X114956202Y-90157671D01*
X114905908Y-90292517D01*
X114899501Y-90352116D01*
X114899501Y-90352123D01*
X114899500Y-90352135D01*
X103000500Y-90352135D01*
X103000500Y-87381995D01*
X106527000Y-87381995D01*
X106527000Y-87618004D01*
X106527001Y-87618020D01*
X106557806Y-87852010D01*
X106618894Y-88079993D01*
X106709214Y-88298045D01*
X106709219Y-88298056D01*
X106772502Y-88407664D01*
X106827227Y-88502450D01*
X106827229Y-88502453D01*
X106827230Y-88502454D01*
X106970906Y-88689697D01*
X106970912Y-88689704D01*
X107137795Y-88856587D01*
X107137802Y-88856593D01*
X107221369Y-88920716D01*
X107325050Y-89000273D01*
X107456418Y-89076118D01*
X107529443Y-89118280D01*
X107529448Y-89118282D01*
X107529451Y-89118284D01*
X107747507Y-89208606D01*
X107975486Y-89269693D01*
X108209489Y-89300500D01*
X108209496Y-89300500D01*
X108445504Y-89300500D01*
X108445511Y-89300500D01*
X108679514Y-89269693D01*
X108907493Y-89208606D01*
X109125549Y-89118284D01*
X109329950Y-89000273D01*
X109517199Y-88856592D01*
X109684092Y-88689699D01*
X109827773Y-88502450D01*
X109944369Y-88300500D01*
X109945780Y-88298056D01*
X109945780Y-88298055D01*
X109945784Y-88298049D01*
X110036106Y-88079993D01*
X110097193Y-87852014D01*
X110128000Y-87618011D01*
X110128000Y-87381989D01*
X110097193Y-87147986D01*
X110036106Y-86920007D01*
X109945784Y-86701951D01*
X109945782Y-86701948D01*
X109945780Y-86701943D01*
X109898947Y-86620827D01*
X109827773Y-86497550D01*
X109684092Y-86310301D01*
X109684087Y-86310295D01*
X109517204Y-86143412D01*
X109517197Y-86143406D01*
X109329954Y-85999730D01*
X109329953Y-85999729D01*
X109329950Y-85999727D01*
X109232943Y-85943720D01*
X109125556Y-85881719D01*
X109125545Y-85881714D01*
X108907493Y-85791394D01*
X108679510Y-85730306D01*
X108445520Y-85699501D01*
X108445517Y-85699500D01*
X108445511Y-85699500D01*
X108209489Y-85699500D01*
X108209483Y-85699500D01*
X108209479Y-85699501D01*
X107975489Y-85730306D01*
X107747506Y-85791394D01*
X107529454Y-85881714D01*
X107529443Y-85881719D01*
X107325045Y-85999730D01*
X107137802Y-86143406D01*
X107137795Y-86143412D01*
X106970912Y-86310295D01*
X106970906Y-86310302D01*
X106827230Y-86497545D01*
X106709219Y-86701943D01*
X106709214Y-86701954D01*
X106618894Y-86920006D01*
X106557806Y-87147989D01*
X106527001Y-87381979D01*
X106527000Y-87381995D01*
X103000500Y-87381995D01*
X103000500Y-82382014D01*
X106527500Y-82382014D01*
X106527500Y-82617985D01*
X106558299Y-82851914D01*
X106619370Y-83079837D01*
X106709660Y-83297819D01*
X106709665Y-83297828D01*
X106827644Y-83502171D01*
X106827645Y-83502172D01*
X106890221Y-83583723D01*
X107726458Y-82747487D01*
X107751478Y-82807890D01*
X107822612Y-82914351D01*
X107913149Y-83004888D01*
X108019610Y-83076022D01*
X108080011Y-83101041D01*
X107243775Y-83937277D01*
X107325327Y-83999854D01*
X107325328Y-83999855D01*
X107529671Y-84117834D01*
X107529680Y-84117839D01*
X107747663Y-84208129D01*
X107747661Y-84208129D01*
X107975585Y-84269200D01*
X108209514Y-84299999D01*
X108209529Y-84300000D01*
X108445471Y-84300000D01*
X108445485Y-84299999D01*
X108679414Y-84269200D01*
X108907337Y-84208129D01*
X109125319Y-84117839D01*
X109125328Y-84117834D01*
X109329681Y-83999850D01*
X109411223Y-83937279D01*
X109411223Y-83937276D01*
X108574987Y-83101041D01*
X108635390Y-83076022D01*
X108741851Y-83004888D01*
X108832388Y-82914351D01*
X108903522Y-82807890D01*
X108928541Y-82747487D01*
X109764776Y-83583723D01*
X109764779Y-83583723D01*
X109827350Y-83502181D01*
X109945334Y-83297828D01*
X109945339Y-83297819D01*
X110035629Y-83079837D01*
X110096700Y-82851914D01*
X110127499Y-82617985D01*
X110127500Y-82617971D01*
X110127500Y-82382028D01*
X110127499Y-82382014D01*
X110096700Y-82148085D01*
X110035629Y-81920162D01*
X109945339Y-81702180D01*
X109945334Y-81702171D01*
X109827355Y-81497828D01*
X109827354Y-81497827D01*
X109764777Y-81416275D01*
X108928541Y-82252511D01*
X108903522Y-82192110D01*
X108832388Y-82085649D01*
X108741851Y-81995112D01*
X108635390Y-81923978D01*
X108574988Y-81898958D01*
X109411223Y-81062721D01*
X109329672Y-81000145D01*
X109329671Y-81000144D01*
X109125328Y-80882165D01*
X109125319Y-80882160D01*
X108907336Y-80791870D01*
X108907338Y-80791870D01*
X108679414Y-80730799D01*
X108445485Y-80700000D01*
X108209514Y-80700000D01*
X107975585Y-80730799D01*
X107747662Y-80791870D01*
X107529680Y-80882160D01*
X107529671Y-80882165D01*
X107325328Y-81000144D01*
X107325318Y-81000150D01*
X107243775Y-81062720D01*
X107243775Y-81062721D01*
X108080012Y-81898958D01*
X108019610Y-81923978D01*
X107913149Y-81995112D01*
X107822612Y-82085649D01*
X107751478Y-82192110D01*
X107726458Y-82252512D01*
X106890221Y-81416275D01*
X106890220Y-81416275D01*
X106827650Y-81497818D01*
X106827644Y-81497828D01*
X106709665Y-81702171D01*
X106709660Y-81702180D01*
X106619370Y-81920162D01*
X106558299Y-82148085D01*
X106527500Y-82382014D01*
X103000500Y-82382014D01*
X103000500Y-76399983D01*
X106527000Y-76399983D01*
X106527000Y-78600001D01*
X106527001Y-78600018D01*
X106537500Y-78702796D01*
X106537501Y-78702799D01*
X106552723Y-78748735D01*
X106592686Y-78869334D01*
X106684788Y-79018656D01*
X106808844Y-79142712D01*
X106958166Y-79234814D01*
X107124703Y-79289999D01*
X107227491Y-79300500D01*
X109427508Y-79300499D01*
X109431444Y-79300097D01*
X109445395Y-79298671D01*
X109530297Y-79289999D01*
X109696834Y-79234814D01*
X109846156Y-79142712D01*
X109970212Y-79018656D01*
X110062314Y-78869334D01*
X110117499Y-78702797D01*
X110128000Y-78600009D01*
X110127999Y-76399992D01*
X110117499Y-76297203D01*
X110062314Y-76130666D01*
X109970212Y-75981344D01*
X109846156Y-75857288D01*
X109698981Y-75766510D01*
X109696836Y-75765187D01*
X109696831Y-75765185D01*
X109664266Y-75754394D01*
X109530297Y-75710001D01*
X109530295Y-75710000D01*
X109427510Y-75699500D01*
X107227498Y-75699500D01*
X107227481Y-75699501D01*
X107124703Y-75710000D01*
X107124700Y-75710001D01*
X106958168Y-75765185D01*
X106958163Y-75765187D01*
X106808842Y-75857289D01*
X106684789Y-75981342D01*
X106592687Y-76130663D01*
X106592685Y-76130668D01*
X106584823Y-76154394D01*
X106537501Y-76297203D01*
X106537501Y-76297204D01*
X106537500Y-76297204D01*
X106527000Y-76399983D01*
X103000500Y-76399983D01*
X103000500Y-74102135D01*
X114899500Y-74102135D01*
X114899500Y-75897870D01*
X114899501Y-75897876D01*
X114905908Y-75957483D01*
X114956202Y-76092328D01*
X114956206Y-76092335D01*
X115042452Y-76207544D01*
X115042455Y-76207547D01*
X115157664Y-76293793D01*
X115157671Y-76293797D01*
X115292517Y-76344091D01*
X115292516Y-76344091D01*
X115299444Y-76344835D01*
X115352127Y-76350500D01*
X117147872Y-76350499D01*
X117207483Y-76344091D01*
X117342331Y-76293796D01*
X117457546Y-76207546D01*
X117543796Y-76092331D01*
X117594091Y-75957483D01*
X117600500Y-75897873D01*
X117600499Y-74102128D01*
X117594091Y-74042517D01*
X117582070Y-74010288D01*
X117543797Y-73907671D01*
X117543793Y-73907664D01*
X117457547Y-73792455D01*
X117457544Y-73792452D01*
X117342335Y-73706206D01*
X117342328Y-73706202D01*
X117207482Y-73655908D01*
X117207483Y-73655908D01*
X117147883Y-73649501D01*
X117147881Y-73649500D01*
X117147873Y-73649500D01*
X117147864Y-73649500D01*
X115352129Y-73649500D01*
X115352123Y-73649501D01*
X115292516Y-73655908D01*
X115157671Y-73706202D01*
X115157664Y-73706206D01*
X115042455Y-73792452D01*
X115042452Y-73792455D01*
X114956206Y-73907664D01*
X114956202Y-73907671D01*
X114905908Y-74042517D01*
X114899501Y-74102116D01*
X114899501Y-74102123D01*
X114899500Y-74102135D01*
X103000500Y-74102135D01*
X103000500Y-73421153D01*
X120949500Y-73421153D01*
X120949500Y-73578846D01*
X120980261Y-73733489D01*
X120980264Y-73733501D01*
X121040602Y-73879172D01*
X121040609Y-73879185D01*
X121128210Y-74010288D01*
X121128213Y-74010292D01*
X121239707Y-74121786D01*
X121239711Y-74121789D01*
X121370814Y-74209390D01*
X121370827Y-74209397D01*
X121516498Y-74269735D01*
X121516503Y-74269737D01*
X121581147Y-74282595D01*
X121671849Y-74300638D01*
X121733760Y-74333023D01*
X121735339Y-74334574D01*
X123416139Y-76015374D01*
X123416149Y-76015385D01*
X123420479Y-76019715D01*
X123420480Y-76019716D01*
X123532284Y-76131520D01*
X123532286Y-76131521D01*
X123532290Y-76131524D01*
X123560809Y-76147989D01*
X123669216Y-76210577D01*
X123754755Y-76233497D01*
X123821942Y-76251500D01*
X123821943Y-76251500D01*
X132100903Y-76251500D01*
X132167942Y-76271185D01*
X132188584Y-76287819D01*
X132838584Y-76937819D01*
X132872069Y-76999142D01*
X132867085Y-77068834D01*
X132825213Y-77124767D01*
X132759749Y-77149184D01*
X132750903Y-77149500D01*
X132420940Y-77149500D01*
X132380019Y-77160464D01*
X132380019Y-77160465D01*
X132342751Y-77170451D01*
X132268214Y-77190423D01*
X132268209Y-77190426D01*
X132131290Y-77269475D01*
X132131282Y-77269481D01*
X131769481Y-77631282D01*
X131769480Y-77631284D01*
X131735752Y-77689704D01*
X131719361Y-77718094D01*
X131719359Y-77718096D01*
X131690425Y-77768209D01*
X131690424Y-77768210D01*
X131690084Y-77769480D01*
X131649499Y-77920943D01*
X131649499Y-77920945D01*
X131649499Y-78089046D01*
X131649500Y-78089059D01*
X131649500Y-87170234D01*
X131629815Y-87237273D01*
X131628602Y-87239125D01*
X131540609Y-87370814D01*
X131540602Y-87370827D01*
X131480264Y-87516498D01*
X131480261Y-87516510D01*
X131449500Y-87671153D01*
X131449500Y-87828846D01*
X131480261Y-87983489D01*
X131480264Y-87983501D01*
X131540602Y-88129172D01*
X131540609Y-88129185D01*
X131628210Y-88260288D01*
X131628213Y-88260292D01*
X131739707Y-88371786D01*
X131739711Y-88371789D01*
X131870814Y-88459390D01*
X131870827Y-88459397D01*
X132016498Y-88519735D01*
X132016503Y-88519737D01*
X132171153Y-88550499D01*
X132171156Y-88550500D01*
X132171158Y-88550500D01*
X132328844Y-88550500D01*
X132328845Y-88550499D01*
X132483497Y-88519737D01*
X132629179Y-88459394D01*
X132760289Y-88371789D01*
X132871789Y-88260289D01*
X132907926Y-88206206D01*
X132922398Y-88184548D01*
X132948419Y-88162800D01*
X132973989Y-88140645D01*
X132975126Y-88140481D01*
X132976010Y-88139743D01*
X133009622Y-88135521D01*
X133043147Y-88130701D01*
X133044194Y-88131179D01*
X133045335Y-88131036D01*
X133075890Y-88145654D01*
X133106703Y-88159726D01*
X133107324Y-88160693D01*
X133108363Y-88161190D01*
X133126169Y-88190016D01*
X133144477Y-88218504D01*
X133144692Y-88220003D01*
X133145082Y-88220634D01*
X133149500Y-88253439D01*
X133149500Y-88465330D01*
X133149499Y-88465348D01*
X133149499Y-88631054D01*
X133149498Y-88631054D01*
X133190423Y-88783785D01*
X133219358Y-88833900D01*
X133219359Y-88833904D01*
X133219360Y-88833904D01*
X133269479Y-88920714D01*
X133269481Y-88920717D01*
X133388349Y-89039585D01*
X133388355Y-89039590D01*
X140269478Y-95920713D01*
X140269480Y-95920716D01*
X140381284Y-96032520D01*
X140381286Y-96032521D01*
X140963139Y-96614374D01*
X140963149Y-96614385D01*
X140967479Y-96618715D01*
X140967480Y-96618716D01*
X141079284Y-96730520D01*
X141079286Y-96730521D01*
X141119439Y-96753703D01*
X141119438Y-96753703D01*
X141119441Y-96753704D01*
X141216209Y-96809574D01*
X141216210Y-96809574D01*
X141216215Y-96809577D01*
X141368943Y-96850500D01*
X155500903Y-96850500D01*
X155522148Y-96856738D01*
X155544237Y-96858318D01*
X155555020Y-96866390D01*
X155567942Y-96870185D01*
X155582441Y-96886918D01*
X155600170Y-96900190D01*
X155604877Y-96912810D01*
X155613697Y-96922989D01*
X155616848Y-96944906D01*
X155624587Y-96965654D01*
X155621724Y-96978814D01*
X155623641Y-96992147D01*
X155614441Y-97012290D01*
X155609735Y-97033927D01*
X155596466Y-97051652D01*
X155594616Y-97055703D01*
X155588584Y-97062181D01*
X155537584Y-97113181D01*
X155476261Y-97146666D01*
X155449903Y-97149500D01*
X133829766Y-97149500D01*
X133762727Y-97129815D01*
X133760875Y-97128602D01*
X133629185Y-97040609D01*
X133629172Y-97040602D01*
X133483501Y-96980264D01*
X133483489Y-96980261D01*
X133328845Y-96949500D01*
X133328842Y-96949500D01*
X133171158Y-96949500D01*
X133171155Y-96949500D01*
X133016510Y-96980261D01*
X133016498Y-96980264D01*
X132870827Y-97040602D01*
X132870814Y-97040609D01*
X132739711Y-97128210D01*
X132739707Y-97128213D01*
X132628213Y-97239707D01*
X132628210Y-97239711D01*
X132540609Y-97370814D01*
X132540602Y-97370827D01*
X132480264Y-97516498D01*
X132480261Y-97516510D01*
X132449500Y-97671153D01*
X132449500Y-97828846D01*
X132480261Y-97983489D01*
X132480264Y-97983501D01*
X132540602Y-98129172D01*
X132540609Y-98129185D01*
X132628210Y-98260288D01*
X132628213Y-98260292D01*
X132739707Y-98371786D01*
X132739711Y-98371789D01*
X132870814Y-98459390D01*
X132870827Y-98459397D01*
X133016498Y-98519735D01*
X133016503Y-98519737D01*
X133171153Y-98550499D01*
X133171156Y-98550500D01*
X133171158Y-98550500D01*
X133328844Y-98550500D01*
X133328845Y-98550499D01*
X133483497Y-98519737D01*
X133629179Y-98459394D01*
X133629185Y-98459390D01*
X133760875Y-98371398D01*
X133827553Y-98350520D01*
X133829766Y-98350500D01*
X155663331Y-98350500D01*
X155663347Y-98350501D01*
X155670943Y-98350501D01*
X155829054Y-98350501D01*
X155829057Y-98350501D01*
X155981785Y-98309577D01*
X156031904Y-98280639D01*
X156118716Y-98230520D01*
X156230520Y-98118716D01*
X156230520Y-98118714D01*
X156240728Y-98108507D01*
X156240729Y-98108504D01*
X159484048Y-94865186D01*
X162599500Y-94865186D01*
X162599500Y-95134813D01*
X162629686Y-95402719D01*
X162629688Y-95402731D01*
X162689684Y-95665594D01*
X162689687Y-95665602D01*
X162778734Y-95920082D01*
X162895714Y-96162994D01*
X162895716Y-96162997D01*
X163039162Y-96391289D01*
X163207266Y-96602085D01*
X163397915Y-96792734D01*
X163608711Y-96960838D01*
X163837003Y-97104284D01*
X164079921Y-97221267D01*
X164271049Y-97288145D01*
X164334397Y-97310312D01*
X164334405Y-97310315D01*
X164334408Y-97310315D01*
X164334409Y-97310316D01*
X164597268Y-97370312D01*
X164865187Y-97400499D01*
X164865188Y-97400500D01*
X164865191Y-97400500D01*
X165134812Y-97400500D01*
X165134812Y-97400499D01*
X165402732Y-97370312D01*
X165665591Y-97310316D01*
X165920079Y-97221267D01*
X166162997Y-97104284D01*
X166391289Y-96960838D01*
X166602085Y-96792734D01*
X166792734Y-96602085D01*
X166960838Y-96391289D01*
X167104284Y-96162997D01*
X167221267Y-95920079D01*
X167310316Y-95665591D01*
X167370312Y-95402732D01*
X167400500Y-95134809D01*
X167400500Y-94865191D01*
X167370312Y-94597268D01*
X167310316Y-94334409D01*
X167221267Y-94079921D01*
X167120147Y-93869942D01*
X167104285Y-93837005D01*
X167082857Y-93802903D01*
X166960838Y-93608711D01*
X166792734Y-93397915D01*
X166602085Y-93207266D01*
X166391289Y-93039162D01*
X166162997Y-92895716D01*
X166162994Y-92895714D01*
X165920082Y-92778734D01*
X165665602Y-92689687D01*
X165665594Y-92689684D01*
X165468446Y-92644687D01*
X165402732Y-92629688D01*
X165402728Y-92629687D01*
X165402719Y-92629686D01*
X165134813Y-92599500D01*
X165134809Y-92599500D01*
X164865191Y-92599500D01*
X164865186Y-92599500D01*
X164597280Y-92629686D01*
X164597268Y-92629688D01*
X164334405Y-92689684D01*
X164334397Y-92689687D01*
X164079917Y-92778734D01*
X163837005Y-92895714D01*
X163608712Y-93039161D01*
X163397915Y-93207265D01*
X163207265Y-93397915D01*
X163039161Y-93608712D01*
X162895714Y-93837005D01*
X162778734Y-94079917D01*
X162689687Y-94334397D01*
X162689684Y-94334405D01*
X162629688Y-94597268D01*
X162629686Y-94597280D01*
X162599500Y-94865186D01*
X159484048Y-94865186D01*
X162980520Y-91368716D01*
X163059577Y-91231784D01*
X163100501Y-91079057D01*
X163100501Y-90920942D01*
X163100501Y-90913339D01*
X163100500Y-90913329D01*
X163100500Y-90089060D01*
X163100501Y-90089047D01*
X163100501Y-89920944D01*
X163100501Y-89920943D01*
X163059577Y-89768216D01*
X163059573Y-89768209D01*
X162980524Y-89631290D01*
X162980518Y-89631282D01*
X159084573Y-85735337D01*
X159051088Y-85674014D01*
X159050637Y-85671847D01*
X159042148Y-85629172D01*
X159019737Y-85516503D01*
X158975509Y-85409726D01*
X158971474Y-85399983D01*
X163372000Y-85399983D01*
X163372000Y-87600001D01*
X163372001Y-87600018D01*
X163382500Y-87702796D01*
X163382501Y-87702799D01*
X163431945Y-87852010D01*
X163437686Y-87869334D01*
X163529788Y-88018656D01*
X163653844Y-88142712D01*
X163803166Y-88234814D01*
X163969703Y-88289999D01*
X164072491Y-88300500D01*
X166272508Y-88300499D01*
X166375297Y-88289999D01*
X166541834Y-88234814D01*
X166691156Y-88142712D01*
X166815212Y-88018656D01*
X166907314Y-87869334D01*
X166962499Y-87702797D01*
X166973000Y-87600009D01*
X166972999Y-85399992D01*
X166971028Y-85380701D01*
X166962499Y-85297203D01*
X166962498Y-85297200D01*
X166953757Y-85270821D01*
X166907314Y-85130666D01*
X166815212Y-84981344D01*
X166691156Y-84857288D01*
X166598388Y-84800069D01*
X166541836Y-84765187D01*
X166541831Y-84765185D01*
X166540362Y-84764698D01*
X166375297Y-84710001D01*
X166375295Y-84710000D01*
X166272510Y-84699500D01*
X164072498Y-84699500D01*
X164072481Y-84699501D01*
X163969703Y-84710000D01*
X163969700Y-84710001D01*
X163803168Y-84765185D01*
X163803163Y-84765187D01*
X163653842Y-84857289D01*
X163529789Y-84981342D01*
X163437687Y-85130663D01*
X163437685Y-85130668D01*
X163424270Y-85171153D01*
X163382501Y-85297203D01*
X163382501Y-85297204D01*
X163382500Y-85297204D01*
X163372000Y-85399983D01*
X158971474Y-85399983D01*
X158959397Y-85370826D01*
X158959390Y-85370814D01*
X158871789Y-85239711D01*
X158871786Y-85239707D01*
X158760292Y-85128213D01*
X158760288Y-85128210D01*
X158629185Y-85040609D01*
X158629172Y-85040602D01*
X158483501Y-84980264D01*
X158483489Y-84980261D01*
X158328845Y-84949500D01*
X158328842Y-84949500D01*
X158171158Y-84949500D01*
X158171155Y-84949500D01*
X158016510Y-84980261D01*
X158016498Y-84980264D01*
X157870827Y-85040602D01*
X157870814Y-85040609D01*
X157739711Y-85128210D01*
X157739707Y-85128213D01*
X157628213Y-85239707D01*
X157628210Y-85239711D01*
X157540609Y-85370814D01*
X157540602Y-85370827D01*
X157480264Y-85516498D01*
X157480261Y-85516510D01*
X157449500Y-85671153D01*
X157449500Y-85828846D01*
X157480261Y-85983489D01*
X157480264Y-85983501D01*
X157540602Y-86129172D01*
X157540609Y-86129185D01*
X157628210Y-86260288D01*
X157628213Y-86260292D01*
X157739707Y-86371786D01*
X157739711Y-86371789D01*
X157870814Y-86459390D01*
X157870827Y-86459397D01*
X157944013Y-86489711D01*
X158016503Y-86519737D01*
X158081147Y-86532595D01*
X158171849Y-86550638D01*
X158233760Y-86583023D01*
X158235339Y-86584574D01*
X161863181Y-90212416D01*
X161896666Y-90273739D01*
X161899500Y-90300097D01*
X161899500Y-90699902D01*
X161879815Y-90766941D01*
X161863181Y-90787583D01*
X161062181Y-91588583D01*
X161042744Y-91599195D01*
X161026011Y-91613696D01*
X161012679Y-91615612D01*
X161000858Y-91622068D01*
X160978771Y-91620488D01*
X160956853Y-91623640D01*
X160944601Y-91618044D01*
X160931166Y-91617084D01*
X160913439Y-91603813D01*
X160893297Y-91594615D01*
X160886014Y-91583283D01*
X160875233Y-91575212D01*
X160867495Y-91554466D01*
X160855523Y-91535837D01*
X160852371Y-91513918D01*
X160850816Y-91509748D01*
X160850500Y-91500902D01*
X160850500Y-91329765D01*
X160870185Y-91262726D01*
X160871398Y-91260874D01*
X160875137Y-91255279D01*
X160959394Y-91129179D01*
X161019737Y-90983497D01*
X161050500Y-90828842D01*
X161050500Y-90671158D01*
X161050500Y-90671155D01*
X161050499Y-90671153D01*
X161034820Y-90592331D01*
X161019737Y-90516503D01*
X161019735Y-90516498D01*
X160959397Y-90370827D01*
X160959390Y-90370814D01*
X160871789Y-90239711D01*
X160871786Y-90239707D01*
X160760292Y-90128213D01*
X160760288Y-90128210D01*
X160629185Y-90040609D01*
X160629172Y-90040602D01*
X160483501Y-89980264D01*
X160483489Y-89980261D01*
X160328845Y-89949500D01*
X160328842Y-89949500D01*
X160171158Y-89949500D01*
X160171155Y-89949500D01*
X160016510Y-89980261D01*
X160016498Y-89980264D01*
X159870827Y-90040602D01*
X159870814Y-90040609D01*
X159739711Y-90128210D01*
X159739707Y-90128213D01*
X159628213Y-90239707D01*
X159628210Y-90239711D01*
X159540609Y-90370814D01*
X159540602Y-90370827D01*
X159480264Y-90516498D01*
X159480261Y-90516510D01*
X159449500Y-90671153D01*
X159449500Y-90828846D01*
X159480261Y-90983489D01*
X159480264Y-90983501D01*
X159540602Y-91129172D01*
X159540609Y-91129185D01*
X159628602Y-91260874D01*
X159649480Y-91327551D01*
X159649500Y-91329765D01*
X159649500Y-91699902D01*
X159629815Y-91766941D01*
X159613181Y-91787583D01*
X155787584Y-95613181D01*
X155726261Y-95646666D01*
X155699903Y-95649500D01*
X141748097Y-95649500D01*
X141681058Y-95629815D01*
X141660416Y-95613181D01*
X141386819Y-95339584D01*
X141353334Y-95278261D01*
X141350500Y-95251903D01*
X141350500Y-86921153D01*
X148199500Y-86921153D01*
X148199500Y-87078846D01*
X148230261Y-87233489D01*
X148230264Y-87233501D01*
X148290602Y-87379172D01*
X148290609Y-87379185D01*
X148378602Y-87510874D01*
X148399480Y-87577551D01*
X148399500Y-87579765D01*
X148399500Y-90913330D01*
X148399499Y-90913348D01*
X148399499Y-91079054D01*
X148399498Y-91079054D01*
X148399499Y-91079057D01*
X148440423Y-91231785D01*
X148440424Y-91231787D01*
X148440423Y-91231787D01*
X148453986Y-91255277D01*
X148453987Y-91255279D01*
X148519475Y-91368709D01*
X148519481Y-91368717D01*
X148638349Y-91487585D01*
X148638355Y-91487590D01*
X149665425Y-92514660D01*
X149698910Y-92575983D01*
X149699361Y-92578149D01*
X149730261Y-92733491D01*
X149730264Y-92733501D01*
X149790602Y-92879172D01*
X149790609Y-92879185D01*
X149878210Y-93010288D01*
X149878213Y-93010292D01*
X149989707Y-93121786D01*
X149989711Y-93121789D01*
X150120814Y-93209390D01*
X150120827Y-93209397D01*
X150266498Y-93269735D01*
X150266503Y-93269737D01*
X150421153Y-93300499D01*
X150421156Y-93300500D01*
X150421158Y-93300500D01*
X150578844Y-93300500D01*
X150578845Y-93300499D01*
X150733497Y-93269737D01*
X150879179Y-93209394D01*
X151010289Y-93121789D01*
X151121789Y-93010289D01*
X151209394Y-92879179D01*
X151269737Y-92733497D01*
X151300500Y-92578842D01*
X151300500Y-92421158D01*
X151300500Y-92421155D01*
X151300499Y-92421153D01*
X151284820Y-92342331D01*
X151269737Y-92266503D01*
X151256066Y-92233497D01*
X151219931Y-92146258D01*
X151209395Y-92120824D01*
X151209394Y-92120821D01*
X151209392Y-92120818D01*
X151209390Y-92120814D01*
X151196909Y-92102135D01*
X152149500Y-92102135D01*
X152149500Y-93897870D01*
X152149501Y-93897876D01*
X152155908Y-93957483D01*
X152206202Y-94092328D01*
X152206206Y-94092335D01*
X152292452Y-94207544D01*
X152292455Y-94207547D01*
X152407664Y-94293793D01*
X152407671Y-94293797D01*
X152542517Y-94344091D01*
X152542516Y-94344091D01*
X152549444Y-94344835D01*
X152602127Y-94350500D01*
X154397872Y-94350499D01*
X154457483Y-94344091D01*
X154592331Y-94293796D01*
X154707546Y-94207546D01*
X154793796Y-94092331D01*
X154844091Y-93957483D01*
X154850500Y-93897873D01*
X154850499Y-92102128D01*
X154844091Y-92042517D01*
X154793796Y-91907669D01*
X154793795Y-91907668D01*
X154793793Y-91907664D01*
X154707547Y-91792455D01*
X154707544Y-91792452D01*
X154592335Y-91706206D01*
X154592328Y-91706202D01*
X154457482Y-91655908D01*
X154457483Y-91655908D01*
X154397883Y-91649501D01*
X154397881Y-91649500D01*
X154397873Y-91649500D01*
X154397864Y-91649500D01*
X152602129Y-91649500D01*
X152602123Y-91649501D01*
X152542516Y-91655908D01*
X152407671Y-91706202D01*
X152407664Y-91706206D01*
X152292455Y-91792452D01*
X152292452Y-91792455D01*
X152206206Y-91907664D01*
X152206202Y-91907671D01*
X152155908Y-92042517D01*
X152152003Y-92078842D01*
X152149501Y-92102123D01*
X152149500Y-92102135D01*
X151196909Y-92102135D01*
X151121789Y-91989711D01*
X151121786Y-91989707D01*
X151010292Y-91878213D01*
X151010288Y-91878210D01*
X150879185Y-91790609D01*
X150879172Y-91790602D01*
X150733501Y-91730264D01*
X150733491Y-91730261D01*
X150578149Y-91699361D01*
X150516238Y-91666976D01*
X150514660Y-91665425D01*
X149636819Y-90787584D01*
X149603334Y-90726261D01*
X149600500Y-90699903D01*
X149600500Y-87579765D01*
X149620185Y-87512726D01*
X149621398Y-87510874D01*
X149709390Y-87379185D01*
X149709390Y-87379184D01*
X149709394Y-87379179D01*
X149712854Y-87370827D01*
X149748902Y-87283797D01*
X149769737Y-87233497D01*
X149800500Y-87078842D01*
X149800500Y-86921158D01*
X149800500Y-86921155D01*
X149800499Y-86921153D01*
X149793877Y-86887864D01*
X149769737Y-86766503D01*
X149742996Y-86701943D01*
X149709397Y-86620827D01*
X149709390Y-86620814D01*
X149621789Y-86489711D01*
X149621786Y-86489707D01*
X149510292Y-86378213D01*
X149510288Y-86378210D01*
X149379185Y-86290609D01*
X149379172Y-86290602D01*
X149233501Y-86230264D01*
X149233489Y-86230261D01*
X149078845Y-86199500D01*
X149078842Y-86199500D01*
X148921158Y-86199500D01*
X148921155Y-86199500D01*
X148766510Y-86230261D01*
X148766498Y-86230264D01*
X148620827Y-86290602D01*
X148620814Y-86290609D01*
X148489711Y-86378210D01*
X148489707Y-86378213D01*
X148378213Y-86489707D01*
X148378210Y-86489711D01*
X148290609Y-86620814D01*
X148290602Y-86620827D01*
X148230264Y-86766498D01*
X148230261Y-86766510D01*
X148199500Y-86921153D01*
X141350500Y-86921153D01*
X141350500Y-85763992D01*
X150704500Y-85763992D01*
X150704500Y-86416007D01*
X150743907Y-86614119D01*
X150743909Y-86614127D01*
X150821212Y-86800752D01*
X150821217Y-86800762D01*
X150933441Y-86968718D01*
X151076281Y-87111558D01*
X151244237Y-87223782D01*
X151244241Y-87223784D01*
X151244244Y-87223786D01*
X151430873Y-87301091D01*
X151596777Y-87334091D01*
X151628992Y-87340499D01*
X151628996Y-87340500D01*
X151628997Y-87340500D01*
X151831004Y-87340500D01*
X151831005Y-87340499D01*
X152029127Y-87301091D01*
X152215756Y-87223786D01*
X152296110Y-87170094D01*
X152362786Y-87149217D01*
X152430166Y-87167701D01*
X152433865Y-87170078D01*
X152514244Y-87223786D01*
X152700873Y-87301091D01*
X152866777Y-87334091D01*
X152898992Y-87340499D01*
X152898996Y-87340500D01*
X152898997Y-87340500D01*
X153101004Y-87340500D01*
X153101005Y-87340499D01*
X153299127Y-87301091D01*
X153379798Y-87267674D01*
X153449267Y-87260205D01*
X153494658Y-87279962D01*
X153494886Y-87279546D01*
X153499540Y-87282087D01*
X153501562Y-87282967D01*
X153502669Y-87283796D01*
X153502670Y-87283796D01*
X153502671Y-87283797D01*
X153637517Y-87334091D01*
X153637516Y-87334091D01*
X153644444Y-87334835D01*
X153697127Y-87340500D01*
X154842872Y-87340499D01*
X154902483Y-87334091D01*
X155037331Y-87283796D01*
X155152546Y-87197546D01*
X155238796Y-87082331D01*
X155289091Y-86947483D01*
X155295500Y-86887873D01*
X155295499Y-85292128D01*
X155289091Y-85232517D01*
X155281170Y-85211281D01*
X155238797Y-85097671D01*
X155238793Y-85097664D01*
X155152547Y-84982455D01*
X155152544Y-84982452D01*
X155037335Y-84896206D01*
X155037328Y-84896202D01*
X154902482Y-84845908D01*
X154902483Y-84845908D01*
X154842883Y-84839501D01*
X154842881Y-84839500D01*
X154842873Y-84839500D01*
X154842864Y-84839500D01*
X153697129Y-84839500D01*
X153697123Y-84839501D01*
X153637516Y-84845908D01*
X153502672Y-84896202D01*
X153502665Y-84896206D01*
X153501556Y-84897037D01*
X153500258Y-84897520D01*
X153494887Y-84900454D01*
X153494465Y-84899681D01*
X153436090Y-84921449D01*
X153379800Y-84912325D01*
X153299127Y-84878909D01*
X153299119Y-84878907D01*
X153101007Y-84839500D01*
X153101003Y-84839500D01*
X152898997Y-84839500D01*
X152898992Y-84839500D01*
X152700880Y-84878907D01*
X152700872Y-84878909D01*
X152514244Y-84956213D01*
X152433891Y-85009904D01*
X152367213Y-85030782D01*
X152299833Y-85012297D01*
X152296109Y-85009904D01*
X152215755Y-84956213D01*
X152029127Y-84878909D01*
X152029119Y-84878907D01*
X151831007Y-84839500D01*
X151831003Y-84839500D01*
X151628997Y-84839500D01*
X151628992Y-84839500D01*
X151430880Y-84878907D01*
X151430872Y-84878909D01*
X151244247Y-84956212D01*
X151244237Y-84956217D01*
X151076281Y-85068441D01*
X150933441Y-85211281D01*
X150821217Y-85379237D01*
X150821212Y-85379247D01*
X150743909Y-85565872D01*
X150743907Y-85565880D01*
X150704500Y-85763992D01*
X141350500Y-85763992D01*
X141350500Y-81381995D01*
X163372000Y-81381995D01*
X163372000Y-81618004D01*
X163372001Y-81618020D01*
X163402541Y-81850000D01*
X163402807Y-81852014D01*
X163421067Y-81920162D01*
X163463894Y-82079993D01*
X163554214Y-82298045D01*
X163554219Y-82298056D01*
X163602693Y-82382014D01*
X163672227Y-82502450D01*
X163672229Y-82502453D01*
X163672230Y-82502454D01*
X163815906Y-82689697D01*
X163815912Y-82689704D01*
X163982795Y-82856587D01*
X163982801Y-82856592D01*
X164170050Y-83000273D01*
X164301251Y-83076022D01*
X164374443Y-83118280D01*
X164374448Y-83118282D01*
X164374451Y-83118284D01*
X164592507Y-83208606D01*
X164820486Y-83269693D01*
X165054489Y-83300500D01*
X165054496Y-83300500D01*
X165290504Y-83300500D01*
X165290511Y-83300500D01*
X165524514Y-83269693D01*
X165752493Y-83208606D01*
X165970549Y-83118284D01*
X166174950Y-83000273D01*
X166362199Y-82856592D01*
X166529092Y-82689699D01*
X166672773Y-82502450D01*
X166790784Y-82298049D01*
X166881106Y-82079993D01*
X166942193Y-81852014D01*
X166973000Y-81618011D01*
X166973000Y-81381989D01*
X166942193Y-81147986D01*
X166881106Y-80920007D01*
X166790784Y-80701951D01*
X166790782Y-80701948D01*
X166790780Y-80701943D01*
X166748618Y-80628918D01*
X166672773Y-80497550D01*
X166529092Y-80310301D01*
X166529087Y-80310295D01*
X166362204Y-80143412D01*
X166362197Y-80143406D01*
X166174954Y-79999730D01*
X166174953Y-79999729D01*
X166174950Y-79999727D01*
X166093457Y-79952677D01*
X165970556Y-79881719D01*
X165970545Y-79881714D01*
X165752493Y-79791394D01*
X165524510Y-79730306D01*
X165290520Y-79699501D01*
X165290517Y-79699500D01*
X165290511Y-79699500D01*
X165054489Y-79699500D01*
X165054483Y-79699500D01*
X165054479Y-79699501D01*
X164820489Y-79730306D01*
X164592506Y-79791394D01*
X164374454Y-79881714D01*
X164374443Y-79881719D01*
X164170045Y-79999730D01*
X163982802Y-80143406D01*
X163982795Y-80143412D01*
X163815912Y-80310295D01*
X163815906Y-80310302D01*
X163672230Y-80497545D01*
X163554219Y-80701943D01*
X163554214Y-80701954D01*
X163463894Y-80920006D01*
X163402806Y-81147989D01*
X163372001Y-81381979D01*
X163372000Y-81381995D01*
X141350500Y-81381995D01*
X141350500Y-74670945D01*
X141350500Y-74670943D01*
X141309577Y-74518216D01*
X141309573Y-74518209D01*
X141230524Y-74381290D01*
X141230521Y-74381286D01*
X141230520Y-74381284D01*
X141118716Y-74269480D01*
X141118715Y-74269479D01*
X141114385Y-74265149D01*
X141114374Y-74265139D01*
X133020388Y-66171153D01*
X144699500Y-66171153D01*
X144699500Y-66328846D01*
X144730261Y-66483489D01*
X144730264Y-66483501D01*
X144790602Y-66629172D01*
X144790609Y-66629185D01*
X144878210Y-66760288D01*
X144878213Y-66760292D01*
X144989707Y-66871786D01*
X144989711Y-66871789D01*
X145120814Y-66959390D01*
X145120827Y-66959397D01*
X145266498Y-67019735D01*
X145266503Y-67019737D01*
X145331147Y-67032595D01*
X145421849Y-67050638D01*
X145483760Y-67083023D01*
X145485339Y-67084574D01*
X146363181Y-67962416D01*
X146396666Y-68023739D01*
X146399500Y-68050097D01*
X146399500Y-75420234D01*
X146379815Y-75487273D01*
X146378602Y-75489125D01*
X146290609Y-75620814D01*
X146290602Y-75620827D01*
X146230264Y-75766498D01*
X146230261Y-75766510D01*
X146199500Y-75921153D01*
X146199500Y-76078846D01*
X146230261Y-76233489D01*
X146230263Y-76233497D01*
X146290602Y-76379172D01*
X146290609Y-76379185D01*
X146378210Y-76510288D01*
X146378213Y-76510292D01*
X146489707Y-76621786D01*
X146489711Y-76621789D01*
X146620814Y-76709390D01*
X146620827Y-76709397D01*
X146766498Y-76769735D01*
X146766503Y-76769737D01*
X146921153Y-76800499D01*
X146921156Y-76800500D01*
X146921158Y-76800500D01*
X147078844Y-76800500D01*
X147078845Y-76800499D01*
X147233497Y-76769737D01*
X147379179Y-76709394D01*
X147510289Y-76621789D01*
X147621789Y-76510289D01*
X147662398Y-76449512D01*
X147716009Y-76404708D01*
X147785333Y-76395999D01*
X147848361Y-76426153D01*
X147885081Y-76485596D01*
X147889500Y-76518402D01*
X147889500Y-76600000D01*
X147889501Y-76600018D01*
X147900000Y-76702796D01*
X147900001Y-76702799D01*
X147955185Y-76869331D01*
X147955187Y-76869336D01*
X147990069Y-76925888D01*
X148047288Y-77018656D01*
X148171344Y-77142712D01*
X148320666Y-77234814D01*
X148487203Y-77289999D01*
X148589991Y-77300500D01*
X149790008Y-77300499D01*
X149892797Y-77289999D01*
X150059334Y-77234814D01*
X150208656Y-77142712D01*
X150332712Y-77018656D01*
X150424814Y-76869334D01*
X150479999Y-76702797D01*
X150490500Y-76600009D01*
X150490499Y-75897682D01*
X155510000Y-75897682D01*
X155510000Y-76102317D01*
X155542009Y-76304417D01*
X155605244Y-76499031D01*
X155698141Y-76681350D01*
X155698147Y-76681359D01*
X155730523Y-76725921D01*
X155730524Y-76725922D01*
X156410000Y-76046446D01*
X156410000Y-76052661D01*
X156437259Y-76154394D01*
X156489920Y-76245606D01*
X156564394Y-76320080D01*
X156655606Y-76372741D01*
X156757339Y-76400000D01*
X156763553Y-76400000D01*
X156084076Y-77079474D01*
X156128650Y-77111859D01*
X156310968Y-77204755D01*
X156505582Y-77267990D01*
X156707683Y-77300000D01*
X156912317Y-77300000D01*
X157114417Y-77267990D01*
X157309031Y-77204755D01*
X157491349Y-77111859D01*
X157535921Y-77079474D01*
X156856447Y-76400000D01*
X156862661Y-76400000D01*
X156964394Y-76372741D01*
X157055606Y-76320080D01*
X157130080Y-76245606D01*
X157182741Y-76154394D01*
X157210000Y-76052661D01*
X157210000Y-76046447D01*
X157889474Y-76725921D01*
X157921859Y-76681349D01*
X158014755Y-76499031D01*
X158052783Y-76381995D01*
X163372000Y-76381995D01*
X163372000Y-76618004D01*
X163372001Y-76618020D01*
X163394722Y-76790606D01*
X163402807Y-76852014D01*
X163433649Y-76967118D01*
X163463894Y-77079993D01*
X163554214Y-77298045D01*
X163554219Y-77298056D01*
X163602273Y-77381286D01*
X163672227Y-77502450D01*
X163672229Y-77502453D01*
X163672230Y-77502454D01*
X163815906Y-77689697D01*
X163815912Y-77689704D01*
X163982795Y-77856587D01*
X163982802Y-77856593D01*
X164066665Y-77920943D01*
X164170050Y-78000273D01*
X164301418Y-78076118D01*
X164374443Y-78118280D01*
X164374448Y-78118282D01*
X164374451Y-78118284D01*
X164592507Y-78208606D01*
X164820486Y-78269693D01*
X165054489Y-78300500D01*
X165054496Y-78300500D01*
X165290504Y-78300500D01*
X165290511Y-78300500D01*
X165524514Y-78269693D01*
X165752493Y-78208606D01*
X165970549Y-78118284D01*
X166174950Y-78000273D01*
X166362199Y-77856592D01*
X166529092Y-77689699D01*
X166672773Y-77502450D01*
X166789369Y-77300500D01*
X166790780Y-77298056D01*
X166790780Y-77298055D01*
X166790784Y-77298049D01*
X166881106Y-77079993D01*
X166942193Y-76852014D01*
X166973000Y-76618011D01*
X166973000Y-76381989D01*
X166942193Y-76147986D01*
X166881106Y-75920007D01*
X166790784Y-75701951D01*
X166790782Y-75701948D01*
X166790780Y-75701943D01*
X166743947Y-75620827D01*
X166672773Y-75497550D01*
X166597906Y-75399981D01*
X166529093Y-75310302D01*
X166529087Y-75310295D01*
X166362204Y-75143412D01*
X166362197Y-75143406D01*
X166174954Y-74999730D01*
X166174953Y-74999729D01*
X166174950Y-74999727D01*
X166093457Y-74952677D01*
X165970556Y-74881719D01*
X165970545Y-74881714D01*
X165752493Y-74791394D01*
X165524510Y-74730306D01*
X165290520Y-74699501D01*
X165290517Y-74699500D01*
X165290511Y-74699500D01*
X165054489Y-74699500D01*
X165054483Y-74699500D01*
X165054479Y-74699501D01*
X164820489Y-74730306D01*
X164592506Y-74791394D01*
X164374454Y-74881714D01*
X164374443Y-74881719D01*
X164170045Y-74999730D01*
X163982802Y-75143406D01*
X163982795Y-75143412D01*
X163815912Y-75310295D01*
X163815906Y-75310302D01*
X163672230Y-75497545D01*
X163554219Y-75701943D01*
X163554214Y-75701954D01*
X163463894Y-75920006D01*
X163402806Y-76147989D01*
X163372001Y-76381979D01*
X163372000Y-76381995D01*
X158052783Y-76381995D01*
X158066555Y-76339611D01*
X158066555Y-76339610D01*
X158077989Y-76304421D01*
X158077989Y-76304418D01*
X158110000Y-76102317D01*
X158110000Y-75897682D01*
X158077990Y-75695582D01*
X158014755Y-75500968D01*
X157921859Y-75318650D01*
X157889474Y-75274077D01*
X157889474Y-75274076D01*
X157210000Y-75953551D01*
X157210000Y-75947339D01*
X157182741Y-75845606D01*
X157130080Y-75754394D01*
X157055606Y-75679920D01*
X156964394Y-75627259D01*
X156862661Y-75600000D01*
X156856446Y-75600000D01*
X157535922Y-74920524D01*
X157535921Y-74920523D01*
X157491359Y-74888147D01*
X157491350Y-74888141D01*
X157309031Y-74795244D01*
X157114417Y-74732009D01*
X156912317Y-74700000D01*
X156707683Y-74700000D01*
X156505582Y-74732009D01*
X156310968Y-74795244D01*
X156128644Y-74888143D01*
X156084077Y-74920523D01*
X156084077Y-74920524D01*
X156763554Y-75600000D01*
X156757339Y-75600000D01*
X156655606Y-75627259D01*
X156564394Y-75679920D01*
X156489920Y-75754394D01*
X156437259Y-75845606D01*
X156410000Y-75947339D01*
X156410000Y-75953553D01*
X155730524Y-75274077D01*
X155730523Y-75274077D01*
X155698143Y-75318644D01*
X155605244Y-75500968D01*
X155542009Y-75695582D01*
X155510000Y-75897682D01*
X150490499Y-75897682D01*
X150490499Y-75399992D01*
X150481337Y-75310301D01*
X150479999Y-75297201D01*
X150479998Y-75297200D01*
X150438007Y-75170480D01*
X150424814Y-75130666D01*
X150332712Y-74981344D01*
X150208656Y-74857288D01*
X150059334Y-74765186D01*
X149892797Y-74710001D01*
X149892795Y-74710000D01*
X149790010Y-74699500D01*
X148589998Y-74699500D01*
X148589981Y-74699501D01*
X148487203Y-74710000D01*
X148487200Y-74710001D01*
X148320668Y-74765185D01*
X148320663Y-74765187D01*
X148171342Y-74857289D01*
X148047289Y-74981342D01*
X147955187Y-75130663D01*
X147955185Y-75130668D01*
X147900002Y-75297201D01*
X147900000Y-75297204D01*
X147889500Y-75399983D01*
X147889500Y-75481594D01*
X147879960Y-75514082D01*
X147870996Y-75546760D01*
X147870138Y-75547529D01*
X147869815Y-75548633D01*
X147844243Y-75570790D01*
X147819017Y-75593451D01*
X147817879Y-75593635D01*
X147817011Y-75594388D01*
X147783488Y-75599208D01*
X147750047Y-75604627D01*
X147748992Y-75604168D01*
X147747853Y-75604332D01*
X147717035Y-75590258D01*
X147685983Y-75576742D01*
X147684970Y-75575614D01*
X147684297Y-75575307D01*
X147662398Y-75550485D01*
X147621398Y-75489125D01*
X147600520Y-75422448D01*
X147600500Y-75420234D01*
X147600500Y-67670945D01*
X147600500Y-67670943D01*
X147559577Y-67518216D01*
X147543120Y-67489711D01*
X147480524Y-67381290D01*
X147480521Y-67381286D01*
X147480520Y-67381284D01*
X147368716Y-67269480D01*
X147368715Y-67269479D01*
X147364385Y-67265149D01*
X147364374Y-67265139D01*
X146981249Y-66882014D01*
X148700000Y-66882014D01*
X148700000Y-67117985D01*
X148730799Y-67351914D01*
X148791870Y-67579837D01*
X148882160Y-67797819D01*
X148882165Y-67797828D01*
X149000144Y-68002171D01*
X149000145Y-68002172D01*
X149062721Y-68083723D01*
X149898958Y-67247487D01*
X149923978Y-67307890D01*
X149995112Y-67414351D01*
X150085649Y-67504888D01*
X150192110Y-67576022D01*
X150252511Y-67601041D01*
X149416275Y-68437277D01*
X149497827Y-68499854D01*
X149497828Y-68499855D01*
X149702171Y-68617834D01*
X149702180Y-68617839D01*
X149920163Y-68708129D01*
X149920161Y-68708129D01*
X150148085Y-68769200D01*
X150382014Y-68799999D01*
X150382029Y-68800000D01*
X150617971Y-68800000D01*
X150617985Y-68799999D01*
X150851914Y-68769200D01*
X151079837Y-68708129D01*
X151297819Y-68617839D01*
X151297828Y-68617834D01*
X151502181Y-68499850D01*
X151583723Y-68437279D01*
X151583723Y-68437276D01*
X150747487Y-67601041D01*
X150807890Y-67576022D01*
X150914351Y-67504888D01*
X151004888Y-67414351D01*
X151076022Y-67307890D01*
X151101041Y-67247488D01*
X151937276Y-68083723D01*
X151937279Y-68083723D01*
X151999850Y-68002181D01*
X152117834Y-67797828D01*
X152117839Y-67797819D01*
X152208129Y-67579837D01*
X152269200Y-67351914D01*
X152299999Y-67117985D01*
X152300000Y-67117971D01*
X152300000Y-66882028D01*
X152299999Y-66882014D01*
X152269200Y-66648085D01*
X152208129Y-66420162D01*
X152117839Y-66202180D01*
X152117834Y-66202171D01*
X151999855Y-65997828D01*
X151999848Y-65997817D01*
X151980286Y-65972324D01*
X151980283Y-65972321D01*
X151937277Y-65916275D01*
X151101041Y-66752511D01*
X151076022Y-66692110D01*
X151004888Y-66585649D01*
X150914351Y-66495112D01*
X150807890Y-66423978D01*
X150747488Y-66398958D01*
X151246462Y-65899983D01*
X153699500Y-65899983D01*
X153699500Y-68100001D01*
X153699501Y-68100018D01*
X153710000Y-68202796D01*
X153710001Y-68202799D01*
X153765185Y-68369331D01*
X153765187Y-68369336D01*
X153778728Y-68391289D01*
X153857288Y-68518656D01*
X153981344Y-68642712D01*
X154130666Y-68734814D01*
X154297203Y-68789999D01*
X154399991Y-68800500D01*
X156600008Y-68800499D01*
X156702797Y-68789999D01*
X156869334Y-68734814D01*
X157018656Y-68642712D01*
X157142712Y-68518656D01*
X157234814Y-68369334D01*
X157289999Y-68202797D01*
X157300500Y-68100009D01*
X157300499Y-66865186D01*
X162599500Y-66865186D01*
X162599500Y-67134813D01*
X162629686Y-67402719D01*
X162629688Y-67402731D01*
X162689684Y-67665594D01*
X162689687Y-67665602D01*
X162778734Y-67920082D01*
X162895714Y-68162994D01*
X162895716Y-68162997D01*
X163039162Y-68391289D01*
X163207266Y-68602085D01*
X163397915Y-68792734D01*
X163608711Y-68960838D01*
X163837003Y-69104284D01*
X164079921Y-69221267D01*
X164271049Y-69288145D01*
X164334397Y-69310312D01*
X164334405Y-69310315D01*
X164334408Y-69310315D01*
X164334409Y-69310316D01*
X164597268Y-69370312D01*
X164865187Y-69400499D01*
X164865188Y-69400500D01*
X164865191Y-69400500D01*
X165134812Y-69400500D01*
X165134812Y-69400499D01*
X165402732Y-69370312D01*
X165665591Y-69310316D01*
X165920079Y-69221267D01*
X166162997Y-69104284D01*
X166391289Y-68960838D01*
X166602085Y-68792734D01*
X166792734Y-68602085D01*
X166960838Y-68391289D01*
X167104284Y-68162997D01*
X167221267Y-67920079D01*
X167310316Y-67665591D01*
X167370312Y-67402732D01*
X167400500Y-67134809D01*
X167400500Y-66865191D01*
X167370312Y-66597268D01*
X167310316Y-66334409D01*
X167308369Y-66328846D01*
X167275650Y-66235339D01*
X167221267Y-66079921D01*
X167124595Y-65879179D01*
X167104285Y-65837005D01*
X167104284Y-65837003D01*
X166960838Y-65608711D01*
X166792734Y-65397915D01*
X166602085Y-65207266D01*
X166391289Y-65039162D01*
X166162997Y-64895716D01*
X166162994Y-64895714D01*
X165920082Y-64778734D01*
X165665602Y-64689687D01*
X165665594Y-64689684D01*
X165468446Y-64644687D01*
X165402732Y-64629688D01*
X165402728Y-64629687D01*
X165402719Y-64629686D01*
X165134813Y-64599500D01*
X165134809Y-64599500D01*
X164865191Y-64599500D01*
X164865186Y-64599500D01*
X164597280Y-64629686D01*
X164597268Y-64629688D01*
X164334405Y-64689684D01*
X164334397Y-64689687D01*
X164079917Y-64778734D01*
X163837005Y-64895714D01*
X163608712Y-65039161D01*
X163397915Y-65207265D01*
X163207265Y-65397915D01*
X163039161Y-65608712D01*
X162895714Y-65837005D01*
X162778734Y-66079917D01*
X162689687Y-66334397D01*
X162689684Y-66334405D01*
X162629688Y-66597268D01*
X162629686Y-66597280D01*
X162599500Y-66865186D01*
X157300499Y-66865186D01*
X157300499Y-65899992D01*
X157297518Y-65870814D01*
X157289999Y-65797203D01*
X157289998Y-65797200D01*
X157270948Y-65739711D01*
X157234814Y-65630666D01*
X157142712Y-65481344D01*
X157018656Y-65357288D01*
X156871481Y-65266510D01*
X156869336Y-65265187D01*
X156869331Y-65265185D01*
X156867862Y-65264698D01*
X156702797Y-65210001D01*
X156702795Y-65210000D01*
X156600010Y-65199500D01*
X154399998Y-65199500D01*
X154399981Y-65199501D01*
X154297203Y-65210000D01*
X154297200Y-65210001D01*
X154130668Y-65265185D01*
X154130663Y-65265187D01*
X153981342Y-65357289D01*
X153857289Y-65481342D01*
X153765187Y-65630663D01*
X153765185Y-65630668D01*
X153760962Y-65643412D01*
X153710001Y-65797203D01*
X153710001Y-65797204D01*
X153710000Y-65797204D01*
X153699500Y-65899983D01*
X151246462Y-65899983D01*
X151583723Y-65562721D01*
X151502172Y-65500145D01*
X151502171Y-65500144D01*
X151297828Y-65382165D01*
X151297819Y-65382160D01*
X151079836Y-65291870D01*
X151079838Y-65291870D01*
X150851914Y-65230799D01*
X150617985Y-65200000D01*
X150382014Y-65200000D01*
X150148085Y-65230799D01*
X149920162Y-65291870D01*
X149702180Y-65382160D01*
X149702171Y-65382165D01*
X149497828Y-65500144D01*
X149497818Y-65500150D01*
X149416275Y-65562720D01*
X149416275Y-65562721D01*
X150252512Y-66398958D01*
X150192110Y-66423978D01*
X150085649Y-66495112D01*
X149995112Y-66585649D01*
X149923978Y-66692110D01*
X149898958Y-66752511D01*
X149062721Y-65916275D01*
X149062720Y-65916275D01*
X149000150Y-65997818D01*
X149000144Y-65997828D01*
X148882165Y-66202171D01*
X148882160Y-66202180D01*
X148791870Y-66420162D01*
X148730799Y-66648085D01*
X148700000Y-66882014D01*
X146981249Y-66882014D01*
X146334574Y-66235339D01*
X146301089Y-66174016D01*
X146300638Y-66171849D01*
X146269738Y-66016510D01*
X146269737Y-66016503D01*
X146262002Y-65997828D01*
X146209397Y-65870827D01*
X146209390Y-65870814D01*
X146121789Y-65739711D01*
X146121786Y-65739707D01*
X146010292Y-65628213D01*
X146010288Y-65628210D01*
X145879185Y-65540609D01*
X145879172Y-65540602D01*
X145733501Y-65480264D01*
X145733489Y-65480261D01*
X145578845Y-65449500D01*
X145578842Y-65449500D01*
X145421158Y-65449500D01*
X145421155Y-65449500D01*
X145266510Y-65480261D01*
X145266498Y-65480264D01*
X145120827Y-65540602D01*
X145120814Y-65540609D01*
X144989711Y-65628210D01*
X144989707Y-65628213D01*
X144878213Y-65739707D01*
X144878210Y-65739711D01*
X144790609Y-65870814D01*
X144790602Y-65870827D01*
X144730264Y-66016498D01*
X144730261Y-66016510D01*
X144699500Y-66171153D01*
X133020388Y-66171153D01*
X131987590Y-65138355D01*
X131987588Y-65138352D01*
X131868717Y-65019481D01*
X131868716Y-65019480D01*
X131761910Y-64957816D01*
X131761909Y-64957815D01*
X131731783Y-64940422D01*
X131675881Y-64925443D01*
X131579057Y-64899499D01*
X131420943Y-64899499D01*
X131413347Y-64899499D01*
X131413331Y-64899500D01*
X130829766Y-64899500D01*
X130762727Y-64879815D01*
X130760875Y-64878602D01*
X130629185Y-64790609D01*
X130629172Y-64790602D01*
X130483501Y-64730264D01*
X130483489Y-64730261D01*
X130328845Y-64699500D01*
X130328842Y-64699500D01*
X130171158Y-64699500D01*
X130171155Y-64699500D01*
X130016510Y-64730261D01*
X130016498Y-64730264D01*
X129870827Y-64790602D01*
X129870814Y-64790609D01*
X129739711Y-64878210D01*
X129739707Y-64878213D01*
X129628213Y-64989707D01*
X129628210Y-64989711D01*
X129540609Y-65120814D01*
X129540602Y-65120827D01*
X129480264Y-65266498D01*
X129480261Y-65266510D01*
X129449500Y-65421153D01*
X129449500Y-65578846D01*
X129480261Y-65733489D01*
X129480264Y-65733501D01*
X129540602Y-65879172D01*
X129540609Y-65879185D01*
X129628210Y-66010288D01*
X129628213Y-66010292D01*
X129739707Y-66121786D01*
X129739711Y-66121789D01*
X129870814Y-66209390D01*
X129870827Y-66209397D01*
X130016498Y-66269735D01*
X130016503Y-66269737D01*
X130171153Y-66300499D01*
X130171156Y-66300500D01*
X130171158Y-66300500D01*
X130328844Y-66300500D01*
X130328845Y-66300499D01*
X130483497Y-66269737D01*
X130629179Y-66209394D01*
X130685369Y-66171849D01*
X130760875Y-66121398D01*
X130827553Y-66100520D01*
X130829766Y-66100500D01*
X131199903Y-66100500D01*
X131266942Y-66120185D01*
X131287584Y-66136819D01*
X140113181Y-74962416D01*
X140146666Y-75023739D01*
X140149500Y-75050097D01*
X140149500Y-93802903D01*
X140129815Y-93869942D01*
X140077011Y-93915697D01*
X140007853Y-93925641D01*
X139944297Y-93896616D01*
X139937819Y-93890584D01*
X137109415Y-91062180D01*
X137075930Y-91000857D01*
X137080914Y-90931165D01*
X137122786Y-90875232D01*
X137188250Y-90850815D01*
X137197096Y-90850499D01*
X137897871Y-90850499D01*
X137897872Y-90850499D01*
X137957483Y-90844091D01*
X138092331Y-90793796D01*
X138207546Y-90707546D01*
X138293796Y-90592331D01*
X138344091Y-90457483D01*
X138350500Y-90397873D01*
X138350499Y-88602128D01*
X138344091Y-88542517D01*
X138329148Y-88502454D01*
X138293797Y-88407671D01*
X138293793Y-88407664D01*
X138207547Y-88292455D01*
X138207544Y-88292452D01*
X138092335Y-88206206D01*
X138092328Y-88206202D01*
X137957482Y-88155908D01*
X137957483Y-88155908D01*
X137897883Y-88149501D01*
X137897881Y-88149500D01*
X137897873Y-88149500D01*
X137897864Y-88149500D01*
X136102129Y-88149500D01*
X136102123Y-88149501D01*
X136042516Y-88155908D01*
X135907671Y-88206202D01*
X135907664Y-88206206D01*
X135792455Y-88292452D01*
X135792452Y-88292455D01*
X135706206Y-88407664D01*
X135706202Y-88407671D01*
X135655908Y-88542517D01*
X135649501Y-88602116D01*
X135649501Y-88602123D01*
X135649500Y-88602135D01*
X135649500Y-89302903D01*
X135629815Y-89369942D01*
X135577011Y-89415697D01*
X135507853Y-89425641D01*
X135444297Y-89396616D01*
X135437819Y-89390584D01*
X134386819Y-88339584D01*
X134353334Y-88278261D01*
X134350500Y-88251903D01*
X134350500Y-86010759D01*
X134370185Y-85943720D01*
X134422989Y-85897965D01*
X134492147Y-85888021D01*
X134543391Y-85907657D01*
X134620821Y-85959394D01*
X134620823Y-85959395D01*
X134620827Y-85959397D01*
X134718194Y-85999727D01*
X134766503Y-86019737D01*
X134921153Y-86050499D01*
X134921156Y-86050500D01*
X134921158Y-86050500D01*
X135078844Y-86050500D01*
X135078845Y-86050499D01*
X135233497Y-86019737D01*
X135379179Y-85959394D01*
X135510289Y-85871789D01*
X135621789Y-85760289D01*
X135709394Y-85629179D01*
X135769737Y-85483497D01*
X135800500Y-85328842D01*
X135800500Y-85171158D01*
X135800500Y-85171155D01*
X135800499Y-85171153D01*
X135792446Y-85130668D01*
X135769737Y-85016503D01*
X135755173Y-84981342D01*
X135709397Y-84870827D01*
X135709390Y-84870814D01*
X135621398Y-84739125D01*
X135600520Y-84672447D01*
X135600500Y-84670234D01*
X135600500Y-78339059D01*
X135600501Y-78339046D01*
X135600501Y-78170945D01*
X135600501Y-78170943D01*
X135559577Y-78018215D01*
X135530639Y-77968095D01*
X135480520Y-77881284D01*
X135368716Y-77769480D01*
X135368715Y-77769479D01*
X135364385Y-77765149D01*
X135364374Y-77765139D01*
X132888590Y-75289355D01*
X132888588Y-75289352D01*
X132769717Y-75170481D01*
X132769716Y-75170480D01*
X132680057Y-75118716D01*
X132680056Y-75118715D01*
X132632783Y-75091422D01*
X132576881Y-75076443D01*
X132480057Y-75050499D01*
X132321943Y-75050499D01*
X132314347Y-75050499D01*
X132314331Y-75050500D01*
X131474500Y-75050500D01*
X131407461Y-75030815D01*
X131361706Y-74978011D01*
X131350500Y-74926500D01*
X131350499Y-73602129D01*
X131350498Y-73602123D01*
X131350497Y-73602116D01*
X131344091Y-73542517D01*
X131310056Y-73451265D01*
X131293797Y-73407671D01*
X131293793Y-73407664D01*
X131207547Y-73292455D01*
X131207544Y-73292452D01*
X131092335Y-73206206D01*
X131092328Y-73206202D01*
X130957482Y-73155908D01*
X130957483Y-73155908D01*
X130897883Y-73149501D01*
X130897881Y-73149500D01*
X130897873Y-73149500D01*
X130897864Y-73149500D01*
X129102129Y-73149500D01*
X129102123Y-73149501D01*
X129042516Y-73155908D01*
X128907671Y-73206202D01*
X128907664Y-73206206D01*
X128792455Y-73292452D01*
X128792452Y-73292455D01*
X128706206Y-73407664D01*
X128706202Y-73407671D01*
X128655908Y-73542517D01*
X128652003Y-73578842D01*
X128649500Y-73602127D01*
X128649500Y-74300638D01*
X128649501Y-74926500D01*
X128629816Y-74993539D01*
X128577013Y-75039294D01*
X128525501Y-75050500D01*
X124201097Y-75050500D01*
X124134058Y-75030815D01*
X124113416Y-75014181D01*
X122584574Y-73485339D01*
X122551089Y-73424016D01*
X122550638Y-73421849D01*
X122524899Y-73292454D01*
X122519737Y-73266503D01*
X122519735Y-73266498D01*
X122459397Y-73120827D01*
X122459390Y-73120814D01*
X122371789Y-72989711D01*
X122371786Y-72989707D01*
X122260292Y-72878213D01*
X122260288Y-72878210D01*
X122129185Y-72790609D01*
X122129172Y-72790602D01*
X121983501Y-72730264D01*
X121983489Y-72730261D01*
X121828845Y-72699500D01*
X121828842Y-72699500D01*
X121671158Y-72699500D01*
X121671155Y-72699500D01*
X121516510Y-72730261D01*
X121516498Y-72730264D01*
X121370827Y-72790602D01*
X121370814Y-72790609D01*
X121239711Y-72878210D01*
X121239707Y-72878213D01*
X121128213Y-72989707D01*
X121128210Y-72989711D01*
X121040609Y-73120814D01*
X121040602Y-73120827D01*
X120980264Y-73266498D01*
X120980261Y-73266510D01*
X120949500Y-73421153D01*
X103000500Y-73421153D01*
X103000500Y-66865186D01*
X105599500Y-66865186D01*
X105599500Y-67134813D01*
X105629686Y-67402719D01*
X105629688Y-67402731D01*
X105689684Y-67665594D01*
X105689687Y-67665602D01*
X105778734Y-67920082D01*
X105895714Y-68162994D01*
X105895716Y-68162997D01*
X106039162Y-68391289D01*
X106207266Y-68602085D01*
X106397915Y-68792734D01*
X106608711Y-68960838D01*
X106837003Y-69104284D01*
X107079921Y-69221267D01*
X107271049Y-69288145D01*
X107334397Y-69310312D01*
X107334405Y-69310315D01*
X107334408Y-69310315D01*
X107334409Y-69310316D01*
X107597268Y-69370312D01*
X107865187Y-69400499D01*
X107865188Y-69400500D01*
X107865191Y-69400500D01*
X108134812Y-69400500D01*
X108134812Y-69400499D01*
X108402732Y-69370312D01*
X108665591Y-69310316D01*
X108920079Y-69221267D01*
X109162997Y-69104284D01*
X109391289Y-68960838D01*
X109602085Y-68792734D01*
X109792734Y-68602085D01*
X109960838Y-68391289D01*
X110104284Y-68162997D01*
X110221267Y-67920079D01*
X110310316Y-67665591D01*
X110370312Y-67402732D01*
X110400500Y-67134809D01*
X110400500Y-66881995D01*
X116699500Y-66881995D01*
X116699500Y-67118004D01*
X116699501Y-67118020D01*
X116730293Y-67351914D01*
X116730307Y-67352014D01*
X116737327Y-67378213D01*
X116791394Y-67579993D01*
X116881714Y-67798045D01*
X116881719Y-67798056D01*
X116949276Y-67915066D01*
X116999727Y-68002450D01*
X116999729Y-68002453D01*
X116999730Y-68002454D01*
X117143406Y-68189697D01*
X117143412Y-68189704D01*
X117310295Y-68356587D01*
X117310302Y-68356593D01*
X117420306Y-68441001D01*
X117497550Y-68500273D01*
X117628918Y-68576118D01*
X117701943Y-68618280D01*
X117701948Y-68618282D01*
X117701951Y-68618284D01*
X117920007Y-68708606D01*
X118147986Y-68769693D01*
X118381989Y-68800500D01*
X118381996Y-68800500D01*
X118618004Y-68800500D01*
X118618011Y-68800500D01*
X118852014Y-68769693D01*
X119079993Y-68708606D01*
X119298049Y-68618284D01*
X119502450Y-68500273D01*
X119689699Y-68356592D01*
X119856592Y-68189699D01*
X120000273Y-68002450D01*
X120118284Y-67798049D01*
X120208606Y-67579993D01*
X120269693Y-67352014D01*
X120300500Y-67118011D01*
X120300500Y-66881989D01*
X120269693Y-66647986D01*
X120208606Y-66420007D01*
X120118284Y-66201951D01*
X120118282Y-66201948D01*
X120118280Y-66201943D01*
X120047830Y-66079921D01*
X120000273Y-65997550D01*
X120000269Y-65997545D01*
X119980913Y-65972319D01*
X119980912Y-65972318D01*
X119925408Y-65899983D01*
X121699500Y-65899983D01*
X121699500Y-68100001D01*
X121699501Y-68100018D01*
X121710000Y-68202796D01*
X121710001Y-68202799D01*
X121765185Y-68369331D01*
X121765187Y-68369336D01*
X121778728Y-68391289D01*
X121857288Y-68518656D01*
X121981344Y-68642712D01*
X122130666Y-68734814D01*
X122297203Y-68789999D01*
X122399991Y-68800500D01*
X124600008Y-68800499D01*
X124702797Y-68789999D01*
X124869334Y-68734814D01*
X125018656Y-68642712D01*
X125142712Y-68518656D01*
X125234814Y-68369334D01*
X125289999Y-68202797D01*
X125300500Y-68100009D01*
X125300500Y-67921153D01*
X127449500Y-67921153D01*
X127449500Y-68078846D01*
X127480261Y-68233489D01*
X127480264Y-68233501D01*
X127540602Y-68379172D01*
X127540609Y-68379185D01*
X127628210Y-68510288D01*
X127628213Y-68510292D01*
X127739707Y-68621786D01*
X127739711Y-68621789D01*
X127870814Y-68709390D01*
X127870827Y-68709397D01*
X128016397Y-68769693D01*
X128016503Y-68769737D01*
X128081147Y-68782595D01*
X128171849Y-68800638D01*
X128233760Y-68833023D01*
X128235339Y-68834574D01*
X138613181Y-79212416D01*
X138646666Y-79273739D01*
X138649500Y-79300097D01*
X138649500Y-83949902D01*
X138629815Y-84016941D01*
X138613181Y-84037583D01*
X137761999Y-84888764D01*
X137721772Y-84915644D01*
X137661510Y-84940606D01*
X137661503Y-84940609D01*
X137530400Y-85028210D01*
X137530396Y-85028213D01*
X137418902Y-85139707D01*
X137418899Y-85139711D01*
X137331298Y-85270814D01*
X137331291Y-85270827D01*
X137270953Y-85416498D01*
X137270950Y-85416510D01*
X137240189Y-85571153D01*
X137240189Y-85728846D01*
X137270950Y-85883489D01*
X137270953Y-85883501D01*
X137331291Y-86029172D01*
X137331298Y-86029185D01*
X137418899Y-86160288D01*
X137418902Y-86160292D01*
X137530396Y-86271786D01*
X137530400Y-86271789D01*
X137661503Y-86359390D01*
X137661516Y-86359397D01*
X137706943Y-86378213D01*
X137807192Y-86419737D01*
X137961842Y-86450499D01*
X137961845Y-86450500D01*
X137961847Y-86450500D01*
X138119533Y-86450500D01*
X138119534Y-86450499D01*
X138274186Y-86419737D01*
X138419868Y-86359394D01*
X138550978Y-86271789D01*
X138662478Y-86160289D01*
X138750083Y-86029179D01*
X138810426Y-85883497D01*
X138841189Y-85728842D01*
X138841189Y-85571158D01*
X138841189Y-85565066D01*
X138842609Y-85565066D01*
X138854291Y-85503434D01*
X138876997Y-85472236D01*
X139618713Y-84730521D01*
X139618716Y-84730520D01*
X139730520Y-84618716D01*
X139780639Y-84531904D01*
X139809577Y-84481785D01*
X139850501Y-84329057D01*
X139850501Y-84170943D01*
X139850501Y-84163348D01*
X139850500Y-84163330D01*
X139850500Y-78920945D01*
X139850500Y-78920943D01*
X139809577Y-78768215D01*
X139780639Y-78718095D01*
X139730520Y-78631284D01*
X139618716Y-78519480D01*
X139618715Y-78519479D01*
X139614385Y-78515149D01*
X139614374Y-78515139D01*
X129084574Y-67985339D01*
X129051089Y-67924016D01*
X129050638Y-67921849D01*
X129019738Y-67766510D01*
X129019737Y-67766503D01*
X128977943Y-67665602D01*
X128959397Y-67620827D01*
X128959390Y-67620814D01*
X128871789Y-67489711D01*
X128871786Y-67489707D01*
X128760292Y-67378213D01*
X128760288Y-67378210D01*
X128629185Y-67290609D01*
X128629172Y-67290602D01*
X128483501Y-67230264D01*
X128483489Y-67230261D01*
X128328845Y-67199500D01*
X128328842Y-67199500D01*
X128171158Y-67199500D01*
X128171155Y-67199500D01*
X128016510Y-67230261D01*
X128016498Y-67230264D01*
X127870827Y-67290602D01*
X127870814Y-67290609D01*
X127739711Y-67378210D01*
X127739707Y-67378213D01*
X127628213Y-67489707D01*
X127628210Y-67489711D01*
X127540609Y-67620814D01*
X127540602Y-67620827D01*
X127480264Y-67766498D01*
X127480261Y-67766510D01*
X127449500Y-67921153D01*
X125300500Y-67921153D01*
X125300499Y-67000000D01*
X125300499Y-65899998D01*
X125300498Y-65899981D01*
X125289999Y-65797203D01*
X125289998Y-65797200D01*
X125270948Y-65739711D01*
X125234814Y-65630666D01*
X125142712Y-65481344D01*
X125018656Y-65357288D01*
X124871481Y-65266510D01*
X124869336Y-65265187D01*
X124869331Y-65265185D01*
X124867862Y-65264698D01*
X124702797Y-65210001D01*
X124702795Y-65210000D01*
X124600010Y-65199500D01*
X122399998Y-65199500D01*
X122399981Y-65199501D01*
X122297203Y-65210000D01*
X122297200Y-65210001D01*
X122130668Y-65265185D01*
X122130663Y-65265187D01*
X121981342Y-65357289D01*
X121857289Y-65481342D01*
X121765187Y-65630663D01*
X121765185Y-65630668D01*
X121760962Y-65643412D01*
X121710001Y-65797203D01*
X121710001Y-65797204D01*
X121710000Y-65797204D01*
X121699500Y-65899983D01*
X119925408Y-65899983D01*
X119856593Y-65810302D01*
X119856587Y-65810295D01*
X119689704Y-65643412D01*
X119689697Y-65643406D01*
X119502454Y-65499730D01*
X119502453Y-65499729D01*
X119502450Y-65499727D01*
X119366365Y-65421158D01*
X119298056Y-65381719D01*
X119298045Y-65381714D01*
X119079993Y-65291394D01*
X118852010Y-65230306D01*
X118618020Y-65199501D01*
X118618017Y-65199500D01*
X118618011Y-65199500D01*
X118381989Y-65199500D01*
X118381983Y-65199500D01*
X118381979Y-65199501D01*
X118147989Y-65230306D01*
X117920006Y-65291394D01*
X117701954Y-65381714D01*
X117701943Y-65381719D01*
X117497545Y-65499730D01*
X117310302Y-65643406D01*
X117310295Y-65643412D01*
X117143412Y-65810295D01*
X117143406Y-65810302D01*
X116999730Y-65997545D01*
X116999727Y-65997549D01*
X116999727Y-65997550D01*
X116992373Y-66010288D01*
X116881719Y-66201943D01*
X116881714Y-66201954D01*
X116791394Y-66420006D01*
X116730306Y-66647989D01*
X116699501Y-66881979D01*
X116699500Y-66881995D01*
X110400500Y-66881995D01*
X110400500Y-66865191D01*
X110370312Y-66597268D01*
X110310316Y-66334409D01*
X110308369Y-66328846D01*
X110275650Y-66235339D01*
X110221267Y-66079921D01*
X110124595Y-65879179D01*
X110104285Y-65837005D01*
X110104284Y-65837003D01*
X109960838Y-65608711D01*
X109792734Y-65397915D01*
X109602085Y-65207266D01*
X109391289Y-65039162D01*
X109162997Y-64895716D01*
X109162994Y-64895714D01*
X108920082Y-64778734D01*
X108665602Y-64689687D01*
X108665594Y-64689684D01*
X108468446Y-64644687D01*
X108402732Y-64629688D01*
X108402728Y-64629687D01*
X108402719Y-64629686D01*
X108134813Y-64599500D01*
X108134809Y-64599500D01*
X107865191Y-64599500D01*
X107865186Y-64599500D01*
X107597280Y-64629686D01*
X107597268Y-64629688D01*
X107334405Y-64689684D01*
X107334397Y-64689687D01*
X107079917Y-64778734D01*
X106837005Y-64895714D01*
X106608712Y-65039161D01*
X106397915Y-65207265D01*
X106207265Y-65397915D01*
X106039161Y-65608712D01*
X105895714Y-65837005D01*
X105778734Y-66079917D01*
X105689687Y-66334397D01*
X105689684Y-66334405D01*
X105629688Y-66597268D01*
X105629686Y-66597280D01*
X105599500Y-66865186D01*
X103000500Y-66865186D01*
X103000500Y-64143713D01*
X133359500Y-64143713D01*
X133359500Y-64356286D01*
X133392753Y-64566239D01*
X133458444Y-64768414D01*
X133554951Y-64957820D01*
X133679890Y-65129786D01*
X133830213Y-65280109D01*
X134002179Y-65405048D01*
X134002181Y-65405049D01*
X134002184Y-65405051D01*
X134191588Y-65501557D01*
X134393757Y-65567246D01*
X134603713Y-65600500D01*
X134603714Y-65600500D01*
X134816286Y-65600500D01*
X134816287Y-65600500D01*
X135026243Y-65567246D01*
X135228412Y-65501557D01*
X135417816Y-65405051D01*
X135504138Y-65342335D01*
X135589786Y-65280109D01*
X135589788Y-65280106D01*
X135589792Y-65280104D01*
X135740104Y-65129792D01*
X135740106Y-65129788D01*
X135740109Y-65129786D01*
X135865048Y-64957820D01*
X135865050Y-64957817D01*
X135865051Y-64957816D01*
X135869514Y-64949054D01*
X135917488Y-64898259D01*
X135985308Y-64881463D01*
X136051444Y-64903999D01*
X136090486Y-64949056D01*
X136094951Y-64957820D01*
X136219890Y-65129786D01*
X136370213Y-65280109D01*
X136542179Y-65405048D01*
X136542181Y-65405049D01*
X136542184Y-65405051D01*
X136731588Y-65501557D01*
X136933757Y-65567246D01*
X137143713Y-65600500D01*
X137143714Y-65600500D01*
X137356286Y-65600500D01*
X137356287Y-65600500D01*
X137566243Y-65567246D01*
X137768412Y-65501557D01*
X137957816Y-65405051D01*
X138044147Y-65342328D01*
X138129784Y-65280110D01*
X138129784Y-65280109D01*
X138129792Y-65280104D01*
X138243329Y-65166566D01*
X138304648Y-65133084D01*
X138374340Y-65138068D01*
X138430274Y-65179939D01*
X138447189Y-65210917D01*
X138496202Y-65342328D01*
X138496206Y-65342335D01*
X138582452Y-65457544D01*
X138582455Y-65457547D01*
X138697664Y-65543793D01*
X138697671Y-65543797D01*
X138832517Y-65594091D01*
X138832516Y-65594091D01*
X138839444Y-65594835D01*
X138892127Y-65600500D01*
X140687872Y-65600499D01*
X140747483Y-65594091D01*
X140882331Y-65543796D01*
X140997546Y-65457546D01*
X141083796Y-65342331D01*
X141134091Y-65207483D01*
X141140500Y-65147873D01*
X141140499Y-63352128D01*
X141134091Y-63292517D01*
X141132810Y-63289083D01*
X141083797Y-63157671D01*
X141083793Y-63157664D01*
X140997547Y-63042455D01*
X140997544Y-63042452D01*
X140882335Y-62956206D01*
X140882328Y-62956202D01*
X140747482Y-62905908D01*
X140747483Y-62905908D01*
X140687883Y-62899501D01*
X140687881Y-62899500D01*
X140687873Y-62899500D01*
X140687864Y-62899500D01*
X138892129Y-62899500D01*
X138892123Y-62899501D01*
X138832516Y-62905908D01*
X138697671Y-62956202D01*
X138697664Y-62956206D01*
X138582455Y-63042452D01*
X138582452Y-63042455D01*
X138496206Y-63157664D01*
X138496203Y-63157669D01*
X138447189Y-63289083D01*
X138405317Y-63345016D01*
X138339853Y-63369433D01*
X138271580Y-63354581D01*
X138243326Y-63333430D01*
X138129786Y-63219890D01*
X137957820Y-63094951D01*
X137768414Y-62998444D01*
X137768413Y-62998443D01*
X137768412Y-62998443D01*
X137566243Y-62932754D01*
X137566241Y-62932753D01*
X137566240Y-62932753D01*
X137404957Y-62907208D01*
X137356287Y-62899500D01*
X137143713Y-62899500D01*
X137095042Y-62907208D01*
X136933760Y-62932753D01*
X136731585Y-62998444D01*
X136542179Y-63094951D01*
X136370213Y-63219890D01*
X136219890Y-63370213D01*
X136094949Y-63542182D01*
X136090484Y-63550946D01*
X136042509Y-63601742D01*
X135974688Y-63618536D01*
X135908553Y-63595998D01*
X135869516Y-63550946D01*
X135865050Y-63542182D01*
X135740109Y-63370213D01*
X135589786Y-63219890D01*
X135417820Y-63094951D01*
X135228414Y-62998444D01*
X135228413Y-62998443D01*
X135228412Y-62998443D01*
X135026243Y-62932754D01*
X135026241Y-62932753D01*
X135026240Y-62932753D01*
X134864957Y-62907208D01*
X134816287Y-62899500D01*
X134603713Y-62899500D01*
X134555042Y-62907208D01*
X134393760Y-62932753D01*
X134191585Y-62998444D01*
X134002179Y-63094951D01*
X133830213Y-63219890D01*
X133679890Y-63370213D01*
X133554951Y-63542179D01*
X133458444Y-63731585D01*
X133392753Y-63933760D01*
X133359500Y-64143713D01*
X103000500Y-64143713D01*
X103000500Y-62624500D01*
X103020185Y-62557461D01*
X103072989Y-62511706D01*
X103124500Y-62500500D01*
X170375500Y-62500500D01*
X170442539Y-62520185D01*
G37*
%TD.AperFunction*%
%TD*%
M02*
