%TF.GenerationSoftware,KiCad,Pcbnew,9.0.7*%
%TF.CreationDate,2026-05-30T16:46:00+02:00*%
%TF.ProjectId,BatteryGaulgue,42617474-6572-4794-9761-756c6775652e,rev?*%
%TF.SameCoordinates,Original*%
%TF.FileFunction,Copper,L1,Top*%
%TF.FilePolarity,Positive*%
%FSLAX46Y46*%
G04 Gerber Fmt 4.6, Leading zero omitted, Abs format (unit mm)*
G04 Created by KiCad (PCBNEW 9.0.7) date 2026-05-30 16:46:00*
%MOMM*%
%LPD*%
G01*
G04 APERTURE LIST*
G04 Aperture macros list*
%AMRoundRect*
0 Rectangle with rounded corners*
0 $1 Rounding radius*
0 $2 $3 $4 $5 $6 $7 $8 $9 X,Y pos of 4 corners*
0 Add a 4 corners polygon primitive as box body*
4,1,4,$2,$3,$4,$5,$6,$7,$8,$9,$2,$3,0*
0 Add four circle primitives for the rounded corners*
1,1,$1+$1,$2,$3*
1,1,$1+$1,$4,$5*
1,1,$1+$1,$6,$7*
1,1,$1+$1,$8,$9*
0 Add four rect primitives between the rounded corners*
20,1,$1+$1,$2,$3,$4,$5,0*
20,1,$1+$1,$4,$5,$6,$7,0*
20,1,$1+$1,$6,$7,$8,$9,0*
20,1,$1+$1,$8,$9,$2,$3,0*%
G04 Aperture macros list end*
%TA.AperFunction,SMDPad,CuDef*%
%ADD10RoundRect,0.249999X-1.425001X0.450001X-1.425001X-0.450001X1.425001X-0.450001X1.425001X0.450001X0*%
%TD*%
%TA.AperFunction,SMDPad,CuDef*%
%ADD11RoundRect,0.250000X-0.400000X-0.625000X0.400000X-0.625000X0.400000X0.625000X-0.400000X0.625000X0*%
%TD*%
%TA.AperFunction,SMDPad,CuDef*%
%ADD12RoundRect,0.250000X0.475000X-0.337500X0.475000X0.337500X-0.475000X0.337500X-0.475000X-0.337500X0*%
%TD*%
%TA.AperFunction,SMDPad,CuDef*%
%ADD13RoundRect,0.250000X-0.337500X-0.475000X0.337500X-0.475000X0.337500X0.475000X-0.337500X0.475000X0*%
%TD*%
%TA.AperFunction,ComponentPad*%
%ADD14C,1.400000*%
%TD*%
%TA.AperFunction,SMDPad,CuDef*%
%ADD15RoundRect,0.250000X0.400000X0.625000X-0.400000X0.625000X-0.400000X-0.625000X0.400000X-0.625000X0*%
%TD*%
%TA.AperFunction,ComponentPad*%
%ADD16RoundRect,0.250000X1.050000X1.050000X-1.050000X1.050000X-1.050000X-1.050000X1.050000X-1.050000X0*%
%TD*%
%TA.AperFunction,ComponentPad*%
%ADD17C,2.600000*%
%TD*%
%TA.AperFunction,ComponentPad*%
%ADD18R,1.700000X1.700000*%
%TD*%
%TA.AperFunction,ComponentPad*%
%ADD19RoundRect,0.250000X-1.050000X1.050000X-1.050000X-1.050000X1.050000X-1.050000X1.050000X1.050000X0*%
%TD*%
%TA.AperFunction,SMDPad,CuDef*%
%ADD20RoundRect,0.250000X-0.475000X0.337500X-0.475000X-0.337500X0.475000X-0.337500X0.475000X0.337500X0*%
%TD*%
%TA.AperFunction,ComponentPad*%
%ADD21R,1.050000X1.500000*%
%TD*%
%TA.AperFunction,ComponentPad*%
%ADD22O,1.050000X1.500000*%
%TD*%
%TA.AperFunction,ComponentPad*%
%ADD23RoundRect,0.250000X1.050000X-1.050000X1.050000X1.050000X-1.050000X1.050000X-1.050000X-1.050000X0*%
%TD*%
%TA.AperFunction,ComponentPad*%
%ADD24C,1.700000*%
%TD*%
%TA.AperFunction,ComponentPad*%
%ADD25RoundRect,0.250000X-0.550000X-0.550000X0.550000X-0.550000X0.550000X0.550000X-0.550000X0.550000X0*%
%TD*%
%TA.AperFunction,ComponentPad*%
%ADD26C,1.600000*%
%TD*%
%TA.AperFunction,SMDPad,CuDef*%
%ADD27RoundRect,0.051250X0.733750X0.153750X-0.733750X0.153750X-0.733750X-0.153750X0.733750X-0.153750X0*%
%TD*%
%TA.AperFunction,ViaPad*%
%ADD28C,0.600000*%
%TD*%
%TA.AperFunction,Conductor*%
%ADD29C,0.200000*%
%TD*%
%TA.AperFunction,Conductor*%
%ADD30C,2.500000*%
%TD*%
G04 APERTURE END LIST*
D10*
%TO.P,Rshunt1,1*%
%TO.N,Net-(J1-Pin_1)*%
X118500000Y-79200000D03*
%TO.P,Rshunt1,2*%
%TO.N,GND*%
X118500000Y-85300000D03*
%TD*%
D11*
%TO.P,R1,2*%
%TO.N,Net-(J9-Pin_1)*%
X126050000Y-85750000D03*
%TO.P,R1,1*%
%TO.N,GND*%
X122950000Y-85750000D03*
%TD*%
D12*
%TO.P,C3,2*%
%TO.N,Net-(J5-Pin_1)*%
X129250000Y-82712500D03*
%TO.P,C3,1*%
%TO.N,Net-(J9-Pin_1)*%
X129250000Y-84787500D03*
%TD*%
D11*
%TO.P,R2,2*%
%TO.N,Net-(J5-Pin_1)*%
X126050000Y-79250000D03*
%TO.P,R2,1*%
%TO.N,Net-(J1-Pin_1)*%
X122950000Y-79250000D03*
%TD*%
D13*
%TO.P,C1,2*%
%TO.N,Net-(J9-Pin_1)*%
X125537500Y-89250000D03*
%TO.P,C1,1*%
%TO.N,GND*%
X123462500Y-89250000D03*
%TD*%
D14*
%TO.P,TH1,2*%
%TO.N,/REG25*%
X123790000Y-96000000D03*
%TO.P,TH1,1*%
%TO.N,Net-(U1-P6_TS)*%
X118710000Y-96000000D03*
%TD*%
D13*
%TO.P,C2,2*%
%TO.N,Net-(J5-Pin_1)*%
X125537500Y-82250000D03*
%TO.P,C2,1*%
%TO.N,GND*%
X123462500Y-82250000D03*
%TD*%
D15*
%TO.P,R4,1*%
%TO.N,GND*%
X146550000Y-92000000D03*
%TO.P,R4,2*%
%TO.N,Net-(J6-Pin_1)*%
X143450000Y-92000000D03*
%TD*%
D16*
%TO.P,J2,1,Pin_1*%
%TO.N,Net-(J2-Pin_1)*%
X123500000Y-67000000D03*
D17*
%TO.P,J2,2,Pin_2*%
%TO.N,Net-(J2-Pin_2)*%
X118500000Y-67000000D03*
%TD*%
D18*
%TO.P,J5,1,Pin_1*%
%TO.N,Net-(J5-Pin_1)*%
X116250000Y-75000000D03*
%TD*%
D11*
%TO.P,R8,1*%
%TO.N,Net-(J3-Pin_1)*%
X131950000Y-69000000D03*
%TO.P,R8,2*%
%TO.N,Net-(J8-Pin_2)*%
X135050000Y-69000000D03*
%TD*%
D18*
%TO.P,J4,1,Pin_1*%
%TO.N,/REG25*%
X130000000Y-74500000D03*
%TD*%
D19*
%TO.P,J1,1,Pin_1*%
%TO.N,Net-(J1-Pin_1)*%
X108327500Y-77500000D03*
D17*
%TO.P,J1,2,Pin_2*%
%TO.N,GND*%
X108327500Y-82500000D03*
%TO.P,J1,3,Pin_3*%
%TO.N,Net-(J1-Pin_3)*%
X108327500Y-87500000D03*
%TD*%
D13*
%TO.P,C4,1*%
%TO.N,GND*%
X137462500Y-76500000D03*
%TO.P,C4,2*%
%TO.N,/REG25*%
X139537500Y-76500000D03*
%TD*%
D18*
%TO.P,J6,1,Pin_1*%
%TO.N,Net-(J6-Pin_1)*%
X137000000Y-89500000D03*
%TD*%
D20*
%TO.P,C6,1*%
%TO.N,Net-(J6-Pin_1)*%
X145500000Y-82462500D03*
%TO.P,C6,2*%
%TO.N,GND*%
X145500000Y-84537500D03*
%TD*%
D11*
%TO.P,R5,1*%
%TO.N,Net-(J6-Pin_1)*%
X143450000Y-88000000D03*
%TO.P,R5,2*%
%TO.N,Net-(J1-Pin_3)*%
X146550000Y-88000000D03*
%TD*%
D21*
%TO.P,Q1,1,C*%
%TO.N,Net-(J1-Pin_3)*%
X154270000Y-86090000D03*
D22*
%TO.P,Q1,2,B*%
%TO.N,Net-(D1-K)*%
X153000000Y-86090000D03*
%TO.P,Q1,3,E*%
%TO.N,/REGIN*%
X151730000Y-86090000D03*
%TD*%
D16*
%TO.P,J7,1,Pin_1*%
%TO.N,Net-(J7-Pin_1)*%
X155500000Y-67000000D03*
D17*
%TO.P,J7,2,Pin_2*%
%TO.N,GND*%
X150500000Y-67000000D03*
%TD*%
D23*
%TO.P,J3,1,Pin_1*%
%TO.N,Net-(J3-Pin_1)*%
X165172500Y-86500000D03*
D17*
%TO.P,J3,2,Pin_2*%
%TO.N,Net-(J3-Pin_2)*%
X165172500Y-81500000D03*
%TO.P,J3,3,Pin_3*%
%TO.N,Net-(J3-Pin_3)*%
X165172500Y-76500000D03*
%TD*%
D18*
%TO.P,J9,1,Pin_1*%
%TO.N,Net-(J9-Pin_1)*%
X116250000Y-91250000D03*
%TD*%
%TO.P,J10,1,Pin_1*%
%TO.N,/REGIN*%
X153500000Y-93000000D03*
%TD*%
D15*
%TO.P,R7,1*%
%TO.N,Net-(J3-Pin_2)*%
X143050000Y-69000000D03*
%TO.P,R7,2*%
%TO.N,Net-(J8-Pin_2)*%
X139950000Y-69000000D03*
%TD*%
D18*
%TO.P,J8,1,Pin_1*%
%TO.N,/REGIN*%
X139790000Y-64250000D03*
D24*
%TO.P,J8,2,Pin_2*%
%TO.N,Net-(J8-Pin_2)*%
X137250000Y-64250000D03*
%TO.P,J8,3,Pin_3*%
%TO.N,Net-(J7-Pin_1)*%
X134710000Y-64250000D03*
%TD*%
D20*
%TO.P,C5,1*%
%TO.N,GND*%
X145500000Y-77962500D03*
%TO.P,C5,2*%
%TO.N,/REGIN*%
X145500000Y-80037500D03*
%TD*%
D11*
%TO.P,R3,1*%
%TO.N,Net-(D1-K)*%
X151450000Y-80500000D03*
%TO.P,R3,2*%
%TO.N,Net-(J1-Pin_3)*%
X154550000Y-80500000D03*
%TD*%
D25*
%TO.P,D1,1,K*%
%TO.N,Net-(D1-K)*%
X149190000Y-76000000D03*
D26*
%TO.P,D1,2,A*%
%TO.N,GND*%
X156810000Y-76000000D03*
%TD*%
D27*
%TO.P,U1,1,P2*%
%TO.N,Net-(J2-Pin_2)*%
X141370000Y-83950000D03*
%TO.P,U1,2,VEN*%
%TO.N,unconnected-(U1-VEN-Pad2)*%
X141370000Y-83300000D03*
%TO.P,U1,3,P1*%
%TO.N,Net-(J2-Pin_1)*%
X141370000Y-82650000D03*
%TO.P,U1,4,BAT*%
%TO.N,Net-(J6-Pin_1)*%
X141370000Y-82000000D03*
%TO.P,U1,5,CE*%
%TO.N,/REGIN*%
X141370000Y-81350000D03*
%TO.P,U1,6,REGIN*%
X141370000Y-80700000D03*
%TO.P,U1,7,REG25*%
%TO.N,/REG25*%
X141370000Y-80050000D03*
%TO.P,U1,8,VSS*%
%TO.N,GND*%
X135630000Y-80050000D03*
%TO.P,U1,9,SRP*%
%TO.N,Net-(J9-Pin_1)*%
X135630000Y-80700000D03*
%TO.P,U1,10,SRN*%
%TO.N,Net-(J5-Pin_1)*%
X135630000Y-81350000D03*
%TO.P,U1,11,P6_TS*%
%TO.N,Net-(U1-P6_TS)*%
X135630000Y-82000000D03*
%TO.P,U1,12,P5_HDQ*%
%TO.N,Net-(J3-Pin_3)*%
X135630000Y-82650000D03*
%TO.P,U1,13,P4_SCL*%
%TO.N,Net-(J3-Pin_2)*%
X135630000Y-83300000D03*
%TO.P,U1,14,P3_SDA*%
%TO.N,Net-(J3-Pin_1)*%
X135630000Y-83950000D03*
%TD*%
D28*
%TO.N,Net-(J1-Pin_3)*%
X158250000Y-85750000D03*
X133250000Y-97750000D03*
%TO.N,Net-(J3-Pin_1)*%
X130250000Y-65500000D03*
%TO.N,/REG25*%
X130500000Y-77500000D03*
X129500000Y-92000000D03*
%TO.N,Net-(J3-Pin_1)*%
X160250000Y-90750000D03*
X133750000Y-85000000D03*
%TO.N,Net-(J5-Pin_1)*%
X132250000Y-87750000D03*
%TO.N,/REGIN*%
X149000000Y-87000000D03*
X150500000Y-92500000D03*
%TO.N,Net-(J2-Pin_2)*%
X135000000Y-85250000D03*
X121750000Y-73500000D03*
%TO.N,Net-(J2-Pin_1)*%
X138040689Y-85650000D03*
X128250000Y-68000000D03*
%TO.N,Net-(J5-Pin_1)*%
X133500000Y-77750000D03*
%TO.N,/REGIN*%
X147000000Y-76000000D03*
X145500000Y-66250000D03*
%TD*%
D29*
%TO.N,Net-(J2-Pin_1)*%
X127250000Y-67000000D02*
X123500000Y-67000000D01*
X128250000Y-68000000D02*
X127250000Y-67000000D01*
%TO.N,Net-(J2-Pin_2)*%
X118500000Y-67000000D02*
X118500000Y-67500000D01*
X143200000Y-83950000D02*
X141370000Y-83950000D01*
X143500000Y-84250000D02*
X143200000Y-83950000D01*
X143500000Y-84750000D02*
X143500000Y-84250000D01*
X143250000Y-85000000D02*
X143500000Y-84750000D01*
X137000000Y-85000000D02*
X143250000Y-85000000D01*
X136750000Y-85250000D02*
X137000000Y-85000000D01*
X135000000Y-85250000D02*
X136750000Y-85250000D01*
%TO.N,Net-(J2-Pin_1)*%
X138190689Y-85500000D02*
X138040689Y-85650000D01*
X143500000Y-85500000D02*
X138190689Y-85500000D01*
X144000000Y-83000000D02*
X144000000Y-85000000D01*
X143650000Y-82650000D02*
X144000000Y-83000000D01*
X144000000Y-85000000D02*
X143500000Y-85500000D01*
X141370000Y-82650000D02*
X143650000Y-82650000D01*
%TO.N,Net-(J5-Pin_1)*%
X129250000Y-82712500D02*
X129250000Y-82000000D01*
X129250000Y-82000000D02*
X133500000Y-77750000D01*
%TO.N,GND*%
X137462500Y-76500000D02*
X135500000Y-76500000D01*
%TO.N,/REG25*%
X139000000Y-74500000D02*
X139537500Y-75037500D01*
X130000000Y-74500000D02*
X139000000Y-74500000D01*
X139537500Y-75037500D02*
X139537500Y-76500000D01*
%TO.N,Net-(J2-Pin_2)*%
X121750000Y-70750000D02*
X118500000Y-67500000D01*
X121750000Y-70750000D02*
X121750000Y-73500000D01*
%TO.N,Net-(J1-Pin_3)*%
X158250000Y-85750000D02*
X155500000Y-83000000D01*
X155500000Y-83000000D02*
X155500000Y-85500000D01*
X131750000Y-99250000D02*
X133250000Y-97750000D01*
X120077500Y-99250000D02*
X131750000Y-99250000D01*
X108327500Y-87500000D02*
X120077500Y-99250000D01*
%TO.N,Net-(J3-Pin_1)*%
X131950000Y-67200000D02*
X130250000Y-65500000D01*
X131950000Y-69000000D02*
X131950000Y-67200000D01*
%TO.N,/REGIN*%
X147787500Y-80037500D02*
X147750000Y-80037500D01*
%TO.N,Net-(J8-Pin_2)*%
X138000000Y-69000000D02*
X137250000Y-68250000D01*
X139950000Y-69000000D02*
X138000000Y-69000000D01*
%TO.N,/REG25*%
X130750000Y-75250000D02*
X130000000Y-74500000D01*
X130750000Y-77250000D02*
X130750000Y-75250000D01*
X130500000Y-77500000D02*
X130750000Y-77250000D01*
X127790000Y-92000000D02*
X129500000Y-92000000D01*
X123790000Y-96000000D02*
X127790000Y-92000000D01*
%TO.N,Net-(J3-Pin_2)*%
X158500000Y-88172500D02*
X165172500Y-81500000D01*
X158500000Y-96000000D02*
X158500000Y-88172500D01*
X157250000Y-97250000D02*
X158500000Y-96000000D01*
X134000000Y-93500000D02*
X137750000Y-97250000D01*
X134000000Y-86500000D02*
X134000000Y-93500000D01*
X132750000Y-85250000D02*
X134000000Y-86500000D01*
X137750000Y-97250000D02*
X157250000Y-97250000D01*
X133950000Y-83300000D02*
X132750000Y-84500000D01*
X132750000Y-84500000D02*
X132750000Y-85250000D01*
X135630000Y-83300000D02*
X133950000Y-83300000D01*
%TO.N,Net-(J3-Pin_1)*%
X162750000Y-86500000D02*
X165172500Y-86500000D01*
X160250000Y-90750000D02*
X160250000Y-89000000D01*
X160250000Y-89000000D02*
X162750000Y-86500000D01*
X133750000Y-84750000D02*
X133750000Y-85000000D01*
X134000000Y-84500000D02*
X133750000Y-84750000D01*
X134550000Y-83950000D02*
X134000000Y-84500000D01*
X135630000Y-83950000D02*
X134550000Y-83950000D01*
%TO.N,Net-(J3-Pin_3)*%
X167250000Y-76500000D02*
X165172500Y-76500000D01*
X167750000Y-77000000D02*
X167250000Y-76500000D01*
X157500000Y-97750000D02*
X167750000Y-87500000D01*
X137500000Y-97750000D02*
X157500000Y-97750000D01*
X133500000Y-93750000D02*
X137500000Y-97750000D01*
X133500000Y-87000000D02*
X133500000Y-93750000D01*
X132000000Y-85500000D02*
X133500000Y-87000000D01*
X167750000Y-87500000D02*
X167750000Y-77000000D01*
X132000000Y-84250000D02*
X132000000Y-85500000D01*
X133600000Y-82650000D02*
X132000000Y-84250000D01*
X135630000Y-82650000D02*
X133600000Y-82650000D01*
%TO.N,Net-(J9-Pin_1)*%
X126750000Y-87250000D02*
X126750000Y-88037500D01*
X126050000Y-86550000D02*
X126750000Y-87250000D01*
X126750000Y-88037500D02*
X125537500Y-89250000D01*
X126050000Y-85750000D02*
X126050000Y-86550000D01*
X124500000Y-91250000D02*
X116250000Y-91250000D01*
%TO.N,Net-(J5-Pin_1)*%
X126050000Y-80950000D02*
X126050000Y-79250000D01*
X125537500Y-81462500D02*
X126050000Y-80950000D01*
X125537500Y-82250000D02*
X125537500Y-81462500D01*
X126750000Y-75000000D02*
X116250000Y-75000000D01*
X128250000Y-78000000D02*
X128250000Y-76500000D01*
X128250000Y-76500000D02*
X126750000Y-75000000D01*
X126050000Y-79250000D02*
X127000000Y-79250000D01*
X127000000Y-79250000D02*
X128250000Y-78000000D01*
D30*
%TO.N,Net-(J1-Pin_1)*%
X122900000Y-79200000D02*
X122950000Y-79250000D01*
X118500000Y-79200000D02*
X122900000Y-79200000D01*
X113700000Y-79200000D02*
X118500000Y-79200000D01*
D29*
%TO.N,Net-(U1-P6_TS)*%
X120960000Y-98250000D02*
X118710000Y-96000000D01*
X133000000Y-87500000D02*
X133000000Y-93750000D01*
X131250000Y-85750000D02*
X133000000Y-87500000D01*
X128500000Y-98250000D02*
X120960000Y-98250000D01*
X133500000Y-82000000D02*
X131250000Y-84250000D01*
X135630000Y-82000000D02*
X133500000Y-82000000D01*
X131250000Y-84250000D02*
X131250000Y-85750000D01*
X133000000Y-93750000D02*
X128500000Y-98250000D01*
%TO.N,Net-(J5-Pin_1)*%
X130500000Y-84000000D02*
X130500000Y-86000000D01*
X130500000Y-86000000D02*
X132250000Y-87750000D01*
X133150000Y-81350000D02*
X130500000Y-84000000D01*
X135630000Y-81350000D02*
X133150000Y-81350000D01*
%TO.N,Net-(J9-Pin_1)*%
X129250000Y-84500000D02*
X133050000Y-80700000D01*
X129250000Y-84787500D02*
X129250000Y-84500000D01*
X133050000Y-80700000D02*
X135630000Y-80700000D01*
X128500000Y-84787500D02*
X129250000Y-84787500D01*
%TO.N,Net-(J5-Pin_1)*%
X127787500Y-82712500D02*
X129250000Y-82712500D01*
X127000000Y-83500000D02*
X127787500Y-82712500D01*
X125750000Y-83500000D02*
X127000000Y-83500000D01*
X125537500Y-83287500D02*
X125750000Y-83500000D01*
X125537500Y-82250000D02*
X125537500Y-83287500D01*
%TO.N,/REGIN*%
X149910000Y-86090000D02*
X151730000Y-86090000D01*
X149000000Y-87000000D02*
X149910000Y-86090000D01*
X151000000Y-93000000D02*
X150500000Y-92500000D01*
X153500000Y-93000000D02*
X151000000Y-93000000D01*
X142650000Y-81350000D02*
X143300000Y-80700000D01*
X141370000Y-81350000D02*
X142650000Y-81350000D01*
X143300000Y-80700000D02*
X141370000Y-80700000D01*
X145500000Y-80037500D02*
X143962500Y-80037500D01*
X143962500Y-80037500D02*
X143300000Y-80700000D01*
%TO.N,Net-(J6-Pin_1)*%
X147212500Y-82462500D02*
X145500000Y-82462500D01*
X148500000Y-83750000D02*
X147212500Y-82462500D01*
X148500000Y-85250000D02*
X148500000Y-83750000D01*
X144950000Y-86500000D02*
X147250000Y-86500000D01*
X143450000Y-88000000D02*
X144950000Y-86500000D01*
X147250000Y-86500000D02*
X148500000Y-85250000D01*
X144250000Y-82000000D02*
X141370000Y-82000000D01*
X145500000Y-82462500D02*
X144712500Y-82462500D01*
X144712500Y-82462500D02*
X144250000Y-82000000D01*
%TO.N,/REGIN*%
X151730000Y-83980000D02*
X147787500Y-80037500D01*
X151730000Y-86090000D02*
X151730000Y-83980000D01*
%TO.N,Net-(J1-Pin_3)*%
X154270000Y-87480000D02*
X154270000Y-86090000D01*
X153750000Y-88000000D02*
X154270000Y-87480000D01*
X146550000Y-88000000D02*
X153750000Y-88000000D01*
%TO.N,Net-(J6-Pin_1)*%
X143450000Y-92000000D02*
X143450000Y-88000000D01*
X137750000Y-87750000D02*
X143200000Y-87750000D01*
X143200000Y-87750000D02*
X143450000Y-88000000D01*
X137000000Y-88500000D02*
X137750000Y-87750000D01*
X137000000Y-89500000D02*
X137000000Y-88500000D01*
%TO.N,Net-(J9-Pin_1)*%
X127537500Y-85750000D02*
X128500000Y-84787500D01*
X126050000Y-85750000D02*
X127537500Y-85750000D01*
%TO.N,Net-(J3-Pin_2)*%
X152672500Y-69000000D02*
X143050000Y-69000000D01*
X165172500Y-81500000D02*
X152672500Y-69000000D01*
%TO.N,Net-(J1-Pin_3)*%
X155500000Y-82250000D02*
X155500000Y-83000000D01*
X154910000Y-86090000D02*
X154270000Y-86090000D01*
X154550000Y-81300000D02*
X155500000Y-82250000D01*
X155500000Y-85500000D02*
X154910000Y-86090000D01*
X154550000Y-80500000D02*
X154550000Y-81300000D01*
%TO.N,Net-(D1-K)*%
X151450000Y-81950000D02*
X153000000Y-83500000D01*
X153000000Y-83500000D02*
X153000000Y-86090000D01*
X151450000Y-80500000D02*
X151450000Y-81950000D01*
X149190000Y-78240000D02*
X151450000Y-80500000D01*
X149190000Y-76000000D02*
X149190000Y-78240000D01*
%TO.N,/REG25*%
X142700000Y-80050000D02*
X141370000Y-80050000D01*
X143500000Y-79250000D02*
X142700000Y-80050000D01*
X141250000Y-76500000D02*
X143500000Y-78750000D01*
X143500000Y-78750000D02*
X143500000Y-79250000D01*
X139537500Y-76500000D02*
X141250000Y-76500000D01*
%TO.N,Net-(J7-Pin_1)*%
X151599000Y-63099000D02*
X155500000Y-67000000D01*
X134710000Y-64250000D02*
X135861000Y-63099000D01*
X135861000Y-63099000D02*
X151599000Y-63099000D01*
%TO.N,Net-(J8-Pin_2)*%
X136500000Y-69000000D02*
X135050000Y-69000000D01*
X137250000Y-64250000D02*
X137250000Y-68250000D01*
X137250000Y-68250000D02*
X136500000Y-69000000D01*
%TO.N,Net-(J9-Pin_1)*%
X125537500Y-90212500D02*
X124500000Y-91250000D01*
X125537500Y-89250000D02*
X125537500Y-90212500D01*
%TO.N,Net-(J5-Pin_1)*%
X126050000Y-79250000D02*
X126050000Y-78800000D01*
D30*
%TO.N,Net-(J1-Pin_1)*%
X112000000Y-77500000D02*
X113700000Y-79200000D01*
X108327500Y-77500000D02*
X112000000Y-77500000D01*
D29*
%TO.N,/REGIN*%
X139790000Y-64250000D02*
X143500000Y-64250000D01*
X143500000Y-64250000D02*
X145500000Y-66250000D01*
X147750000Y-80037500D02*
X145500000Y-80037500D01*
X147000000Y-76000000D02*
X147000000Y-79287500D01*
X147000000Y-79287500D02*
X147750000Y-80037500D01*
%TD*%
%TA.AperFunction,Conductor*%
%TO.N,GND*%
G36*
X135377941Y-62520185D02*
G01*
X135423696Y-62572989D01*
X135433640Y-62642147D01*
X135404615Y-62705703D01*
X135398583Y-62712181D01*
X135380478Y-62730286D01*
X135194522Y-62916241D01*
X135133199Y-62949726D01*
X135068523Y-62946491D01*
X135026245Y-62932754D01*
X134886272Y-62910584D01*
X134816287Y-62899500D01*
X134603713Y-62899500D01*
X134555042Y-62907208D01*
X134393760Y-62932753D01*
X134191585Y-62998444D01*
X134002179Y-63094951D01*
X133830213Y-63219890D01*
X133679890Y-63370213D01*
X133554951Y-63542179D01*
X133458444Y-63731585D01*
X133392753Y-63933760D01*
X133359500Y-64143713D01*
X133359500Y-64356286D01*
X133392753Y-64566239D01*
X133458444Y-64768414D01*
X133554951Y-64957820D01*
X133679890Y-65129786D01*
X133830213Y-65280109D01*
X134002179Y-65405048D01*
X134002181Y-65405049D01*
X134002184Y-65405051D01*
X134191588Y-65501557D01*
X134393757Y-65567246D01*
X134603713Y-65600500D01*
X134603714Y-65600500D01*
X134816286Y-65600500D01*
X134816287Y-65600500D01*
X135026243Y-65567246D01*
X135228412Y-65501557D01*
X135417816Y-65405051D01*
X135504138Y-65342335D01*
X135589786Y-65280109D01*
X135589788Y-65280106D01*
X135589792Y-65280104D01*
X135740104Y-65129792D01*
X135740106Y-65129788D01*
X135740109Y-65129786D01*
X135865048Y-64957820D01*
X135865047Y-64957820D01*
X135865051Y-64957816D01*
X135869514Y-64949054D01*
X135917488Y-64898259D01*
X135985308Y-64881463D01*
X136051444Y-64903999D01*
X136090486Y-64949056D01*
X136094951Y-64957820D01*
X136219890Y-65129786D01*
X136370213Y-65280109D01*
X136542184Y-65405051D01*
X136542184Y-65405052D01*
X136581793Y-65425233D01*
X136632590Y-65473206D01*
X136649500Y-65535718D01*
X136649500Y-67949903D01*
X136629815Y-68016942D01*
X136613181Y-68037584D01*
X136391528Y-68259236D01*
X136330205Y-68292721D01*
X136260513Y-68287737D01*
X136204580Y-68245865D01*
X136186141Y-68210560D01*
X136150199Y-68102096D01*
X136134814Y-68055666D01*
X136042712Y-67906344D01*
X135918656Y-67782288D01*
X135769334Y-67690186D01*
X135602797Y-67635001D01*
X135602795Y-67635000D01*
X135500010Y-67624500D01*
X134599998Y-67624500D01*
X134599980Y-67624501D01*
X134497203Y-67635000D01*
X134497200Y-67635001D01*
X134330668Y-67690185D01*
X134330663Y-67690187D01*
X134181342Y-67782289D01*
X134057289Y-67906342D01*
X133965187Y-68055663D01*
X133965185Y-68055668D01*
X133937349Y-68139670D01*
X133910001Y-68222203D01*
X133910001Y-68222204D01*
X133910000Y-68222204D01*
X133899500Y-68324983D01*
X133899500Y-69675001D01*
X133899501Y-69675018D01*
X133910000Y-69777796D01*
X133910001Y-69777799D01*
X133965185Y-69944331D01*
X133965186Y-69944334D01*
X134057288Y-70093656D01*
X134181344Y-70217712D01*
X134330666Y-70309814D01*
X134497203Y-70364999D01*
X134599991Y-70375500D01*
X135500008Y-70375499D01*
X135500016Y-70375498D01*
X135500019Y-70375498D01*
X135556302Y-70369748D01*
X135602797Y-70364999D01*
X135769334Y-70309814D01*
X135918656Y-70217712D01*
X136042712Y-70093656D01*
X136134814Y-69944334D01*
X136189999Y-69777797D01*
X136192431Y-69753989D01*
X136196732Y-69711897D01*
X136197726Y-69709459D01*
X136197352Y-69706853D01*
X136210854Y-69677287D01*
X136223129Y-69647205D01*
X136225283Y-69645692D01*
X136226377Y-69643297D01*
X136253718Y-69625725D01*
X136280310Y-69607054D01*
X136283621Y-69606508D01*
X136285155Y-69605523D01*
X136320090Y-69600500D01*
X136413331Y-69600500D01*
X136413347Y-69600501D01*
X136420943Y-69600501D01*
X136579054Y-69600501D01*
X136579057Y-69600501D01*
X136731785Y-69559577D01*
X136781904Y-69530639D01*
X136868716Y-69480520D01*
X136980520Y-69368716D01*
X136980520Y-69368714D01*
X136990728Y-69358507D01*
X136990729Y-69358504D01*
X137162321Y-69186912D01*
X137223641Y-69153430D01*
X137293333Y-69158414D01*
X137337680Y-69186915D01*
X137515139Y-69364374D01*
X137515149Y-69364385D01*
X137519479Y-69368715D01*
X137519480Y-69368716D01*
X137631284Y-69480520D01*
X137718095Y-69530639D01*
X137718097Y-69530641D01*
X137756151Y-69552611D01*
X137768215Y-69559577D01*
X137920943Y-69600500D01*
X138679911Y-69600500D01*
X138746950Y-69620185D01*
X138792705Y-69672989D01*
X138803269Y-69711898D01*
X138810001Y-69777797D01*
X138810001Y-69777799D01*
X138865185Y-69944331D01*
X138865186Y-69944334D01*
X138957288Y-70093656D01*
X139081344Y-70217712D01*
X139230666Y-70309814D01*
X139397203Y-70364999D01*
X139499991Y-70375500D01*
X140400008Y-70375499D01*
X140400016Y-70375498D01*
X140400019Y-70375498D01*
X140456302Y-70369748D01*
X140502797Y-70364999D01*
X140669334Y-70309814D01*
X140818656Y-70217712D01*
X140942712Y-70093656D01*
X141034814Y-69944334D01*
X141089999Y-69777797D01*
X141100500Y-69675009D01*
X141100499Y-68324992D01*
X141097202Y-68292721D01*
X141089999Y-68222203D01*
X141089998Y-68222200D01*
X141079228Y-68189699D01*
X141034814Y-68055666D01*
X140942712Y-67906344D01*
X140818656Y-67782288D01*
X140669334Y-67690186D01*
X140502797Y-67635001D01*
X140502795Y-67635000D01*
X140400010Y-67624500D01*
X139499998Y-67624500D01*
X139499980Y-67624501D01*
X139397203Y-67635000D01*
X139397200Y-67635001D01*
X139230668Y-67690185D01*
X139230663Y-67690187D01*
X139081342Y-67782289D01*
X138957289Y-67906342D01*
X138865187Y-68055663D01*
X138865185Y-68055668D01*
X138837349Y-68139670D01*
X138810002Y-68222202D01*
X138810001Y-68222204D01*
X138810000Y-68222205D01*
X138803268Y-68288103D01*
X138776871Y-68352795D01*
X138719690Y-68392946D01*
X138679910Y-68399500D01*
X138300097Y-68399500D01*
X138233058Y-68379815D01*
X138212416Y-68363181D01*
X137886819Y-68037584D01*
X137853334Y-67976261D01*
X137850500Y-67949903D01*
X137850500Y-65535718D01*
X137870185Y-65468679D01*
X137918207Y-65425233D01*
X137957815Y-65405052D01*
X137957815Y-65405051D01*
X137957816Y-65405051D01*
X138094477Y-65305761D01*
X138129784Y-65280110D01*
X138129784Y-65280109D01*
X138129792Y-65280104D01*
X138243329Y-65166566D01*
X138304648Y-65133084D01*
X138374340Y-65138068D01*
X138430274Y-65179939D01*
X138447189Y-65210917D01*
X138496202Y-65342328D01*
X138496206Y-65342335D01*
X138582452Y-65457544D01*
X138582455Y-65457547D01*
X138697664Y-65543793D01*
X138697671Y-65543797D01*
X138832517Y-65594091D01*
X138832516Y-65594091D01*
X138839444Y-65594835D01*
X138892127Y-65600500D01*
X140687872Y-65600499D01*
X140747483Y-65594091D01*
X140882331Y-65543796D01*
X140997546Y-65457546D01*
X141083796Y-65342331D01*
X141134091Y-65207483D01*
X141140500Y-65147873D01*
X141140500Y-64974500D01*
X141160185Y-64907461D01*
X141212989Y-64861706D01*
X141264500Y-64850500D01*
X143199903Y-64850500D01*
X143266942Y-64870185D01*
X143287584Y-64886819D01*
X144665425Y-66264660D01*
X144698910Y-66325983D01*
X144699361Y-66328149D01*
X144730261Y-66483491D01*
X144730264Y-66483501D01*
X144790602Y-66629172D01*
X144790609Y-66629185D01*
X144878210Y-66760288D01*
X144878213Y-66760292D01*
X144989707Y-66871786D01*
X144989711Y-66871789D01*
X145120814Y-66959390D01*
X145120827Y-66959397D01*
X145266498Y-67019735D01*
X145266503Y-67019737D01*
X145421153Y-67050499D01*
X145421156Y-67050500D01*
X145421158Y-67050500D01*
X145578844Y-67050500D01*
X145578845Y-67050499D01*
X145733497Y-67019737D01*
X145879179Y-66959394D01*
X146010289Y-66871789D01*
X146050794Y-66831284D01*
X146091797Y-66790282D01*
X146121786Y-66760292D01*
X146121789Y-66760289D01*
X146209394Y-66629179D01*
X146269737Y-66483497D01*
X146300500Y-66328842D01*
X146300500Y-66171158D01*
X146300500Y-66171155D01*
X146300499Y-66171153D01*
X146286365Y-66100097D01*
X146269737Y-66016503D01*
X146262001Y-65997827D01*
X146209397Y-65870827D01*
X146209390Y-65870814D01*
X146121789Y-65739711D01*
X146121786Y-65739707D01*
X146010292Y-65628213D01*
X146010288Y-65628210D01*
X145879185Y-65540609D01*
X145879172Y-65540602D01*
X145733501Y-65480264D01*
X145733491Y-65480261D01*
X145578149Y-65449361D01*
X145516238Y-65416976D01*
X145514660Y-65415425D01*
X144010416Y-63911181D01*
X143976931Y-63849858D01*
X143981915Y-63780166D01*
X144023787Y-63724233D01*
X144089251Y-63699816D01*
X144098097Y-63699500D01*
X151298903Y-63699500D01*
X151365942Y-63719185D01*
X151386584Y-63735819D01*
X153663181Y-66012416D01*
X153696666Y-66073739D01*
X153699500Y-66100097D01*
X153699500Y-68100001D01*
X153699501Y-68100018D01*
X153710000Y-68202796D01*
X153710001Y-68202799D01*
X153765185Y-68369331D01*
X153765187Y-68369336D01*
X153778728Y-68391289D01*
X153857288Y-68518656D01*
X153981344Y-68642712D01*
X154130666Y-68734814D01*
X154297203Y-68789999D01*
X154399991Y-68800500D01*
X156600008Y-68800499D01*
X156702797Y-68789999D01*
X156869334Y-68734814D01*
X157018656Y-68642712D01*
X157142712Y-68518656D01*
X157234814Y-68369334D01*
X157289999Y-68202797D01*
X157300500Y-68100009D01*
X157300499Y-66865186D01*
X162599500Y-66865186D01*
X162599500Y-67134813D01*
X162629686Y-67402719D01*
X162629687Y-67402728D01*
X162629688Y-67402732D01*
X162632340Y-67414351D01*
X162689684Y-67665594D01*
X162689687Y-67665602D01*
X162778734Y-67920082D01*
X162895714Y-68162994D01*
X162895716Y-68162997D01*
X163039162Y-68391289D01*
X163207266Y-68602085D01*
X163397915Y-68792734D01*
X163608711Y-68960838D01*
X163837003Y-69104284D01*
X164079921Y-69221267D01*
X164271049Y-69288145D01*
X164334397Y-69310312D01*
X164334405Y-69310315D01*
X164334408Y-69310315D01*
X164334409Y-69310316D01*
X164597268Y-69370312D01*
X164865187Y-69400499D01*
X164865188Y-69400500D01*
X164865191Y-69400500D01*
X165134812Y-69400500D01*
X165134812Y-69400499D01*
X165402732Y-69370312D01*
X165665591Y-69310316D01*
X165920079Y-69221267D01*
X166162997Y-69104284D01*
X166391289Y-68960838D01*
X166602085Y-68792734D01*
X166792734Y-68602085D01*
X166960838Y-68391289D01*
X167104284Y-68162997D01*
X167221267Y-67920079D01*
X167310316Y-67665591D01*
X167370312Y-67402732D01*
X167400500Y-67134809D01*
X167400500Y-66865191D01*
X167370312Y-66597268D01*
X167310316Y-66334409D01*
X167308369Y-66328846D01*
X167285910Y-66264660D01*
X167221267Y-66079921D01*
X167124595Y-65879179D01*
X167104285Y-65837005D01*
X167104284Y-65837003D01*
X166960838Y-65608711D01*
X166792734Y-65397915D01*
X166602085Y-65207266D01*
X166567662Y-65179815D01*
X166515313Y-65138068D01*
X166391289Y-65039162D01*
X166162997Y-64895716D01*
X166162994Y-64895714D01*
X165920082Y-64778734D01*
X165665602Y-64689687D01*
X165665594Y-64689684D01*
X165468446Y-64644687D01*
X165402732Y-64629688D01*
X165402728Y-64629687D01*
X165402719Y-64629686D01*
X165134813Y-64599500D01*
X165134809Y-64599500D01*
X164865191Y-64599500D01*
X164865186Y-64599500D01*
X164597280Y-64629686D01*
X164597268Y-64629688D01*
X164334405Y-64689684D01*
X164334397Y-64689687D01*
X164079917Y-64778734D01*
X163837005Y-64895714D01*
X163608712Y-65039161D01*
X163397915Y-65207265D01*
X163207265Y-65397915D01*
X163039161Y-65608712D01*
X162895714Y-65837005D01*
X162778734Y-66079917D01*
X162689687Y-66334397D01*
X162689684Y-66334405D01*
X162629688Y-66597268D01*
X162629686Y-66597280D01*
X162599500Y-66865186D01*
X157300499Y-66865186D01*
X157300499Y-65899992D01*
X157297518Y-65870814D01*
X157289999Y-65797203D01*
X157289998Y-65797200D01*
X157270948Y-65739711D01*
X157234814Y-65630666D01*
X157142712Y-65481344D01*
X157018656Y-65357288D01*
X156871481Y-65266510D01*
X156869336Y-65265187D01*
X156869331Y-65265185D01*
X156867862Y-65264698D01*
X156702797Y-65210001D01*
X156702795Y-65210000D01*
X156600016Y-65199500D01*
X156600009Y-65199500D01*
X154600097Y-65199500D01*
X154533058Y-65179815D01*
X154512416Y-65163181D01*
X152086588Y-62737353D01*
X152079520Y-62730285D01*
X152079520Y-62730284D01*
X152061415Y-62712179D01*
X152027931Y-62650856D01*
X152030780Y-62611026D01*
X152032916Y-62581166D01*
X152047268Y-62561995D01*
X152066113Y-62536821D01*
X152074788Y-62525233D01*
X152074788Y-62525232D01*
X152074790Y-62525231D01*
X152115837Y-62509922D01*
X152140252Y-62500816D01*
X152149098Y-62500500D01*
X170375500Y-62500500D01*
X170442539Y-62520185D01*
X170488294Y-62572989D01*
X170499500Y-62624500D01*
X170499500Y-99375500D01*
X170479815Y-99442539D01*
X170427011Y-99488294D01*
X170375500Y-99499500D01*
X132649097Y-99499500D01*
X132582058Y-99479815D01*
X132536303Y-99427011D01*
X132526359Y-99357853D01*
X132555384Y-99294297D01*
X132561416Y-99287819D01*
X133264662Y-98584572D01*
X133325983Y-98551089D01*
X133328150Y-98550638D01*
X133386085Y-98539113D01*
X133483497Y-98519737D01*
X133629179Y-98459394D01*
X133760289Y-98371789D01*
X133871789Y-98260289D01*
X133959394Y-98129179D01*
X134019737Y-97983497D01*
X134050500Y-97828842D01*
X134050500Y-97671158D01*
X134050500Y-97671155D01*
X134050499Y-97671153D01*
X134040386Y-97620311D01*
X134019737Y-97516503D01*
X134000999Y-97471265D01*
X133959397Y-97370827D01*
X133959390Y-97370814D01*
X133871789Y-97239711D01*
X133871786Y-97239707D01*
X133760292Y-97128213D01*
X133760288Y-97128210D01*
X133629185Y-97040609D01*
X133629172Y-97040602D01*
X133483501Y-96980264D01*
X133483489Y-96980261D01*
X133328845Y-96949500D01*
X133328842Y-96949500D01*
X133171158Y-96949500D01*
X133171155Y-96949500D01*
X133016510Y-96980261D01*
X133016498Y-96980264D01*
X132870827Y-97040602D01*
X132870814Y-97040609D01*
X132739711Y-97128210D01*
X132739707Y-97128213D01*
X132628213Y-97239707D01*
X132628210Y-97239711D01*
X132540609Y-97370814D01*
X132540602Y-97370827D01*
X132480264Y-97516498D01*
X132480261Y-97516508D01*
X132449361Y-97671850D01*
X132416976Y-97733761D01*
X132415425Y-97735339D01*
X131537584Y-98613181D01*
X131476261Y-98646666D01*
X131449903Y-98649500D01*
X129249096Y-98649500D01*
X129182057Y-98629815D01*
X129136302Y-98577011D01*
X129126358Y-98507853D01*
X129155383Y-98444297D01*
X129161415Y-98437819D01*
X130997150Y-96602084D01*
X133162322Y-94436912D01*
X133223641Y-94403430D01*
X133293333Y-94408414D01*
X133337680Y-94436915D01*
X137015139Y-98114374D01*
X137015149Y-98114385D01*
X137019479Y-98118715D01*
X137019480Y-98118716D01*
X137131284Y-98230520D01*
X137182845Y-98260288D01*
X137218095Y-98280639D01*
X137218097Y-98280641D01*
X137268213Y-98309576D01*
X137268215Y-98309577D01*
X137420942Y-98350500D01*
X137420943Y-98350500D01*
X157413331Y-98350500D01*
X157413347Y-98350501D01*
X157420943Y-98350501D01*
X157579054Y-98350501D01*
X157579057Y-98350501D01*
X157731785Y-98309577D01*
X157781904Y-98280639D01*
X157868716Y-98230520D01*
X157980520Y-98118716D01*
X157980520Y-98118714D01*
X157990728Y-98108507D01*
X157990730Y-98108504D01*
X161234048Y-94865186D01*
X162599500Y-94865186D01*
X162599500Y-95134813D01*
X162629686Y-95402719D01*
X162629688Y-95402731D01*
X162689684Y-95665594D01*
X162689687Y-95665602D01*
X162778734Y-95920082D01*
X162895714Y-96162994D01*
X162895716Y-96162997D01*
X163039162Y-96391289D01*
X163207266Y-96602085D01*
X163397915Y-96792734D01*
X163608711Y-96960838D01*
X163837003Y-97104284D01*
X164079921Y-97221267D01*
X164271049Y-97288145D01*
X164334397Y-97310312D01*
X164334405Y-97310315D01*
X164334408Y-97310315D01*
X164334409Y-97310316D01*
X164597268Y-97370312D01*
X164865187Y-97400499D01*
X164865188Y-97400500D01*
X164865191Y-97400500D01*
X165134812Y-97400500D01*
X165134812Y-97400499D01*
X165402732Y-97370312D01*
X165665591Y-97310316D01*
X165920079Y-97221267D01*
X166162997Y-97104284D01*
X166391289Y-96960838D01*
X166602085Y-96792734D01*
X166792734Y-96602085D01*
X166960838Y-96391289D01*
X167104284Y-96162997D01*
X167221267Y-95920079D01*
X167310316Y-95665591D01*
X167370312Y-95402732D01*
X167400500Y-95134809D01*
X167400500Y-94865191D01*
X167370312Y-94597268D01*
X167310316Y-94334409D01*
X167221267Y-94079921D01*
X167133593Y-93897864D01*
X167104285Y-93837005D01*
X167033593Y-93724500D01*
X166960838Y-93608711D01*
X166792734Y-93397915D01*
X166602085Y-93207266D01*
X166391289Y-93039162D01*
X166162997Y-92895716D01*
X166162994Y-92895714D01*
X165920082Y-92778734D01*
X165665602Y-92689687D01*
X165665594Y-92689684D01*
X165468446Y-92644687D01*
X165402732Y-92629688D01*
X165402728Y-92629687D01*
X165402719Y-92629686D01*
X165134813Y-92599500D01*
X165134809Y-92599500D01*
X164865191Y-92599500D01*
X164865186Y-92599500D01*
X164597280Y-92629686D01*
X164597268Y-92629688D01*
X164334405Y-92689684D01*
X164334397Y-92689687D01*
X164079917Y-92778734D01*
X163837005Y-92895714D01*
X163608712Y-93039161D01*
X163397915Y-93207265D01*
X163207265Y-93397915D01*
X163039161Y-93608712D01*
X162895714Y-93837005D01*
X162778734Y-94079917D01*
X162689687Y-94334397D01*
X162689684Y-94334405D01*
X162629688Y-94597268D01*
X162629686Y-94597280D01*
X162599500Y-94865186D01*
X161234048Y-94865186D01*
X168108506Y-87990728D01*
X168108511Y-87990724D01*
X168118714Y-87980520D01*
X168118716Y-87980520D01*
X168230520Y-87868716D01*
X168287665Y-87769737D01*
X168309577Y-87731785D01*
X168350501Y-87579057D01*
X168350501Y-87420943D01*
X168350501Y-87413348D01*
X168350500Y-87413330D01*
X168350500Y-77089060D01*
X168350501Y-77089047D01*
X168350501Y-76920944D01*
X168350501Y-76920943D01*
X168309577Y-76768216D01*
X168277361Y-76712416D01*
X168230524Y-76631290D01*
X168230518Y-76631282D01*
X167618717Y-76019481D01*
X167618716Y-76019480D01*
X167511334Y-75957483D01*
X167511332Y-75957482D01*
X167481785Y-75940423D01*
X167481784Y-75940422D01*
X167481783Y-75940422D01*
X167409888Y-75921158D01*
X167329057Y-75899499D01*
X167170943Y-75899499D01*
X167163347Y-75899499D01*
X167163331Y-75899500D01*
X166955466Y-75899500D01*
X166888427Y-75879815D01*
X166842672Y-75827011D01*
X166840905Y-75822953D01*
X166816977Y-75765186D01*
X166790784Y-75701951D01*
X166790782Y-75701948D01*
X166790780Y-75701943D01*
X166743947Y-75620827D01*
X166672773Y-75497550D01*
X166596291Y-75397876D01*
X166529093Y-75310302D01*
X166529087Y-75310295D01*
X166362204Y-75143412D01*
X166362197Y-75143406D01*
X166174954Y-74999730D01*
X166174953Y-74999729D01*
X166174950Y-74999727D01*
X166093457Y-74952677D01*
X165970556Y-74881719D01*
X165970545Y-74881714D01*
X165752493Y-74791394D01*
X165654680Y-74765185D01*
X165524514Y-74730307D01*
X165524513Y-74730306D01*
X165524510Y-74730306D01*
X165290520Y-74699501D01*
X165290517Y-74699500D01*
X165290511Y-74699500D01*
X165054489Y-74699500D01*
X165054483Y-74699500D01*
X165054479Y-74699501D01*
X164820489Y-74730306D01*
X164592506Y-74791394D01*
X164374454Y-74881714D01*
X164374443Y-74881719D01*
X164170045Y-74999730D01*
X163982802Y-75143406D01*
X163982795Y-75143412D01*
X163815912Y-75310295D01*
X163815906Y-75310302D01*
X163672230Y-75497545D01*
X163554219Y-75701943D01*
X163554214Y-75701954D01*
X163463894Y-75920006D01*
X163402806Y-76147989D01*
X163372001Y-76381979D01*
X163372000Y-76381995D01*
X163372000Y-76618004D01*
X163372001Y-76618020D01*
X163394722Y-76790606D01*
X163402807Y-76852014D01*
X163411778Y-76885493D01*
X163463894Y-77079993D01*
X163554214Y-77298045D01*
X163554219Y-77298056D01*
X163625177Y-77420957D01*
X163672227Y-77502450D01*
X163672229Y-77502453D01*
X163672230Y-77502454D01*
X163815906Y-77689697D01*
X163815912Y-77689704D01*
X163982795Y-77856587D01*
X163982802Y-77856593D01*
X164056767Y-77913348D01*
X164170050Y-78000273D01*
X164301418Y-78076118D01*
X164374443Y-78118280D01*
X164374448Y-78118282D01*
X164374451Y-78118284D01*
X164592507Y-78208606D01*
X164820486Y-78269693D01*
X165054489Y-78300500D01*
X165054496Y-78300500D01*
X165290504Y-78300500D01*
X165290511Y-78300500D01*
X165524514Y-78269693D01*
X165752493Y-78208606D01*
X165970549Y-78118284D01*
X166174950Y-78000273D01*
X166362199Y-77856592D01*
X166529092Y-77689699D01*
X166672773Y-77502450D01*
X166789658Y-77300000D01*
X166790780Y-77298056D01*
X166790788Y-77298040D01*
X166811211Y-77248735D01*
X166839275Y-77180979D01*
X166859863Y-77155431D01*
X166879526Y-77129166D01*
X166881674Y-77128364D01*
X166883115Y-77126577D01*
X166914258Y-77116211D01*
X166944990Y-77104749D01*
X166947231Y-77105236D01*
X166949409Y-77104512D01*
X166981202Y-77112626D01*
X167013263Y-77119601D01*
X167015712Y-77121434D01*
X167017109Y-77121791D01*
X167041517Y-77140752D01*
X167113181Y-77212416D01*
X167146666Y-77273739D01*
X167149500Y-77300097D01*
X167149500Y-80979793D01*
X167129815Y-81046832D01*
X167077011Y-81092587D01*
X167007853Y-81102531D01*
X166944297Y-81073506D01*
X166906523Y-81014728D01*
X166905725Y-81011887D01*
X166902579Y-81000145D01*
X166881106Y-80920007D01*
X166790784Y-80701951D01*
X166790782Y-80701948D01*
X166790780Y-80701943D01*
X166718030Y-80575938D01*
X166672773Y-80497550D01*
X166529092Y-80310301D01*
X166529087Y-80310295D01*
X166362204Y-80143412D01*
X166362197Y-80143406D01*
X166174954Y-79999730D01*
X166174953Y-79999729D01*
X166174950Y-79999727D01*
X166077503Y-79943466D01*
X165970556Y-79881719D01*
X165970545Y-79881714D01*
X165752493Y-79791394D01*
X165524510Y-79730306D01*
X165290520Y-79699501D01*
X165290517Y-79699500D01*
X165290511Y-79699500D01*
X165054489Y-79699500D01*
X165054483Y-79699500D01*
X165054479Y-79699501D01*
X164820489Y-79730306D01*
X164592499Y-79791396D01*
X164471503Y-79841514D01*
X164402034Y-79848983D01*
X164339555Y-79817707D01*
X164336370Y-79814634D01*
X153160090Y-68638355D01*
X153160088Y-68638352D01*
X153041217Y-68519481D01*
X153041216Y-68519480D01*
X152954404Y-68469360D01*
X152954404Y-68469359D01*
X152954400Y-68469358D01*
X152904285Y-68440423D01*
X152751557Y-68399499D01*
X152593443Y-68399499D01*
X152585847Y-68399499D01*
X152585831Y-68399500D01*
X151597308Y-68399500D01*
X151530269Y-68379815D01*
X151509627Y-68363181D01*
X150747487Y-67601041D01*
X150807890Y-67576022D01*
X150914351Y-67504888D01*
X151004888Y-67414351D01*
X151076022Y-67307890D01*
X151101041Y-67247488D01*
X151937276Y-68083723D01*
X151937279Y-68083723D01*
X151999850Y-68002181D01*
X152117834Y-67797828D01*
X152117839Y-67797819D01*
X152208129Y-67579837D01*
X152269200Y-67351914D01*
X152299999Y-67117985D01*
X152300000Y-67117971D01*
X152300000Y-66882028D01*
X152299999Y-66882014D01*
X152269200Y-66648085D01*
X152208129Y-66420162D01*
X152117839Y-66202180D01*
X152117834Y-66202171D01*
X151999855Y-65997828D01*
X151999854Y-65997827D01*
X151937277Y-65916275D01*
X151101041Y-66752511D01*
X151076022Y-66692110D01*
X151004888Y-66585649D01*
X150914351Y-66495112D01*
X150807890Y-66423978D01*
X150747488Y-66398958D01*
X151583723Y-65562721D01*
X151502172Y-65500145D01*
X151502171Y-65500144D01*
X151297828Y-65382165D01*
X151297819Y-65382160D01*
X151079836Y-65291870D01*
X151079838Y-65291870D01*
X150851914Y-65230799D01*
X150617985Y-65200000D01*
X150382014Y-65200000D01*
X150148085Y-65230799D01*
X149920162Y-65291870D01*
X149702180Y-65382160D01*
X149702171Y-65382165D01*
X149497828Y-65500144D01*
X149497818Y-65500150D01*
X149416275Y-65562720D01*
X149416275Y-65562721D01*
X150252512Y-66398958D01*
X150192110Y-66423978D01*
X150085649Y-66495112D01*
X149995112Y-66585649D01*
X149923978Y-66692110D01*
X149898958Y-66752511D01*
X149062721Y-65916275D01*
X149062720Y-65916275D01*
X149000150Y-65997818D01*
X149000144Y-65997828D01*
X148882165Y-66202171D01*
X148882160Y-66202180D01*
X148791870Y-66420162D01*
X148730799Y-66648085D01*
X148700000Y-66882014D01*
X148700000Y-67117985D01*
X148730799Y-67351914D01*
X148791870Y-67579837D01*
X148882160Y-67797819D01*
X148882165Y-67797828D01*
X149000144Y-68002171D01*
X149000145Y-68002172D01*
X149062721Y-68083723D01*
X149898958Y-67247487D01*
X149923978Y-67307890D01*
X149995112Y-67414351D01*
X150085649Y-67504888D01*
X150192110Y-67576022D01*
X150252512Y-67601041D01*
X149490373Y-68363181D01*
X149429050Y-68396666D01*
X149402692Y-68399500D01*
X144320089Y-68399500D01*
X144253050Y-68379815D01*
X144207295Y-68327011D01*
X144196731Y-68288102D01*
X144192416Y-68245865D01*
X144189999Y-68222203D01*
X144134814Y-68055666D01*
X144042712Y-67906344D01*
X143918656Y-67782288D01*
X143769334Y-67690186D01*
X143602797Y-67635001D01*
X143602795Y-67635000D01*
X143500010Y-67624500D01*
X142599998Y-67624500D01*
X142599980Y-67624501D01*
X142497203Y-67635000D01*
X142497200Y-67635001D01*
X142330668Y-67690185D01*
X142330663Y-67690187D01*
X142181342Y-67782289D01*
X142057289Y-67906342D01*
X141965187Y-68055663D01*
X141965185Y-68055668D01*
X141937349Y-68139670D01*
X141910001Y-68222203D01*
X141910001Y-68222204D01*
X141910000Y-68222204D01*
X141899500Y-68324983D01*
X141899500Y-69675001D01*
X141899501Y-69675018D01*
X141910000Y-69777796D01*
X141910001Y-69777799D01*
X141965185Y-69944331D01*
X141965186Y-69944334D01*
X142057288Y-70093656D01*
X142181344Y-70217712D01*
X142330666Y-70309814D01*
X142497203Y-70364999D01*
X142599991Y-70375500D01*
X143500008Y-70375499D01*
X143500016Y-70375498D01*
X143500019Y-70375498D01*
X143556302Y-70369748D01*
X143602797Y-70364999D01*
X143769334Y-70309814D01*
X143918656Y-70217712D01*
X144042712Y-70093656D01*
X144134814Y-69944334D01*
X144189999Y-69777797D01*
X144192431Y-69753989D01*
X144196732Y-69711897D01*
X144223129Y-69647205D01*
X144280310Y-69607054D01*
X144320090Y-69600500D01*
X152372403Y-69600500D01*
X152439442Y-69620185D01*
X152460084Y-69636819D01*
X157402244Y-74578979D01*
X157435729Y-74640302D01*
X157430745Y-74709994D01*
X157388873Y-74765927D01*
X157323409Y-74790344D01*
X157276245Y-74784591D01*
X157114419Y-74732010D01*
X156912317Y-74700000D01*
X156707683Y-74700000D01*
X156505582Y-74732009D01*
X156310968Y-74795244D01*
X156128644Y-74888143D01*
X156084077Y-74920523D01*
X156084077Y-74920524D01*
X156763554Y-75600000D01*
X156757339Y-75600000D01*
X156655606Y-75627259D01*
X156564394Y-75679920D01*
X156489920Y-75754394D01*
X156437259Y-75845606D01*
X156410000Y-75947339D01*
X156410000Y-75953553D01*
X155730524Y-75274077D01*
X155730523Y-75274077D01*
X155698143Y-75318644D01*
X155605244Y-75500968D01*
X155542009Y-75695582D01*
X155510000Y-75897682D01*
X155510000Y-76102317D01*
X155542009Y-76304417D01*
X155605244Y-76499031D01*
X155698141Y-76681350D01*
X155698147Y-76681359D01*
X155730523Y-76725921D01*
X155730524Y-76725922D01*
X156410000Y-76046446D01*
X156410000Y-76052661D01*
X156437259Y-76154394D01*
X156489920Y-76245606D01*
X156564394Y-76320080D01*
X156655606Y-76372741D01*
X156757339Y-76400000D01*
X156763553Y-76400000D01*
X156084076Y-77079474D01*
X156128650Y-77111859D01*
X156310968Y-77204755D01*
X156505582Y-77267990D01*
X156707683Y-77300000D01*
X156912317Y-77300000D01*
X157114417Y-77267990D01*
X157309031Y-77204755D01*
X157491349Y-77111859D01*
X157535921Y-77079474D01*
X156856447Y-76400000D01*
X156862661Y-76400000D01*
X156964394Y-76372741D01*
X157055606Y-76320080D01*
X157130080Y-76245606D01*
X157182741Y-76154394D01*
X157210000Y-76052661D01*
X157210000Y-76046446D01*
X157889474Y-76725921D01*
X157921859Y-76681349D01*
X158014755Y-76499031D01*
X158077990Y-76304417D01*
X158110000Y-76102317D01*
X158110000Y-75897682D01*
X158077990Y-75695582D01*
X158025408Y-75533755D01*
X158023413Y-75463914D01*
X158059493Y-75404081D01*
X158122193Y-75373252D01*
X158191608Y-75381216D01*
X158231018Y-75407753D01*
X160902318Y-78079054D01*
X163487134Y-80663870D01*
X163520619Y-80725193D01*
X163515635Y-80794885D01*
X163514014Y-80799003D01*
X163463896Y-80919999D01*
X163402806Y-81147989D01*
X163372001Y-81381979D01*
X163372000Y-81381995D01*
X163372000Y-81618004D01*
X163372001Y-81618020D01*
X163402541Y-81850000D01*
X163402807Y-81852014D01*
X163463894Y-82079993D01*
X163510198Y-82191781D01*
X163514015Y-82200994D01*
X163521484Y-82270463D01*
X163490209Y-82332943D01*
X163487135Y-82336128D01*
X158134503Y-87688760D01*
X158134496Y-87688767D01*
X158131286Y-87691978D01*
X158131284Y-87691980D01*
X158019480Y-87803784D01*
X157993539Y-87848716D01*
X157987681Y-87858860D01*
X157987680Y-87858863D01*
X157940424Y-87940713D01*
X157940423Y-87940715D01*
X157899499Y-88093443D01*
X157899499Y-88093445D01*
X157899499Y-88261546D01*
X157899500Y-88261559D01*
X157899500Y-95699903D01*
X157879815Y-95766942D01*
X157863181Y-95787584D01*
X157037584Y-96613181D01*
X156976261Y-96646666D01*
X156949903Y-96649500D01*
X138050097Y-96649500D01*
X137983058Y-96629815D01*
X137962416Y-96613181D01*
X134636819Y-93287584D01*
X134603334Y-93226261D01*
X134600500Y-93199903D01*
X134600500Y-86589059D01*
X134600501Y-86589046D01*
X134600501Y-86420945D01*
X134600501Y-86420943D01*
X134559577Y-86268215D01*
X134509387Y-86181284D01*
X134488632Y-86145335D01*
X134472162Y-86077437D01*
X134495014Y-86011410D01*
X134549936Y-85968220D01*
X134619489Y-85961579D01*
X134643473Y-85968777D01*
X134765885Y-86019481D01*
X134766503Y-86019737D01*
X134921153Y-86050499D01*
X134921156Y-86050500D01*
X134921158Y-86050500D01*
X135078844Y-86050500D01*
X135078845Y-86050499D01*
X135233497Y-86019737D01*
X135379179Y-85959394D01*
X135436731Y-85920939D01*
X135510875Y-85871398D01*
X135577553Y-85850520D01*
X135579766Y-85850500D01*
X136663331Y-85850500D01*
X136663347Y-85850501D01*
X136670943Y-85850501D01*
X136829054Y-85850501D01*
X136829057Y-85850501D01*
X136981785Y-85809577D01*
X137031904Y-85780639D01*
X137078119Y-85753957D01*
X137146017Y-85737487D01*
X137212044Y-85760339D01*
X137255234Y-85815261D01*
X137261733Y-85837154D01*
X137270950Y-85883491D01*
X137270953Y-85883501D01*
X137331291Y-86029172D01*
X137331298Y-86029185D01*
X137418899Y-86160288D01*
X137418902Y-86160292D01*
X137530396Y-86271786D01*
X137530400Y-86271789D01*
X137661503Y-86359390D01*
X137661516Y-86359397D01*
X137807187Y-86419735D01*
X137807192Y-86419737D01*
X137961842Y-86450499D01*
X137961845Y-86450500D01*
X137961847Y-86450500D01*
X138119533Y-86450500D01*
X138119534Y-86450499D01*
X138274186Y-86419737D01*
X138397363Y-86368716D01*
X138419861Y-86359397D01*
X138419861Y-86359396D01*
X138419868Y-86359394D01*
X138550978Y-86271789D01*
X138662478Y-86160289D01*
X138665603Y-86155611D01*
X138719214Y-86110806D01*
X138768707Y-86100500D01*
X143413331Y-86100500D01*
X143413347Y-86100501D01*
X143420943Y-86100501D01*
X143579054Y-86100501D01*
X143579057Y-86100501D01*
X143731785Y-86059577D01*
X143784435Y-86029179D01*
X143868716Y-85980520D01*
X143980520Y-85868716D01*
X143980521Y-85868714D01*
X144381607Y-85467628D01*
X144442929Y-85434144D01*
X144512621Y-85439128D01*
X144550494Y-85463468D01*
X144550993Y-85462839D01*
X144556653Y-85467315D01*
X144705875Y-85559356D01*
X144705880Y-85559358D01*
X144872302Y-85614505D01*
X144872309Y-85614506D01*
X144975019Y-85624999D01*
X145249999Y-85624999D01*
X145750000Y-85624999D01*
X146024972Y-85624999D01*
X146024986Y-85624998D01*
X146127697Y-85614505D01*
X146294119Y-85559358D01*
X146294124Y-85559356D01*
X146443345Y-85467315D01*
X146567315Y-85343345D01*
X146659356Y-85194124D01*
X146659358Y-85194119D01*
X146714505Y-85027697D01*
X146714506Y-85027690D01*
X146724999Y-84924986D01*
X146725000Y-84924973D01*
X146725000Y-84787500D01*
X145750000Y-84787500D01*
X145750000Y-85624999D01*
X145249999Y-85624999D01*
X145250000Y-85624998D01*
X145250000Y-84661500D01*
X145269685Y-84594461D01*
X145322489Y-84548706D01*
X145374000Y-84537500D01*
X145500000Y-84537500D01*
X145500000Y-84411500D01*
X145519685Y-84344461D01*
X145572489Y-84298706D01*
X145624000Y-84287500D01*
X146724999Y-84287500D01*
X146724999Y-84150028D01*
X146724998Y-84150013D01*
X146714505Y-84047302D01*
X146659358Y-83880880D01*
X146659356Y-83880875D01*
X146567315Y-83731654D01*
X146443344Y-83607683D01*
X146443341Y-83607681D01*
X146440339Y-83605829D01*
X146438713Y-83604021D01*
X146437677Y-83603202D01*
X146437817Y-83603024D01*
X146393617Y-83553880D01*
X146382397Y-83484917D01*
X146410243Y-83420836D01*
X146440344Y-83394754D01*
X146443656Y-83392712D01*
X146567712Y-83268656D01*
X146658229Y-83121902D01*
X146665816Y-83115078D01*
X146670055Y-83105797D01*
X146691354Y-83092108D01*
X146710177Y-83075179D01*
X146721812Y-83072534D01*
X146728833Y-83068023D01*
X146763768Y-83063000D01*
X146912403Y-83063000D01*
X146979442Y-83082685D01*
X147000084Y-83099319D01*
X147863181Y-83962416D01*
X147896666Y-84023739D01*
X147899500Y-84050097D01*
X147899500Y-84949903D01*
X147879815Y-85016942D01*
X147863181Y-85037584D01*
X147037584Y-85863181D01*
X146976261Y-85896666D01*
X146949903Y-85899500D01*
X144870940Y-85899500D01*
X144830019Y-85910464D01*
X144830019Y-85910465D01*
X144792751Y-85920451D01*
X144718214Y-85940423D01*
X144718209Y-85940426D01*
X144581290Y-86019475D01*
X144581282Y-86019481D01*
X144469478Y-86131286D01*
X144010861Y-86589902D01*
X143949538Y-86623387D01*
X143910582Y-86625579D01*
X143900028Y-86624501D01*
X143900012Y-86624500D01*
X143900009Y-86624500D01*
X143900003Y-86624500D01*
X142999998Y-86624500D01*
X142999980Y-86624501D01*
X142897203Y-86635000D01*
X142897200Y-86635001D01*
X142730668Y-86690185D01*
X142730663Y-86690187D01*
X142581342Y-86782289D01*
X142457289Y-86906342D01*
X142365185Y-87055667D01*
X142362256Y-87064507D01*
X142322482Y-87121951D01*
X142257965Y-87148772D01*
X142244551Y-87149500D01*
X137670943Y-87149500D01*
X137518214Y-87190423D01*
X137508486Y-87196039D01*
X137505882Y-87197544D01*
X137505880Y-87197545D01*
X137505878Y-87197546D01*
X137381287Y-87269477D01*
X137381282Y-87269481D01*
X136631286Y-88019477D01*
X136631286Y-88019478D01*
X136631284Y-88019480D01*
X136570774Y-88079990D01*
X136537582Y-88113182D01*
X136476258Y-88146666D01*
X136449901Y-88149500D01*
X136102130Y-88149500D01*
X136102123Y-88149501D01*
X136042516Y-88155908D01*
X135907671Y-88206202D01*
X135907664Y-88206206D01*
X135792455Y-88292452D01*
X135792452Y-88292455D01*
X135706206Y-88407664D01*
X135706202Y-88407671D01*
X135655908Y-88542517D01*
X135652934Y-88570185D01*
X135649501Y-88602123D01*
X135649500Y-88602135D01*
X135649500Y-90397870D01*
X135649501Y-90397876D01*
X135655908Y-90457483D01*
X135706202Y-90592328D01*
X135706206Y-90592335D01*
X135792452Y-90707544D01*
X135792455Y-90707547D01*
X135907664Y-90793793D01*
X135907671Y-90793797D01*
X136042517Y-90844091D01*
X136042516Y-90844091D01*
X136049444Y-90844835D01*
X136102127Y-90850500D01*
X137897872Y-90850499D01*
X137957483Y-90844091D01*
X138092331Y-90793796D01*
X138207546Y-90707546D01*
X138293796Y-90592331D01*
X138344091Y-90457483D01*
X138350500Y-90397873D01*
X138350499Y-88602128D01*
X138344091Y-88542517D01*
X138344090Y-88542514D01*
X138334885Y-88517832D01*
X138329901Y-88448140D01*
X138363387Y-88386818D01*
X138424711Y-88353333D01*
X138451067Y-88350500D01*
X142175501Y-88350500D01*
X142242540Y-88370185D01*
X142288295Y-88422989D01*
X142299501Y-88474500D01*
X142299501Y-88675018D01*
X142310000Y-88777796D01*
X142310001Y-88777799D01*
X142336109Y-88856587D01*
X142365186Y-88944334D01*
X142457288Y-89093656D01*
X142581344Y-89217712D01*
X142730666Y-89309814D01*
X142764500Y-89321025D01*
X142821947Y-89360796D01*
X142848772Y-89425311D01*
X142849500Y-89438732D01*
X142849500Y-90561267D01*
X142829815Y-90628306D01*
X142777011Y-90674061D01*
X142764506Y-90678972D01*
X142730671Y-90690184D01*
X142730663Y-90690187D01*
X142581342Y-90782289D01*
X142457289Y-90906342D01*
X142365187Y-91055663D01*
X142365185Y-91055668D01*
X142365115Y-91055880D01*
X142310001Y-91222203D01*
X142310001Y-91222204D01*
X142310000Y-91222204D01*
X142299500Y-91324983D01*
X142299500Y-92675001D01*
X142299501Y-92675018D01*
X142310000Y-92777796D01*
X142310001Y-92777799D01*
X142363645Y-92939684D01*
X142365186Y-92944334D01*
X142457288Y-93093656D01*
X142581344Y-93217712D01*
X142730666Y-93309814D01*
X142897203Y-93364999D01*
X142999991Y-93375500D01*
X143900008Y-93375499D01*
X143900016Y-93375498D01*
X143900019Y-93375498D01*
X143956302Y-93369748D01*
X144002797Y-93364999D01*
X144169334Y-93309814D01*
X144318656Y-93217712D01*
X144442712Y-93093656D01*
X144534814Y-92944334D01*
X144589999Y-92777797D01*
X144600500Y-92675009D01*
X144600500Y-92674986D01*
X145400001Y-92674986D01*
X145410494Y-92777697D01*
X145465641Y-92944119D01*
X145465643Y-92944124D01*
X145557684Y-93093345D01*
X145681654Y-93217315D01*
X145830875Y-93309356D01*
X145830880Y-93309358D01*
X145997302Y-93364505D01*
X145997309Y-93364506D01*
X146100019Y-93374999D01*
X146299999Y-93374999D01*
X146800000Y-93374999D01*
X146999972Y-93374999D01*
X146999986Y-93374998D01*
X147102697Y-93364505D01*
X147269119Y-93309358D01*
X147269124Y-93309356D01*
X147418345Y-93217315D01*
X147542315Y-93093345D01*
X147634356Y-92944124D01*
X147634358Y-92944119D01*
X147689505Y-92777697D01*
X147689506Y-92777690D01*
X147699999Y-92674986D01*
X147700000Y-92674973D01*
X147700000Y-92421153D01*
X149699500Y-92421153D01*
X149699500Y-92578846D01*
X149730261Y-92733489D01*
X149730264Y-92733501D01*
X149790602Y-92879172D01*
X149790609Y-92879185D01*
X149878210Y-93010288D01*
X149878213Y-93010292D01*
X149989707Y-93121786D01*
X149989711Y-93121789D01*
X150120814Y-93209390D01*
X150120827Y-93209397D01*
X150221907Y-93251265D01*
X150266503Y-93269737D01*
X150421158Y-93300500D01*
X150421847Y-93300637D01*
X150483758Y-93333022D01*
X150485337Y-93334573D01*
X150631284Y-93480520D01*
X150631286Y-93480521D01*
X150631290Y-93480524D01*
X150768209Y-93559573D01*
X150768216Y-93559577D01*
X150920943Y-93600501D01*
X150920945Y-93600501D01*
X151086654Y-93600501D01*
X151086670Y-93600500D01*
X152025501Y-93600500D01*
X152092540Y-93620185D01*
X152138295Y-93672989D01*
X152149501Y-93724500D01*
X152149501Y-93897876D01*
X152155908Y-93957483D01*
X152206202Y-94092328D01*
X152206206Y-94092335D01*
X152292452Y-94207544D01*
X152292455Y-94207547D01*
X152407664Y-94293793D01*
X152407671Y-94293797D01*
X152542517Y-94344091D01*
X152542516Y-94344091D01*
X152549444Y-94344835D01*
X152602127Y-94350500D01*
X154397872Y-94350499D01*
X154457483Y-94344091D01*
X154592331Y-94293796D01*
X154707546Y-94207546D01*
X154793796Y-94092331D01*
X154844091Y-93957483D01*
X154850500Y-93897873D01*
X154850499Y-92102128D01*
X154844091Y-92042517D01*
X154818722Y-91974500D01*
X154793797Y-91907671D01*
X154793793Y-91907664D01*
X154707547Y-91792455D01*
X154707544Y-91792452D01*
X154592335Y-91706206D01*
X154592328Y-91706202D01*
X154457482Y-91655908D01*
X154457483Y-91655908D01*
X154397883Y-91649501D01*
X154397881Y-91649500D01*
X154397873Y-91649500D01*
X154397864Y-91649500D01*
X152602129Y-91649500D01*
X152602123Y-91649501D01*
X152542516Y-91655908D01*
X152407671Y-91706202D01*
X152407664Y-91706206D01*
X152292455Y-91792452D01*
X152292452Y-91792455D01*
X152206206Y-91907664D01*
X152206202Y-91907671D01*
X152155908Y-92042517D01*
X152152003Y-92078842D01*
X152149501Y-92102123D01*
X152149500Y-92102135D01*
X152149500Y-92275500D01*
X152129815Y-92342539D01*
X152077011Y-92388294D01*
X152025500Y-92399500D01*
X151397956Y-92399500D01*
X151330917Y-92379815D01*
X151285162Y-92327011D01*
X151276339Y-92299691D01*
X151272874Y-92282274D01*
X151269737Y-92266503D01*
X151256062Y-92233489D01*
X151209397Y-92120827D01*
X151209390Y-92120814D01*
X151121789Y-91989711D01*
X151121786Y-91989707D01*
X151010292Y-91878213D01*
X151010288Y-91878210D01*
X150879185Y-91790609D01*
X150879172Y-91790602D01*
X150733501Y-91730264D01*
X150733489Y-91730261D01*
X150578845Y-91699500D01*
X150578842Y-91699500D01*
X150421158Y-91699500D01*
X150421155Y-91699500D01*
X150266510Y-91730261D01*
X150266498Y-91730264D01*
X150120827Y-91790602D01*
X150120814Y-91790609D01*
X149989711Y-91878210D01*
X149989707Y-91878213D01*
X149878213Y-91989707D01*
X149878210Y-91989711D01*
X149790609Y-92120814D01*
X149790602Y-92120827D01*
X149730264Y-92266498D01*
X149730261Y-92266510D01*
X149699500Y-92421153D01*
X147700000Y-92421153D01*
X147700000Y-92250000D01*
X146800000Y-92250000D01*
X146800000Y-93374999D01*
X146299999Y-93374999D01*
X146300000Y-93374998D01*
X146300000Y-92250000D01*
X145400001Y-92250000D01*
X145400001Y-92674986D01*
X144600500Y-92674986D01*
X144600499Y-91989711D01*
X144600499Y-91325013D01*
X145400000Y-91325013D01*
X145400000Y-91750000D01*
X146300000Y-91750000D01*
X146800000Y-91750000D01*
X147699999Y-91750000D01*
X147699999Y-91325028D01*
X147699998Y-91325013D01*
X147689505Y-91222302D01*
X147634358Y-91055880D01*
X147634356Y-91055875D01*
X147542315Y-90906654D01*
X147418345Y-90782684D01*
X147269124Y-90690643D01*
X147269119Y-90690641D01*
X147102697Y-90635494D01*
X147102690Y-90635493D01*
X146999986Y-90625000D01*
X146800000Y-90625000D01*
X146800000Y-91750000D01*
X146300000Y-91750000D01*
X146300000Y-90625000D01*
X146100029Y-90625000D01*
X146100012Y-90625001D01*
X145997302Y-90635494D01*
X145830880Y-90690641D01*
X145830875Y-90690643D01*
X145681654Y-90782684D01*
X145557684Y-90906654D01*
X145465643Y-91055875D01*
X145465641Y-91055880D01*
X145410494Y-91222302D01*
X145410493Y-91222309D01*
X145400000Y-91325013D01*
X144600499Y-91325013D01*
X144600499Y-91324998D01*
X144600498Y-91324981D01*
X144589999Y-91222203D01*
X144589998Y-91222200D01*
X144582476Y-91199500D01*
X144534814Y-91055666D01*
X144442712Y-90906344D01*
X144318656Y-90782288D01*
X144169334Y-90690186D01*
X144169328Y-90690184D01*
X144135494Y-90678972D01*
X144078050Y-90639199D01*
X144051228Y-90574683D01*
X144050500Y-90561267D01*
X144050500Y-89438732D01*
X144070185Y-89371693D01*
X144122989Y-89325938D01*
X144135495Y-89321026D01*
X144169334Y-89309814D01*
X144318656Y-89217712D01*
X144442712Y-89093656D01*
X144534814Y-88944334D01*
X144589999Y-88777797D01*
X144600500Y-88675009D01*
X144600499Y-87750096D01*
X144620183Y-87683058D01*
X144636818Y-87662416D01*
X145162416Y-87136819D01*
X145189343Y-87122115D01*
X145215162Y-87105523D01*
X145221362Y-87104631D01*
X145223739Y-87103334D01*
X145250097Y-87100500D01*
X145285121Y-87100500D01*
X145352160Y-87120185D01*
X145397915Y-87172989D01*
X145408479Y-87237103D01*
X145399500Y-87324983D01*
X145399500Y-88675001D01*
X145399501Y-88675018D01*
X145410000Y-88777796D01*
X145410001Y-88777799D01*
X145436109Y-88856587D01*
X145465186Y-88944334D01*
X145557288Y-89093656D01*
X145681344Y-89217712D01*
X145830666Y-89309814D01*
X145997203Y-89364999D01*
X146099991Y-89375500D01*
X147000008Y-89375499D01*
X147000016Y-89375498D01*
X147000019Y-89375498D01*
X147056302Y-89369748D01*
X147102797Y-89364999D01*
X147269334Y-89309814D01*
X147418656Y-89217712D01*
X147542712Y-89093656D01*
X147634814Y-88944334D01*
X147689999Y-88777797D01*
X147695394Y-88724991D01*
X147696732Y-88711897D01*
X147723129Y-88647205D01*
X147780310Y-88607054D01*
X147820090Y-88600500D01*
X153663331Y-88600500D01*
X153663347Y-88600501D01*
X153670943Y-88600501D01*
X153829054Y-88600501D01*
X153829057Y-88600501D01*
X153981785Y-88559577D01*
X154031904Y-88530639D01*
X154118716Y-88480520D01*
X154230520Y-88368716D01*
X154230520Y-88368714D01*
X154240728Y-88358507D01*
X154240730Y-88358504D01*
X154628506Y-87970728D01*
X154628511Y-87970724D01*
X154638714Y-87960520D01*
X154638716Y-87960520D01*
X154750520Y-87848716D01*
X154818030Y-87731784D01*
X154829577Y-87711785D01*
X154870500Y-87559057D01*
X154870500Y-87432115D01*
X154890185Y-87365076D01*
X154942989Y-87319321D01*
X154951167Y-87315933D01*
X155037331Y-87283796D01*
X155152546Y-87197546D01*
X155238796Y-87082331D01*
X155289091Y-86947483D01*
X155295500Y-86887873D01*
X155295499Y-86605098D01*
X155304144Y-86575652D01*
X155310666Y-86545674D01*
X155314419Y-86540659D01*
X155315183Y-86538060D01*
X155331816Y-86517420D01*
X155331818Y-86517417D01*
X155390520Y-86458716D01*
X155390521Y-86458713D01*
X155858506Y-85990728D01*
X155858511Y-85990724D01*
X155868714Y-85980520D01*
X155868716Y-85980520D01*
X155980520Y-85868716D01*
X156014664Y-85809577D01*
X156048771Y-85750502D01*
X156048772Y-85750499D01*
X156054411Y-85740732D01*
X156059577Y-85731785D01*
X156100501Y-85579057D01*
X156100501Y-85420943D01*
X156100501Y-85413348D01*
X156100500Y-85413330D01*
X156100500Y-84749097D01*
X156120185Y-84682058D01*
X156172989Y-84636303D01*
X156242147Y-84626359D01*
X156305703Y-84655384D01*
X156312181Y-84661416D01*
X157415425Y-85764660D01*
X157448910Y-85825983D01*
X157449361Y-85828149D01*
X157480261Y-85983491D01*
X157480264Y-85983501D01*
X157540602Y-86129172D01*
X157540609Y-86129185D01*
X157628210Y-86260288D01*
X157628213Y-86260292D01*
X157739707Y-86371786D01*
X157739711Y-86371789D01*
X157870814Y-86459390D01*
X157870827Y-86459397D01*
X158010902Y-86517417D01*
X158016503Y-86519737D01*
X158171153Y-86550499D01*
X158171156Y-86550500D01*
X158171158Y-86550500D01*
X158328844Y-86550500D01*
X158328845Y-86550499D01*
X158483497Y-86519737D01*
X158629179Y-86459394D01*
X158760289Y-86371789D01*
X158871789Y-86260289D01*
X158959394Y-86129179D01*
X159019737Y-85983497D01*
X159050500Y-85828842D01*
X159050500Y-85671158D01*
X159050500Y-85671155D01*
X159050499Y-85671153D01*
X159040069Y-85618717D01*
X159019737Y-85516503D01*
X159013094Y-85500465D01*
X158959397Y-85370827D01*
X158959390Y-85370814D01*
X158871789Y-85239711D01*
X158871786Y-85239707D01*
X158760292Y-85128213D01*
X158760288Y-85128210D01*
X158629185Y-85040609D01*
X158629172Y-85040602D01*
X158483501Y-84980264D01*
X158483491Y-84980261D01*
X158328149Y-84949361D01*
X158266238Y-84916976D01*
X158264660Y-84915425D01*
X156136819Y-82787584D01*
X156103334Y-82726261D01*
X156100500Y-82699903D01*
X156100500Y-82339059D01*
X156100501Y-82339046D01*
X156100501Y-82170945D01*
X156100501Y-82170943D01*
X156059577Y-82018215D01*
X156020482Y-81950501D01*
X155980520Y-81881284D01*
X155868716Y-81769480D01*
X155868715Y-81769479D01*
X155864385Y-81765149D01*
X155864374Y-81765139D01*
X155666186Y-81566951D01*
X155632701Y-81505628D01*
X155636160Y-81440269D01*
X155689999Y-81277797D01*
X155700500Y-81175009D01*
X155700499Y-79824992D01*
X155694320Y-79764508D01*
X155689999Y-79722203D01*
X155689998Y-79722200D01*
X155682476Y-79699500D01*
X155634814Y-79555666D01*
X155542712Y-79406344D01*
X155418656Y-79282288D01*
X155269334Y-79190186D01*
X155102797Y-79135001D01*
X155102795Y-79135000D01*
X155000010Y-79124500D01*
X154099998Y-79124500D01*
X154099980Y-79124501D01*
X153997203Y-79135000D01*
X153997200Y-79135001D01*
X153830668Y-79190185D01*
X153830663Y-79190187D01*
X153681342Y-79282289D01*
X153557289Y-79406342D01*
X153465187Y-79555663D01*
X153465185Y-79555668D01*
X153453067Y-79592239D01*
X153410001Y-79722203D01*
X153410001Y-79722204D01*
X153410000Y-79722204D01*
X153399500Y-79824983D01*
X153399500Y-81175001D01*
X153399501Y-81175018D01*
X153410000Y-81277796D01*
X153410001Y-81277799D01*
X153465185Y-81444331D01*
X153465187Y-81444336D01*
X153487096Y-81479856D01*
X153557288Y-81593656D01*
X153681344Y-81717712D01*
X153830666Y-81809814D01*
X153997203Y-81864999D01*
X154099991Y-81875500D01*
X154224901Y-81875499D01*
X154291941Y-81895183D01*
X154312583Y-81911818D01*
X154863181Y-82462416D01*
X154896666Y-82523739D01*
X154899500Y-82550097D01*
X154899500Y-82920939D01*
X154899499Y-82920943D01*
X154899499Y-83079057D01*
X154899500Y-83079060D01*
X154899500Y-84715500D01*
X154879815Y-84782539D01*
X154827011Y-84828294D01*
X154775500Y-84839500D01*
X153724500Y-84839500D01*
X153657461Y-84819815D01*
X153611706Y-84767011D01*
X153600500Y-84715500D01*
X153600500Y-83589059D01*
X153600501Y-83589046D01*
X153600501Y-83420945D01*
X153600501Y-83420943D01*
X153559577Y-83268215D01*
X153544991Y-83242952D01*
X153525067Y-83208442D01*
X153525067Y-83208441D01*
X153480524Y-83131290D01*
X153480521Y-83131286D01*
X153480520Y-83131284D01*
X153368716Y-83019480D01*
X153368715Y-83019479D01*
X153364385Y-83015149D01*
X153364374Y-83015139D01*
X152273864Y-81924629D01*
X152240379Y-81863306D01*
X152245363Y-81793614D01*
X152287235Y-81737681D01*
X152296439Y-81731415D01*
X152318656Y-81717712D01*
X152442712Y-81593656D01*
X152534814Y-81444334D01*
X152589999Y-81277797D01*
X152600500Y-81175009D01*
X152600499Y-79824992D01*
X152594320Y-79764508D01*
X152589999Y-79722203D01*
X152589998Y-79722200D01*
X152582476Y-79699500D01*
X152534814Y-79555666D01*
X152442712Y-79406344D01*
X152318656Y-79282288D01*
X152169334Y-79190186D01*
X152002797Y-79135001D01*
X152002795Y-79135000D01*
X151900010Y-79124500D01*
X150999999Y-79124500D01*
X150999985Y-79124501D01*
X150989415Y-79125581D01*
X150920723Y-79112807D01*
X150889139Y-79089903D01*
X149826819Y-78027583D01*
X149793334Y-77966260D01*
X149790500Y-77939902D01*
X149790500Y-77412162D01*
X149810185Y-77345123D01*
X149862989Y-77299368D01*
X149888552Y-77290907D01*
X149892788Y-77289999D01*
X149892797Y-77289999D01*
X150059334Y-77234814D01*
X150208656Y-77142712D01*
X150332712Y-77018656D01*
X150424814Y-76869334D01*
X150479999Y-76702797D01*
X150490500Y-76600009D01*
X150490499Y-75399992D01*
X150490282Y-75397872D01*
X150479999Y-75297203D01*
X150479998Y-75297200D01*
X150477812Y-75290602D01*
X150424814Y-75130666D01*
X150332712Y-74981344D01*
X150208656Y-74857288D01*
X150090795Y-74784591D01*
X150059336Y-74765187D01*
X150059331Y-74765185D01*
X150057862Y-74764698D01*
X149892797Y-74710001D01*
X149892795Y-74710000D01*
X149790010Y-74699500D01*
X148589998Y-74699500D01*
X148589981Y-74699501D01*
X148487203Y-74710000D01*
X148487200Y-74710001D01*
X148320668Y-74765185D01*
X148320663Y-74765187D01*
X148171342Y-74857289D01*
X148047289Y-74981342D01*
X147955187Y-75130663D01*
X147955185Y-75130668D01*
X147936445Y-75187221D01*
X147900001Y-75297203D01*
X147900001Y-75297204D01*
X147900000Y-75297204D01*
X147889500Y-75399983D01*
X147889500Y-75481594D01*
X147869815Y-75548633D01*
X147817011Y-75594388D01*
X147747853Y-75604332D01*
X147684297Y-75575307D01*
X147662398Y-75550486D01*
X147627027Y-75497550D01*
X147621789Y-75489711D01*
X147621788Y-75489710D01*
X147621786Y-75489707D01*
X147510292Y-75378213D01*
X147510288Y-75378210D01*
X147379185Y-75290609D01*
X147379172Y-75290602D01*
X147233501Y-75230264D01*
X147233489Y-75230261D01*
X147078845Y-75199500D01*
X147078842Y-75199500D01*
X146921158Y-75199500D01*
X146921155Y-75199500D01*
X146766510Y-75230261D01*
X146766498Y-75230264D01*
X146620827Y-75290602D01*
X146620814Y-75290609D01*
X146489711Y-75378210D01*
X146489707Y-75378213D01*
X146378213Y-75489707D01*
X146378210Y-75489711D01*
X146290609Y-75620814D01*
X146290602Y-75620827D01*
X146230264Y-75766498D01*
X146230261Y-75766510D01*
X146199500Y-75921153D01*
X146199500Y-76078846D01*
X146230261Y-76233489D01*
X146230264Y-76233501D01*
X146290602Y-76379172D01*
X146290609Y-76379185D01*
X146378602Y-76510874D01*
X146384252Y-76528920D01*
X146394477Y-76544830D01*
X146398928Y-76575789D01*
X146399480Y-76577551D01*
X146399500Y-76579765D01*
X146399500Y-76803841D01*
X146379815Y-76870880D01*
X146327011Y-76916635D01*
X146257853Y-76926579D01*
X146236496Y-76921547D01*
X146127697Y-76885494D01*
X146127690Y-76885493D01*
X146024986Y-76875000D01*
X145750000Y-76875000D01*
X145750000Y-77838500D01*
X145730315Y-77905539D01*
X145677511Y-77951294D01*
X145626000Y-77962500D01*
X145500000Y-77962500D01*
X145500000Y-78088500D01*
X145480315Y-78155539D01*
X145427511Y-78201294D01*
X145376000Y-78212500D01*
X144275001Y-78212500D01*
X144275001Y-78349971D01*
X144275002Y-78349991D01*
X144282158Y-78420051D01*
X144341108Y-78619876D01*
X144432684Y-78768345D01*
X144556655Y-78892316D01*
X144556659Y-78892319D01*
X144559656Y-78894168D01*
X144561279Y-78895972D01*
X144562323Y-78896798D01*
X144562181Y-78896976D01*
X144606381Y-78946116D01*
X144617602Y-79015079D01*
X144589759Y-79079161D01*
X144559661Y-79105241D01*
X144556349Y-79107283D01*
X144556343Y-79107288D01*
X144432289Y-79231342D01*
X144416590Y-79256794D01*
X144350151Y-79364511D01*
X144341771Y-79378097D01*
X144334183Y-79384921D01*
X144329945Y-79394203D01*
X144308645Y-79407891D01*
X144289823Y-79424821D01*
X144278187Y-79427465D01*
X144271167Y-79431977D01*
X144236232Y-79437000D01*
X144224501Y-79437000D01*
X144157462Y-79417315D01*
X144111707Y-79364511D01*
X144100501Y-79313000D01*
X144100501Y-79163348D01*
X144100500Y-79163330D01*
X144100500Y-78839060D01*
X144100501Y-78839047D01*
X144100501Y-78680757D01*
X144100501Y-78670943D01*
X144059577Y-78518216D01*
X143980520Y-78381284D01*
X143174248Y-77575013D01*
X144275000Y-77575013D01*
X144275000Y-77712500D01*
X145250000Y-77712500D01*
X145250000Y-76875000D01*
X144975029Y-76875000D01*
X144975012Y-76875001D01*
X144872302Y-76885494D01*
X144705880Y-76940641D01*
X144705875Y-76940643D01*
X144556654Y-77032684D01*
X144432684Y-77156654D01*
X144340643Y-77305875D01*
X144340641Y-77305880D01*
X144285494Y-77472302D01*
X144285493Y-77472309D01*
X144275000Y-77575013D01*
X143174248Y-77575013D01*
X142847970Y-77248735D01*
X141737590Y-76138355D01*
X141737588Y-76138352D01*
X141618717Y-76019481D01*
X141618716Y-76019480D01*
X141511334Y-75957483D01*
X141511332Y-75957482D01*
X141481785Y-75940423D01*
X141481784Y-75940422D01*
X141481783Y-75940422D01*
X141409888Y-75921158D01*
X141329057Y-75899499D01*
X141170943Y-75899499D01*
X141163347Y-75899499D01*
X141163331Y-75899500D01*
X140713585Y-75899500D01*
X140646546Y-75879815D01*
X140600791Y-75827011D01*
X140595879Y-75814504D01*
X140559814Y-75705666D01*
X140467712Y-75556344D01*
X140343656Y-75432288D01*
X140196902Y-75341770D01*
X140190078Y-75334183D01*
X140180797Y-75329945D01*
X140167108Y-75308645D01*
X140150179Y-75289823D01*
X140147534Y-75278187D01*
X140143023Y-75271167D01*
X140138000Y-75236232D01*
X140138000Y-75126560D01*
X140138001Y-75126547D01*
X140138001Y-74958445D01*
X140138001Y-74958443D01*
X140097077Y-74805715D01*
X140018020Y-74668784D01*
X139480521Y-74131285D01*
X139480520Y-74131284D01*
X139368716Y-74019480D01*
X139281904Y-73969360D01*
X139281904Y-73969359D01*
X139281900Y-73969358D01*
X139231785Y-73940423D01*
X139079057Y-73899499D01*
X138920943Y-73899499D01*
X138913347Y-73899499D01*
X138913331Y-73899500D01*
X131474499Y-73899500D01*
X131407460Y-73879815D01*
X131361705Y-73827011D01*
X131350499Y-73775500D01*
X131350499Y-73602129D01*
X131350498Y-73602123D01*
X131350497Y-73602116D01*
X131344091Y-73542517D01*
X131293796Y-73407669D01*
X131293795Y-73407668D01*
X131293793Y-73407664D01*
X131207547Y-73292455D01*
X131207544Y-73292452D01*
X131092335Y-73206206D01*
X131092328Y-73206202D01*
X130957482Y-73155908D01*
X130957483Y-73155908D01*
X130897883Y-73149501D01*
X130897881Y-73149500D01*
X130897873Y-73149500D01*
X130897864Y-73149500D01*
X129102129Y-73149500D01*
X129102123Y-73149501D01*
X129042516Y-73155908D01*
X128907671Y-73206202D01*
X128907664Y-73206206D01*
X128792455Y-73292452D01*
X128792452Y-73292455D01*
X128706206Y-73407664D01*
X128706202Y-73407671D01*
X128655908Y-73542517D01*
X128652003Y-73578842D01*
X128649501Y-73602123D01*
X128649500Y-73602135D01*
X128649500Y-75397870D01*
X128649501Y-75397876D01*
X128655908Y-75457483D01*
X128706202Y-75592328D01*
X128706206Y-75592335D01*
X128792452Y-75707544D01*
X128792455Y-75707547D01*
X128907664Y-75793793D01*
X128907671Y-75793797D01*
X129042517Y-75844091D01*
X129042516Y-75844091D01*
X129049444Y-75844835D01*
X129102127Y-75850500D01*
X130025500Y-75850499D01*
X130092539Y-75870183D01*
X130138294Y-75922987D01*
X130149500Y-75974499D01*
X130149500Y-76705164D01*
X130129815Y-76772203D01*
X130094391Y-76808266D01*
X129989710Y-76878210D01*
X129878213Y-76989707D01*
X129878210Y-76989711D01*
X129790609Y-77120814D01*
X129790602Y-77120827D01*
X129730264Y-77266498D01*
X129730261Y-77266510D01*
X129699500Y-77421153D01*
X129699500Y-77578846D01*
X129730261Y-77733489D01*
X129730264Y-77733501D01*
X129790602Y-77879172D01*
X129790609Y-77879185D01*
X129878210Y-78010288D01*
X129878213Y-78010292D01*
X129989707Y-78121786D01*
X129989711Y-78121789D01*
X130120814Y-78209390D01*
X130120827Y-78209397D01*
X130266397Y-78269693D01*
X130266503Y-78269737D01*
X130421148Y-78300498D01*
X130421153Y-78300499D01*
X130421156Y-78300500D01*
X130421158Y-78300500D01*
X130578844Y-78300500D01*
X130578845Y-78300499D01*
X130733497Y-78269737D01*
X130846166Y-78223067D01*
X130879172Y-78209397D01*
X130879172Y-78209396D01*
X130879179Y-78209394D01*
X131010289Y-78121789D01*
X131121789Y-78010289D01*
X131209394Y-77879179D01*
X131269737Y-77733497D01*
X131300500Y-77578842D01*
X131300500Y-77528362D01*
X131308167Y-77489822D01*
X131307473Y-77489636D01*
X131309577Y-77481784D01*
X131350500Y-77329057D01*
X131350500Y-75224500D01*
X131370185Y-75157461D01*
X131422989Y-75111706D01*
X131474500Y-75100500D01*
X136762156Y-75100500D01*
X136829195Y-75120185D01*
X136874950Y-75172989D01*
X136884894Y-75242147D01*
X136855869Y-75305703D01*
X136811389Y-75335378D01*
X136812421Y-75337592D01*
X136805875Y-75340643D01*
X136656654Y-75432684D01*
X136532684Y-75556654D01*
X136440643Y-75705875D01*
X136440641Y-75705880D01*
X136385494Y-75872302D01*
X136385493Y-75872309D01*
X136375000Y-75975013D01*
X136375000Y-76250000D01*
X137338500Y-76250000D01*
X137405539Y-76269685D01*
X137451294Y-76322489D01*
X137462500Y-76374000D01*
X137462500Y-76500000D01*
X137588500Y-76500000D01*
X137655539Y-76519685D01*
X137701294Y-76572489D01*
X137712500Y-76624000D01*
X137712500Y-77724999D01*
X137849972Y-77724999D01*
X137849986Y-77724998D01*
X137952697Y-77714505D01*
X138119119Y-77659358D01*
X138119124Y-77659356D01*
X138268345Y-77567315D01*
X138392318Y-77443342D01*
X138394165Y-77440348D01*
X138395969Y-77438724D01*
X138396798Y-77437677D01*
X138396976Y-77437818D01*
X138446110Y-77393621D01*
X138515073Y-77382396D01*
X138579156Y-77410236D01*
X138605243Y-77440341D01*
X138607288Y-77443656D01*
X138731344Y-77567712D01*
X138880666Y-77659814D01*
X139047203Y-77714999D01*
X139149991Y-77725500D01*
X139925008Y-77725499D01*
X139925016Y-77725498D01*
X139925019Y-77725498D01*
X139981302Y-77719748D01*
X140027797Y-77714999D01*
X140194334Y-77659814D01*
X140343656Y-77567712D01*
X140467712Y-77443656D01*
X140559814Y-77294334D01*
X140595879Y-77185494D01*
X140609749Y-77165463D01*
X140619872Y-77143297D01*
X140629284Y-77137248D01*
X140635652Y-77128051D01*
X140658151Y-77118696D01*
X140678650Y-77105523D01*
X140695750Y-77103064D01*
X140700167Y-77101228D01*
X140713585Y-77100500D01*
X140949903Y-77100500D01*
X141016942Y-77120185D01*
X141037584Y-77136819D01*
X142813084Y-78912319D01*
X142846569Y-78973642D01*
X142841585Y-79043334D01*
X142813084Y-79087681D01*
X142515451Y-79385313D01*
X142454128Y-79418798D01*
X142384436Y-79413814D01*
X142382280Y-79412986D01*
X142235614Y-79355148D01*
X142222946Y-79353626D01*
X142146944Y-79344500D01*
X140593056Y-79344500D01*
X140553140Y-79349293D01*
X140504388Y-79355147D01*
X140363287Y-79410790D01*
X140242435Y-79502435D01*
X140150789Y-79623289D01*
X140150788Y-79623291D01*
X140131781Y-79671490D01*
X140088875Y-79726634D01*
X140022968Y-79749827D01*
X140016427Y-79750000D01*
X136983036Y-79750000D01*
X136915997Y-79730315D01*
X136870242Y-79677511D01*
X136867682Y-79671491D01*
X136848771Y-79623538D01*
X136848769Y-79623534D01*
X136757207Y-79502792D01*
X136636465Y-79411230D01*
X136495492Y-79355637D01*
X136406911Y-79345000D01*
X135835000Y-79345000D01*
X135835000Y-79870500D01*
X135832449Y-79879185D01*
X135833738Y-79888147D01*
X135822759Y-79912187D01*
X135815315Y-79937539D01*
X135808474Y-79943466D01*
X135804713Y-79951703D01*
X135782478Y-79965992D01*
X135762511Y-79983294D01*
X135751996Y-79985581D01*
X135745935Y-79989477D01*
X135711000Y-79994500D01*
X135549000Y-79994500D01*
X135481961Y-79974815D01*
X135436206Y-79922011D01*
X135425000Y-79870500D01*
X135425000Y-79345000D01*
X134853089Y-79345000D01*
X134764507Y-79355637D01*
X134623534Y-79411230D01*
X134502792Y-79502792D01*
X134411230Y-79623534D01*
X134355637Y-79764508D01*
X134345972Y-79845000D01*
X134539114Y-79845000D01*
X134568198Y-79853540D01*
X134597861Y-79859799D01*
X134601393Y-79863287D01*
X134606153Y-79864685D01*
X134625998Y-79887587D01*
X134647573Y-79908895D01*
X134648658Y-79913738D01*
X134651908Y-79917489D01*
X134656221Y-79947491D01*
X134662851Y-79977074D01*
X134661145Y-79981734D01*
X134661852Y-79986647D01*
X134649259Y-80014220D01*
X134638843Y-80042690D01*
X134634034Y-80047558D01*
X134632827Y-80050203D01*
X134614042Y-80067802D01*
X134605471Y-80074302D01*
X134540161Y-80099126D01*
X134530543Y-80099500D01*
X133136670Y-80099500D01*
X133136654Y-80099499D01*
X133129058Y-80099499D01*
X132970943Y-80099499D01*
X132894579Y-80119961D01*
X132818214Y-80140423D01*
X132818209Y-80140426D01*
X132681290Y-80219475D01*
X132681282Y-80219481D01*
X130660305Y-82240458D01*
X130598982Y-82273943D01*
X130529290Y-82268959D01*
X130473357Y-82227087D01*
X130454918Y-82191781D01*
X130442042Y-82152923D01*
X130409814Y-82055666D01*
X130321563Y-81912588D01*
X130303124Y-81845197D01*
X130324047Y-81778534D01*
X130339422Y-81759812D01*
X131074234Y-81025000D01*
X133514664Y-78584571D01*
X133575985Y-78551088D01*
X133578152Y-78550637D01*
X133578841Y-78550500D01*
X133578842Y-78550500D01*
X133733497Y-78519737D01*
X133879179Y-78459394D01*
X134010289Y-78371789D01*
X134121789Y-78260289D01*
X134209394Y-78129179D01*
X134213909Y-78118280D01*
X134269735Y-77983501D01*
X134269737Y-77983497D01*
X134300500Y-77828842D01*
X134300500Y-77671158D01*
X134300500Y-77671155D01*
X134300499Y-77671153D01*
X134269737Y-77516503D01*
X134261868Y-77497505D01*
X134209397Y-77370827D01*
X134209390Y-77370814D01*
X134121789Y-77239711D01*
X134121786Y-77239707D01*
X134010292Y-77128213D01*
X134010288Y-77128210D01*
X133879185Y-77040609D01*
X133879172Y-77040602D01*
X133841471Y-77024986D01*
X136375001Y-77024986D01*
X136385494Y-77127697D01*
X136440641Y-77294119D01*
X136440643Y-77294124D01*
X136532684Y-77443345D01*
X136656654Y-77567315D01*
X136805875Y-77659356D01*
X136805880Y-77659358D01*
X136972302Y-77714505D01*
X136972309Y-77714506D01*
X137075019Y-77724999D01*
X137212499Y-77724999D01*
X137212500Y-77724998D01*
X137212500Y-76750000D01*
X136375001Y-76750000D01*
X136375001Y-77024986D01*
X133841471Y-77024986D01*
X133733501Y-76980264D01*
X133733489Y-76980261D01*
X133578845Y-76949500D01*
X133578842Y-76949500D01*
X133421158Y-76949500D01*
X133421155Y-76949500D01*
X133266510Y-76980261D01*
X133266498Y-76980264D01*
X133120827Y-77040602D01*
X133120814Y-77040609D01*
X132989711Y-77128210D01*
X132989707Y-77128213D01*
X132878213Y-77239707D01*
X132878210Y-77239711D01*
X132790609Y-77370814D01*
X132790602Y-77370827D01*
X132730264Y-77516498D01*
X132730261Y-77516508D01*
X132699362Y-77671848D01*
X132666977Y-77733759D01*
X132665426Y-77735337D01*
X128881286Y-81519478D01*
X128881284Y-81519480D01*
X128881282Y-81519480D01*
X128881283Y-81519481D01*
X128812579Y-81588183D01*
X128751255Y-81621667D01*
X128728130Y-81624156D01*
X128728140Y-81624341D01*
X128724981Y-81624501D01*
X128622202Y-81635001D01*
X128622200Y-81635001D01*
X128455668Y-81690185D01*
X128455663Y-81690187D01*
X128306342Y-81782289D01*
X128182289Y-81906342D01*
X128173284Y-81920942D01*
X128106599Y-82029057D01*
X128091771Y-82053097D01*
X128039823Y-82099821D01*
X127986232Y-82112000D01*
X127708443Y-82112000D01*
X127555713Y-82152923D01*
X127527038Y-82169480D01*
X127527037Y-82169480D01*
X127418787Y-82231977D01*
X127418782Y-82231981D01*
X127306978Y-82343786D01*
X126837180Y-82813583D01*
X126775857Y-82847068D01*
X126706165Y-82842084D01*
X126650232Y-82800212D01*
X126625815Y-82734748D01*
X126625499Y-82725928D01*
X126625499Y-81724992D01*
X126624755Y-81717712D01*
X126614999Y-81622203D01*
X126614998Y-81622200D01*
X126603726Y-81588183D01*
X126559814Y-81455666D01*
X126552826Y-81444336D01*
X126542698Y-81427916D01*
X126524259Y-81360524D01*
X126540850Y-81300822D01*
X126609577Y-81181784D01*
X126642648Y-81058361D01*
X126650500Y-81029058D01*
X126650500Y-80870943D01*
X126650500Y-80688732D01*
X126670185Y-80621693D01*
X126722989Y-80575938D01*
X126735495Y-80571026D01*
X126769334Y-80559814D01*
X126918656Y-80467712D01*
X127042712Y-80343656D01*
X127134814Y-80194334D01*
X127189999Y-80027797D01*
X127200500Y-79925009D01*
X127200499Y-79899231D01*
X127203881Y-79887713D01*
X127202740Y-79875764D01*
X127213540Y-79854813D01*
X127220181Y-79832194D01*
X127230054Y-79822779D01*
X127234755Y-79813661D01*
X127262489Y-79791850D01*
X127262489Y-79791849D01*
X127310922Y-79763887D01*
X127368716Y-79730520D01*
X127480520Y-79618716D01*
X127480520Y-79618714D01*
X127490724Y-79608511D01*
X127490728Y-79608506D01*
X128608506Y-78490728D01*
X128608511Y-78490724D01*
X128618714Y-78480520D01*
X128618716Y-78480520D01*
X128730520Y-78368716D01*
X128741342Y-78349971D01*
X128784114Y-78275889D01*
X128784115Y-78275887D01*
X128809574Y-78231790D01*
X128809575Y-78231789D01*
X128809575Y-78231787D01*
X128809577Y-78231785D01*
X128850501Y-78079057D01*
X128850501Y-77920943D01*
X128850501Y-77913348D01*
X128850500Y-77913330D01*
X128850500Y-76420943D01*
X128844754Y-76399500D01*
X128831625Y-76350500D01*
X128809577Y-76268216D01*
X128796523Y-76245606D01*
X128730524Y-76131290D01*
X128730521Y-76131286D01*
X128730520Y-76131284D01*
X128618716Y-76019480D01*
X128618715Y-76019479D01*
X128614385Y-76015149D01*
X128614374Y-76015139D01*
X127237590Y-74638355D01*
X127237588Y-74638352D01*
X127118717Y-74519481D01*
X127118716Y-74519480D01*
X127031904Y-74469360D01*
X127031904Y-74469359D01*
X127031900Y-74469358D01*
X126981785Y-74440423D01*
X126829057Y-74399499D01*
X126670943Y-74399499D01*
X126663347Y-74399499D01*
X126663331Y-74399500D01*
X122253439Y-74399500D01*
X122186400Y-74379815D01*
X122140645Y-74327011D01*
X122130701Y-74257853D01*
X122159726Y-74194297D01*
X122184548Y-74172398D01*
X122246077Y-74131285D01*
X122260289Y-74121789D01*
X122371789Y-74010289D01*
X122459394Y-73879179D01*
X122519737Y-73733497D01*
X122550500Y-73578842D01*
X122550500Y-73421158D01*
X122550500Y-73421155D01*
X122550499Y-73421153D01*
X122524899Y-73292454D01*
X122519737Y-73266503D01*
X122519735Y-73266498D01*
X122459397Y-73120827D01*
X122459390Y-73120814D01*
X122371398Y-72989125D01*
X122350520Y-72922447D01*
X122350500Y-72920234D01*
X122350500Y-70670945D01*
X122350500Y-70670943D01*
X122309577Y-70518216D01*
X122309577Y-70518215D01*
X122309577Y-70518214D01*
X122280639Y-70468095D01*
X122280637Y-70468092D01*
X122230520Y-70381284D01*
X122118716Y-70269480D01*
X122118715Y-70269479D01*
X122114385Y-70265149D01*
X122114374Y-70265139D01*
X120012654Y-68163419D01*
X119979169Y-68102096D01*
X119984153Y-68032404D01*
X119998642Y-68006256D01*
X119998012Y-68005835D01*
X120000266Y-68002460D01*
X120000268Y-68002456D01*
X120000273Y-68002450D01*
X120118284Y-67798049D01*
X120208606Y-67579993D01*
X120269693Y-67352014D01*
X120300500Y-67118011D01*
X120300500Y-66881989D01*
X120269693Y-66647986D01*
X120208606Y-66420007D01*
X120118284Y-66201951D01*
X120118282Y-66201948D01*
X120118280Y-66201943D01*
X120047830Y-66079921D01*
X120000273Y-65997550D01*
X119925414Y-65899992D01*
X119925407Y-65899983D01*
X121699500Y-65899983D01*
X121699500Y-68100001D01*
X121699501Y-68100018D01*
X121710000Y-68202796D01*
X121710001Y-68202799D01*
X121765185Y-68369331D01*
X121765187Y-68369336D01*
X121778728Y-68391289D01*
X121857288Y-68518656D01*
X121981344Y-68642712D01*
X122130666Y-68734814D01*
X122297203Y-68789999D01*
X122399991Y-68800500D01*
X124600008Y-68800499D01*
X124702797Y-68789999D01*
X124869334Y-68734814D01*
X125018656Y-68642712D01*
X125142712Y-68518656D01*
X125234814Y-68369334D01*
X125289999Y-68202797D01*
X125300500Y-68100009D01*
X125300500Y-67724500D01*
X125320185Y-67657461D01*
X125372989Y-67611706D01*
X125424500Y-67600500D01*
X126949903Y-67600500D01*
X127016942Y-67620185D01*
X127037584Y-67636819D01*
X127415425Y-68014660D01*
X127448910Y-68075983D01*
X127449361Y-68078149D01*
X127480261Y-68233491D01*
X127480264Y-68233501D01*
X127540602Y-68379172D01*
X127540609Y-68379185D01*
X127628210Y-68510288D01*
X127628213Y-68510292D01*
X127739707Y-68621786D01*
X127739711Y-68621789D01*
X127870814Y-68709390D01*
X127870827Y-68709397D01*
X127981477Y-68755229D01*
X128016503Y-68769737D01*
X128132116Y-68792734D01*
X128171153Y-68800499D01*
X128171156Y-68800500D01*
X128171158Y-68800500D01*
X128328844Y-68800500D01*
X128328845Y-68800499D01*
X128483497Y-68769737D01*
X128629179Y-68709394D01*
X128760289Y-68621789D01*
X128871789Y-68510289D01*
X128959394Y-68379179D01*
X129019737Y-68233497D01*
X129050500Y-68078842D01*
X129050500Y-67921158D01*
X129050500Y-67921155D01*
X129050499Y-67921153D01*
X129019738Y-67766510D01*
X129019737Y-67766503D01*
X128988126Y-67690186D01*
X128959397Y-67620827D01*
X128959390Y-67620814D01*
X128871789Y-67489711D01*
X128871786Y-67489707D01*
X128760292Y-67378213D01*
X128760288Y-67378210D01*
X128629185Y-67290609D01*
X128629172Y-67290602D01*
X128483501Y-67230264D01*
X128483491Y-67230261D01*
X128328151Y-67199362D01*
X128266241Y-67166977D01*
X128264662Y-67165426D01*
X127737590Y-66638355D01*
X127737588Y-66638352D01*
X127618717Y-66519481D01*
X127618716Y-66519480D01*
X127531904Y-66469360D01*
X127531904Y-66469359D01*
X127531900Y-66469358D01*
X127481785Y-66440423D01*
X127329057Y-66399499D01*
X127170943Y-66399499D01*
X127163347Y-66399499D01*
X127163331Y-66399500D01*
X125424499Y-66399500D01*
X125357460Y-66379815D01*
X125311705Y-66327011D01*
X125300499Y-66275500D01*
X125300499Y-65899998D01*
X125300498Y-65899981D01*
X125289999Y-65797203D01*
X125289998Y-65797200D01*
X125270948Y-65739711D01*
X125234814Y-65630666D01*
X125142712Y-65481344D01*
X125082521Y-65421153D01*
X129449500Y-65421153D01*
X129449500Y-65578846D01*
X129480261Y-65733489D01*
X129480264Y-65733501D01*
X129540602Y-65879172D01*
X129540609Y-65879185D01*
X129628210Y-66010288D01*
X129628213Y-66010292D01*
X129739707Y-66121786D01*
X129739711Y-66121789D01*
X129870814Y-66209390D01*
X129870827Y-66209397D01*
X130004246Y-66264660D01*
X130016503Y-66269737D01*
X130081147Y-66282595D01*
X130171849Y-66300638D01*
X130233760Y-66333023D01*
X130235339Y-66334574D01*
X131313181Y-67412416D01*
X131327884Y-67439343D01*
X131344477Y-67465162D01*
X131345368Y-67471362D01*
X131346666Y-67473739D01*
X131349500Y-67500097D01*
X131349500Y-67561267D01*
X131329815Y-67628306D01*
X131277011Y-67674061D01*
X131264506Y-67678972D01*
X131230671Y-67690184D01*
X131230663Y-67690187D01*
X131081342Y-67782289D01*
X130957289Y-67906342D01*
X130865187Y-68055663D01*
X130865185Y-68055668D01*
X130837349Y-68139670D01*
X130810001Y-68222203D01*
X130810001Y-68222204D01*
X130810000Y-68222204D01*
X130799500Y-68324983D01*
X130799500Y-69675001D01*
X130799501Y-69675018D01*
X130810000Y-69777796D01*
X130810001Y-69777799D01*
X130865185Y-69944331D01*
X130865186Y-69944334D01*
X130957288Y-70093656D01*
X131081344Y-70217712D01*
X131230666Y-70309814D01*
X131397203Y-70364999D01*
X131499991Y-70375500D01*
X132400008Y-70375499D01*
X132400016Y-70375498D01*
X132400019Y-70375498D01*
X132456302Y-70369748D01*
X132502797Y-70364999D01*
X132669334Y-70309814D01*
X132818656Y-70217712D01*
X132942712Y-70093656D01*
X133034814Y-69944334D01*
X133089999Y-69777797D01*
X133100500Y-69675009D01*
X133100499Y-68324992D01*
X133097202Y-68292721D01*
X133089999Y-68222203D01*
X133089998Y-68222200D01*
X133079228Y-68189699D01*
X133034814Y-68055666D01*
X132942712Y-67906344D01*
X132818656Y-67782288D01*
X132669334Y-67690186D01*
X132669328Y-67690184D01*
X132635494Y-67678972D01*
X132578050Y-67639199D01*
X132551228Y-67574683D01*
X132550500Y-67561267D01*
X132550500Y-67120945D01*
X132550500Y-67120943D01*
X132523382Y-67019737D01*
X132509577Y-66968215D01*
X132509575Y-66968212D01*
X132509575Y-66968210D01*
X132509574Y-66968209D01*
X132475652Y-66909455D01*
X132475650Y-66909453D01*
X132459816Y-66882028D01*
X132430520Y-66831284D01*
X132318716Y-66719480D01*
X132318715Y-66719479D01*
X132314385Y-66715149D01*
X132314374Y-66715139D01*
X131084574Y-65485339D01*
X131051089Y-65424016D01*
X131050638Y-65421849D01*
X131024688Y-65291394D01*
X131019737Y-65266503D01*
X131019192Y-65265187D01*
X130959397Y-65120827D01*
X130959390Y-65120814D01*
X130871789Y-64989711D01*
X130871786Y-64989707D01*
X130760292Y-64878213D01*
X130760288Y-64878210D01*
X130629185Y-64790609D01*
X130629172Y-64790602D01*
X130483501Y-64730264D01*
X130483489Y-64730261D01*
X130328845Y-64699500D01*
X130328842Y-64699500D01*
X130171158Y-64699500D01*
X130171155Y-64699500D01*
X130016510Y-64730261D01*
X130016498Y-64730264D01*
X129870827Y-64790602D01*
X129870814Y-64790609D01*
X129739711Y-64878210D01*
X129739707Y-64878213D01*
X129628213Y-64989707D01*
X129628210Y-64989711D01*
X129540609Y-65120814D01*
X129540602Y-65120827D01*
X129480264Y-65266498D01*
X129480261Y-65266510D01*
X129449500Y-65421153D01*
X125082521Y-65421153D01*
X125018656Y-65357288D01*
X124871481Y-65266510D01*
X124869336Y-65265187D01*
X124869331Y-65265185D01*
X124867862Y-65264698D01*
X124702797Y-65210001D01*
X124702795Y-65210000D01*
X124600010Y-65199500D01*
X122399998Y-65199500D01*
X122399981Y-65199501D01*
X122297203Y-65210000D01*
X122297200Y-65210001D01*
X122130668Y-65265185D01*
X122130663Y-65265187D01*
X121981342Y-65357289D01*
X121857289Y-65481342D01*
X121765187Y-65630663D01*
X121765185Y-65630668D01*
X121760962Y-65643412D01*
X121710001Y-65797203D01*
X121710001Y-65797204D01*
X121710000Y-65797204D01*
X121699500Y-65899983D01*
X119925407Y-65899983D01*
X119856593Y-65810302D01*
X119856587Y-65810295D01*
X119689704Y-65643412D01*
X119689697Y-65643406D01*
X119502454Y-65499730D01*
X119502453Y-65499729D01*
X119502450Y-65499727D01*
X119371315Y-65424016D01*
X119298056Y-65381719D01*
X119298045Y-65381714D01*
X119079993Y-65291394D01*
X118852010Y-65230306D01*
X118618020Y-65199501D01*
X118618017Y-65199500D01*
X118618011Y-65199500D01*
X118381989Y-65199500D01*
X118381983Y-65199500D01*
X118381979Y-65199501D01*
X118147989Y-65230306D01*
X117920006Y-65291394D01*
X117701954Y-65381714D01*
X117701943Y-65381719D01*
X117497545Y-65499730D01*
X117310302Y-65643406D01*
X117310295Y-65643412D01*
X117143412Y-65810295D01*
X117143406Y-65810302D01*
X116999730Y-65997545D01*
X116999727Y-65997549D01*
X116999727Y-65997550D01*
X116992373Y-66010288D01*
X116881719Y-66201943D01*
X116881714Y-66201954D01*
X116791394Y-66420006D01*
X116730306Y-66647989D01*
X116699501Y-66881979D01*
X116699500Y-66881995D01*
X116699500Y-67118004D01*
X116699501Y-67118020D01*
X116730293Y-67351914D01*
X116730307Y-67352014D01*
X116737327Y-67378213D01*
X116791394Y-67579993D01*
X116881714Y-67798045D01*
X116881719Y-67798056D01*
X116944239Y-67906342D01*
X116999727Y-68002450D01*
X116999729Y-68002453D01*
X116999730Y-68002454D01*
X117143406Y-68189697D01*
X117143412Y-68189704D01*
X117310295Y-68356587D01*
X117310302Y-68356593D01*
X117366220Y-68399500D01*
X117497550Y-68500273D01*
X117628918Y-68576118D01*
X117701943Y-68618280D01*
X117701948Y-68618282D01*
X117701951Y-68618284D01*
X117920007Y-68708606D01*
X118147986Y-68769693D01*
X118381989Y-68800500D01*
X118381996Y-68800500D01*
X118618004Y-68800500D01*
X118618011Y-68800500D01*
X118851871Y-68769711D01*
X118920902Y-68780476D01*
X118955734Y-68804969D01*
X121113181Y-70962416D01*
X121146666Y-71023739D01*
X121149500Y-71050097D01*
X121149500Y-72920234D01*
X121129815Y-72987273D01*
X121128602Y-72989125D01*
X121040609Y-73120814D01*
X121040602Y-73120827D01*
X120980264Y-73266498D01*
X120980261Y-73266510D01*
X120949500Y-73421153D01*
X120949500Y-73578846D01*
X120980261Y-73733489D01*
X120980264Y-73733501D01*
X121040602Y-73879172D01*
X121040609Y-73879185D01*
X121128210Y-74010288D01*
X121128213Y-74010292D01*
X121239707Y-74121786D01*
X121239711Y-74121789D01*
X121315452Y-74172398D01*
X121360257Y-74226010D01*
X121368964Y-74295335D01*
X121338810Y-74358363D01*
X121279366Y-74395082D01*
X121246561Y-74399500D01*
X117724499Y-74399500D01*
X117657460Y-74379815D01*
X117611705Y-74327011D01*
X117600499Y-74275500D01*
X117600499Y-74102129D01*
X117600498Y-74102123D01*
X117600497Y-74102116D01*
X117594091Y-74042517D01*
X117585498Y-74019479D01*
X117543797Y-73907671D01*
X117543793Y-73907664D01*
X117457547Y-73792455D01*
X117457544Y-73792452D01*
X117342335Y-73706206D01*
X117342328Y-73706202D01*
X117207482Y-73655908D01*
X117207483Y-73655908D01*
X117147883Y-73649501D01*
X117147881Y-73649500D01*
X117147873Y-73649500D01*
X117147864Y-73649500D01*
X115352129Y-73649500D01*
X115352123Y-73649501D01*
X115292516Y-73655908D01*
X115157671Y-73706202D01*
X115157664Y-73706206D01*
X115042455Y-73792452D01*
X115042452Y-73792455D01*
X114956206Y-73907664D01*
X114956202Y-73907671D01*
X114905908Y-74042517D01*
X114899501Y-74102116D01*
X114899501Y-74102123D01*
X114899500Y-74102135D01*
X114899500Y-75897870D01*
X114899501Y-75897876D01*
X114905908Y-75957483D01*
X114956202Y-76092328D01*
X114956206Y-76092335D01*
X115042452Y-76207544D01*
X115042455Y-76207547D01*
X115157664Y-76293793D01*
X115157671Y-76293797D01*
X115292517Y-76344091D01*
X115292516Y-76344091D01*
X115299444Y-76344835D01*
X115352127Y-76350500D01*
X117147872Y-76350499D01*
X117207483Y-76344091D01*
X117342331Y-76293796D01*
X117457546Y-76207546D01*
X117543796Y-76092331D01*
X117594091Y-75957483D01*
X117600500Y-75897873D01*
X117600500Y-75724500D01*
X117620185Y-75657461D01*
X117672989Y-75611706D01*
X117724500Y-75600500D01*
X126449903Y-75600500D01*
X126516942Y-75620185D01*
X126537584Y-75636819D01*
X127613181Y-76712416D01*
X127646666Y-76773739D01*
X127649500Y-76800097D01*
X127649500Y-77699902D01*
X127629815Y-77766941D01*
X127613181Y-77787583D01*
X127230304Y-78170459D01*
X127168981Y-78203944D01*
X127099289Y-78198960D01*
X127045358Y-78159690D01*
X127042712Y-78156344D01*
X126918657Y-78032289D01*
X126918656Y-78032288D01*
X126769334Y-77940186D01*
X126602797Y-77885001D01*
X126602795Y-77885000D01*
X126500010Y-77874500D01*
X125599998Y-77874500D01*
X125599980Y-77874501D01*
X125497203Y-77885000D01*
X125497200Y-77885001D01*
X125330668Y-77940185D01*
X125330663Y-77940187D01*
X125181342Y-78032289D01*
X125057289Y-78156342D01*
X124965187Y-78305663D01*
X124965185Y-78305668D01*
X124944293Y-78368716D01*
X124910001Y-78472203D01*
X124910001Y-78472204D01*
X124910000Y-78472204D01*
X124899500Y-78574983D01*
X124899500Y-78820346D01*
X124879815Y-78887385D01*
X124827011Y-78933140D01*
X124757853Y-78943084D01*
X124694297Y-78914059D01*
X124656523Y-78855281D01*
X124655737Y-78852483D01*
X124611158Y-78686114D01*
X124579100Y-78608717D01*
X124523349Y-78474120D01*
X124523344Y-78474111D01*
X124522243Y-78472204D01*
X124408610Y-78275388D01*
X124408605Y-78275382D01*
X124408603Y-78275378D01*
X124268921Y-78093340D01*
X124268915Y-78093333D01*
X124056666Y-77881084D01*
X124056659Y-77881078D01*
X123961586Y-77808127D01*
X123961584Y-77808125D01*
X123874616Y-77741392D01*
X123874615Y-77741391D01*
X123874612Y-77741389D01*
X123675888Y-77626656D01*
X123675876Y-77626650D01*
X123463889Y-77538843D01*
X123463890Y-77538843D01*
X123463887Y-77538842D01*
X123328069Y-77502450D01*
X123328068Y-77502449D01*
X123250942Y-77481784D01*
X123242239Y-77479452D01*
X123242233Y-77479451D01*
X123242232Y-77479451D01*
X123232362Y-77478151D01*
X123215771Y-77475967D01*
X123215770Y-77475966D01*
X123014744Y-77449501D01*
X123014739Y-77449500D01*
X123014734Y-77449500D01*
X123014727Y-77449500D01*
X114476443Y-77449500D01*
X114409404Y-77429815D01*
X114388762Y-77413181D01*
X113156666Y-76181084D01*
X113156659Y-76181078D01*
X113041000Y-76092331D01*
X113040999Y-76092330D01*
X112974622Y-76041396D01*
X112974616Y-76041392D01*
X112974612Y-76041389D01*
X112936666Y-76019481D01*
X112775891Y-75926657D01*
X112775876Y-75926650D01*
X112563887Y-75838842D01*
X112504588Y-75822953D01*
X112342239Y-75779452D01*
X112342233Y-75779451D01*
X112342232Y-75779451D01*
X112332362Y-75778151D01*
X112315771Y-75775967D01*
X112315770Y-75775966D01*
X112114744Y-75749501D01*
X112114739Y-75749500D01*
X112114734Y-75749500D01*
X112114727Y-75749500D01*
X109669507Y-75749500D01*
X109630503Y-75743206D01*
X109628528Y-75742551D01*
X109530297Y-75710001D01*
X109530295Y-75710000D01*
X109427510Y-75699500D01*
X107227498Y-75699500D01*
X107227481Y-75699501D01*
X107124703Y-75710000D01*
X107124700Y-75710001D01*
X106958168Y-75765185D01*
X106958163Y-75765187D01*
X106808842Y-75857289D01*
X106684789Y-75981342D01*
X106592687Y-76130663D01*
X106592685Y-76130668D01*
X106584823Y-76154394D01*
X106537501Y-76297203D01*
X106537501Y-76297204D01*
X106537500Y-76297204D01*
X106527000Y-76399983D01*
X106527000Y-78600001D01*
X106527001Y-78600018D01*
X106537500Y-78702796D01*
X106537501Y-78702799D01*
X106559221Y-78768345D01*
X106592686Y-78869334D01*
X106684788Y-79018656D01*
X106808844Y-79142712D01*
X106958166Y-79234814D01*
X107124703Y-79289999D01*
X107227491Y-79300500D01*
X109427508Y-79300499D01*
X109530297Y-79289999D01*
X109630503Y-79256794D01*
X109669507Y-79250500D01*
X111223557Y-79250500D01*
X111290596Y-79270185D01*
X111311238Y-79286819D01*
X112543331Y-80518913D01*
X112543336Y-80518917D01*
X112543339Y-80518920D01*
X112596633Y-80559813D01*
X112596634Y-80559815D01*
X112698527Y-80638000D01*
X112725388Y-80658611D01*
X112835973Y-80722457D01*
X112893205Y-80755500D01*
X112924108Y-80773342D01*
X112924123Y-80773349D01*
X112976116Y-80794885D01*
X113136113Y-80861158D01*
X113357761Y-80920548D01*
X113384223Y-80924031D01*
X113384227Y-80924033D01*
X113384228Y-80924032D01*
X113585266Y-80950500D01*
X118385266Y-80950500D01*
X122516612Y-80950500D01*
X122548703Y-80954725D01*
X122578310Y-80962657D01*
X122606172Y-80970123D01*
X122665831Y-81006485D01*
X122696362Y-81069332D01*
X122688068Y-81138707D01*
X122661761Y-81177578D01*
X122532682Y-81306657D01*
X122440643Y-81455875D01*
X122440641Y-81455880D01*
X122385494Y-81622302D01*
X122385493Y-81622309D01*
X122375000Y-81725013D01*
X122375000Y-82000000D01*
X123338500Y-82000000D01*
X123405539Y-82019685D01*
X123451294Y-82072489D01*
X123462500Y-82124000D01*
X123462500Y-82250000D01*
X123588500Y-82250000D01*
X123655539Y-82269685D01*
X123701294Y-82322489D01*
X123712500Y-82374000D01*
X123712500Y-83474999D01*
X123849972Y-83474999D01*
X123849986Y-83474998D01*
X123952697Y-83464505D01*
X124119119Y-83409358D01*
X124119124Y-83409356D01*
X124268345Y-83317315D01*
X124392318Y-83193342D01*
X124394165Y-83190348D01*
X124395969Y-83188724D01*
X124396798Y-83187677D01*
X124396976Y-83187818D01*
X124446110Y-83143621D01*
X124515073Y-83132396D01*
X124579156Y-83160236D01*
X124605243Y-83190341D01*
X124607288Y-83193656D01*
X124731344Y-83317712D01*
X124880666Y-83409814D01*
X124880671Y-83409815D01*
X124880674Y-83409817D01*
X124891743Y-83413485D01*
X124949188Y-83453258D01*
X124966214Y-83481198D01*
X124970051Y-83489907D01*
X124977923Y-83519285D01*
X124995945Y-83550499D01*
X125026270Y-83603024D01*
X125056979Y-83656215D01*
X125175849Y-83775085D01*
X125175855Y-83775090D01*
X125265139Y-83864374D01*
X125265149Y-83864385D01*
X125269479Y-83868715D01*
X125269480Y-83868716D01*
X125381284Y-83980520D01*
X125381286Y-83980521D01*
X125381290Y-83980524D01*
X125518209Y-84059573D01*
X125518216Y-84059577D01*
X125630019Y-84089534D01*
X125670942Y-84100500D01*
X125670943Y-84100500D01*
X126913331Y-84100500D01*
X126913347Y-84100501D01*
X126920943Y-84100501D01*
X127079054Y-84100501D01*
X127079057Y-84100501D01*
X127231785Y-84059577D01*
X127301233Y-84019481D01*
X127368716Y-83980520D01*
X127480520Y-83868716D01*
X127480520Y-83868714D01*
X127490724Y-83858511D01*
X127490727Y-83858506D01*
X127937222Y-83412012D01*
X127998544Y-83378528D01*
X128068236Y-83383512D01*
X128124169Y-83425384D01*
X128130441Y-83434598D01*
X128182287Y-83518655D01*
X128306346Y-83642714D01*
X128309182Y-83644463D01*
X128310717Y-83646170D01*
X128312011Y-83647193D01*
X128311836Y-83647414D01*
X128355905Y-83696411D01*
X128367126Y-83765374D01*
X128339282Y-83829456D01*
X128309182Y-83855537D01*
X128306346Y-83857285D01*
X128182289Y-83981342D01*
X128090187Y-84130663D01*
X128090186Y-84130666D01*
X128035001Y-84297203D01*
X128035001Y-84297204D01*
X128035000Y-84297204D01*
X128027416Y-84371447D01*
X128001020Y-84436138D01*
X127991739Y-84446525D01*
X127399885Y-85038379D01*
X127338562Y-85071864D01*
X127268870Y-85066880D01*
X127212937Y-85025008D01*
X127190948Y-84976642D01*
X127189999Y-84972212D01*
X127189999Y-84972203D01*
X127134814Y-84805666D01*
X127042712Y-84656344D01*
X126918656Y-84532288D01*
X126825888Y-84475069D01*
X126769336Y-84440187D01*
X126769331Y-84440185D01*
X126757118Y-84436138D01*
X126602797Y-84385001D01*
X126602795Y-84385000D01*
X126500010Y-84374500D01*
X125599998Y-84374500D01*
X125599980Y-84374501D01*
X125497203Y-84385000D01*
X125497200Y-84385001D01*
X125330668Y-84440185D01*
X125330663Y-84440187D01*
X125181342Y-84532289D01*
X125057289Y-84656342D01*
X124965187Y-84805663D01*
X124965185Y-84805668D01*
X124953974Y-84839501D01*
X124910001Y-84972203D01*
X124910001Y-84972204D01*
X124910000Y-84972204D01*
X124899500Y-85074983D01*
X124899500Y-86425001D01*
X124899501Y-86425018D01*
X124910000Y-86527796D01*
X124910001Y-86527799D01*
X124945525Y-86635001D01*
X124965186Y-86694334D01*
X125057288Y-86843656D01*
X125181344Y-86967712D01*
X125330666Y-87059814D01*
X125497203Y-87114999D01*
X125599991Y-87125500D01*
X125724901Y-87125499D01*
X125791941Y-87145183D01*
X125812583Y-87161818D01*
X126113181Y-87462416D01*
X126127884Y-87489343D01*
X126144477Y-87515162D01*
X126145368Y-87521362D01*
X126146666Y-87523739D01*
X126149500Y-87550097D01*
X126149500Y-87737402D01*
X126129815Y-87804441D01*
X126113181Y-87825083D01*
X125950083Y-87988181D01*
X125888760Y-88021666D01*
X125862402Y-88024500D01*
X125149998Y-88024500D01*
X125149980Y-88024501D01*
X125047203Y-88035000D01*
X125047200Y-88035001D01*
X124880668Y-88090185D01*
X124880663Y-88090187D01*
X124731342Y-88182289D01*
X124607288Y-88306343D01*
X124607283Y-88306349D01*
X124605241Y-88309661D01*
X124603247Y-88311453D01*
X124602807Y-88312011D01*
X124602711Y-88311935D01*
X124553291Y-88356383D01*
X124484328Y-88367602D01*
X124420247Y-88339755D01*
X124394168Y-88309656D01*
X124392319Y-88306659D01*
X124392316Y-88306655D01*
X124268345Y-88182684D01*
X124119124Y-88090643D01*
X124119119Y-88090641D01*
X123952697Y-88035494D01*
X123952690Y-88035493D01*
X123849986Y-88025000D01*
X123712500Y-88025000D01*
X123712500Y-89126000D01*
X123692815Y-89193039D01*
X123640011Y-89238794D01*
X123588500Y-89250000D01*
X123462500Y-89250000D01*
X123462500Y-89376000D01*
X123442815Y-89443039D01*
X123390011Y-89488794D01*
X123338500Y-89500000D01*
X122375001Y-89500000D01*
X122375001Y-89774986D01*
X122385494Y-89877697D01*
X122440641Y-90044119D01*
X122440643Y-90044124D01*
X122532684Y-90193345D01*
X122656654Y-90317315D01*
X122805875Y-90409356D01*
X122812421Y-90412408D01*
X122811298Y-90414815D01*
X122858600Y-90447561D01*
X122885427Y-90512076D01*
X122873116Y-90580852D01*
X122825576Y-90632055D01*
X122762156Y-90649500D01*
X117724499Y-90649500D01*
X117657460Y-90629815D01*
X117611705Y-90577011D01*
X117600499Y-90525500D01*
X117600499Y-90352129D01*
X117600498Y-90352123D01*
X117600497Y-90352116D01*
X117594091Y-90292517D01*
X117575833Y-90243566D01*
X117543797Y-90157671D01*
X117543793Y-90157664D01*
X117457547Y-90042455D01*
X117457544Y-90042452D01*
X117342335Y-89956206D01*
X117342328Y-89956202D01*
X117207482Y-89905908D01*
X117207483Y-89905908D01*
X117147883Y-89899501D01*
X117147881Y-89899500D01*
X117147873Y-89899500D01*
X117147864Y-89899500D01*
X115352129Y-89899500D01*
X115352123Y-89899501D01*
X115292516Y-89905908D01*
X115157671Y-89956202D01*
X115157664Y-89956206D01*
X115042455Y-90042452D01*
X115042452Y-90042455D01*
X114956206Y-90157664D01*
X114956202Y-90157671D01*
X114905908Y-90292517D01*
X114899501Y-90352116D01*
X114899501Y-90352123D01*
X114899500Y-90352135D01*
X114899500Y-92147870D01*
X114899501Y-92147876D01*
X114905908Y-92207483D01*
X114956202Y-92342328D01*
X114956206Y-92342335D01*
X115042452Y-92457544D01*
X115042455Y-92457547D01*
X115157664Y-92543793D01*
X115157671Y-92543797D01*
X115292517Y-92594091D01*
X115292516Y-92594091D01*
X115299444Y-92594835D01*
X115352127Y-92600500D01*
X117147872Y-92600499D01*
X117207483Y-92594091D01*
X117342331Y-92543796D01*
X117457546Y-92457546D01*
X117543796Y-92342331D01*
X117594091Y-92207483D01*
X117600500Y-92147873D01*
X117600500Y-91974500D01*
X117620185Y-91907461D01*
X117672989Y-91861706D01*
X117724500Y-91850500D01*
X124413331Y-91850500D01*
X124413347Y-91850501D01*
X124420943Y-91850501D01*
X124579054Y-91850501D01*
X124579057Y-91850501D01*
X124731785Y-91809577D01*
X124806391Y-91766503D01*
X124868716Y-91730520D01*
X124980520Y-91618716D01*
X124980520Y-91618714D01*
X124990724Y-91608511D01*
X124990727Y-91608506D01*
X126018020Y-90581216D01*
X126075087Y-90482372D01*
X126125650Y-90434159D01*
X126143464Y-90426670D01*
X126194334Y-90409814D01*
X126343656Y-90317712D01*
X126467712Y-90193656D01*
X126559814Y-90044334D01*
X126614999Y-89877797D01*
X126625500Y-89775009D01*
X126625499Y-89062595D01*
X126645183Y-88995557D01*
X126661813Y-88974920D01*
X127108506Y-88528228D01*
X127108511Y-88528224D01*
X127118714Y-88518020D01*
X127118716Y-88518020D01*
X127230520Y-88406216D01*
X127296200Y-88292454D01*
X127309577Y-88269285D01*
X127350501Y-88116557D01*
X127350501Y-87958443D01*
X127350501Y-87950848D01*
X127350500Y-87950830D01*
X127350500Y-87170943D01*
X127348055Y-87161818D01*
X127344754Y-87149500D01*
X127331357Y-87099500D01*
X127309577Y-87018216D01*
X127295249Y-86993399D01*
X127230524Y-86881290D01*
X127230521Y-86881286D01*
X127230520Y-86881284D01*
X127166186Y-86816950D01*
X127132702Y-86755626D01*
X127136162Y-86690265D01*
X127136188Y-86690187D01*
X127189999Y-86527797D01*
X127194829Y-86480520D01*
X127196732Y-86461897D01*
X127197726Y-86459459D01*
X127197352Y-86456853D01*
X127210854Y-86427287D01*
X127223129Y-86397205D01*
X127225283Y-86395692D01*
X127226377Y-86393297D01*
X127253718Y-86375725D01*
X127280310Y-86357054D01*
X127283621Y-86356508D01*
X127285155Y-86355523D01*
X127320090Y-86350500D01*
X127450831Y-86350500D01*
X127450847Y-86350501D01*
X127458443Y-86350501D01*
X127616554Y-86350501D01*
X127616557Y-86350501D01*
X127769285Y-86309577D01*
X127840924Y-86268216D01*
X127906216Y-86230520D01*
X128018020Y-86118716D01*
X128018020Y-86118714D01*
X128028224Y-86108511D01*
X128028228Y-86108506D01*
X128306708Y-85830025D01*
X128368029Y-85796542D01*
X128437721Y-85801526D01*
X128448989Y-85807035D01*
X128449118Y-85806760D01*
X128455659Y-85809810D01*
X128455666Y-85809814D01*
X128622203Y-85864999D01*
X128724991Y-85875500D01*
X129775008Y-85875499D01*
X129775499Y-85875499D01*
X129842538Y-85895183D01*
X129888293Y-85947987D01*
X129899499Y-85999499D01*
X129899499Y-86079054D01*
X129899498Y-86079054D01*
X129940423Y-86231786D01*
X129951227Y-86250497D01*
X129951228Y-86250502D01*
X129951229Y-86250502D01*
X130019475Y-86368709D01*
X130019481Y-86368717D01*
X130138349Y-86487585D01*
X130138355Y-86487590D01*
X131415425Y-87764660D01*
X131448910Y-87825983D01*
X131449361Y-87828149D01*
X131480261Y-87983491D01*
X131480264Y-87983501D01*
X131540602Y-88129172D01*
X131540609Y-88129185D01*
X131628210Y-88260288D01*
X131628213Y-88260292D01*
X131739707Y-88371786D01*
X131739711Y-88371789D01*
X131870814Y-88459390D01*
X131870827Y-88459397D01*
X132016498Y-88519735D01*
X132016503Y-88519737D01*
X132171153Y-88550499D01*
X132171156Y-88550500D01*
X132275500Y-88550500D01*
X132342539Y-88570185D01*
X132388294Y-88622989D01*
X132399500Y-88674500D01*
X132399500Y-93449903D01*
X132379815Y-93516942D01*
X132363181Y-93537584D01*
X128287584Y-97613181D01*
X128226261Y-97646666D01*
X128199903Y-97649500D01*
X121260098Y-97649500D01*
X121193059Y-97629815D01*
X121172417Y-97613181D01*
X119920066Y-96360831D01*
X119886581Y-96299508D01*
X119885274Y-96253752D01*
X119910500Y-96094486D01*
X119910500Y-95905513D01*
X122589500Y-95905513D01*
X122589500Y-96094486D01*
X122619059Y-96281118D01*
X122677454Y-96460836D01*
X122749424Y-96602084D01*
X122763240Y-96629199D01*
X122874310Y-96782073D01*
X123007927Y-96915690D01*
X123160801Y-97026760D01*
X123192152Y-97042734D01*
X123329163Y-97112545D01*
X123329165Y-97112545D01*
X123329168Y-97112547D01*
X123377377Y-97128211D01*
X123508881Y-97170940D01*
X123695514Y-97200500D01*
X123695519Y-97200500D01*
X123884486Y-97200500D01*
X124071118Y-97170940D01*
X124101753Y-97160986D01*
X124250832Y-97112547D01*
X124419199Y-97026760D01*
X124572073Y-96915690D01*
X124705690Y-96782073D01*
X124816760Y-96629199D01*
X124902547Y-96460832D01*
X124960940Y-96281118D01*
X124965274Y-96253752D01*
X124990500Y-96094486D01*
X124990500Y-95905513D01*
X124965274Y-95746246D01*
X124974228Y-95676953D01*
X125000063Y-95639170D01*
X128002416Y-92636819D01*
X128063739Y-92603334D01*
X128090097Y-92600500D01*
X128920234Y-92600500D01*
X128987273Y-92620185D01*
X128989125Y-92621398D01*
X129120814Y-92709390D01*
X129120827Y-92709397D01*
X129266498Y-92769735D01*
X129266503Y-92769737D01*
X129421153Y-92800499D01*
X129421156Y-92800500D01*
X129421158Y-92800500D01*
X129578844Y-92800500D01*
X129578845Y-92800499D01*
X129733497Y-92769737D01*
X129879179Y-92709394D01*
X130010289Y-92621789D01*
X130121789Y-92510289D01*
X130209394Y-92379179D01*
X130269737Y-92233497D01*
X130300500Y-92078842D01*
X130300500Y-91921158D01*
X130300500Y-91921155D01*
X130300499Y-91921153D01*
X130278305Y-91809577D01*
X130269737Y-91766503D01*
X130262901Y-91750000D01*
X130209397Y-91620827D01*
X130209390Y-91620814D01*
X130121789Y-91489711D01*
X130121786Y-91489707D01*
X130010292Y-91378213D01*
X130010288Y-91378210D01*
X129879185Y-91290609D01*
X129879172Y-91290602D01*
X129733501Y-91230264D01*
X129733489Y-91230261D01*
X129578845Y-91199500D01*
X129578842Y-91199500D01*
X129421158Y-91199500D01*
X129421155Y-91199500D01*
X129266510Y-91230261D01*
X129266498Y-91230264D01*
X129120827Y-91290602D01*
X129120814Y-91290609D01*
X128989125Y-91378602D01*
X128922447Y-91399480D01*
X128920234Y-91399500D01*
X127869057Y-91399500D01*
X127710942Y-91399500D01*
X127558215Y-91440423D01*
X127532300Y-91455385D01*
X127525355Y-91459395D01*
X127525354Y-91459394D01*
X127421287Y-91519477D01*
X127421282Y-91519481D01*
X127309478Y-91631286D01*
X124150830Y-94789933D01*
X124089507Y-94823418D01*
X124043751Y-94824725D01*
X123884486Y-94799500D01*
X123884481Y-94799500D01*
X123695519Y-94799500D01*
X123695514Y-94799500D01*
X123508881Y-94829059D01*
X123329163Y-94887454D01*
X123160800Y-94973240D01*
X123110552Y-95009748D01*
X123007927Y-95084310D01*
X123007925Y-95084312D01*
X123007924Y-95084312D01*
X122874312Y-95217924D01*
X122874312Y-95217925D01*
X122874310Y-95217927D01*
X122826610Y-95283579D01*
X122763240Y-95370800D01*
X122677454Y-95539163D01*
X122619059Y-95718881D01*
X122589500Y-95905513D01*
X119910500Y-95905513D01*
X119880940Y-95718881D01*
X119822545Y-95539163D01*
X119777290Y-95450347D01*
X119736760Y-95370801D01*
X119625690Y-95217927D01*
X119492073Y-95084310D01*
X119339199Y-94973240D01*
X119170836Y-94887454D01*
X118991118Y-94829059D01*
X118804486Y-94799500D01*
X118804481Y-94799500D01*
X118615519Y-94799500D01*
X118615514Y-94799500D01*
X118428881Y-94829059D01*
X118249163Y-94887454D01*
X118080800Y-94973240D01*
X118030552Y-95009748D01*
X117927927Y-95084310D01*
X117927925Y-95084312D01*
X117927924Y-95084312D01*
X117794312Y-95217924D01*
X117794312Y-95217925D01*
X117794310Y-95217927D01*
X117746610Y-95283579D01*
X117683240Y-95370800D01*
X117597454Y-95539163D01*
X117566412Y-95634703D01*
X117526974Y-95692378D01*
X117462615Y-95719576D01*
X117393769Y-95707661D01*
X117360800Y-95684065D01*
X110401748Y-88725013D01*
X122375000Y-88725013D01*
X122375000Y-89000000D01*
X123212500Y-89000000D01*
X123212500Y-88025000D01*
X123075027Y-88025000D01*
X123075012Y-88025001D01*
X122972302Y-88035494D01*
X122805880Y-88090641D01*
X122805875Y-88090643D01*
X122656654Y-88182684D01*
X122532684Y-88306654D01*
X122440643Y-88455875D01*
X122440641Y-88455880D01*
X122385494Y-88622302D01*
X122385493Y-88622309D01*
X122375000Y-88725013D01*
X110401748Y-88725013D01*
X110012864Y-88336129D01*
X109979379Y-88274806D01*
X109984363Y-88205114D01*
X109985968Y-88201033D01*
X110036106Y-88079993D01*
X110097193Y-87852014D01*
X110128000Y-87618011D01*
X110128000Y-87381989D01*
X110097193Y-87147986D01*
X110036106Y-86920007D01*
X109945784Y-86701951D01*
X109945782Y-86701948D01*
X109945780Y-86701943D01*
X109900425Y-86623387D01*
X109827773Y-86497550D01*
X109718792Y-86355523D01*
X109684093Y-86310302D01*
X109684087Y-86310295D01*
X109517204Y-86143412D01*
X109517197Y-86143406D01*
X109329954Y-85999730D01*
X109329953Y-85999729D01*
X109329950Y-85999727D01*
X109227238Y-85940426D01*
X109125556Y-85881719D01*
X109125545Y-85881714D01*
X108928236Y-85799986D01*
X116325001Y-85799986D01*
X116335494Y-85902696D01*
X116335494Y-85902698D01*
X116390640Y-86069119D01*
X116390645Y-86069130D01*
X116482680Y-86218340D01*
X116482683Y-86218344D01*
X116606655Y-86342316D01*
X116606659Y-86342319D01*
X116755869Y-86434354D01*
X116755880Y-86434359D01*
X116922302Y-86489505D01*
X117025020Y-86499999D01*
X118249999Y-86499999D01*
X118750000Y-86499999D01*
X119974972Y-86499999D01*
X119974986Y-86499998D01*
X120077696Y-86489505D01*
X120077698Y-86489505D01*
X120244119Y-86434359D01*
X120244130Y-86434354D01*
X120259318Y-86424986D01*
X121800001Y-86424986D01*
X121810494Y-86527697D01*
X121865641Y-86694119D01*
X121865643Y-86694124D01*
X121957684Y-86843345D01*
X122081654Y-86967315D01*
X122230875Y-87059356D01*
X122230880Y-87059358D01*
X122397302Y-87114505D01*
X122397309Y-87114506D01*
X122500019Y-87124999D01*
X122699999Y-87124999D01*
X123200000Y-87124999D01*
X123399972Y-87124999D01*
X123399986Y-87124998D01*
X123502697Y-87114505D01*
X123669119Y-87059358D01*
X123669124Y-87059356D01*
X123818345Y-86967315D01*
X123942315Y-86843345D01*
X124034356Y-86694124D01*
X124034358Y-86694119D01*
X124089505Y-86527697D01*
X124089506Y-86527690D01*
X124099999Y-86424986D01*
X124100000Y-86424973D01*
X124100000Y-86000000D01*
X123200000Y-86000000D01*
X123200000Y-87124999D01*
X122699999Y-87124999D01*
X122700000Y-87124998D01*
X122700000Y-86000000D01*
X121800001Y-86000000D01*
X121800001Y-86424986D01*
X120259318Y-86424986D01*
X120393340Y-86342319D01*
X120393344Y-86342316D01*
X120517316Y-86218344D01*
X120517319Y-86218340D01*
X120609354Y-86069130D01*
X120609359Y-86069119D01*
X120662207Y-85909634D01*
X120662208Y-85909632D01*
X120664505Y-85902698D01*
X120674999Y-85799986D01*
X120675000Y-85799973D01*
X120675000Y-85550000D01*
X118750000Y-85550000D01*
X118750000Y-86499999D01*
X118249999Y-86499999D01*
X118250000Y-86499998D01*
X118250000Y-85550000D01*
X116325001Y-85550000D01*
X116325001Y-85799986D01*
X108928236Y-85799986D01*
X108907493Y-85791394D01*
X108792934Y-85760698D01*
X108679514Y-85730307D01*
X108679513Y-85730306D01*
X108679510Y-85730306D01*
X108445520Y-85699501D01*
X108445517Y-85699500D01*
X108445511Y-85699500D01*
X108209489Y-85699500D01*
X108209483Y-85699500D01*
X108209479Y-85699501D01*
X107975489Y-85730306D01*
X107747506Y-85791394D01*
X107529454Y-85881714D01*
X107529443Y-85881719D01*
X107325045Y-85999730D01*
X107137802Y-86143406D01*
X107137795Y-86143412D01*
X106970912Y-86310295D01*
X106970906Y-86310302D01*
X106827230Y-86497545D01*
X106827227Y-86497549D01*
X106827227Y-86497550D01*
X106819514Y-86510909D01*
X106709219Y-86701943D01*
X106709214Y-86701954D01*
X106618894Y-86920006D01*
X106557806Y-87147989D01*
X106527001Y-87381979D01*
X106527000Y-87381995D01*
X106527000Y-87618004D01*
X106527001Y-87618020D01*
X106557372Y-87848717D01*
X106557807Y-87852014D01*
X106618893Y-88079990D01*
X106618894Y-88079993D01*
X106709214Y-88298045D01*
X106709219Y-88298056D01*
X106752481Y-88372987D01*
X106827227Y-88502450D01*
X106827229Y-88502453D01*
X106827230Y-88502454D01*
X106970906Y-88689697D01*
X106970912Y-88689704D01*
X107137795Y-88856587D01*
X107137801Y-88856592D01*
X107325050Y-89000273D01*
X107432997Y-89062596D01*
X107529443Y-89118280D01*
X107529448Y-89118282D01*
X107529451Y-89118284D01*
X107747507Y-89208606D01*
X107975486Y-89269693D01*
X108209489Y-89300500D01*
X108209496Y-89300500D01*
X108445504Y-89300500D01*
X108445511Y-89300500D01*
X108679514Y-89269693D01*
X108907493Y-89208606D01*
X109028496Y-89158483D01*
X109097964Y-89151015D01*
X109160443Y-89182289D01*
X109163629Y-89185364D01*
X119266084Y-99287819D01*
X119299569Y-99349142D01*
X119294585Y-99418834D01*
X119252713Y-99474767D01*
X119187249Y-99499184D01*
X119178403Y-99499500D01*
X103124500Y-99499500D01*
X103057461Y-99479815D01*
X103011706Y-99427011D01*
X103000500Y-99375500D01*
X103000500Y-95115186D01*
X106099500Y-95115186D01*
X106099500Y-95384813D01*
X106129686Y-95652719D01*
X106129687Y-95652728D01*
X106129688Y-95652732D01*
X106142225Y-95707661D01*
X106189684Y-95915594D01*
X106189687Y-95915602D01*
X106278734Y-96170082D01*
X106395714Y-96412994D01*
X106395716Y-96412997D01*
X106539162Y-96641289D01*
X106707266Y-96852085D01*
X106897915Y-97042734D01*
X107108711Y-97210838D01*
X107267029Y-97310316D01*
X107337005Y-97354285D01*
X107370288Y-97370313D01*
X107579921Y-97471267D01*
X107771049Y-97538145D01*
X107834397Y-97560312D01*
X107834405Y-97560315D01*
X107834408Y-97560315D01*
X107834409Y-97560316D01*
X108097268Y-97620312D01*
X108365187Y-97650499D01*
X108365188Y-97650500D01*
X108365191Y-97650500D01*
X108634812Y-97650500D01*
X108634812Y-97650499D01*
X108902732Y-97620312D01*
X109165591Y-97560316D01*
X109420079Y-97471267D01*
X109662997Y-97354284D01*
X109891289Y-97210838D01*
X110102085Y-97042734D01*
X110292734Y-96852085D01*
X110460838Y-96641289D01*
X110604284Y-96412997D01*
X110721267Y-96170079D01*
X110810316Y-95915591D01*
X110870312Y-95652732D01*
X110900500Y-95384809D01*
X110900500Y-95115191D01*
X110870312Y-94847268D01*
X110810316Y-94584409D01*
X110721267Y-94329921D01*
X110604284Y-94087003D01*
X110460838Y-93858711D01*
X110292734Y-93647915D01*
X110102085Y-93457266D01*
X109891289Y-93289162D01*
X109662997Y-93145716D01*
X109662994Y-93145714D01*
X109420082Y-93028734D01*
X109165602Y-92939687D01*
X109165594Y-92939684D01*
X108968446Y-92894687D01*
X108902732Y-92879688D01*
X108902728Y-92879687D01*
X108902719Y-92879686D01*
X108634813Y-92849500D01*
X108634809Y-92849500D01*
X108365191Y-92849500D01*
X108365186Y-92849500D01*
X108097280Y-92879686D01*
X108097268Y-92879688D01*
X107834405Y-92939684D01*
X107834397Y-92939687D01*
X107579917Y-93028734D01*
X107337005Y-93145714D01*
X107108712Y-93289161D01*
X106897915Y-93457265D01*
X106707265Y-93647915D01*
X106539161Y-93858712D01*
X106395714Y-94087005D01*
X106278734Y-94329917D01*
X106189687Y-94584397D01*
X106189684Y-94584405D01*
X106129688Y-94847268D01*
X106129686Y-94847280D01*
X106099500Y-95115186D01*
X103000500Y-95115186D01*
X103000500Y-85075013D01*
X121800000Y-85075013D01*
X121800000Y-85500000D01*
X122700000Y-85500000D01*
X123200000Y-85500000D01*
X124099999Y-85500000D01*
X124099999Y-85075028D01*
X124099998Y-85075013D01*
X124089505Y-84972302D01*
X124034358Y-84805880D01*
X124034356Y-84805875D01*
X123942315Y-84656654D01*
X123818345Y-84532684D01*
X123669124Y-84440643D01*
X123669119Y-84440641D01*
X123502697Y-84385494D01*
X123502690Y-84385493D01*
X123399986Y-84375000D01*
X123200000Y-84375000D01*
X123200000Y-85500000D01*
X122700000Y-85500000D01*
X122700000Y-84375000D01*
X122500029Y-84375000D01*
X122500012Y-84375001D01*
X122397302Y-84385494D01*
X122230880Y-84440641D01*
X122230875Y-84440643D01*
X122081654Y-84532684D01*
X121957684Y-84656654D01*
X121865643Y-84805875D01*
X121865641Y-84805880D01*
X121810494Y-84972302D01*
X121810493Y-84972309D01*
X121800000Y-85075013D01*
X103000500Y-85075013D01*
X103000500Y-84800013D01*
X116325000Y-84800013D01*
X116325000Y-85050000D01*
X118250000Y-85050000D01*
X118750000Y-85050000D01*
X120674999Y-85050000D01*
X120674999Y-84800028D01*
X120674998Y-84800013D01*
X120664505Y-84697303D01*
X120664505Y-84697301D01*
X120609359Y-84530880D01*
X120609354Y-84530869D01*
X120517319Y-84381659D01*
X120517316Y-84381655D01*
X120393344Y-84257683D01*
X120393340Y-84257680D01*
X120244130Y-84165645D01*
X120244119Y-84165640D01*
X120077697Y-84110494D01*
X119974986Y-84100000D01*
X118750000Y-84100000D01*
X118750000Y-85050000D01*
X118250000Y-85050000D01*
X118250000Y-84100000D01*
X117025028Y-84100000D01*
X117025012Y-84100001D01*
X116922303Y-84110494D01*
X116922301Y-84110494D01*
X116755880Y-84165640D01*
X116755869Y-84165645D01*
X116606659Y-84257680D01*
X116606655Y-84257683D01*
X116482683Y-84381655D01*
X116482680Y-84381659D01*
X116390645Y-84530869D01*
X116390640Y-84530880D01*
X116335494Y-84697302D01*
X116325000Y-84800013D01*
X103000500Y-84800013D01*
X103000500Y-82382014D01*
X106527500Y-82382014D01*
X106527500Y-82617985D01*
X106558299Y-82851914D01*
X106619370Y-83079837D01*
X106709660Y-83297819D01*
X106709665Y-83297828D01*
X106827644Y-83502171D01*
X106827645Y-83502172D01*
X106890221Y-83583723D01*
X107726458Y-82747487D01*
X107751478Y-82807890D01*
X107822612Y-82914351D01*
X107913149Y-83004888D01*
X108019610Y-83076022D01*
X108080011Y-83101041D01*
X107243775Y-83937277D01*
X107325327Y-83999854D01*
X107325328Y-83999855D01*
X107529671Y-84117834D01*
X107529680Y-84117839D01*
X107747663Y-84208129D01*
X107747661Y-84208129D01*
X107975585Y-84269200D01*
X108209514Y-84299999D01*
X108209529Y-84300000D01*
X108445471Y-84300000D01*
X108445485Y-84299999D01*
X108679414Y-84269200D01*
X108907337Y-84208129D01*
X109125319Y-84117839D01*
X109125328Y-84117834D01*
X109329681Y-83999850D01*
X109411223Y-83937279D01*
X109411223Y-83937276D01*
X108574987Y-83101041D01*
X108635390Y-83076022D01*
X108741851Y-83004888D01*
X108832388Y-82914351D01*
X108903522Y-82807890D01*
X108928541Y-82747487D01*
X109764776Y-83583723D01*
X109764779Y-83583723D01*
X109827350Y-83502181D01*
X109945334Y-83297828D01*
X109945339Y-83297819D01*
X110035629Y-83079837D01*
X110096700Y-82851914D01*
X110106828Y-82774986D01*
X122375001Y-82774986D01*
X122385494Y-82877697D01*
X122440641Y-83044119D01*
X122440643Y-83044124D01*
X122532684Y-83193345D01*
X122656654Y-83317315D01*
X122805875Y-83409356D01*
X122805880Y-83409358D01*
X122972302Y-83464505D01*
X122972309Y-83464506D01*
X123075019Y-83474999D01*
X123212499Y-83474999D01*
X123212500Y-83474998D01*
X123212500Y-82500000D01*
X122375001Y-82500000D01*
X122375001Y-82774986D01*
X110106828Y-82774986D01*
X110127499Y-82617985D01*
X110127500Y-82617971D01*
X110127500Y-82382028D01*
X110127499Y-82382014D01*
X110096700Y-82148085D01*
X110035629Y-81920162D01*
X109945339Y-81702180D01*
X109945334Y-81702171D01*
X109827355Y-81497828D01*
X109827354Y-81497827D01*
X109764777Y-81416275D01*
X108928541Y-82252511D01*
X108903522Y-82192110D01*
X108832388Y-82085649D01*
X108741851Y-81995112D01*
X108635390Y-81923978D01*
X108574988Y-81898958D01*
X109411223Y-81062721D01*
X109329672Y-81000145D01*
X109329671Y-81000144D01*
X109125328Y-80882165D01*
X109125319Y-80882160D01*
X108907336Y-80791870D01*
X108907338Y-80791870D01*
X108679414Y-80730799D01*
X108445485Y-80700000D01*
X108209514Y-80700000D01*
X107975585Y-80730799D01*
X107747662Y-80791870D01*
X107529680Y-80882160D01*
X107529671Y-80882165D01*
X107325328Y-81000144D01*
X107325318Y-81000150D01*
X107243775Y-81062720D01*
X107243775Y-81062721D01*
X108080012Y-81898958D01*
X108019610Y-81923978D01*
X107913149Y-81995112D01*
X107822612Y-82085649D01*
X107751478Y-82192110D01*
X107726458Y-82252512D01*
X106890221Y-81416275D01*
X106890220Y-81416275D01*
X106827650Y-81497818D01*
X106827644Y-81497828D01*
X106709665Y-81702171D01*
X106709660Y-81702180D01*
X106619370Y-81920162D01*
X106558299Y-82148085D01*
X106527500Y-82382014D01*
X103000500Y-82382014D01*
X103000500Y-66865186D01*
X105599500Y-66865186D01*
X105599500Y-67134813D01*
X105629686Y-67402719D01*
X105629687Y-67402728D01*
X105629688Y-67402732D01*
X105632340Y-67414351D01*
X105689684Y-67665594D01*
X105689687Y-67665602D01*
X105778734Y-67920082D01*
X105895714Y-68162994D01*
X105895716Y-68162997D01*
X106039162Y-68391289D01*
X106207266Y-68602085D01*
X106397915Y-68792734D01*
X106608711Y-68960838D01*
X106837003Y-69104284D01*
X107079921Y-69221267D01*
X107271049Y-69288145D01*
X107334397Y-69310312D01*
X107334405Y-69310315D01*
X107334408Y-69310315D01*
X107334409Y-69310316D01*
X107597268Y-69370312D01*
X107865187Y-69400499D01*
X107865188Y-69400500D01*
X107865191Y-69400500D01*
X108134812Y-69400500D01*
X108134812Y-69400499D01*
X108402732Y-69370312D01*
X108665591Y-69310316D01*
X108920079Y-69221267D01*
X109162997Y-69104284D01*
X109391289Y-68960838D01*
X109602085Y-68792734D01*
X109792734Y-68602085D01*
X109960838Y-68391289D01*
X110104284Y-68162997D01*
X110221267Y-67920079D01*
X110310316Y-67665591D01*
X110370312Y-67402732D01*
X110400500Y-67134809D01*
X110400500Y-66865191D01*
X110370312Y-66597268D01*
X110310316Y-66334409D01*
X110308369Y-66328846D01*
X110285910Y-66264660D01*
X110221267Y-66079921D01*
X110124595Y-65879179D01*
X110104285Y-65837005D01*
X110104284Y-65837003D01*
X109960838Y-65608711D01*
X109792734Y-65397915D01*
X109602085Y-65207266D01*
X109567662Y-65179815D01*
X109515313Y-65138068D01*
X109391289Y-65039162D01*
X109162997Y-64895716D01*
X109162994Y-64895714D01*
X108920082Y-64778734D01*
X108665602Y-64689687D01*
X108665594Y-64689684D01*
X108468446Y-64644687D01*
X108402732Y-64629688D01*
X108402728Y-64629687D01*
X108402719Y-64629686D01*
X108134813Y-64599500D01*
X108134809Y-64599500D01*
X107865191Y-64599500D01*
X107865186Y-64599500D01*
X107597280Y-64629686D01*
X107597268Y-64629688D01*
X107334405Y-64689684D01*
X107334397Y-64689687D01*
X107079917Y-64778734D01*
X106837005Y-64895714D01*
X106608712Y-65039161D01*
X106397915Y-65207265D01*
X106207265Y-65397915D01*
X106039161Y-65608712D01*
X105895714Y-65837005D01*
X105778734Y-66079917D01*
X105689687Y-66334397D01*
X105689684Y-66334405D01*
X105629688Y-66597268D01*
X105629686Y-66597280D01*
X105599500Y-66865186D01*
X103000500Y-66865186D01*
X103000500Y-62624500D01*
X103020185Y-62557461D01*
X103072989Y-62511706D01*
X103124500Y-62500500D01*
X135310902Y-62500500D01*
X135377941Y-62520185D01*
G37*
%TD.AperFunction*%
%TD*%
M02*
