G04 #@! TF.GenerationSoftware,KiCad,Pcbnew,9.0.7*
G04 #@! TF.CreationDate,2026-06-14T13:12:15+02:00*
G04 #@! TF.ProjectId,Battery_and_DCDC,42617474-6572-4795-9f61-6e645f444344,rev?*
G04 #@! TF.SameCoordinates,Original*
G04 #@! TF.FileFunction,Legend,Bot*
G04 #@! TF.FilePolarity,Positive*
%FSLAX46Y46*%
G04 Gerber Fmt 4.6, Leading zero omitted, Abs format (unit mm)*
G04 Created by KiCad (PCBNEW 9.0.7) date 2026-06-14 13:12:15*
%MOMM*%
%LPD*%
G01*
G04 APERTURE LIST*
%ADD10C,0.300000*%
G04 APERTURE END LIST*
D10*
X191445489Y-100300828D02*
X191445489Y-98800828D01*
X191445489Y-98800828D02*
X190874060Y-98800828D01*
X190874060Y-98800828D02*
X190731203Y-98872257D01*
X190731203Y-98872257D02*
X190659774Y-98943685D01*
X190659774Y-98943685D02*
X190588346Y-99086542D01*
X190588346Y-99086542D02*
X190588346Y-99300828D01*
X190588346Y-99300828D02*
X190659774Y-99443685D01*
X190659774Y-99443685D02*
X190731203Y-99515114D01*
X190731203Y-99515114D02*
X190874060Y-99586542D01*
X190874060Y-99586542D02*
X191445489Y-99586542D01*
X189088346Y-100157971D02*
X189159774Y-100229400D01*
X189159774Y-100229400D02*
X189374060Y-100300828D01*
X189374060Y-100300828D02*
X189516917Y-100300828D01*
X189516917Y-100300828D02*
X189731203Y-100229400D01*
X189731203Y-100229400D02*
X189874060Y-100086542D01*
X189874060Y-100086542D02*
X189945489Y-99943685D01*
X189945489Y-99943685D02*
X190016917Y-99657971D01*
X190016917Y-99657971D02*
X190016917Y-99443685D01*
X190016917Y-99443685D02*
X189945489Y-99157971D01*
X189945489Y-99157971D02*
X189874060Y-99015114D01*
X189874060Y-99015114D02*
X189731203Y-98872257D01*
X189731203Y-98872257D02*
X189516917Y-98800828D01*
X189516917Y-98800828D02*
X189374060Y-98800828D01*
X189374060Y-98800828D02*
X189159774Y-98872257D01*
X189159774Y-98872257D02*
X189088346Y-98943685D01*
X187945489Y-99515114D02*
X187731203Y-99586542D01*
X187731203Y-99586542D02*
X187659774Y-99657971D01*
X187659774Y-99657971D02*
X187588346Y-99800828D01*
X187588346Y-99800828D02*
X187588346Y-100015114D01*
X187588346Y-100015114D02*
X187659774Y-100157971D01*
X187659774Y-100157971D02*
X187731203Y-100229400D01*
X187731203Y-100229400D02*
X187874060Y-100300828D01*
X187874060Y-100300828D02*
X188445489Y-100300828D01*
X188445489Y-100300828D02*
X188445489Y-98800828D01*
X188445489Y-98800828D02*
X187945489Y-98800828D01*
X187945489Y-98800828D02*
X187802632Y-98872257D01*
X187802632Y-98872257D02*
X187731203Y-98943685D01*
X187731203Y-98943685D02*
X187659774Y-99086542D01*
X187659774Y-99086542D02*
X187659774Y-99229400D01*
X187659774Y-99229400D02*
X187731203Y-99372257D01*
X187731203Y-99372257D02*
X187802632Y-99443685D01*
X187802632Y-99443685D02*
X187945489Y-99515114D01*
X187945489Y-99515114D02*
X188445489Y-99515114D01*
X187302632Y-100443685D02*
X186159774Y-100443685D01*
X185802632Y-100300828D02*
X185802632Y-98800828D01*
X185802632Y-98800828D02*
X185231203Y-98800828D01*
X185231203Y-98800828D02*
X185088346Y-98872257D01*
X185088346Y-98872257D02*
X185016917Y-98943685D01*
X185016917Y-98943685D02*
X184945489Y-99086542D01*
X184945489Y-99086542D02*
X184945489Y-99300828D01*
X184945489Y-99300828D02*
X185016917Y-99443685D01*
X185016917Y-99443685D02*
X185088346Y-99515114D01*
X185088346Y-99515114D02*
X185231203Y-99586542D01*
X185231203Y-99586542D02*
X185802632Y-99586542D01*
X184302632Y-100300828D02*
X184302632Y-99300828D01*
X184302632Y-99586542D02*
X184231203Y-99443685D01*
X184231203Y-99443685D02*
X184159775Y-99372257D01*
X184159775Y-99372257D02*
X184016917Y-99300828D01*
X184016917Y-99300828D02*
X183874060Y-99300828D01*
X183159775Y-100300828D02*
X183302632Y-100229400D01*
X183302632Y-100229400D02*
X183374061Y-100157971D01*
X183374061Y-100157971D02*
X183445489Y-100015114D01*
X183445489Y-100015114D02*
X183445489Y-99586542D01*
X183445489Y-99586542D02*
X183374061Y-99443685D01*
X183374061Y-99443685D02*
X183302632Y-99372257D01*
X183302632Y-99372257D02*
X183159775Y-99300828D01*
X183159775Y-99300828D02*
X182945489Y-99300828D01*
X182945489Y-99300828D02*
X182802632Y-99372257D01*
X182802632Y-99372257D02*
X182731204Y-99443685D01*
X182731204Y-99443685D02*
X182659775Y-99586542D01*
X182659775Y-99586542D02*
X182659775Y-100015114D01*
X182659775Y-100015114D02*
X182731204Y-100157971D01*
X182731204Y-100157971D02*
X182802632Y-100229400D01*
X182802632Y-100229400D02*
X182945489Y-100300828D01*
X182945489Y-100300828D02*
X183159775Y-100300828D01*
X182231203Y-99300828D02*
X181659775Y-99300828D01*
X182016918Y-98800828D02*
X182016918Y-100086542D01*
X182016918Y-100086542D02*
X181945489Y-100229400D01*
X181945489Y-100229400D02*
X181802632Y-100300828D01*
X181802632Y-100300828D02*
X181659775Y-100300828D01*
X180945489Y-100300828D02*
X181088346Y-100229400D01*
X181088346Y-100229400D02*
X181159775Y-100157971D01*
X181159775Y-100157971D02*
X181231203Y-100015114D01*
X181231203Y-100015114D02*
X181231203Y-99586542D01*
X181231203Y-99586542D02*
X181159775Y-99443685D01*
X181159775Y-99443685D02*
X181088346Y-99372257D01*
X181088346Y-99372257D02*
X180945489Y-99300828D01*
X180945489Y-99300828D02*
X180731203Y-99300828D01*
X180731203Y-99300828D02*
X180588346Y-99372257D01*
X180588346Y-99372257D02*
X180516918Y-99443685D01*
X180516918Y-99443685D02*
X180445489Y-99586542D01*
X180445489Y-99586542D02*
X180445489Y-100015114D01*
X180445489Y-100015114D02*
X180516918Y-100157971D01*
X180516918Y-100157971D02*
X180588346Y-100229400D01*
X180588346Y-100229400D02*
X180731203Y-100300828D01*
X180731203Y-100300828D02*
X180945489Y-100300828D01*
X180016917Y-99300828D02*
X179445489Y-99300828D01*
X179802632Y-98800828D02*
X179802632Y-100086542D01*
X179802632Y-100086542D02*
X179731203Y-100229400D01*
X179731203Y-100229400D02*
X179588346Y-100300828D01*
X179588346Y-100300828D02*
X179445489Y-100300828D01*
X179088346Y-99300828D02*
X178731203Y-100300828D01*
X178374060Y-99300828D02*
X178731203Y-100300828D01*
X178731203Y-100300828D02*
X178874060Y-100657971D01*
X178874060Y-100657971D02*
X178945489Y-100729400D01*
X178945489Y-100729400D02*
X179088346Y-100800828D01*
X177802632Y-99300828D02*
X177802632Y-100800828D01*
X177802632Y-99372257D02*
X177659775Y-99300828D01*
X177659775Y-99300828D02*
X177374060Y-99300828D01*
X177374060Y-99300828D02*
X177231203Y-99372257D01*
X177231203Y-99372257D02*
X177159775Y-99443685D01*
X177159775Y-99443685D02*
X177088346Y-99586542D01*
X177088346Y-99586542D02*
X177088346Y-100015114D01*
X177088346Y-100015114D02*
X177159775Y-100157971D01*
X177159775Y-100157971D02*
X177231203Y-100229400D01*
X177231203Y-100229400D02*
X177374060Y-100300828D01*
X177374060Y-100300828D02*
X177659775Y-100300828D01*
X177659775Y-100300828D02*
X177802632Y-100229400D01*
X175874060Y-100229400D02*
X176016917Y-100300828D01*
X176016917Y-100300828D02*
X176302632Y-100300828D01*
X176302632Y-100300828D02*
X176445489Y-100229400D01*
X176445489Y-100229400D02*
X176516917Y-100086542D01*
X176516917Y-100086542D02*
X176516917Y-99515114D01*
X176516917Y-99515114D02*
X176445489Y-99372257D01*
X176445489Y-99372257D02*
X176302632Y-99300828D01*
X176302632Y-99300828D02*
X176016917Y-99300828D01*
X176016917Y-99300828D02*
X175874060Y-99372257D01*
X175874060Y-99372257D02*
X175802632Y-99515114D01*
X175802632Y-99515114D02*
X175802632Y-99657971D01*
X175802632Y-99657971D02*
X176516917Y-99800828D01*
X175516918Y-100443685D02*
X174374060Y-100443685D01*
X173516918Y-99515114D02*
X173302632Y-99586542D01*
X173302632Y-99586542D02*
X173231203Y-99657971D01*
X173231203Y-99657971D02*
X173159775Y-99800828D01*
X173159775Y-99800828D02*
X173159775Y-100015114D01*
X173159775Y-100015114D02*
X173231203Y-100157971D01*
X173231203Y-100157971D02*
X173302632Y-100229400D01*
X173302632Y-100229400D02*
X173445489Y-100300828D01*
X173445489Y-100300828D02*
X174016918Y-100300828D01*
X174016918Y-100300828D02*
X174016918Y-98800828D01*
X174016918Y-98800828D02*
X173516918Y-98800828D01*
X173516918Y-98800828D02*
X173374061Y-98872257D01*
X173374061Y-98872257D02*
X173302632Y-98943685D01*
X173302632Y-98943685D02*
X173231203Y-99086542D01*
X173231203Y-99086542D02*
X173231203Y-99229400D01*
X173231203Y-99229400D02*
X173302632Y-99372257D01*
X173302632Y-99372257D02*
X173374061Y-99443685D01*
X173374061Y-99443685D02*
X173516918Y-99515114D01*
X173516918Y-99515114D02*
X174016918Y-99515114D01*
X171874061Y-100300828D02*
X171874061Y-99515114D01*
X171874061Y-99515114D02*
X171945489Y-99372257D01*
X171945489Y-99372257D02*
X172088346Y-99300828D01*
X172088346Y-99300828D02*
X172374061Y-99300828D01*
X172374061Y-99300828D02*
X172516918Y-99372257D01*
X171874061Y-100229400D02*
X172016918Y-100300828D01*
X172016918Y-100300828D02*
X172374061Y-100300828D01*
X172374061Y-100300828D02*
X172516918Y-100229400D01*
X172516918Y-100229400D02*
X172588346Y-100086542D01*
X172588346Y-100086542D02*
X172588346Y-99943685D01*
X172588346Y-99943685D02*
X172516918Y-99800828D01*
X172516918Y-99800828D02*
X172374061Y-99729400D01*
X172374061Y-99729400D02*
X172016918Y-99729400D01*
X172016918Y-99729400D02*
X171874061Y-99657971D01*
X171374060Y-99300828D02*
X170802632Y-99300828D01*
X171159775Y-98800828D02*
X171159775Y-100086542D01*
X171159775Y-100086542D02*
X171088346Y-100229400D01*
X171088346Y-100229400D02*
X170945489Y-100300828D01*
X170945489Y-100300828D02*
X170802632Y-100300828D01*
X170516917Y-99300828D02*
X169945489Y-99300828D01*
X170302632Y-98800828D02*
X170302632Y-100086542D01*
X170302632Y-100086542D02*
X170231203Y-100229400D01*
X170231203Y-100229400D02*
X170088346Y-100300828D01*
X170088346Y-100300828D02*
X169945489Y-100300828D01*
X168874060Y-100229400D02*
X169016917Y-100300828D01*
X169016917Y-100300828D02*
X169302632Y-100300828D01*
X169302632Y-100300828D02*
X169445489Y-100229400D01*
X169445489Y-100229400D02*
X169516917Y-100086542D01*
X169516917Y-100086542D02*
X169516917Y-99515114D01*
X169516917Y-99515114D02*
X169445489Y-99372257D01*
X169445489Y-99372257D02*
X169302632Y-99300828D01*
X169302632Y-99300828D02*
X169016917Y-99300828D01*
X169016917Y-99300828D02*
X168874060Y-99372257D01*
X168874060Y-99372257D02*
X168802632Y-99515114D01*
X168802632Y-99515114D02*
X168802632Y-99657971D01*
X168802632Y-99657971D02*
X169516917Y-99800828D01*
X168159775Y-100300828D02*
X168159775Y-99300828D01*
X168159775Y-99586542D02*
X168088346Y-99443685D01*
X168088346Y-99443685D02*
X168016918Y-99372257D01*
X168016918Y-99372257D02*
X167874060Y-99300828D01*
X167874060Y-99300828D02*
X167731203Y-99300828D01*
X167374061Y-99300828D02*
X167016918Y-100300828D01*
X166659775Y-99300828D02*
X167016918Y-100300828D01*
X167016918Y-100300828D02*
X167159775Y-100657971D01*
X167159775Y-100657971D02*
X167231204Y-100729400D01*
X167231204Y-100729400D02*
X167374061Y-100800828D01*
X165231204Y-100157971D02*
X165302632Y-100229400D01*
X165302632Y-100229400D02*
X165516918Y-100300828D01*
X165516918Y-100300828D02*
X165659775Y-100300828D01*
X165659775Y-100300828D02*
X165874061Y-100229400D01*
X165874061Y-100229400D02*
X166016918Y-100086542D01*
X166016918Y-100086542D02*
X166088347Y-99943685D01*
X166088347Y-99943685D02*
X166159775Y-99657971D01*
X166159775Y-99657971D02*
X166159775Y-99443685D01*
X166159775Y-99443685D02*
X166088347Y-99157971D01*
X166088347Y-99157971D02*
X166016918Y-99015114D01*
X166016918Y-99015114D02*
X165874061Y-98872257D01*
X165874061Y-98872257D02*
X165659775Y-98800828D01*
X165659775Y-98800828D02*
X165516918Y-98800828D01*
X165516918Y-98800828D02*
X165302632Y-98872257D01*
X165302632Y-98872257D02*
X165231204Y-98943685D01*
X164588347Y-100300828D02*
X164588347Y-98800828D01*
X163945490Y-100300828D02*
X163945490Y-99515114D01*
X163945490Y-99515114D02*
X164016918Y-99372257D01*
X164016918Y-99372257D02*
X164159775Y-99300828D01*
X164159775Y-99300828D02*
X164374061Y-99300828D01*
X164374061Y-99300828D02*
X164516918Y-99372257D01*
X164516918Y-99372257D02*
X164588347Y-99443685D01*
X162588347Y-100300828D02*
X162588347Y-99515114D01*
X162588347Y-99515114D02*
X162659775Y-99372257D01*
X162659775Y-99372257D02*
X162802632Y-99300828D01*
X162802632Y-99300828D02*
X163088347Y-99300828D01*
X163088347Y-99300828D02*
X163231204Y-99372257D01*
X162588347Y-100229400D02*
X162731204Y-100300828D01*
X162731204Y-100300828D02*
X163088347Y-100300828D01*
X163088347Y-100300828D02*
X163231204Y-100229400D01*
X163231204Y-100229400D02*
X163302632Y-100086542D01*
X163302632Y-100086542D02*
X163302632Y-99943685D01*
X163302632Y-99943685D02*
X163231204Y-99800828D01*
X163231204Y-99800828D02*
X163088347Y-99729400D01*
X163088347Y-99729400D02*
X162731204Y-99729400D01*
X162731204Y-99729400D02*
X162588347Y-99657971D01*
X161874061Y-100300828D02*
X161874061Y-99300828D01*
X161874061Y-99586542D02*
X161802632Y-99443685D01*
X161802632Y-99443685D02*
X161731204Y-99372257D01*
X161731204Y-99372257D02*
X161588346Y-99300828D01*
X161588346Y-99300828D02*
X161445489Y-99300828D01*
X160302633Y-99300828D02*
X160302633Y-100515114D01*
X160302633Y-100515114D02*
X160374061Y-100657971D01*
X160374061Y-100657971D02*
X160445490Y-100729400D01*
X160445490Y-100729400D02*
X160588347Y-100800828D01*
X160588347Y-100800828D02*
X160802633Y-100800828D01*
X160802633Y-100800828D02*
X160945490Y-100729400D01*
X160302633Y-100229400D02*
X160445490Y-100300828D01*
X160445490Y-100300828D02*
X160731204Y-100300828D01*
X160731204Y-100300828D02*
X160874061Y-100229400D01*
X160874061Y-100229400D02*
X160945490Y-100157971D01*
X160945490Y-100157971D02*
X161016918Y-100015114D01*
X161016918Y-100015114D02*
X161016918Y-99586542D01*
X161016918Y-99586542D02*
X160945490Y-99443685D01*
X160945490Y-99443685D02*
X160874061Y-99372257D01*
X160874061Y-99372257D02*
X160731204Y-99300828D01*
X160731204Y-99300828D02*
X160445490Y-99300828D01*
X160445490Y-99300828D02*
X160302633Y-99372257D01*
X159016918Y-100229400D02*
X159159775Y-100300828D01*
X159159775Y-100300828D02*
X159445490Y-100300828D01*
X159445490Y-100300828D02*
X159588347Y-100229400D01*
X159588347Y-100229400D02*
X159659775Y-100086542D01*
X159659775Y-100086542D02*
X159659775Y-99515114D01*
X159659775Y-99515114D02*
X159588347Y-99372257D01*
X159588347Y-99372257D02*
X159445490Y-99300828D01*
X159445490Y-99300828D02*
X159159775Y-99300828D01*
X159159775Y-99300828D02*
X159016918Y-99372257D01*
X159016918Y-99372257D02*
X158945490Y-99515114D01*
X158945490Y-99515114D02*
X158945490Y-99657971D01*
X158945490Y-99657971D02*
X159659775Y-99800828D01*
X158302633Y-100300828D02*
X158302633Y-99300828D01*
X158302633Y-99586542D02*
X158231204Y-99443685D01*
X158231204Y-99443685D02*
X158159776Y-99372257D01*
X158159776Y-99372257D02*
X158016918Y-99300828D01*
X158016918Y-99300828D02*
X157874061Y-99300828D01*
X157731205Y-100443685D02*
X156588347Y-100443685D01*
X155588348Y-100300828D02*
X155588348Y-99515114D01*
X155588348Y-99515114D02*
X155659776Y-99372257D01*
X155659776Y-99372257D02*
X155802633Y-99300828D01*
X155802633Y-99300828D02*
X156088348Y-99300828D01*
X156088348Y-99300828D02*
X156231205Y-99372257D01*
X155588348Y-100229400D02*
X155731205Y-100300828D01*
X155731205Y-100300828D02*
X156088348Y-100300828D01*
X156088348Y-100300828D02*
X156231205Y-100229400D01*
X156231205Y-100229400D02*
X156302633Y-100086542D01*
X156302633Y-100086542D02*
X156302633Y-99943685D01*
X156302633Y-99943685D02*
X156231205Y-99800828D01*
X156231205Y-99800828D02*
X156088348Y-99729400D01*
X156088348Y-99729400D02*
X155731205Y-99729400D01*
X155731205Y-99729400D02*
X155588348Y-99657971D01*
X154874062Y-99300828D02*
X154874062Y-100300828D01*
X154874062Y-99443685D02*
X154802633Y-99372257D01*
X154802633Y-99372257D02*
X154659776Y-99300828D01*
X154659776Y-99300828D02*
X154445490Y-99300828D01*
X154445490Y-99300828D02*
X154302633Y-99372257D01*
X154302633Y-99372257D02*
X154231205Y-99515114D01*
X154231205Y-99515114D02*
X154231205Y-100300828D01*
X152874062Y-100300828D02*
X152874062Y-98800828D01*
X152874062Y-100229400D02*
X153016919Y-100300828D01*
X153016919Y-100300828D02*
X153302633Y-100300828D01*
X153302633Y-100300828D02*
X153445490Y-100229400D01*
X153445490Y-100229400D02*
X153516919Y-100157971D01*
X153516919Y-100157971D02*
X153588347Y-100015114D01*
X153588347Y-100015114D02*
X153588347Y-99586542D01*
X153588347Y-99586542D02*
X153516919Y-99443685D01*
X153516919Y-99443685D02*
X153445490Y-99372257D01*
X153445490Y-99372257D02*
X153302633Y-99300828D01*
X153302633Y-99300828D02*
X153016919Y-99300828D01*
X153016919Y-99300828D02*
X152874062Y-99372257D01*
X152516919Y-100443685D02*
X151374061Y-100443685D01*
X150159776Y-100157971D02*
X150231204Y-100229400D01*
X150231204Y-100229400D02*
X150445490Y-100300828D01*
X150445490Y-100300828D02*
X150588347Y-100300828D01*
X150588347Y-100300828D02*
X150802633Y-100229400D01*
X150802633Y-100229400D02*
X150945490Y-100086542D01*
X150945490Y-100086542D02*
X151016919Y-99943685D01*
X151016919Y-99943685D02*
X151088347Y-99657971D01*
X151088347Y-99657971D02*
X151088347Y-99443685D01*
X151088347Y-99443685D02*
X151016919Y-99157971D01*
X151016919Y-99157971D02*
X150945490Y-99015114D01*
X150945490Y-99015114D02*
X150802633Y-98872257D01*
X150802633Y-98872257D02*
X150588347Y-98800828D01*
X150588347Y-98800828D02*
X150445490Y-98800828D01*
X150445490Y-98800828D02*
X150231204Y-98872257D01*
X150231204Y-98872257D02*
X150159776Y-98943685D01*
X149302633Y-100300828D02*
X149445490Y-100229400D01*
X149445490Y-100229400D02*
X149516919Y-100157971D01*
X149516919Y-100157971D02*
X149588347Y-100015114D01*
X149588347Y-100015114D02*
X149588347Y-99586542D01*
X149588347Y-99586542D02*
X149516919Y-99443685D01*
X149516919Y-99443685D02*
X149445490Y-99372257D01*
X149445490Y-99372257D02*
X149302633Y-99300828D01*
X149302633Y-99300828D02*
X149088347Y-99300828D01*
X149088347Y-99300828D02*
X148945490Y-99372257D01*
X148945490Y-99372257D02*
X148874062Y-99443685D01*
X148874062Y-99443685D02*
X148802633Y-99586542D01*
X148802633Y-99586542D02*
X148802633Y-100015114D01*
X148802633Y-100015114D02*
X148874062Y-100157971D01*
X148874062Y-100157971D02*
X148945490Y-100229400D01*
X148945490Y-100229400D02*
X149088347Y-100300828D01*
X149088347Y-100300828D02*
X149302633Y-100300828D01*
X148159776Y-99300828D02*
X148159776Y-100300828D01*
X148159776Y-99443685D02*
X148088347Y-99372257D01*
X148088347Y-99372257D02*
X147945490Y-99300828D01*
X147945490Y-99300828D02*
X147731204Y-99300828D01*
X147731204Y-99300828D02*
X147588347Y-99372257D01*
X147588347Y-99372257D02*
X147516919Y-99515114D01*
X147516919Y-99515114D02*
X147516919Y-100300828D01*
X146945490Y-99300828D02*
X146588347Y-100300828D01*
X146588347Y-100300828D02*
X146231204Y-99300828D01*
X145088347Y-100229400D02*
X145231204Y-100300828D01*
X145231204Y-100300828D02*
X145516919Y-100300828D01*
X145516919Y-100300828D02*
X145659776Y-100229400D01*
X145659776Y-100229400D02*
X145731204Y-100086542D01*
X145731204Y-100086542D02*
X145731204Y-99515114D01*
X145731204Y-99515114D02*
X145659776Y-99372257D01*
X145659776Y-99372257D02*
X145516919Y-99300828D01*
X145516919Y-99300828D02*
X145231204Y-99300828D01*
X145231204Y-99300828D02*
X145088347Y-99372257D01*
X145088347Y-99372257D02*
X145016919Y-99515114D01*
X145016919Y-99515114D02*
X145016919Y-99657971D01*
X145016919Y-99657971D02*
X145731204Y-99800828D01*
X144374062Y-100300828D02*
X144374062Y-99300828D01*
X144374062Y-99586542D02*
X144302633Y-99443685D01*
X144302633Y-99443685D02*
X144231205Y-99372257D01*
X144231205Y-99372257D02*
X144088347Y-99300828D01*
X144088347Y-99300828D02*
X143945490Y-99300828D01*
X143659776Y-99300828D02*
X143088348Y-99300828D01*
X143445491Y-98800828D02*
X143445491Y-100086542D01*
X143445491Y-100086542D02*
X143374062Y-100229400D01*
X143374062Y-100229400D02*
X143231205Y-100300828D01*
X143231205Y-100300828D02*
X143088348Y-100300828D01*
X142016919Y-100229400D02*
X142159776Y-100300828D01*
X142159776Y-100300828D02*
X142445491Y-100300828D01*
X142445491Y-100300828D02*
X142588348Y-100229400D01*
X142588348Y-100229400D02*
X142659776Y-100086542D01*
X142659776Y-100086542D02*
X142659776Y-99515114D01*
X142659776Y-99515114D02*
X142588348Y-99372257D01*
X142588348Y-99372257D02*
X142445491Y-99300828D01*
X142445491Y-99300828D02*
X142159776Y-99300828D01*
X142159776Y-99300828D02*
X142016919Y-99372257D01*
X142016919Y-99372257D02*
X141945491Y-99515114D01*
X141945491Y-99515114D02*
X141945491Y-99657971D01*
X141945491Y-99657971D02*
X142659776Y-99800828D01*
X141302634Y-100300828D02*
X141302634Y-99300828D01*
X141302634Y-99586542D02*
X141231205Y-99443685D01*
X141231205Y-99443685D02*
X141159777Y-99372257D01*
X141159777Y-99372257D02*
X141016919Y-99300828D01*
X141016919Y-99300828D02*
X140874062Y-99300828D01*
X140374063Y-100300828D02*
X140374063Y-98800828D01*
X140374063Y-98800828D02*
X140016920Y-98800828D01*
X140016920Y-98800828D02*
X139802634Y-98872257D01*
X139802634Y-98872257D02*
X139659777Y-99015114D01*
X139659777Y-99015114D02*
X139588348Y-99157971D01*
X139588348Y-99157971D02*
X139516920Y-99443685D01*
X139516920Y-99443685D02*
X139516920Y-99657971D01*
X139516920Y-99657971D02*
X139588348Y-99943685D01*
X139588348Y-99943685D02*
X139659777Y-100086542D01*
X139659777Y-100086542D02*
X139802634Y-100229400D01*
X139802634Y-100229400D02*
X140016920Y-100300828D01*
X140016920Y-100300828D02*
X140374063Y-100300828D01*
X138016920Y-100157971D02*
X138088348Y-100229400D01*
X138088348Y-100229400D02*
X138302634Y-100300828D01*
X138302634Y-100300828D02*
X138445491Y-100300828D01*
X138445491Y-100300828D02*
X138659777Y-100229400D01*
X138659777Y-100229400D02*
X138802634Y-100086542D01*
X138802634Y-100086542D02*
X138874063Y-99943685D01*
X138874063Y-99943685D02*
X138945491Y-99657971D01*
X138945491Y-99657971D02*
X138945491Y-99443685D01*
X138945491Y-99443685D02*
X138874063Y-99157971D01*
X138874063Y-99157971D02*
X138802634Y-99015114D01*
X138802634Y-99015114D02*
X138659777Y-98872257D01*
X138659777Y-98872257D02*
X138445491Y-98800828D01*
X138445491Y-98800828D02*
X138302634Y-98800828D01*
X138302634Y-98800828D02*
X138088348Y-98872257D01*
X138088348Y-98872257D02*
X138016920Y-98943685D01*
X137374063Y-100300828D02*
X137374063Y-98800828D01*
X137374063Y-98800828D02*
X137016920Y-98800828D01*
X137016920Y-98800828D02*
X136802634Y-98872257D01*
X136802634Y-98872257D02*
X136659777Y-99015114D01*
X136659777Y-99015114D02*
X136588348Y-99157971D01*
X136588348Y-99157971D02*
X136516920Y-99443685D01*
X136516920Y-99443685D02*
X136516920Y-99657971D01*
X136516920Y-99657971D02*
X136588348Y-99943685D01*
X136588348Y-99943685D02*
X136659777Y-100086542D01*
X136659777Y-100086542D02*
X136802634Y-100229400D01*
X136802634Y-100229400D02*
X137016920Y-100300828D01*
X137016920Y-100300828D02*
X137374063Y-100300828D01*
X135016920Y-100157971D02*
X135088348Y-100229400D01*
X135088348Y-100229400D02*
X135302634Y-100300828D01*
X135302634Y-100300828D02*
X135445491Y-100300828D01*
X135445491Y-100300828D02*
X135659777Y-100229400D01*
X135659777Y-100229400D02*
X135802634Y-100086542D01*
X135802634Y-100086542D02*
X135874063Y-99943685D01*
X135874063Y-99943685D02*
X135945491Y-99657971D01*
X135945491Y-99657971D02*
X135945491Y-99443685D01*
X135945491Y-99443685D02*
X135874063Y-99157971D01*
X135874063Y-99157971D02*
X135802634Y-99015114D01*
X135802634Y-99015114D02*
X135659777Y-98872257D01*
X135659777Y-98872257D02*
X135445491Y-98800828D01*
X135445491Y-98800828D02*
X135302634Y-98800828D01*
X135302634Y-98800828D02*
X135088348Y-98872257D01*
X135088348Y-98872257D02*
X135016920Y-98943685D01*
M02*
