G04 #@! TF.GenerationSoftware,KiCad,Pcbnew,9.0.7*
G04 #@! TF.CreationDate,2026-06-14T13:12:15+02:00*
G04 #@! TF.ProjectId,Battery_and_DCDC,42617474-6572-4795-9f61-6e645f444344,rev?*
G04 #@! TF.SameCoordinates,Original*
G04 #@! TF.FileFunction,Copper,L2,Bot*
G04 #@! TF.FilePolarity,Positive*
%FSLAX46Y46*%
G04 Gerber Fmt 4.6, Leading zero omitted, Abs format (unit mm)*
G04 Created by KiCad (PCBNEW 9.0.7) date 2026-06-14 13:12:15*
%MOMM*%
%LPD*%
G01*
G04 APERTURE LIST*
G04 Aperture macros list*
%AMRoundRect*
0 Rectangle with rounded corners*
0 $1 Rounding radius*
0 $2 $3 $4 $5 $6 $7 $8 $9 X,Y pos of 4 corners*
0 Add a 4 corners polygon primitive as box body*
4,1,4,$2,$3,$4,$5,$6,$7,$8,$9,$2,$3,0*
0 Add four circle primitives for the rounded corners*
1,1,$1+$1,$2,$3*
1,1,$1+$1,$4,$5*
1,1,$1+$1,$6,$7*
1,1,$1+$1,$8,$9*
0 Add four rect primitives between the rounded corners*
20,1,$1+$1,$2,$3,$4,$5,0*
20,1,$1+$1,$4,$5,$6,$7,0*
20,1,$1+$1,$6,$7,$8,$9,0*
20,1,$1+$1,$8,$9,$2,$3,0*%
G04 Aperture macros list end*
G04 #@! TA.AperFunction,ComponentPad*
%ADD10RoundRect,0.250000X1.050000X-1.050000X1.050000X1.050000X-1.050000X1.050000X-1.050000X-1.050000X0*%
G04 #@! TD*
G04 #@! TA.AperFunction,ComponentPad*
%ADD11C,2.600000*%
G04 #@! TD*
G04 #@! TA.AperFunction,ComponentPad*
%ADD12R,1.700000X1.700000*%
G04 #@! TD*
G04 #@! TA.AperFunction,ComponentPad*
%ADD13C,1.700000*%
G04 #@! TD*
G04 #@! TA.AperFunction,ComponentPad*
%ADD14O,5.000000X2.500000*%
G04 #@! TD*
G04 #@! TA.AperFunction,ComponentPad*
%ADD15O,4.500000X2.250000*%
G04 #@! TD*
G04 #@! TA.AperFunction,ComponentPad*
%ADD16O,2.250000X4.500000*%
G04 #@! TD*
G04 #@! TA.AperFunction,ComponentPad*
%ADD17C,1.400000*%
G04 #@! TD*
G04 #@! TA.AperFunction,ComponentPad*
%ADD18RoundRect,0.250000X-1.050000X1.050000X-1.050000X-1.050000X1.050000X-1.050000X1.050000X1.050000X0*%
G04 #@! TD*
G04 #@! TA.AperFunction,ViaPad*
%ADD19C,0.600000*%
G04 #@! TD*
G04 #@! TA.AperFunction,Conductor*
%ADD20C,0.250000*%
G04 #@! TD*
G04 #@! TA.AperFunction,Conductor*
%ADD21C,0.200000*%
G04 #@! TD*
G04 APERTURE END LIST*
D10*
X193000000Y-95250000D03*
D11*
X193000000Y-90250000D03*
D12*
X185250000Y-80250000D03*
X164040000Y-97250000D03*
D13*
X161500000Y-97250000D03*
X158960000Y-97250000D03*
D12*
X158500000Y-77750000D03*
D14*
X150050000Y-89750000D03*
D15*
X150050000Y-95750000D03*
D16*
X154750000Y-92750000D03*
D17*
X163540000Y-93500000D03*
X158460000Y-93500000D03*
D12*
X141250000Y-75750000D03*
D18*
X139750000Y-65000000D03*
D11*
X139750000Y-70000000D03*
D12*
X192500000Y-61500000D03*
X186540000Y-53500000D03*
D13*
X184000000Y-53500000D03*
X181460000Y-53500000D03*
D12*
X153540000Y-85000000D03*
D13*
X151000000Y-85000000D03*
X148460000Y-85000000D03*
D12*
X184500000Y-61000000D03*
D18*
X139500000Y-83000000D03*
D11*
X139500000Y-88000000D03*
D12*
X162540000Y-56000000D03*
D13*
X160000000Y-56000000D03*
X157460000Y-56000000D03*
D10*
X192922500Y-83750000D03*
D11*
X192922500Y-78750000D03*
D12*
X182750000Y-93250000D03*
D19*
X173000000Y-88250000D03*
X180250000Y-93500000D03*
X173500000Y-75750000D03*
X172250000Y-75750000D03*
X173000000Y-73250000D03*
X152250000Y-65250000D03*
X177250000Y-62500000D03*
X161000000Y-84500000D03*
X171000000Y-70250000D03*
X162750000Y-89000000D03*
X169500000Y-68500000D03*
X162000000Y-89000000D03*
X165250000Y-92250000D03*
X162000000Y-87250000D03*
X162250000Y-83250000D03*
X169500000Y-66500000D03*
X166000000Y-94750000D03*
X161000000Y-82000000D03*
X169500000Y-70250000D03*
X171000000Y-66500000D03*
X151000000Y-63750000D03*
X171000000Y-68500000D03*
X152250000Y-62250000D03*
X162750000Y-87250000D03*
X177000000Y-61000000D03*
X179000000Y-71250000D03*
X182750000Y-66500000D03*
X162250000Y-60750000D03*
X178250000Y-72250000D03*
X174750000Y-72500000D03*
X176959412Y-72830720D03*
X173000000Y-63500000D03*
X195500000Y-87000000D03*
X156500000Y-88000000D03*
X191000000Y-99250000D03*
X157500000Y-90750000D03*
X170000000Y-62500000D03*
X184000000Y-56000000D03*
X166500000Y-91750000D03*
X191750000Y-68000000D03*
D20*
X180250000Y-93500000D02*
X180250000Y-91750000D01*
X178500000Y-90000000D02*
X176750000Y-88250000D01*
X176750000Y-88250000D02*
X173000000Y-88250000D01*
X180250000Y-91750000D02*
X178500000Y-90000000D01*
X182750000Y-66500000D02*
X182750000Y-67500000D01*
X182750000Y-67500000D02*
X179000000Y-71250000D01*
D21*
X162250000Y-71750000D02*
X165250000Y-74750000D01*
X178250000Y-73750000D02*
X178250000Y-72250000D01*
X165250000Y-74750000D02*
X176250000Y-74750000D01*
X177250000Y-74750000D02*
X178250000Y-73750000D01*
X176250000Y-74750000D02*
X177250000Y-74750000D01*
X162250000Y-60750000D02*
X162250000Y-71750000D01*
D20*
X177000000Y-67500000D02*
X177000000Y-72790132D01*
X176959412Y-72830720D02*
X175080720Y-72830720D01*
X177000000Y-72790132D02*
X176959412Y-72830720D01*
X175080720Y-72830720D02*
X174750000Y-72500000D01*
X173000000Y-63500000D02*
X177000000Y-67500000D01*
D21*
X191250000Y-92750000D02*
X194250000Y-92750000D01*
D20*
X186750000Y-95500000D02*
X164000000Y-95500000D01*
D21*
X186750000Y-95500000D02*
X188500000Y-95500000D01*
D20*
X164000000Y-95500000D02*
X156500000Y-88000000D01*
D21*
X188500000Y-95500000D02*
X191250000Y-92750000D01*
X195500000Y-91500000D02*
X195500000Y-87000000D01*
X194250000Y-92750000D02*
X195500000Y-91500000D01*
D20*
X188750000Y-99250000D02*
X186724000Y-97224000D01*
X191000000Y-99250000D02*
X188750000Y-99250000D01*
X166000000Y-100000000D02*
X158250000Y-100000000D01*
X157434000Y-90816000D02*
X157500000Y-90750000D01*
X158250000Y-100000000D02*
X157434000Y-99184000D01*
X186724000Y-97224000D02*
X168776000Y-97224000D01*
X157434000Y-99184000D02*
X157434000Y-90816000D01*
X168776000Y-97224000D02*
X166000000Y-100000000D01*
D21*
X174000000Y-62500000D02*
X180500000Y-56000000D01*
X180500000Y-56000000D02*
X184000000Y-56000000D01*
X170000000Y-62500000D02*
X174000000Y-62500000D01*
D20*
X171750000Y-81250000D02*
X171750000Y-83250000D01*
X188000000Y-77750000D02*
X187750000Y-77750000D01*
X170000000Y-85000000D02*
X168000000Y-85000000D01*
X170250000Y-84750000D02*
X170000000Y-85000000D01*
X166500000Y-86500000D02*
X166500000Y-91750000D01*
X189250000Y-74250000D02*
X189250000Y-76500000D01*
X175250000Y-77750000D02*
X171750000Y-81250000D01*
X168000000Y-85000000D02*
X166500000Y-86500000D01*
X191750000Y-71750000D02*
X189250000Y-74250000D01*
X171750000Y-83250000D02*
X170250000Y-84750000D01*
X187750000Y-77750000D02*
X175250000Y-77750000D01*
X189250000Y-76500000D02*
X188000000Y-77750000D01*
X191750000Y-68000000D02*
X191750000Y-71750000D01*
G04 #@! TA.AperFunction,Conductor*
G36*
X198442539Y-51020185D02*
G01*
X198488294Y-51072989D01*
X198499500Y-51124500D01*
X198499500Y-100375500D01*
X198479815Y-100442539D01*
X198427011Y-100488294D01*
X198375500Y-100499500D01*
X166248616Y-100499500D01*
X166181577Y-100479815D01*
X166135822Y-100427011D01*
X166125878Y-100357853D01*
X166154903Y-100294297D01*
X166186614Y-100268114D01*
X166188403Y-100267080D01*
X166199862Y-100260465D01*
X168874508Y-97585819D01*
X168935831Y-97552334D01*
X168962189Y-97549500D01*
X186537811Y-97549500D01*
X186604850Y-97569185D01*
X186625492Y-97585819D01*
X188489533Y-99449859D01*
X188489535Y-99449862D01*
X188550138Y-99510465D01*
X188587250Y-99531891D01*
X188596370Y-99537157D01*
X188596373Y-99537159D01*
X188624358Y-99553317D01*
X188624360Y-99553317D01*
X188624361Y-99553318D01*
X188707147Y-99575501D01*
X188707149Y-99575501D01*
X188800449Y-99575501D01*
X188800465Y-99575500D01*
X190566324Y-99575500D01*
X190633363Y-99595185D01*
X190654005Y-99611819D01*
X190692686Y-99650500D01*
X190806814Y-99716392D01*
X190934108Y-99750500D01*
X190934110Y-99750500D01*
X191065890Y-99750500D01*
X191065892Y-99750500D01*
X191193186Y-99716392D01*
X191307314Y-99650500D01*
X191400500Y-99557314D01*
X191466392Y-99443186D01*
X191500500Y-99315892D01*
X191500500Y-99184108D01*
X191466392Y-99056814D01*
X191461980Y-99049173D01*
X191447544Y-99024169D01*
X191400500Y-98942686D01*
X191307314Y-98849500D01*
X191250250Y-98816554D01*
X191193187Y-98783608D01*
X191129539Y-98766554D01*
X191065892Y-98749500D01*
X190934108Y-98749500D01*
X190806812Y-98783608D01*
X190692686Y-98849500D01*
X190692683Y-98849502D01*
X190654005Y-98888181D01*
X190592682Y-98921666D01*
X190566324Y-98924500D01*
X188936188Y-98924500D01*
X188869149Y-98904815D01*
X188848507Y-98888181D01*
X186923864Y-96963537D01*
X186923863Y-96963536D01*
X186923862Y-96963535D01*
X186858859Y-96926005D01*
X186849640Y-96920682D01*
X186808246Y-96909591D01*
X186766853Y-96898500D01*
X168818853Y-96898500D01*
X168733147Y-96898500D01*
X168650359Y-96920682D01*
X168576138Y-96963535D01*
X168576135Y-96963537D01*
X165901492Y-99638181D01*
X165840169Y-99671666D01*
X165813811Y-99674500D01*
X158436189Y-99674500D01*
X158369150Y-99654815D01*
X158348508Y-99638181D01*
X157795819Y-99085492D01*
X157762334Y-99024169D01*
X157759500Y-98997811D01*
X157759500Y-97720215D01*
X157779185Y-97653176D01*
X157831989Y-97607421D01*
X157901147Y-97597477D01*
X157964703Y-97626502D01*
X157998061Y-97672763D01*
X158029056Y-97747594D01*
X158144024Y-97919657D01*
X158290342Y-98065975D01*
X158290345Y-98065977D01*
X158462402Y-98180941D01*
X158653580Y-98260130D01*
X158856530Y-98300499D01*
X158856534Y-98300500D01*
X158856535Y-98300500D01*
X159063466Y-98300500D01*
X159063467Y-98300499D01*
X159266420Y-98260130D01*
X159457598Y-98180941D01*
X159629655Y-98065977D01*
X159775977Y-97919655D01*
X159890941Y-97747598D01*
X159970130Y-97556420D01*
X160010500Y-97353465D01*
X160010500Y-97146535D01*
X160010499Y-97146530D01*
X160449500Y-97146530D01*
X160449500Y-97353469D01*
X160489868Y-97556412D01*
X160489870Y-97556420D01*
X160569058Y-97747596D01*
X160684024Y-97919657D01*
X160830342Y-98065975D01*
X160830345Y-98065977D01*
X161002402Y-98180941D01*
X161193580Y-98260130D01*
X161396530Y-98300499D01*
X161396534Y-98300500D01*
X161396535Y-98300500D01*
X161603466Y-98300500D01*
X161603467Y-98300499D01*
X161806420Y-98260130D01*
X161997598Y-98180941D01*
X162169655Y-98065977D01*
X162315977Y-97919655D01*
X162430941Y-97747598D01*
X162510130Y-97556420D01*
X162532692Y-97442993D01*
X162546327Y-97374447D01*
X162550499Y-97353469D01*
X162550500Y-97353466D01*
X162550500Y-97146534D01*
X162550499Y-97146530D01*
X162510130Y-96943580D01*
X162430941Y-96752402D01*
X162315977Y-96580345D01*
X162315975Y-96580342D01*
X162169657Y-96434024D01*
X162081875Y-96375371D01*
X162940000Y-96375371D01*
X162940000Y-97050000D01*
X163578120Y-97050000D01*
X163574075Y-97057007D01*
X163540000Y-97184174D01*
X163540000Y-97315826D01*
X163574075Y-97442993D01*
X163578120Y-97450000D01*
X162940000Y-97450000D01*
X162940000Y-98124628D01*
X162954503Y-98197540D01*
X162954505Y-98197544D01*
X163009760Y-98280239D01*
X163092455Y-98335494D01*
X163092459Y-98335496D01*
X163165371Y-98349999D01*
X163165374Y-98350000D01*
X163840000Y-98350000D01*
X163840000Y-97711879D01*
X163847007Y-97715925D01*
X163974174Y-97750000D01*
X164105826Y-97750000D01*
X164232993Y-97715925D01*
X164240000Y-97711879D01*
X164240000Y-98350000D01*
X164914626Y-98350000D01*
X164914628Y-98349999D01*
X164987540Y-98335496D01*
X164987544Y-98335494D01*
X165070239Y-98280239D01*
X165125494Y-98197544D01*
X165125496Y-98197540D01*
X165139999Y-98124628D01*
X165140000Y-98124626D01*
X165140000Y-97450000D01*
X164501880Y-97450000D01*
X164505925Y-97442993D01*
X164540000Y-97315826D01*
X164540000Y-97184174D01*
X164505925Y-97057007D01*
X164501880Y-97050000D01*
X165140000Y-97050000D01*
X165140000Y-96375373D01*
X165139999Y-96375371D01*
X165125496Y-96302459D01*
X165125494Y-96302455D01*
X165070239Y-96219760D01*
X164987544Y-96164505D01*
X164987540Y-96164503D01*
X164914627Y-96150000D01*
X164240000Y-96150000D01*
X164240000Y-96788120D01*
X164232993Y-96784075D01*
X164105826Y-96750000D01*
X163974174Y-96750000D01*
X163847007Y-96784075D01*
X163840000Y-96788120D01*
X163840000Y-96150000D01*
X163165373Y-96150000D01*
X163092459Y-96164503D01*
X163092455Y-96164505D01*
X163009760Y-96219760D01*
X162954505Y-96302455D01*
X162954503Y-96302459D01*
X162940000Y-96375371D01*
X162081875Y-96375371D01*
X162050289Y-96354266D01*
X161997598Y-96319059D01*
X161957522Y-96302459D01*
X161806420Y-96239870D01*
X161806412Y-96239868D01*
X161603469Y-96199500D01*
X161603465Y-96199500D01*
X161396535Y-96199500D01*
X161396530Y-96199500D01*
X161193587Y-96239868D01*
X161193579Y-96239870D01*
X161002403Y-96319058D01*
X160830342Y-96434024D01*
X160684024Y-96580342D01*
X160569058Y-96752403D01*
X160489870Y-96943579D01*
X160489868Y-96943587D01*
X160449500Y-97146530D01*
X160010499Y-97146530D01*
X159970130Y-96943580D01*
X159890941Y-96752402D01*
X159775977Y-96580345D01*
X159775975Y-96580342D01*
X159629657Y-96434024D01*
X159510289Y-96354266D01*
X159457598Y-96319059D01*
X159417522Y-96302459D01*
X159266420Y-96239870D01*
X159266412Y-96239868D01*
X159063469Y-96199500D01*
X159063465Y-96199500D01*
X158856535Y-96199500D01*
X158856530Y-96199500D01*
X158653587Y-96239868D01*
X158653579Y-96239870D01*
X158462403Y-96319058D01*
X158290342Y-96434024D01*
X158144024Y-96580342D01*
X158029057Y-96752403D01*
X157998061Y-96827237D01*
X157954220Y-96881640D01*
X157887926Y-96903705D01*
X157820226Y-96886426D01*
X157772616Y-96835288D01*
X157759500Y-96779784D01*
X157759500Y-94346951D01*
X157779185Y-94279912D01*
X157831989Y-94234157D01*
X157901147Y-94224213D01*
X157952391Y-94243849D01*
X157961597Y-94250000D01*
X158033453Y-94298013D01*
X158033455Y-94298014D01*
X158033459Y-94298016D01*
X158139349Y-94341876D01*
X158197334Y-94365894D01*
X158197336Y-94365894D01*
X158197341Y-94365896D01*
X158371304Y-94400499D01*
X158371307Y-94400500D01*
X158371309Y-94400500D01*
X158548693Y-94400500D01*
X158548694Y-94400499D01*
X158606682Y-94388964D01*
X158722658Y-94365896D01*
X158722661Y-94365894D01*
X158722666Y-94365894D01*
X158886547Y-94298013D01*
X159034035Y-94199464D01*
X159159464Y-94074035D01*
X159258013Y-93926547D01*
X159325894Y-93762666D01*
X159327946Y-93752354D01*
X159360499Y-93588695D01*
X159360500Y-93588693D01*
X159360500Y-93411306D01*
X159360499Y-93411304D01*
X159325896Y-93237341D01*
X159325893Y-93237332D01*
X159317536Y-93217157D01*
X159299599Y-93173852D01*
X159258016Y-93073459D01*
X159258009Y-93073446D01*
X159159464Y-92925965D01*
X159159461Y-92925961D01*
X159034038Y-92800538D01*
X159034034Y-92800535D01*
X158886553Y-92701990D01*
X158886540Y-92701983D01*
X158722667Y-92634106D01*
X158722658Y-92634103D01*
X158548694Y-92599500D01*
X158548691Y-92599500D01*
X158371309Y-92599500D01*
X158371306Y-92599500D01*
X158197341Y-92634103D01*
X158197332Y-92634106D01*
X158033459Y-92701983D01*
X158033446Y-92701990D01*
X157952391Y-92756150D01*
X157885713Y-92777028D01*
X157818333Y-92758543D01*
X157771643Y-92706564D01*
X157759500Y-92653048D01*
X157759500Y-91248338D01*
X157779185Y-91181299D01*
X157801913Y-91156593D01*
X157801567Y-91156247D01*
X157807314Y-91150500D01*
X157900500Y-91057314D01*
X157966392Y-90943186D01*
X158000500Y-90815892D01*
X158000500Y-90684108D01*
X157966392Y-90556814D01*
X157900500Y-90442686D01*
X157807314Y-90349500D01*
X157733354Y-90306799D01*
X157693187Y-90283608D01*
X157622008Y-90264536D01*
X157565892Y-90249500D01*
X157434108Y-90249500D01*
X157306812Y-90283608D01*
X157192686Y-90349500D01*
X157192683Y-90349502D01*
X157099502Y-90442683D01*
X157099500Y-90442686D01*
X157033608Y-90556812D01*
X157021670Y-90601368D01*
X156999500Y-90684108D01*
X156999500Y-90815892D01*
X157010348Y-90856377D01*
X157033608Y-90943187D01*
X157060970Y-90990578D01*
X157091887Y-91044128D01*
X157108500Y-91106128D01*
X157108500Y-99226852D01*
X157130682Y-99309640D01*
X157134292Y-99315892D01*
X157173535Y-99383862D01*
X158050138Y-100260465D01*
X158060493Y-100266443D01*
X158063386Y-100268114D01*
X158111601Y-100318682D01*
X158124822Y-100387289D01*
X158098853Y-100452153D01*
X158041938Y-100492681D01*
X158001384Y-100499500D01*
X134874500Y-100499500D01*
X134807461Y-100479815D01*
X134761706Y-100427011D01*
X134750500Y-100375500D01*
X134750500Y-95615186D01*
X137599500Y-95615186D01*
X137599500Y-95884813D01*
X137629686Y-96152719D01*
X137629688Y-96152731D01*
X137689684Y-96415594D01*
X137689687Y-96415602D01*
X137778734Y-96670082D01*
X137895714Y-96912994D01*
X137940087Y-96983613D01*
X138039162Y-97141289D01*
X138207266Y-97352085D01*
X138397915Y-97542734D01*
X138608711Y-97710838D01*
X138837003Y-97854284D01*
X139079921Y-97971267D01*
X139271049Y-98038145D01*
X139334397Y-98060312D01*
X139334405Y-98060315D01*
X139334408Y-98060315D01*
X139334409Y-98060316D01*
X139597268Y-98120312D01*
X139865187Y-98150499D01*
X139865188Y-98150500D01*
X139865191Y-98150500D01*
X140134812Y-98150500D01*
X140134812Y-98150499D01*
X140402732Y-98120312D01*
X140665591Y-98060316D01*
X140920079Y-97971267D01*
X141162997Y-97854284D01*
X141391289Y-97710838D01*
X141602085Y-97542734D01*
X141792734Y-97352085D01*
X141960838Y-97141289D01*
X142104284Y-96912997D01*
X142221267Y-96670079D01*
X142310316Y-96415591D01*
X142370312Y-96152732D01*
X142370313Y-96152720D01*
X142370314Y-96152717D01*
X142398895Y-95899054D01*
X142398895Y-95899050D01*
X142400500Y-95884813D01*
X142400500Y-95884809D01*
X142400500Y-95615191D01*
X142393155Y-95550000D01*
X147564537Y-95550000D01*
X148588120Y-95550000D01*
X148584075Y-95557007D01*
X148550000Y-95684174D01*
X148550000Y-95815826D01*
X148584075Y-95942993D01*
X148588120Y-95950000D01*
X147564537Y-95950000D01*
X147583857Y-96071981D01*
X147650735Y-96277814D01*
X147650736Y-96277817D01*
X147748994Y-96470657D01*
X147876211Y-96645754D01*
X147876211Y-96645755D01*
X148029244Y-96798788D01*
X148204342Y-96926005D01*
X148397182Y-97024263D01*
X148397185Y-97024264D01*
X148603018Y-97091142D01*
X148816780Y-97125000D01*
X149850000Y-97125000D01*
X149850000Y-96250000D01*
X150250000Y-96250000D01*
X150250000Y-97125000D01*
X151283220Y-97125000D01*
X151496981Y-97091142D01*
X151702814Y-97024264D01*
X151702817Y-97024263D01*
X151895657Y-96926005D01*
X152070754Y-96798788D01*
X152070755Y-96798788D01*
X152223788Y-96645755D01*
X152223788Y-96645754D01*
X152351005Y-96470657D01*
X152449263Y-96277817D01*
X152449264Y-96277814D01*
X152516142Y-96071981D01*
X152535463Y-95950000D01*
X151511880Y-95950000D01*
X151515925Y-95942993D01*
X151550000Y-95815826D01*
X151550000Y-95684174D01*
X151515925Y-95557007D01*
X151511880Y-95550000D01*
X152535463Y-95550000D01*
X152516142Y-95428018D01*
X152449264Y-95222185D01*
X152449263Y-95222182D01*
X152351005Y-95029342D01*
X152223788Y-94854245D01*
X152223788Y-94854244D01*
X152070755Y-94701211D01*
X151895657Y-94573994D01*
X151702817Y-94475736D01*
X151702814Y-94475735D01*
X151496981Y-94408857D01*
X151283220Y-94375000D01*
X150250000Y-94375000D01*
X150250000Y-95250000D01*
X149850000Y-95250000D01*
X149850000Y-94375000D01*
X148816780Y-94375000D01*
X148603018Y-94408857D01*
X148397185Y-94475735D01*
X148397182Y-94475736D01*
X148204342Y-94573994D01*
X148029245Y-94701211D01*
X148029244Y-94701211D01*
X147876211Y-94854244D01*
X147876211Y-94854245D01*
X147748994Y-95029342D01*
X147650736Y-95222182D01*
X147650735Y-95222185D01*
X147583857Y-95428018D01*
X147564537Y-95550000D01*
X142393155Y-95550000D01*
X142381098Y-95442993D01*
X142370314Y-95347282D01*
X142370313Y-95347277D01*
X142370312Y-95347268D01*
X142310316Y-95084409D01*
X142298627Y-95051005D01*
X142229778Y-94854245D01*
X142221267Y-94829921D01*
X142104284Y-94587003D01*
X141960838Y-94358711D01*
X141792734Y-94147915D01*
X141602085Y-93957266D01*
X141391289Y-93789162D01*
X141162997Y-93645716D01*
X141162994Y-93645714D01*
X140920082Y-93528734D01*
X140665602Y-93439687D01*
X140665594Y-93439684D01*
X140468446Y-93394687D01*
X140402732Y-93379688D01*
X140402728Y-93379687D01*
X140402719Y-93379686D01*
X140134813Y-93349500D01*
X140134809Y-93349500D01*
X139865191Y-93349500D01*
X139865186Y-93349500D01*
X139597280Y-93379686D01*
X139597268Y-93379688D01*
X139334405Y-93439684D01*
X139334397Y-93439687D01*
X139079917Y-93528734D01*
X138837005Y-93645714D01*
X138608712Y-93789161D01*
X138397915Y-93957265D01*
X138207265Y-94147915D01*
X138039161Y-94358712D01*
X137895714Y-94587005D01*
X137778734Y-94829917D01*
X137689687Y-95084397D01*
X137689684Y-95084405D01*
X137629688Y-95347268D01*
X137629686Y-95347280D01*
X137599500Y-95615186D01*
X134750500Y-95615186D01*
X134750500Y-91516779D01*
X153375000Y-91516779D01*
X153375000Y-92550000D01*
X154250000Y-92550000D01*
X154250000Y-92950000D01*
X153375000Y-92950000D01*
X153375000Y-93983220D01*
X153408857Y-94196981D01*
X153475735Y-94402814D01*
X153475736Y-94402817D01*
X153573994Y-94595657D01*
X153701211Y-94770754D01*
X153701211Y-94770755D01*
X153854244Y-94923788D01*
X154029342Y-95051005D01*
X154222182Y-95149263D01*
X154222185Y-95149264D01*
X154428017Y-95216142D01*
X154550000Y-95235462D01*
X154550000Y-94211879D01*
X154557007Y-94215925D01*
X154684174Y-94250000D01*
X154815826Y-94250000D01*
X154942993Y-94215925D01*
X154950000Y-94211879D01*
X154950000Y-95235461D01*
X155071980Y-95216142D01*
X155071983Y-95216142D01*
X155277814Y-95149264D01*
X155277817Y-95149263D01*
X155470657Y-95051005D01*
X155645754Y-94923788D01*
X155645755Y-94923788D01*
X155798788Y-94770755D01*
X155798788Y-94770754D01*
X155926005Y-94595657D01*
X156024263Y-94402817D01*
X156024264Y-94402814D01*
X156091142Y-94196981D01*
X156125000Y-93983220D01*
X156125000Y-92950000D01*
X155250000Y-92950000D01*
X155250000Y-92550000D01*
X156125000Y-92550000D01*
X156125000Y-91516779D01*
X156091142Y-91303018D01*
X156024264Y-91097185D01*
X156024263Y-91097182D01*
X155926005Y-90904342D01*
X155798788Y-90729245D01*
X155798788Y-90729244D01*
X155645755Y-90576211D01*
X155470657Y-90448994D01*
X155277817Y-90350736D01*
X155277814Y-90350735D01*
X155071981Y-90283857D01*
X154950000Y-90264536D01*
X154950000Y-91288120D01*
X154942993Y-91284075D01*
X154815826Y-91250000D01*
X154684174Y-91250000D01*
X154557007Y-91284075D01*
X154550000Y-91288120D01*
X154550000Y-90264536D01*
X154428018Y-90283857D01*
X154222185Y-90350735D01*
X154222182Y-90350736D01*
X154029342Y-90448994D01*
X153854245Y-90576211D01*
X153854244Y-90576211D01*
X153701211Y-90729244D01*
X153701211Y-90729245D01*
X153573994Y-90904342D01*
X153475736Y-91097182D01*
X153475735Y-91097185D01*
X153408857Y-91303018D01*
X153375000Y-91516779D01*
X134750500Y-91516779D01*
X134750500Y-89635837D01*
X147349500Y-89635837D01*
X147349500Y-89864162D01*
X147385215Y-90089660D01*
X147455770Y-90306803D01*
X147559421Y-90510228D01*
X147693621Y-90694937D01*
X147855063Y-90856379D01*
X148039772Y-90990579D01*
X148129766Y-91036433D01*
X148243196Y-91094229D01*
X148243198Y-91094229D01*
X148243201Y-91094231D01*
X148359592Y-91132049D01*
X148460339Y-91164784D01*
X148685838Y-91200500D01*
X148685843Y-91200500D01*
X151414162Y-91200500D01*
X151639660Y-91164784D01*
X151683621Y-91150500D01*
X151856799Y-91094231D01*
X152060228Y-90990579D01*
X152244937Y-90856379D01*
X152406379Y-90694937D01*
X152540579Y-90510228D01*
X152644231Y-90306799D01*
X152714784Y-90089660D01*
X152745040Y-89898632D01*
X152750500Y-89864162D01*
X152750500Y-89635837D01*
X152714784Y-89410339D01*
X152644229Y-89193196D01*
X152540578Y-88989771D01*
X152406379Y-88805063D01*
X152244937Y-88643621D01*
X152060228Y-88509421D01*
X151975779Y-88466392D01*
X151856803Y-88405770D01*
X151639660Y-88335215D01*
X151414162Y-88299500D01*
X151414157Y-88299500D01*
X148685843Y-88299500D01*
X148685838Y-88299500D01*
X148460339Y-88335215D01*
X148243196Y-88405770D01*
X148039771Y-88509421D01*
X147855061Y-88643622D01*
X147693622Y-88805061D01*
X147559421Y-88989771D01*
X147455770Y-89193196D01*
X147385215Y-89410339D01*
X147349500Y-89635837D01*
X134750500Y-89635837D01*
X134750500Y-87881902D01*
X137999500Y-87881902D01*
X137999500Y-88118097D01*
X138036446Y-88351368D01*
X138109433Y-88575996D01*
X138180969Y-88716392D01*
X138216657Y-88786433D01*
X138355483Y-88977510D01*
X138522490Y-89144517D01*
X138713567Y-89283343D01*
X138812991Y-89334002D01*
X138924003Y-89390566D01*
X138924005Y-89390566D01*
X138924008Y-89390568D01*
X138984857Y-89410339D01*
X139148631Y-89463553D01*
X139381903Y-89500500D01*
X139381908Y-89500500D01*
X139618097Y-89500500D01*
X139851368Y-89463553D01*
X140075992Y-89390568D01*
X140286433Y-89283343D01*
X140477510Y-89144517D01*
X140644517Y-88977510D01*
X140783343Y-88786433D01*
X140890568Y-88575992D01*
X140963553Y-88351368D01*
X140970530Y-88307316D01*
X141000500Y-88118097D01*
X141000500Y-87934108D01*
X155999500Y-87934108D01*
X155999500Y-88065891D01*
X156033608Y-88193187D01*
X156066554Y-88250250D01*
X156099500Y-88307314D01*
X156192686Y-88400500D01*
X156306814Y-88466392D01*
X156434108Y-88500500D01*
X156488811Y-88500500D01*
X156555850Y-88520185D01*
X156576492Y-88536819D01*
X163739533Y-95699859D01*
X163739535Y-95699862D01*
X163800138Y-95760465D01*
X163834010Y-95780021D01*
X163874361Y-95803318D01*
X163957147Y-95825501D01*
X163957149Y-95825501D01*
X164050449Y-95825501D01*
X164050465Y-95825500D01*
X186792851Y-95825500D01*
X186792853Y-95825500D01*
X186870387Y-95804724D01*
X186902479Y-95800500D01*
X188539560Y-95800500D01*
X188539562Y-95800500D01*
X188615989Y-95780021D01*
X188684511Y-95740460D01*
X188740460Y-95684511D01*
X190279241Y-94145730D01*
X191499500Y-94145730D01*
X191499500Y-96354269D01*
X191502353Y-96384699D01*
X191502353Y-96384701D01*
X191547206Y-96512880D01*
X191547207Y-96512882D01*
X191627850Y-96622150D01*
X191737118Y-96702793D01*
X191779845Y-96717744D01*
X191865299Y-96747646D01*
X191895730Y-96750500D01*
X191895734Y-96750500D01*
X194104270Y-96750500D01*
X194134699Y-96747646D01*
X194134701Y-96747646D01*
X194198790Y-96725219D01*
X194262882Y-96702793D01*
X194372150Y-96622150D01*
X194452793Y-96512882D01*
X194486833Y-96415602D01*
X194497646Y-96384701D01*
X194497646Y-96384699D01*
X194500500Y-96354269D01*
X194500500Y-94145730D01*
X194497646Y-94115300D01*
X194497646Y-94115298D01*
X194462675Y-94015358D01*
X194452793Y-93987118D01*
X194372150Y-93877850D01*
X194262882Y-93797207D01*
X194262880Y-93797206D01*
X194134700Y-93752353D01*
X194104270Y-93749500D01*
X194104266Y-93749500D01*
X191895734Y-93749500D01*
X191895730Y-93749500D01*
X191865300Y-93752353D01*
X191865298Y-93752353D01*
X191737119Y-93797206D01*
X191737117Y-93797207D01*
X191627850Y-93877850D01*
X191547207Y-93987117D01*
X191547206Y-93987119D01*
X191502353Y-94115298D01*
X191502353Y-94115300D01*
X191499500Y-94145730D01*
X190279241Y-94145730D01*
X191338152Y-93086819D01*
X191399475Y-93053334D01*
X191425833Y-93050500D01*
X194289560Y-93050500D01*
X194289562Y-93050500D01*
X194365989Y-93030021D01*
X194434511Y-92990460D01*
X194490460Y-92934511D01*
X195740460Y-91684511D01*
X195741341Y-91682984D01*
X195765830Y-91640570D01*
X195775187Y-91624361D01*
X195780021Y-91615989D01*
X195800500Y-91539562D01*
X195800500Y-87458676D01*
X195820185Y-87391637D01*
X195836819Y-87370995D01*
X195900500Y-87307314D01*
X195966392Y-87193186D01*
X196000500Y-87065892D01*
X196000500Y-86934108D01*
X195966392Y-86806814D01*
X195900500Y-86692686D01*
X195807314Y-86599500D01*
X195750250Y-86566554D01*
X195693187Y-86533608D01*
X195629539Y-86516554D01*
X195565892Y-86499500D01*
X195434108Y-86499500D01*
X195306812Y-86533608D01*
X195192686Y-86599500D01*
X195192683Y-86599502D01*
X195099502Y-86692683D01*
X195099500Y-86692686D01*
X195033608Y-86806812D01*
X194999500Y-86934108D01*
X194999500Y-87065891D01*
X195033608Y-87193187D01*
X195045374Y-87213566D01*
X195099500Y-87307314D01*
X195099502Y-87307316D01*
X195163181Y-87370995D01*
X195196666Y-87432318D01*
X195199500Y-87458676D01*
X195199500Y-91324167D01*
X195179815Y-91391206D01*
X195163181Y-91411848D01*
X194161848Y-92413181D01*
X194100525Y-92446666D01*
X194074167Y-92449500D01*
X191210438Y-92449500D01*
X191172224Y-92459739D01*
X191134009Y-92469979D01*
X191099923Y-92489659D01*
X191082879Y-92499500D01*
X191082877Y-92499500D01*
X191082877Y-92499501D01*
X191065492Y-92509537D01*
X191065487Y-92509541D01*
X188411848Y-95163181D01*
X188350525Y-95196666D01*
X188324167Y-95199500D01*
X186902479Y-95199500D01*
X186870387Y-95195275D01*
X186792853Y-95174500D01*
X186792852Y-95174500D01*
X164186188Y-95174500D01*
X164119149Y-95154815D01*
X164098507Y-95138181D01*
X163611404Y-94651078D01*
X163577919Y-94589755D01*
X163582903Y-94520063D01*
X163624775Y-94464130D01*
X163674894Y-94441780D01*
X163817097Y-94413493D01*
X163817105Y-94413491D01*
X163989992Y-94341879D01*
X163989998Y-94341876D01*
X164055358Y-94298202D01*
X164055359Y-94298201D01*
X163602703Y-93845545D01*
X163675095Y-93826148D01*
X163754905Y-93780070D01*
X163820070Y-93714905D01*
X163866148Y-93635095D01*
X163885545Y-93562703D01*
X164338201Y-94015359D01*
X164338202Y-94015358D01*
X164381876Y-93949998D01*
X164381879Y-93949992D01*
X164453491Y-93777105D01*
X164453493Y-93777097D01*
X164489999Y-93593571D01*
X164490000Y-93593569D01*
X164490000Y-93406430D01*
X164489999Y-93406428D01*
X164453493Y-93222902D01*
X164453491Y-93222894D01*
X164381880Y-93050008D01*
X164338202Y-92984639D01*
X163885545Y-93437296D01*
X163866148Y-93364905D01*
X163820070Y-93285095D01*
X163754905Y-93219930D01*
X163675095Y-93173852D01*
X163602703Y-93154454D01*
X164055359Y-92701797D01*
X164055359Y-92701796D01*
X163989991Y-92658119D01*
X163817105Y-92586508D01*
X163817097Y-92586506D01*
X163633570Y-92550000D01*
X163446430Y-92550000D01*
X163262902Y-92586506D01*
X163262894Y-92586508D01*
X163090003Y-92658121D01*
X163024640Y-92701795D01*
X163024640Y-92701797D01*
X163477297Y-93154454D01*
X163404905Y-93173852D01*
X163325095Y-93219930D01*
X163259930Y-93285095D01*
X163213852Y-93364905D01*
X163194454Y-93437296D01*
X162741797Y-92984640D01*
X162741795Y-92984640D01*
X162698121Y-93050003D01*
X162626508Y-93222894D01*
X162626506Y-93222900D01*
X162598219Y-93365106D01*
X162565834Y-93427017D01*
X162505118Y-93461591D01*
X162435348Y-93457850D01*
X162388921Y-93428595D01*
X160723988Y-91763662D01*
X160644434Y-91684108D01*
X165999500Y-91684108D01*
X165999500Y-91815891D01*
X166033608Y-91943187D01*
X166066554Y-92000250D01*
X166099500Y-92057314D01*
X166192686Y-92150500D01*
X166306814Y-92216392D01*
X166434108Y-92250500D01*
X166434110Y-92250500D01*
X166565890Y-92250500D01*
X166565892Y-92250500D01*
X166693186Y-92216392D01*
X166807314Y-92150500D01*
X166900500Y-92057314D01*
X166966392Y-91943186D01*
X167000500Y-91815892D01*
X167000500Y-91684108D01*
X166966392Y-91556814D01*
X166900500Y-91442686D01*
X166861819Y-91404005D01*
X166828334Y-91342682D01*
X166825500Y-91316324D01*
X166825500Y-88184108D01*
X172499500Y-88184108D01*
X172499500Y-88315891D01*
X172533608Y-88443187D01*
X172547005Y-88466391D01*
X172599500Y-88557314D01*
X172692686Y-88650500D01*
X172806814Y-88716392D01*
X172934108Y-88750500D01*
X172934110Y-88750500D01*
X173065890Y-88750500D01*
X173065892Y-88750500D01*
X173193186Y-88716392D01*
X173307314Y-88650500D01*
X173345995Y-88611819D01*
X173407318Y-88578334D01*
X173433676Y-88575500D01*
X176563811Y-88575500D01*
X176630850Y-88595185D01*
X176651492Y-88611819D01*
X178235194Y-90195520D01*
X178235215Y-90195543D01*
X179888181Y-91848507D01*
X179921666Y-91909830D01*
X179924500Y-91936188D01*
X179924500Y-93066324D01*
X179904815Y-93133363D01*
X179888181Y-93154005D01*
X179849502Y-93192683D01*
X179849500Y-93192686D01*
X179783608Y-93306812D01*
X179756917Y-93406428D01*
X179749500Y-93434108D01*
X179749500Y-93565892D01*
X179766554Y-93629539D01*
X179783608Y-93693187D01*
X179816121Y-93749500D01*
X179849500Y-93807314D01*
X179942686Y-93900500D01*
X180056814Y-93966392D01*
X180184108Y-94000500D01*
X180184110Y-94000500D01*
X180315890Y-94000500D01*
X180315892Y-94000500D01*
X180443186Y-93966392D01*
X180557314Y-93900500D01*
X180650500Y-93807314D01*
X180716392Y-93693186D01*
X180750500Y-93565892D01*
X180750500Y-93434108D01*
X180716392Y-93306814D01*
X180650500Y-93192686D01*
X180611819Y-93154005D01*
X180578334Y-93092682D01*
X180575500Y-93066324D01*
X180575500Y-92380247D01*
X181699500Y-92380247D01*
X181699500Y-94119752D01*
X181711131Y-94178229D01*
X181711132Y-94178230D01*
X181755447Y-94244552D01*
X181821769Y-94288867D01*
X181821770Y-94288868D01*
X181880247Y-94300499D01*
X181880250Y-94300500D01*
X181880252Y-94300500D01*
X183619750Y-94300500D01*
X183619751Y-94300499D01*
X183634568Y-94297552D01*
X183678229Y-94288868D01*
X183678229Y-94288867D01*
X183678231Y-94288867D01*
X183744552Y-94244552D01*
X183788867Y-94178231D01*
X183788867Y-94178229D01*
X183788868Y-94178229D01*
X183800499Y-94119752D01*
X183800500Y-94119750D01*
X183800500Y-92380249D01*
X183800499Y-92380247D01*
X183788868Y-92321770D01*
X183788867Y-92321769D01*
X183744552Y-92255447D01*
X183678230Y-92211132D01*
X183678229Y-92211131D01*
X183619752Y-92199500D01*
X183619748Y-92199500D01*
X181880252Y-92199500D01*
X181880247Y-92199500D01*
X181821770Y-92211131D01*
X181821769Y-92211132D01*
X181755447Y-92255447D01*
X181711132Y-92321769D01*
X181711131Y-92321770D01*
X181699500Y-92380247D01*
X180575500Y-92380247D01*
X180575500Y-91802855D01*
X180575501Y-91802842D01*
X180575501Y-91707148D01*
X180575501Y-91707147D01*
X180553318Y-91624361D01*
X180514319Y-91556814D01*
X180510465Y-91550138D01*
X180449862Y-91489535D01*
X180449859Y-91489533D01*
X179816703Y-90856377D01*
X179175044Y-90214717D01*
X179092229Y-90131902D01*
X191499500Y-90131902D01*
X191499500Y-90368097D01*
X191536446Y-90601368D01*
X191609433Y-90825996D01*
X191693293Y-90990579D01*
X191716657Y-91036433D01*
X191855483Y-91227510D01*
X192022490Y-91394517D01*
X192213567Y-91533343D01*
X192312991Y-91584002D01*
X192424003Y-91640566D01*
X192424005Y-91640566D01*
X192424008Y-91640568D01*
X192544412Y-91679689D01*
X192648631Y-91713553D01*
X192881903Y-91750500D01*
X192881908Y-91750500D01*
X193118097Y-91750500D01*
X193351368Y-91713553D01*
X193371080Y-91707148D01*
X193575992Y-91640568D01*
X193786433Y-91533343D01*
X193977510Y-91394517D01*
X194144517Y-91227510D01*
X194283343Y-91036433D01*
X194390568Y-90825992D01*
X194463553Y-90601368D01*
X194500500Y-90368097D01*
X194500500Y-90131902D01*
X194463553Y-89898631D01*
X194410455Y-89735215D01*
X194390568Y-89674008D01*
X194390566Y-89674005D01*
X194390566Y-89674003D01*
X194283342Y-89463566D01*
X194244670Y-89410339D01*
X194144517Y-89272490D01*
X193977510Y-89105483D01*
X193786433Y-88966657D01*
X193575996Y-88859433D01*
X193351368Y-88786446D01*
X193118097Y-88749500D01*
X193118092Y-88749500D01*
X192881908Y-88749500D01*
X192881903Y-88749500D01*
X192648631Y-88786446D01*
X192424003Y-88859433D01*
X192213566Y-88966657D01*
X192104550Y-89045862D01*
X192022490Y-89105483D01*
X192022488Y-89105485D01*
X192022487Y-89105485D01*
X191855485Y-89272487D01*
X191855485Y-89272488D01*
X191855483Y-89272490D01*
X191847599Y-89283342D01*
X191716657Y-89463566D01*
X191609433Y-89674003D01*
X191536446Y-89898631D01*
X191499500Y-90131902D01*
X179092229Y-90131902D01*
X178695543Y-89735215D01*
X178695520Y-89735194D01*
X176949864Y-87989537D01*
X176949863Y-87989536D01*
X176949862Y-87989535D01*
X176912750Y-87968108D01*
X176875640Y-87946682D01*
X176828711Y-87934108D01*
X176792853Y-87924500D01*
X176792852Y-87924500D01*
X173433676Y-87924500D01*
X173366637Y-87904815D01*
X173345995Y-87888181D01*
X173307316Y-87849502D01*
X173307314Y-87849500D01*
X173233380Y-87806814D01*
X173193187Y-87783608D01*
X173129539Y-87766554D01*
X173065892Y-87749500D01*
X172934108Y-87749500D01*
X172806812Y-87783608D01*
X172692686Y-87849500D01*
X172692683Y-87849502D01*
X172599502Y-87942683D01*
X172599500Y-87942686D01*
X172533608Y-88056812D01*
X172499500Y-88184108D01*
X166825500Y-88184108D01*
X166825500Y-86686189D01*
X166845185Y-86619150D01*
X166861819Y-86598508D01*
X168098508Y-85361819D01*
X168159831Y-85328334D01*
X168186189Y-85325500D01*
X170042851Y-85325500D01*
X170042853Y-85325500D01*
X170125639Y-85303318D01*
X170199862Y-85260465D01*
X170510465Y-84949862D01*
X172010465Y-83449862D01*
X172053317Y-83375639D01*
X172053318Y-83375638D01*
X172075500Y-83292853D01*
X172075500Y-82652155D01*
X191372500Y-82652155D01*
X191372500Y-83550000D01*
X192301788Y-83550000D01*
X192297479Y-83560402D01*
X192272500Y-83685981D01*
X192272500Y-83814019D01*
X192297479Y-83939598D01*
X192301788Y-83950000D01*
X191372500Y-83950000D01*
X191372500Y-84847844D01*
X191378901Y-84907372D01*
X191378903Y-84907379D01*
X191429145Y-85042086D01*
X191429149Y-85042093D01*
X191515309Y-85157187D01*
X191515312Y-85157190D01*
X191630406Y-85243350D01*
X191630413Y-85243354D01*
X191765120Y-85293596D01*
X191765127Y-85293598D01*
X191824655Y-85299999D01*
X191824672Y-85300000D01*
X192722500Y-85300000D01*
X192722500Y-84370712D01*
X192732902Y-84375021D01*
X192858481Y-84400000D01*
X192986519Y-84400000D01*
X193112098Y-84375021D01*
X193122500Y-84370712D01*
X193122500Y-85300000D01*
X194020328Y-85300000D01*
X194020344Y-85299999D01*
X194079872Y-85293598D01*
X194079879Y-85293596D01*
X194214586Y-85243354D01*
X194214593Y-85243350D01*
X194329687Y-85157190D01*
X194329690Y-85157187D01*
X194415850Y-85042093D01*
X194415854Y-85042086D01*
X194466096Y-84907379D01*
X194466098Y-84907372D01*
X194472499Y-84847844D01*
X194472500Y-84847827D01*
X194472500Y-83950000D01*
X193543212Y-83950000D01*
X193547521Y-83939598D01*
X193572500Y-83814019D01*
X193572500Y-83685981D01*
X193547521Y-83560402D01*
X193543212Y-83550000D01*
X194472500Y-83550000D01*
X194472500Y-82652172D01*
X194472499Y-82652155D01*
X194466098Y-82592627D01*
X194466096Y-82592620D01*
X194415854Y-82457913D01*
X194415850Y-82457906D01*
X194329690Y-82342812D01*
X194329687Y-82342809D01*
X194214593Y-82256649D01*
X194214586Y-82256645D01*
X194079879Y-82206403D01*
X194079872Y-82206401D01*
X194020344Y-82200000D01*
X193122500Y-82200000D01*
X193122500Y-83129287D01*
X193112098Y-83124979D01*
X192986519Y-83100000D01*
X192858481Y-83100000D01*
X192732902Y-83124979D01*
X192722500Y-83129287D01*
X192722500Y-82200000D01*
X191824655Y-82200000D01*
X191765127Y-82206401D01*
X191765120Y-82206403D01*
X191630413Y-82256645D01*
X191630406Y-82256649D01*
X191515312Y-82342809D01*
X191515309Y-82342812D01*
X191429149Y-82457906D01*
X191429145Y-82457913D01*
X191378903Y-82592620D01*
X191378901Y-82592627D01*
X191372500Y-82652155D01*
X172075500Y-82652155D01*
X172075500Y-81436189D01*
X172095185Y-81369150D01*
X172111819Y-81348508D01*
X174080080Y-79380247D01*
X184199500Y-79380247D01*
X184199500Y-81119752D01*
X184211131Y-81178229D01*
X184211132Y-81178230D01*
X184255447Y-81244552D01*
X184321769Y-81288867D01*
X184321770Y-81288868D01*
X184380247Y-81300499D01*
X184380250Y-81300500D01*
X184380252Y-81300500D01*
X186119750Y-81300500D01*
X186119751Y-81300499D01*
X186134568Y-81297552D01*
X186178229Y-81288868D01*
X186178229Y-81288867D01*
X186178231Y-81288867D01*
X186244552Y-81244552D01*
X186288867Y-81178231D01*
X186288867Y-81178229D01*
X186288868Y-81178229D01*
X186300499Y-81119752D01*
X186300500Y-81119750D01*
X186300500Y-79380249D01*
X186300499Y-79380247D01*
X186288868Y-79321770D01*
X186288867Y-79321769D01*
X186244552Y-79255447D01*
X186178230Y-79211132D01*
X186178229Y-79211131D01*
X186119752Y-79199500D01*
X186119748Y-79199500D01*
X184380252Y-79199500D01*
X184380247Y-79199500D01*
X184321770Y-79211131D01*
X184321769Y-79211132D01*
X184255447Y-79255447D01*
X184211132Y-79321769D01*
X184211131Y-79321770D01*
X184199500Y-79380247D01*
X174080080Y-79380247D01*
X174828425Y-78631902D01*
X191422000Y-78631902D01*
X191422000Y-78868097D01*
X191458946Y-79101368D01*
X191531933Y-79325996D01*
X191639157Y-79536433D01*
X191777983Y-79727510D01*
X191944990Y-79894517D01*
X192136067Y-80033343D01*
X192235491Y-80084002D01*
X192346503Y-80140566D01*
X192346505Y-80140566D01*
X192346508Y-80140568D01*
X192466912Y-80179689D01*
X192571131Y-80213553D01*
X192804403Y-80250500D01*
X192804408Y-80250500D01*
X193040597Y-80250500D01*
X193273868Y-80213553D01*
X193498492Y-80140568D01*
X193708933Y-80033343D01*
X193900010Y-79894517D01*
X194067017Y-79727510D01*
X194205843Y-79536433D01*
X194313068Y-79325992D01*
X194386053Y-79101368D01*
X194423000Y-78868097D01*
X194423000Y-78631902D01*
X194386053Y-78398631D01*
X194313066Y-78174003D01*
X194251573Y-78053317D01*
X194205843Y-77963567D01*
X194067017Y-77772490D01*
X193900010Y-77605483D01*
X193708933Y-77466657D01*
X193669730Y-77446682D01*
X193498496Y-77359433D01*
X193273868Y-77286446D01*
X193040597Y-77249500D01*
X193040592Y-77249500D01*
X192804408Y-77249500D01*
X192804403Y-77249500D01*
X192571131Y-77286446D01*
X192346503Y-77359433D01*
X192136066Y-77466657D01*
X192027050Y-77545862D01*
X191944990Y-77605483D01*
X191944988Y-77605485D01*
X191944987Y-77605485D01*
X191777985Y-77772487D01*
X191777985Y-77772488D01*
X191777983Y-77772490D01*
X191718362Y-77854550D01*
X191639157Y-77963566D01*
X191531933Y-78174003D01*
X191458946Y-78398631D01*
X191422000Y-78631902D01*
X174828425Y-78631902D01*
X175348508Y-78111819D01*
X175409831Y-78078334D01*
X175436189Y-78075500D01*
X188042851Y-78075500D01*
X188042853Y-78075500D01*
X188125639Y-78053318D01*
X188199862Y-78010465D01*
X189510465Y-76699862D01*
X189553318Y-76625639D01*
X189575500Y-76542853D01*
X189575500Y-76457147D01*
X189575500Y-74436189D01*
X189595185Y-74369150D01*
X189611819Y-74348508D01*
X190804107Y-73156220D01*
X192010465Y-71949862D01*
X192053318Y-71875639D01*
X192075500Y-71792853D01*
X192075500Y-71707147D01*
X192075500Y-68433676D01*
X192095185Y-68366637D01*
X192111819Y-68345995D01*
X192150500Y-68307314D01*
X192216392Y-68193186D01*
X192250500Y-68065892D01*
X192250500Y-67934108D01*
X192216392Y-67806814D01*
X192150500Y-67692686D01*
X192057314Y-67599500D01*
X191959199Y-67542853D01*
X191943187Y-67533608D01*
X191879539Y-67516554D01*
X191815892Y-67499500D01*
X191684108Y-67499500D01*
X191556812Y-67533608D01*
X191442686Y-67599500D01*
X191442683Y-67599502D01*
X191349502Y-67692683D01*
X191349500Y-67692686D01*
X191283608Y-67806812D01*
X191249500Y-67934108D01*
X191249500Y-68065891D01*
X191283608Y-68193187D01*
X191316554Y-68250250D01*
X191349500Y-68307314D01*
X191349502Y-68307316D01*
X191388181Y-68345995D01*
X191421666Y-68407318D01*
X191424500Y-68433676D01*
X191424500Y-71563811D01*
X191404815Y-71630850D01*
X191388181Y-71651492D01*
X188989537Y-74050135D01*
X188989533Y-74050141D01*
X188946681Y-74124361D01*
X188946682Y-74124362D01*
X188924500Y-74207147D01*
X188924500Y-76313811D01*
X188904815Y-76380850D01*
X188888181Y-76401492D01*
X187901492Y-77388181D01*
X187840169Y-77421666D01*
X187813811Y-77424500D01*
X175207147Y-77424500D01*
X175124362Y-77446682D01*
X175124359Y-77446683D01*
X175089764Y-77466657D01*
X175069951Y-77478096D01*
X175050139Y-77489534D01*
X175050136Y-77489536D01*
X171489537Y-81050135D01*
X171489533Y-81050141D01*
X171446681Y-81124361D01*
X171446682Y-81124362D01*
X171424500Y-81207147D01*
X171424500Y-83063811D01*
X171404815Y-83130850D01*
X171388181Y-83151492D01*
X169901492Y-84638181D01*
X169840169Y-84671666D01*
X169813811Y-84674500D01*
X167957147Y-84674500D01*
X167874362Y-84696682D01*
X167874355Y-84696685D01*
X167800144Y-84739530D01*
X167800136Y-84739536D01*
X166239537Y-86300135D01*
X166239533Y-86300141D01*
X166196681Y-86374361D01*
X166196682Y-86374362D01*
X166174500Y-86457147D01*
X166174500Y-91316324D01*
X166154815Y-91383363D01*
X166138181Y-91404005D01*
X166099502Y-91442683D01*
X166099500Y-91442686D01*
X166033608Y-91556812D01*
X165999500Y-91684108D01*
X160644434Y-91684108D01*
X160528700Y-91568374D01*
X157036819Y-88076492D01*
X157003334Y-88015169D01*
X157000500Y-87988811D01*
X157000500Y-87934110D01*
X157000500Y-87934108D01*
X156966392Y-87806814D01*
X156900500Y-87692686D01*
X156807314Y-87599500D01*
X156750250Y-87566554D01*
X156693187Y-87533608D01*
X156629539Y-87516554D01*
X156565892Y-87499500D01*
X156434108Y-87499500D01*
X156306812Y-87533608D01*
X156192686Y-87599500D01*
X156192683Y-87599502D01*
X156099502Y-87692683D01*
X156099500Y-87692686D01*
X156033608Y-87806812D01*
X155999500Y-87934108D01*
X141000500Y-87934108D01*
X141000500Y-87881902D01*
X140963553Y-87648631D01*
X140890566Y-87424003D01*
X140783342Y-87213566D01*
X140768535Y-87193186D01*
X140644517Y-87022490D01*
X140477510Y-86855483D01*
X140286433Y-86716657D01*
X140075996Y-86609433D01*
X139851368Y-86536446D01*
X139618097Y-86499500D01*
X139618092Y-86499500D01*
X139381908Y-86499500D01*
X139381903Y-86499500D01*
X139148631Y-86536446D01*
X138924003Y-86609433D01*
X138713566Y-86716657D01*
X138604550Y-86795862D01*
X138522490Y-86855483D01*
X138522488Y-86855485D01*
X138522487Y-86855485D01*
X138355485Y-87022487D01*
X138355485Y-87022488D01*
X138355483Y-87022490D01*
X138323951Y-87065890D01*
X138216657Y-87213566D01*
X138109433Y-87424003D01*
X138036446Y-87648631D01*
X137999500Y-87881902D01*
X134750500Y-87881902D01*
X134750500Y-84896530D01*
X147409500Y-84896530D01*
X147409500Y-85103469D01*
X147449868Y-85306412D01*
X147449870Y-85306420D01*
X147529058Y-85497596D01*
X147644024Y-85669657D01*
X147790342Y-85815975D01*
X147790345Y-85815977D01*
X147962402Y-85930941D01*
X148153580Y-86010130D01*
X148298052Y-86038867D01*
X148356530Y-86050499D01*
X148356534Y-86050500D01*
X148356535Y-86050500D01*
X148563466Y-86050500D01*
X148563467Y-86050499D01*
X148766420Y-86010130D01*
X148957598Y-85930941D01*
X149129655Y-85815977D01*
X149275977Y-85669655D01*
X149390941Y-85497598D01*
X149470130Y-85306420D01*
X149510500Y-85103465D01*
X149510500Y-84896535D01*
X149510499Y-84896530D01*
X149949500Y-84896530D01*
X149949500Y-85103469D01*
X149989868Y-85306412D01*
X149989870Y-85306420D01*
X150069058Y-85497596D01*
X150184024Y-85669657D01*
X150330342Y-85815975D01*
X150330345Y-85815977D01*
X150502402Y-85930941D01*
X150693580Y-86010130D01*
X150838052Y-86038867D01*
X150896530Y-86050499D01*
X150896534Y-86050500D01*
X150896535Y-86050500D01*
X151103466Y-86050500D01*
X151103467Y-86050499D01*
X151306420Y-86010130D01*
X151497598Y-85930941D01*
X151669655Y-85815977D01*
X151815977Y-85669655D01*
X151930941Y-85497598D01*
X152010130Y-85306420D01*
X152050500Y-85103465D01*
X152050500Y-84896535D01*
X152010130Y-84693580D01*
X151930941Y-84502402D01*
X151815977Y-84330345D01*
X151815975Y-84330342D01*
X151669657Y-84184024D01*
X151589173Y-84130247D01*
X152489500Y-84130247D01*
X152489500Y-85869752D01*
X152501131Y-85928229D01*
X152501132Y-85928230D01*
X152545447Y-85994552D01*
X152611769Y-86038867D01*
X152611770Y-86038868D01*
X152670247Y-86050499D01*
X152670250Y-86050500D01*
X152670252Y-86050500D01*
X154409750Y-86050500D01*
X154409751Y-86050499D01*
X154424568Y-86047552D01*
X154468229Y-86038868D01*
X154468229Y-86038867D01*
X154468231Y-86038867D01*
X154534552Y-85994552D01*
X154578867Y-85928231D01*
X154578867Y-85928229D01*
X154578868Y-85928229D01*
X154590499Y-85869752D01*
X154590500Y-85869750D01*
X154590500Y-84130249D01*
X154590499Y-84130247D01*
X154578868Y-84071770D01*
X154578867Y-84071769D01*
X154534552Y-84005447D01*
X154468230Y-83961132D01*
X154468229Y-83961131D01*
X154409752Y-83949500D01*
X154409748Y-83949500D01*
X152670252Y-83949500D01*
X152670247Y-83949500D01*
X152611770Y-83961131D01*
X152611769Y-83961132D01*
X152545447Y-84005447D01*
X152501132Y-84071769D01*
X152501131Y-84071770D01*
X152489500Y-84130247D01*
X151589173Y-84130247D01*
X151540678Y-84097844D01*
X151497598Y-84069059D01*
X151306420Y-83989870D01*
X151306412Y-83989868D01*
X151103469Y-83949500D01*
X151103465Y-83949500D01*
X150896535Y-83949500D01*
X150896530Y-83949500D01*
X150693587Y-83989868D01*
X150693579Y-83989870D01*
X150502403Y-84069058D01*
X150330342Y-84184024D01*
X150184024Y-84330342D01*
X150069058Y-84502403D01*
X149989870Y-84693579D01*
X149989868Y-84693587D01*
X149949500Y-84896530D01*
X149510499Y-84896530D01*
X149470130Y-84693580D01*
X149390941Y-84502402D01*
X149275977Y-84330345D01*
X149275975Y-84330342D01*
X149129657Y-84184024D01*
X149000678Y-84097844D01*
X148957598Y-84069059D01*
X148766420Y-83989870D01*
X148766412Y-83989868D01*
X148563469Y-83949500D01*
X148563465Y-83949500D01*
X148356535Y-83949500D01*
X148356530Y-83949500D01*
X148153587Y-83989868D01*
X148153579Y-83989870D01*
X147962403Y-84069058D01*
X147790342Y-84184024D01*
X147644024Y-84330342D01*
X147529058Y-84502403D01*
X147449870Y-84693579D01*
X147449868Y-84693587D01*
X147409500Y-84896530D01*
X134750500Y-84896530D01*
X134750500Y-81902155D01*
X137950000Y-81902155D01*
X137950000Y-82800000D01*
X138879288Y-82800000D01*
X138874979Y-82810402D01*
X138850000Y-82935981D01*
X138850000Y-83064019D01*
X138874979Y-83189598D01*
X138879288Y-83200000D01*
X137950000Y-83200000D01*
X137950000Y-84097844D01*
X137956401Y-84157372D01*
X137956403Y-84157379D01*
X138006645Y-84292086D01*
X138006649Y-84292093D01*
X138092809Y-84407187D01*
X138092812Y-84407190D01*
X138207906Y-84493350D01*
X138207913Y-84493354D01*
X138342620Y-84543596D01*
X138342627Y-84543598D01*
X138402155Y-84549999D01*
X138402172Y-84550000D01*
X139300000Y-84550000D01*
X139300000Y-83620712D01*
X139310402Y-83625021D01*
X139435981Y-83650000D01*
X139564019Y-83650000D01*
X139689598Y-83625021D01*
X139700000Y-83620712D01*
X139700000Y-84550000D01*
X140597828Y-84550000D01*
X140597844Y-84549999D01*
X140657372Y-84543598D01*
X140657379Y-84543596D01*
X140792086Y-84493354D01*
X140792093Y-84493350D01*
X140907187Y-84407190D01*
X140907190Y-84407187D01*
X140993350Y-84292093D01*
X140993354Y-84292086D01*
X141043596Y-84157379D01*
X141043598Y-84157372D01*
X141049999Y-84097844D01*
X141050000Y-84097827D01*
X141050000Y-83200000D01*
X140120712Y-83200000D01*
X140125021Y-83189598D01*
X140150000Y-83064019D01*
X140150000Y-82935981D01*
X140125021Y-82810402D01*
X140120712Y-82800000D01*
X141050000Y-82800000D01*
X141050000Y-81902172D01*
X141049999Y-81902155D01*
X141043598Y-81842627D01*
X141043596Y-81842620D01*
X140993354Y-81707913D01*
X140993350Y-81707906D01*
X140907190Y-81592812D01*
X140907187Y-81592809D01*
X140792093Y-81506649D01*
X140792086Y-81506645D01*
X140657379Y-81456403D01*
X140657372Y-81456401D01*
X140597844Y-81450000D01*
X139700000Y-81450000D01*
X139700000Y-82379287D01*
X139689598Y-82374979D01*
X139564019Y-82350000D01*
X139435981Y-82350000D01*
X139310402Y-82374979D01*
X139300000Y-82379287D01*
X139300000Y-81450000D01*
X138402155Y-81450000D01*
X138342627Y-81456401D01*
X138342620Y-81456403D01*
X138207913Y-81506645D01*
X138207906Y-81506649D01*
X138092812Y-81592809D01*
X138092809Y-81592812D01*
X138006649Y-81707906D01*
X138006645Y-81707913D01*
X137956403Y-81842620D01*
X137956401Y-81842627D01*
X137950000Y-81902155D01*
X134750500Y-81902155D01*
X134750500Y-76880247D01*
X157449500Y-76880247D01*
X157449500Y-78619752D01*
X157461131Y-78678229D01*
X157461132Y-78678230D01*
X157505447Y-78744552D01*
X157571769Y-78788867D01*
X157571770Y-78788868D01*
X157630247Y-78800499D01*
X157630250Y-78800500D01*
X157630252Y-78800500D01*
X159369750Y-78800500D01*
X159369751Y-78800499D01*
X159384568Y-78797552D01*
X159428229Y-78788868D01*
X159428229Y-78788867D01*
X159428231Y-78788867D01*
X159494552Y-78744552D01*
X159538867Y-78678231D01*
X159538867Y-78678229D01*
X159538868Y-78678229D01*
X159550499Y-78619752D01*
X159550500Y-78619750D01*
X159550500Y-76880249D01*
X159550499Y-76880247D01*
X159538868Y-76821770D01*
X159538867Y-76821769D01*
X159494552Y-76755447D01*
X159428230Y-76711132D01*
X159428229Y-76711131D01*
X159369752Y-76699500D01*
X159369748Y-76699500D01*
X157630252Y-76699500D01*
X157630247Y-76699500D01*
X157571770Y-76711131D01*
X157571769Y-76711132D01*
X157505447Y-76755447D01*
X157461132Y-76821769D01*
X157461131Y-76821770D01*
X157449500Y-76880247D01*
X134750500Y-76880247D01*
X134750500Y-74880247D01*
X140199500Y-74880247D01*
X140199500Y-76619752D01*
X140211131Y-76678229D01*
X140211132Y-76678230D01*
X140255447Y-76744552D01*
X140321769Y-76788867D01*
X140321770Y-76788868D01*
X140380247Y-76800499D01*
X140380250Y-76800500D01*
X140380252Y-76800500D01*
X142119750Y-76800500D01*
X142119751Y-76800499D01*
X142134568Y-76797552D01*
X142178229Y-76788868D01*
X142178229Y-76788867D01*
X142178231Y-76788867D01*
X142244552Y-76744552D01*
X142288867Y-76678231D01*
X142288867Y-76678229D01*
X142288868Y-76678229D01*
X142300499Y-76619752D01*
X142300500Y-76619750D01*
X142300500Y-74880249D01*
X142300499Y-74880247D01*
X142288868Y-74821770D01*
X142288867Y-74821769D01*
X142244552Y-74755447D01*
X142178230Y-74711132D01*
X142178229Y-74711131D01*
X142119752Y-74699500D01*
X142119748Y-74699500D01*
X140380252Y-74699500D01*
X140380247Y-74699500D01*
X140321770Y-74711131D01*
X140321769Y-74711132D01*
X140255447Y-74755447D01*
X140211132Y-74821769D01*
X140211131Y-74821770D01*
X140199500Y-74880247D01*
X134750500Y-74880247D01*
X134750500Y-69878006D01*
X138200000Y-69878006D01*
X138200000Y-70121993D01*
X138238165Y-70362959D01*
X138313560Y-70594998D01*
X138424323Y-70812380D01*
X138521298Y-70945856D01*
X138521299Y-70945856D01*
X139169669Y-70297487D01*
X139173978Y-70307890D01*
X139245112Y-70414351D01*
X139335649Y-70504888D01*
X139442110Y-70576022D01*
X139452511Y-70580330D01*
X138804141Y-71228699D01*
X138804142Y-71228700D01*
X138937619Y-71325676D01*
X139155001Y-71436439D01*
X139387040Y-71511834D01*
X139628007Y-71550000D01*
X139871993Y-71550000D01*
X140112959Y-71511834D01*
X140344998Y-71436439D01*
X140562377Y-71325678D01*
X140695856Y-71228699D01*
X140695857Y-71228698D01*
X140047489Y-70580330D01*
X140057890Y-70576022D01*
X140164351Y-70504888D01*
X140254888Y-70414351D01*
X140326022Y-70307890D01*
X140330330Y-70297488D01*
X140978698Y-70945857D01*
X140978699Y-70945856D01*
X141075678Y-70812377D01*
X141186439Y-70594998D01*
X141261834Y-70362959D01*
X141300000Y-70121993D01*
X141300000Y-69878006D01*
X141261834Y-69637040D01*
X141186439Y-69405001D01*
X141075676Y-69187619D01*
X140978700Y-69054142D01*
X140978699Y-69054141D01*
X140330330Y-69702510D01*
X140326022Y-69692110D01*
X140254888Y-69585649D01*
X140164351Y-69495112D01*
X140057890Y-69423978D01*
X140047487Y-69419669D01*
X140695856Y-68771299D01*
X140695856Y-68771298D01*
X140562380Y-68674323D01*
X140344998Y-68563560D01*
X140112959Y-68488165D01*
X139871993Y-68450000D01*
X139628007Y-68450000D01*
X139387040Y-68488165D01*
X139155001Y-68563560D01*
X138937626Y-68674319D01*
X138804142Y-68771299D01*
X139452512Y-69419669D01*
X139442110Y-69423978D01*
X139335649Y-69495112D01*
X139245112Y-69585649D01*
X139173978Y-69692110D01*
X139169669Y-69702512D01*
X138521299Y-69054142D01*
X138424319Y-69187626D01*
X138313560Y-69405001D01*
X138238165Y-69637040D01*
X138200000Y-69878006D01*
X134750500Y-69878006D01*
X134750500Y-63895730D01*
X138249500Y-63895730D01*
X138249500Y-66104269D01*
X138252353Y-66134699D01*
X138252353Y-66134701D01*
X138297206Y-66262880D01*
X138297207Y-66262882D01*
X138377850Y-66372150D01*
X138487118Y-66452793D01*
X138529845Y-66467744D01*
X138615299Y-66497646D01*
X138645730Y-66500500D01*
X138645734Y-66500500D01*
X140854270Y-66500500D01*
X140884699Y-66497646D01*
X140884701Y-66497646D01*
X140948790Y-66475219D01*
X141012882Y-66452793D01*
X141122150Y-66372150D01*
X141202793Y-66262882D01*
X141227357Y-66192683D01*
X141247646Y-66134701D01*
X141247646Y-66134699D01*
X141250500Y-66104269D01*
X141250500Y-63895730D01*
X141247646Y-63865300D01*
X141247646Y-63865298D01*
X141202793Y-63737119D01*
X141202792Y-63737117D01*
X141122150Y-63627850D01*
X141012882Y-63547207D01*
X141012880Y-63547206D01*
X140884700Y-63502353D01*
X140854270Y-63499500D01*
X140854266Y-63499500D01*
X138645734Y-63499500D01*
X138645730Y-63499500D01*
X138615300Y-63502353D01*
X138615298Y-63502353D01*
X138487119Y-63547206D01*
X138487117Y-63547207D01*
X138377850Y-63627850D01*
X138297207Y-63737117D01*
X138297206Y-63737119D01*
X138252353Y-63865298D01*
X138252353Y-63865300D01*
X138249500Y-63895730D01*
X134750500Y-63895730D01*
X134750500Y-60684108D01*
X161749500Y-60684108D01*
X161749500Y-60815891D01*
X161783608Y-60943187D01*
X161816554Y-61000250D01*
X161849500Y-61057314D01*
X161849502Y-61057316D01*
X161913181Y-61120995D01*
X161946666Y-61182318D01*
X161949500Y-61208676D01*
X161949500Y-71789562D01*
X161950382Y-71792852D01*
X161969979Y-71865990D01*
X161969982Y-71865995D01*
X162009535Y-71934504D01*
X162009539Y-71934509D01*
X162009540Y-71934511D01*
X165065489Y-74990460D01*
X165124829Y-75024720D01*
X165134008Y-75030020D01*
X165134012Y-75030022D01*
X165210438Y-75050500D01*
X165210440Y-75050500D01*
X177289560Y-75050500D01*
X177289562Y-75050500D01*
X177365989Y-75030021D01*
X177434511Y-74990460D01*
X177490460Y-74934511D01*
X178490460Y-73934511D01*
X178530022Y-73865988D01*
X178550500Y-73789562D01*
X178550500Y-73710438D01*
X178550500Y-72708676D01*
X178570185Y-72641637D01*
X178586819Y-72620995D01*
X178650500Y-72557314D01*
X178716392Y-72443186D01*
X178750500Y-72315892D01*
X178750500Y-72184108D01*
X178716392Y-72056814D01*
X178650500Y-71942686D01*
X178557314Y-71849500D01*
X178527028Y-71832014D01*
X178527025Y-71832012D01*
X178443188Y-71783609D01*
X178443187Y-71783608D01*
X178443186Y-71783608D01*
X178315892Y-71749500D01*
X178184108Y-71749500D01*
X178056812Y-71783608D01*
X177942686Y-71849500D01*
X177942683Y-71849502D01*
X177849502Y-71942683D01*
X177849500Y-71942686D01*
X177783608Y-72056812D01*
X177749500Y-72184108D01*
X177749500Y-72315891D01*
X177783608Y-72443187D01*
X177808058Y-72485535D01*
X177849500Y-72557314D01*
X177849502Y-72557316D01*
X177913181Y-72620995D01*
X177946666Y-72682318D01*
X177949500Y-72708676D01*
X177949500Y-73574167D01*
X177929815Y-73641206D01*
X177913181Y-73661848D01*
X177161848Y-74413181D01*
X177100525Y-74446666D01*
X177074167Y-74449500D01*
X165425833Y-74449500D01*
X165358794Y-74429815D01*
X165338152Y-74413181D01*
X162586819Y-71661848D01*
X162553334Y-71600525D01*
X162550500Y-71574167D01*
X162550500Y-62434108D01*
X169499500Y-62434108D01*
X169499500Y-62565891D01*
X169533608Y-62693187D01*
X169560902Y-62740460D01*
X169599500Y-62807314D01*
X169692686Y-62900500D01*
X169806814Y-62966392D01*
X169934108Y-63000500D01*
X169934110Y-63000500D01*
X170065890Y-63000500D01*
X170065892Y-63000500D01*
X170193186Y-62966392D01*
X170307314Y-62900500D01*
X170370995Y-62836819D01*
X170432318Y-62803334D01*
X170458676Y-62800500D01*
X172747794Y-62800500D01*
X172814833Y-62820185D01*
X172860588Y-62872989D01*
X172870532Y-62942147D01*
X172841507Y-63005703D01*
X172809794Y-63031887D01*
X172692689Y-63099497D01*
X172692683Y-63099502D01*
X172599502Y-63192683D01*
X172599500Y-63192686D01*
X172533608Y-63306812D01*
X172499500Y-63434108D01*
X172499500Y-63565891D01*
X172533608Y-63693187D01*
X172558972Y-63737117D01*
X172599500Y-63807314D01*
X172692686Y-63900500D01*
X172806814Y-63966392D01*
X172934108Y-64000500D01*
X172988811Y-64000500D01*
X173055850Y-64020185D01*
X173076492Y-64036819D01*
X176638181Y-67598508D01*
X176671666Y-67659831D01*
X176674500Y-67686189D01*
X176674500Y-72356456D01*
X176665855Y-72385896D01*
X176659332Y-72415883D01*
X176655577Y-72420898D01*
X176654815Y-72423495D01*
X176638181Y-72444137D01*
X176613417Y-72468901D01*
X176552094Y-72502386D01*
X176525736Y-72505220D01*
X175364703Y-72505220D01*
X175297664Y-72485535D01*
X175251909Y-72432731D01*
X175244928Y-72413314D01*
X175216392Y-72306814D01*
X175150500Y-72192686D01*
X175057314Y-72099500D01*
X174983380Y-72056814D01*
X174943187Y-72033608D01*
X174879539Y-72016554D01*
X174815892Y-71999500D01*
X174684108Y-71999500D01*
X174556812Y-72033608D01*
X174442686Y-72099500D01*
X174442683Y-72099502D01*
X174349502Y-72192683D01*
X174349500Y-72192686D01*
X174283608Y-72306812D01*
X174249500Y-72434108D01*
X174249500Y-72565891D01*
X174283608Y-72693187D01*
X174292551Y-72708676D01*
X174349500Y-72807314D01*
X174442686Y-72900500D01*
X174556814Y-72966392D01*
X174684108Y-73000500D01*
X174738811Y-73000500D01*
X174762435Y-73007436D01*
X174786904Y-73010206D01*
X174798567Y-73018046D01*
X174805850Y-73020185D01*
X174817156Y-73028385D01*
X174822034Y-73032361D01*
X174880858Y-73091185D01*
X174917970Y-73112611D01*
X174926595Y-73117591D01*
X174926599Y-73117594D01*
X174955078Y-73134037D01*
X174955080Y-73134037D01*
X174955081Y-73134038D01*
X175037867Y-73156221D01*
X175037869Y-73156221D01*
X175131169Y-73156221D01*
X175131185Y-73156220D01*
X176525736Y-73156220D01*
X176592775Y-73175905D01*
X176613417Y-73192539D01*
X176652098Y-73231220D01*
X176766226Y-73297112D01*
X176893520Y-73331220D01*
X176893522Y-73331220D01*
X177025302Y-73331220D01*
X177025304Y-73331220D01*
X177152598Y-73297112D01*
X177266726Y-73231220D01*
X177359912Y-73138034D01*
X177425804Y-73023906D01*
X177459912Y-72896612D01*
X177459912Y-72764828D01*
X177425804Y-72637534D01*
X177359912Y-72523406D01*
X177359907Y-72523401D01*
X177354965Y-72516960D01*
X177356580Y-72515720D01*
X177328334Y-72463990D01*
X177325500Y-72437632D01*
X177325500Y-71184108D01*
X178499500Y-71184108D01*
X178499500Y-71315891D01*
X178533608Y-71443187D01*
X178566554Y-71500250D01*
X178599500Y-71557314D01*
X178692686Y-71650500D01*
X178806814Y-71716392D01*
X178934108Y-71750500D01*
X178934110Y-71750500D01*
X179065890Y-71750500D01*
X179065892Y-71750500D01*
X179193186Y-71716392D01*
X179307314Y-71650500D01*
X179400500Y-71557314D01*
X179466392Y-71443186D01*
X179500500Y-71315892D01*
X179500500Y-71261189D01*
X179520185Y-71194150D01*
X179536819Y-71173508D01*
X181215215Y-69495112D01*
X183010465Y-67699862D01*
X183053318Y-67625639D01*
X183075500Y-67542853D01*
X183075500Y-67457147D01*
X183075500Y-66933676D01*
X183095185Y-66866637D01*
X183111819Y-66845995D01*
X183150500Y-66807314D01*
X183216392Y-66693186D01*
X183250500Y-66565892D01*
X183250500Y-66434108D01*
X183216392Y-66306814D01*
X183150500Y-66192686D01*
X183057314Y-66099500D01*
X183000250Y-66066554D01*
X182943187Y-66033608D01*
X182879539Y-66016554D01*
X182815892Y-65999500D01*
X182684108Y-65999500D01*
X182556812Y-66033608D01*
X182442686Y-66099500D01*
X182442683Y-66099502D01*
X182349502Y-66192683D01*
X182349500Y-66192686D01*
X182283608Y-66306812D01*
X182249500Y-66434108D01*
X182249500Y-66565891D01*
X182283608Y-66693187D01*
X182316554Y-66750250D01*
X182349500Y-66807314D01*
X182349502Y-66807316D01*
X182388181Y-66845995D01*
X182421666Y-66907318D01*
X182424500Y-66933676D01*
X182424500Y-67313811D01*
X182404815Y-67380850D01*
X182388181Y-67401492D01*
X179076492Y-70713181D01*
X179015169Y-70746666D01*
X178988811Y-70749500D01*
X178934108Y-70749500D01*
X178806812Y-70783608D01*
X178692686Y-70849500D01*
X178692683Y-70849502D01*
X178599502Y-70942683D01*
X178599500Y-70942686D01*
X178533608Y-71056812D01*
X178499500Y-71184108D01*
X177325500Y-71184108D01*
X177325500Y-67457149D01*
X177325500Y-67457147D01*
X177303318Y-67374362D01*
X177303318Y-67374361D01*
X177260465Y-67300138D01*
X173536819Y-63576492D01*
X173503334Y-63515169D01*
X173500500Y-63488811D01*
X173500500Y-63434110D01*
X173500500Y-63434108D01*
X173466392Y-63306814D01*
X173400500Y-63192686D01*
X173307314Y-63099500D01*
X173307312Y-63099499D01*
X173307310Y-63099497D01*
X173190206Y-63031887D01*
X173141990Y-62981320D01*
X173128768Y-62912713D01*
X173154736Y-62847848D01*
X173211650Y-62807320D01*
X173252206Y-62800500D01*
X174039560Y-62800500D01*
X174039562Y-62800500D01*
X174115989Y-62780021D01*
X174184511Y-62740460D01*
X174240460Y-62684511D01*
X176794724Y-60130247D01*
X183449500Y-60130247D01*
X183449500Y-61869752D01*
X183461131Y-61928229D01*
X183461132Y-61928230D01*
X183505447Y-61994552D01*
X183571769Y-62038867D01*
X183571770Y-62038868D01*
X183630247Y-62050499D01*
X183630250Y-62050500D01*
X183630252Y-62050500D01*
X185369750Y-62050500D01*
X185369751Y-62050499D01*
X185384568Y-62047552D01*
X185428229Y-62038868D01*
X185428229Y-62038867D01*
X185428231Y-62038867D01*
X185494552Y-61994552D01*
X185538867Y-61928231D01*
X185538867Y-61928229D01*
X185538868Y-61928229D01*
X185550499Y-61869752D01*
X185550500Y-61869750D01*
X185550500Y-60630247D01*
X191449500Y-60630247D01*
X191449500Y-62369752D01*
X191461131Y-62428229D01*
X191461132Y-62428230D01*
X191505447Y-62494552D01*
X191571769Y-62538867D01*
X191571770Y-62538868D01*
X191630247Y-62550499D01*
X191630250Y-62550500D01*
X191630252Y-62550500D01*
X193369750Y-62550500D01*
X193369751Y-62550499D01*
X193384568Y-62547552D01*
X193428229Y-62538868D01*
X193428229Y-62538867D01*
X193428231Y-62538867D01*
X193494552Y-62494552D01*
X193538867Y-62428231D01*
X193538867Y-62428229D01*
X193538868Y-62428229D01*
X193550499Y-62369752D01*
X193550500Y-62369750D01*
X193550500Y-60630249D01*
X193550499Y-60630247D01*
X193538868Y-60571770D01*
X193538867Y-60571769D01*
X193494552Y-60505447D01*
X193428230Y-60461132D01*
X193428229Y-60461131D01*
X193369752Y-60449500D01*
X193369748Y-60449500D01*
X191630252Y-60449500D01*
X191630247Y-60449500D01*
X191571770Y-60461131D01*
X191571769Y-60461132D01*
X191505447Y-60505447D01*
X191461132Y-60571769D01*
X191461131Y-60571770D01*
X191449500Y-60630247D01*
X185550500Y-60630247D01*
X185550500Y-60130249D01*
X185550499Y-60130247D01*
X185538868Y-60071770D01*
X185538867Y-60071769D01*
X185494552Y-60005447D01*
X185428230Y-59961132D01*
X185428229Y-59961131D01*
X185369752Y-59949500D01*
X185369748Y-59949500D01*
X183630252Y-59949500D01*
X183630247Y-59949500D01*
X183571770Y-59961131D01*
X183571769Y-59961132D01*
X183505447Y-60005447D01*
X183461132Y-60071769D01*
X183461131Y-60071770D01*
X183449500Y-60130247D01*
X176794724Y-60130247D01*
X180588152Y-56336819D01*
X180649475Y-56303334D01*
X180675833Y-56300500D01*
X183541324Y-56300500D01*
X183608363Y-56320185D01*
X183629005Y-56336819D01*
X183692686Y-56400500D01*
X183806814Y-56466392D01*
X183934108Y-56500500D01*
X183934110Y-56500500D01*
X184065890Y-56500500D01*
X184065892Y-56500500D01*
X184193186Y-56466392D01*
X184307314Y-56400500D01*
X184400500Y-56307314D01*
X184466392Y-56193186D01*
X184500500Y-56065892D01*
X184500500Y-55934108D01*
X184466392Y-55806814D01*
X184400500Y-55692686D01*
X184307314Y-55599500D01*
X184250250Y-55566554D01*
X184193187Y-55533608D01*
X184129539Y-55516554D01*
X184065892Y-55499500D01*
X183934108Y-55499500D01*
X183806812Y-55533608D01*
X183692686Y-55599500D01*
X183692683Y-55599502D01*
X183629005Y-55663181D01*
X183567682Y-55696666D01*
X183541324Y-55699500D01*
X180460438Y-55699500D01*
X180409486Y-55713152D01*
X180384010Y-55719979D01*
X180324934Y-55754087D01*
X180324933Y-55754086D01*
X180315492Y-55759537D01*
X180315487Y-55759541D01*
X173911848Y-62163181D01*
X173850525Y-62196666D01*
X173824167Y-62199500D01*
X170458676Y-62199500D01*
X170391637Y-62179815D01*
X170370995Y-62163181D01*
X170307316Y-62099502D01*
X170307314Y-62099500D01*
X170202297Y-62038868D01*
X170193187Y-62033608D01*
X170129539Y-62016554D01*
X170065892Y-61999500D01*
X169934108Y-61999500D01*
X169806812Y-62033608D01*
X169692686Y-62099500D01*
X169692683Y-62099502D01*
X169599502Y-62192683D01*
X169599500Y-62192686D01*
X169533608Y-62306812D01*
X169499500Y-62434108D01*
X162550500Y-62434108D01*
X162550500Y-61208676D01*
X162570185Y-61141637D01*
X162586819Y-61120995D01*
X162650500Y-61057314D01*
X162716392Y-60943186D01*
X162750500Y-60815892D01*
X162750500Y-60684108D01*
X162716392Y-60556814D01*
X162650500Y-60442686D01*
X162557314Y-60349500D01*
X162500250Y-60316554D01*
X162443187Y-60283608D01*
X162379539Y-60266554D01*
X162315892Y-60249500D01*
X162184108Y-60249500D01*
X162056812Y-60283608D01*
X161942686Y-60349500D01*
X161942683Y-60349502D01*
X161849502Y-60442683D01*
X161849500Y-60442686D01*
X161783608Y-60556812D01*
X161749500Y-60684108D01*
X134750500Y-60684108D01*
X134750500Y-56365186D01*
X137599500Y-56365186D01*
X137599500Y-56634813D01*
X137629686Y-56902719D01*
X137629688Y-56902731D01*
X137689684Y-57165594D01*
X137689687Y-57165602D01*
X137778734Y-57420082D01*
X137895714Y-57662994D01*
X137895716Y-57662997D01*
X138039162Y-57891289D01*
X138207266Y-58102085D01*
X138397915Y-58292734D01*
X138608711Y-58460838D01*
X138837003Y-58604284D01*
X139079921Y-58721267D01*
X139271049Y-58788145D01*
X139334397Y-58810312D01*
X139334405Y-58810315D01*
X139334408Y-58810315D01*
X139334409Y-58810316D01*
X139597268Y-58870312D01*
X139865187Y-58900499D01*
X139865188Y-58900500D01*
X139865191Y-58900500D01*
X140134812Y-58900500D01*
X140134812Y-58900499D01*
X140402732Y-58870312D01*
X140665591Y-58810316D01*
X140920079Y-58721267D01*
X141162997Y-58604284D01*
X141391289Y-58460838D01*
X141602085Y-58292734D01*
X141792734Y-58102085D01*
X141960838Y-57891289D01*
X142104284Y-57662997D01*
X142221267Y-57420079D01*
X142310316Y-57165591D01*
X142370312Y-56902732D01*
X142400500Y-56634809D01*
X142400500Y-56365191D01*
X142370312Y-56097268D01*
X142324495Y-55896530D01*
X156409500Y-55896530D01*
X156409500Y-56103469D01*
X156449868Y-56306412D01*
X156449870Y-56306420D01*
X156516132Y-56466391D01*
X156529059Y-56497598D01*
X156530998Y-56500500D01*
X156644024Y-56669657D01*
X156790342Y-56815975D01*
X156790345Y-56815977D01*
X156962402Y-56930941D01*
X157153580Y-57010130D01*
X157298052Y-57038867D01*
X157356530Y-57050499D01*
X157356534Y-57050500D01*
X157356535Y-57050500D01*
X157563466Y-57050500D01*
X157563467Y-57050499D01*
X157766420Y-57010130D01*
X157957598Y-56930941D01*
X158129655Y-56815977D01*
X158275977Y-56669655D01*
X158390941Y-56497598D01*
X158470130Y-56306420D01*
X158510500Y-56103465D01*
X158510500Y-55896535D01*
X158510499Y-55896530D01*
X158949500Y-55896530D01*
X158949500Y-56103469D01*
X158989868Y-56306412D01*
X158989870Y-56306420D01*
X159056132Y-56466391D01*
X159069059Y-56497598D01*
X159070998Y-56500500D01*
X159184024Y-56669657D01*
X159330342Y-56815975D01*
X159330345Y-56815977D01*
X159502402Y-56930941D01*
X159693580Y-57010130D01*
X159838052Y-57038867D01*
X159896530Y-57050499D01*
X159896534Y-57050500D01*
X159896535Y-57050500D01*
X160103466Y-57050500D01*
X160103467Y-57050499D01*
X160306420Y-57010130D01*
X160497598Y-56930941D01*
X160669655Y-56815977D01*
X160815977Y-56669655D01*
X160930941Y-56497598D01*
X161010130Y-56306420D01*
X161050500Y-56103465D01*
X161050500Y-55896535D01*
X161010130Y-55693580D01*
X160930941Y-55502402D01*
X160815977Y-55330345D01*
X160815975Y-55330342D01*
X160669657Y-55184024D01*
X160589173Y-55130247D01*
X161489500Y-55130247D01*
X161489500Y-56869752D01*
X161501131Y-56928229D01*
X161501132Y-56928230D01*
X161545447Y-56994552D01*
X161611769Y-57038867D01*
X161611770Y-57038868D01*
X161670247Y-57050499D01*
X161670250Y-57050500D01*
X161670252Y-57050500D01*
X163409750Y-57050500D01*
X163409751Y-57050499D01*
X163424568Y-57047552D01*
X163468229Y-57038868D01*
X163468229Y-57038867D01*
X163468231Y-57038867D01*
X163534552Y-56994552D01*
X163578867Y-56928231D01*
X163578867Y-56928229D01*
X163578868Y-56928229D01*
X163590499Y-56869752D01*
X163590500Y-56869750D01*
X163590500Y-55130249D01*
X163590499Y-55130247D01*
X163578868Y-55071770D01*
X163578867Y-55071769D01*
X163534552Y-55005447D01*
X163473740Y-54964814D01*
X163473739Y-54964813D01*
X163468231Y-54961132D01*
X163468229Y-54961131D01*
X163409752Y-54949500D01*
X163409748Y-54949500D01*
X161670252Y-54949500D01*
X161670247Y-54949500D01*
X161611770Y-54961131D01*
X161611769Y-54961132D01*
X161545447Y-55005447D01*
X161501132Y-55071769D01*
X161501131Y-55071770D01*
X161489500Y-55130247D01*
X160589173Y-55130247D01*
X160501655Y-55071770D01*
X160497598Y-55069059D01*
X160306420Y-54989870D01*
X160306412Y-54989868D01*
X160103469Y-54949500D01*
X160103465Y-54949500D01*
X159896535Y-54949500D01*
X159896530Y-54949500D01*
X159693587Y-54989868D01*
X159693579Y-54989870D01*
X159502403Y-55069058D01*
X159330342Y-55184024D01*
X159184024Y-55330342D01*
X159069058Y-55502403D01*
X158989870Y-55693579D01*
X158989868Y-55693587D01*
X158949500Y-55896530D01*
X158510499Y-55896530D01*
X158470130Y-55693580D01*
X158390941Y-55502402D01*
X158275977Y-55330345D01*
X158275975Y-55330342D01*
X158129657Y-55184024D01*
X157961655Y-55071770D01*
X157957598Y-55069059D01*
X157766420Y-54989870D01*
X157766412Y-54989868D01*
X157563469Y-54949500D01*
X157563465Y-54949500D01*
X157356535Y-54949500D01*
X157356530Y-54949500D01*
X157153587Y-54989868D01*
X157153579Y-54989870D01*
X156962403Y-55069058D01*
X156790342Y-55184024D01*
X156644024Y-55330342D01*
X156529058Y-55502403D01*
X156449870Y-55693579D01*
X156449868Y-55693587D01*
X156409500Y-55896530D01*
X142324495Y-55896530D01*
X142310316Y-55834409D01*
X142300659Y-55806812D01*
X142261038Y-55693580D01*
X142221267Y-55579921D01*
X142104284Y-55337003D01*
X141960838Y-55108711D01*
X141792734Y-54897915D01*
X141760005Y-54865186D01*
X191099500Y-54865186D01*
X191099500Y-55134813D01*
X191129686Y-55402719D01*
X191129688Y-55402731D01*
X191189684Y-55665594D01*
X191189687Y-55665602D01*
X191278734Y-55920082D01*
X191395714Y-56162994D01*
X191395716Y-56162997D01*
X191539162Y-56391289D01*
X191707266Y-56602085D01*
X191897915Y-56792734D01*
X192108711Y-56960838D01*
X192337003Y-57104284D01*
X192579921Y-57221267D01*
X192771049Y-57288145D01*
X192834397Y-57310312D01*
X192834405Y-57310315D01*
X192834408Y-57310315D01*
X192834409Y-57310316D01*
X193097268Y-57370312D01*
X193365187Y-57400499D01*
X193365188Y-57400500D01*
X193365191Y-57400500D01*
X193634812Y-57400500D01*
X193634812Y-57400499D01*
X193902732Y-57370312D01*
X194165591Y-57310316D01*
X194420079Y-57221267D01*
X194662997Y-57104284D01*
X194891289Y-56960838D01*
X195102085Y-56792734D01*
X195292734Y-56602085D01*
X195460838Y-56391289D01*
X195604284Y-56162997D01*
X195721267Y-55920079D01*
X195810316Y-55665591D01*
X195870312Y-55402732D01*
X195900500Y-55134809D01*
X195900500Y-54865191D01*
X195870312Y-54597268D01*
X195810316Y-54334409D01*
X195803866Y-54315977D01*
X195788145Y-54271049D01*
X195721267Y-54079921D01*
X195604284Y-53837003D01*
X195460838Y-53608711D01*
X195292734Y-53397915D01*
X195102085Y-53207266D01*
X194891289Y-53039162D01*
X194662997Y-52895716D01*
X194662994Y-52895714D01*
X194420082Y-52778734D01*
X194165602Y-52689687D01*
X194165594Y-52689684D01*
X193968446Y-52644687D01*
X193902732Y-52629688D01*
X193902728Y-52629687D01*
X193902719Y-52629686D01*
X193634813Y-52599500D01*
X193634809Y-52599500D01*
X193365191Y-52599500D01*
X193365186Y-52599500D01*
X193097280Y-52629686D01*
X193097268Y-52629688D01*
X192834405Y-52689684D01*
X192834397Y-52689687D01*
X192579917Y-52778734D01*
X192337005Y-52895714D01*
X192108712Y-53039161D01*
X191897915Y-53207265D01*
X191707265Y-53397915D01*
X191539161Y-53608712D01*
X191395714Y-53837005D01*
X191278734Y-54079917D01*
X191189687Y-54334397D01*
X191189684Y-54334405D01*
X191129688Y-54597268D01*
X191129686Y-54597280D01*
X191099500Y-54865186D01*
X141760005Y-54865186D01*
X141602085Y-54707266D01*
X141391289Y-54539162D01*
X141234755Y-54440805D01*
X141162994Y-54395714D01*
X140920082Y-54278734D01*
X140665602Y-54189687D01*
X140665594Y-54189684D01*
X140468446Y-54144687D01*
X140402732Y-54129688D01*
X140402728Y-54129687D01*
X140402719Y-54129686D01*
X140134813Y-54099500D01*
X140134809Y-54099500D01*
X139865191Y-54099500D01*
X139865186Y-54099500D01*
X139597280Y-54129686D01*
X139597268Y-54129688D01*
X139334405Y-54189684D01*
X139334397Y-54189687D01*
X139079917Y-54278734D01*
X138837005Y-54395714D01*
X138608712Y-54539161D01*
X138397915Y-54707265D01*
X138207265Y-54897915D01*
X138039161Y-55108712D01*
X137895714Y-55337005D01*
X137778734Y-55579917D01*
X137689687Y-55834397D01*
X137689684Y-55834405D01*
X137629688Y-56097268D01*
X137629686Y-56097280D01*
X137599500Y-56365186D01*
X134750500Y-56365186D01*
X134750500Y-53413428D01*
X180360000Y-53413428D01*
X180360000Y-53586571D01*
X180387085Y-53757584D01*
X180440591Y-53922257D01*
X180519195Y-54076523D01*
X180519196Y-54076525D01*
X180553463Y-54123691D01*
X180553464Y-54123691D01*
X180991980Y-53685176D01*
X180994075Y-53692993D01*
X181059901Y-53807007D01*
X181152993Y-53900099D01*
X181267007Y-53965925D01*
X181274822Y-53968019D01*
X180836307Y-54406534D01*
X180883478Y-54440805D01*
X181037742Y-54519408D01*
X181202415Y-54572914D01*
X181373429Y-54600000D01*
X181546571Y-54600000D01*
X181717584Y-54572914D01*
X181882257Y-54519408D01*
X182036525Y-54440803D01*
X182083691Y-54406534D01*
X182083692Y-54406533D01*
X181645178Y-53968019D01*
X181652993Y-53965925D01*
X181767007Y-53900099D01*
X181860099Y-53807007D01*
X181925925Y-53692993D01*
X181928019Y-53685177D01*
X182366533Y-54123692D01*
X182366534Y-54123691D01*
X182400803Y-54076525D01*
X182479408Y-53922257D01*
X182532914Y-53757584D01*
X182560000Y-53586571D01*
X182560000Y-53413430D01*
X182559431Y-53409837D01*
X182559431Y-53409835D01*
X182557324Y-53396530D01*
X182949500Y-53396530D01*
X182949500Y-53603469D01*
X182989868Y-53806412D01*
X182989870Y-53806420D01*
X183069058Y-53997596D01*
X183184024Y-54169657D01*
X183330342Y-54315975D01*
X183330345Y-54315977D01*
X183502402Y-54430941D01*
X183693580Y-54510130D01*
X183838052Y-54538867D01*
X183896530Y-54550499D01*
X183896534Y-54550500D01*
X183896535Y-54550500D01*
X184103466Y-54550500D01*
X184103467Y-54550499D01*
X184306420Y-54510130D01*
X184497598Y-54430941D01*
X184669655Y-54315977D01*
X184815977Y-54169655D01*
X184930941Y-53997598D01*
X185010130Y-53806420D01*
X185050500Y-53603465D01*
X185050500Y-53396535D01*
X185010130Y-53193580D01*
X184930941Y-53002402D01*
X184815977Y-52830345D01*
X184815975Y-52830342D01*
X184669657Y-52684024D01*
X184589173Y-52630247D01*
X185489500Y-52630247D01*
X185489500Y-54369752D01*
X185501131Y-54428229D01*
X185501132Y-54428230D01*
X185545447Y-54494552D01*
X185611769Y-54538867D01*
X185611770Y-54538868D01*
X185670247Y-54550499D01*
X185670250Y-54550500D01*
X185670252Y-54550500D01*
X187409750Y-54550500D01*
X187409751Y-54550499D01*
X187424568Y-54547552D01*
X187468229Y-54538868D01*
X187468229Y-54538867D01*
X187468231Y-54538867D01*
X187534552Y-54494552D01*
X187578867Y-54428231D01*
X187578867Y-54428229D01*
X187578868Y-54428229D01*
X187590499Y-54369752D01*
X187590500Y-54369750D01*
X187590500Y-52630249D01*
X187590499Y-52630247D01*
X187578868Y-52571770D01*
X187578867Y-52571769D01*
X187534552Y-52505447D01*
X187468230Y-52461132D01*
X187468229Y-52461131D01*
X187409752Y-52449500D01*
X187409748Y-52449500D01*
X185670252Y-52449500D01*
X185670247Y-52449500D01*
X185611770Y-52461131D01*
X185611769Y-52461132D01*
X185545447Y-52505447D01*
X185501132Y-52571769D01*
X185501131Y-52571770D01*
X185489500Y-52630247D01*
X184589173Y-52630247D01*
X184501655Y-52571770D01*
X184497598Y-52569059D01*
X184473784Y-52559195D01*
X184306420Y-52489870D01*
X184306412Y-52489868D01*
X184103469Y-52449500D01*
X184103465Y-52449500D01*
X183896535Y-52449500D01*
X183896530Y-52449500D01*
X183693587Y-52489868D01*
X183693579Y-52489870D01*
X183502403Y-52569058D01*
X183330342Y-52684024D01*
X183184024Y-52830342D01*
X183069058Y-53002403D01*
X182989870Y-53193579D01*
X182989868Y-53193587D01*
X182949500Y-53396530D01*
X182557324Y-53396530D01*
X182532914Y-53242415D01*
X182479408Y-53077742D01*
X182400805Y-52923478D01*
X182366534Y-52876307D01*
X181928019Y-53314822D01*
X181925925Y-53307007D01*
X181860099Y-53192993D01*
X181767007Y-53099901D01*
X181652993Y-53034075D01*
X181645176Y-53031980D01*
X182083691Y-52593464D01*
X182083691Y-52593463D01*
X182036525Y-52559196D01*
X182036523Y-52559195D01*
X181882257Y-52480591D01*
X181717584Y-52427085D01*
X181546571Y-52400000D01*
X181373429Y-52400000D01*
X181202415Y-52427085D01*
X181037740Y-52480592D01*
X180883475Y-52559196D01*
X180836307Y-52593463D01*
X180836307Y-52593464D01*
X181274823Y-53031980D01*
X181267007Y-53034075D01*
X181152993Y-53099901D01*
X181059901Y-53192993D01*
X180994075Y-53307007D01*
X180991980Y-53314823D01*
X180553464Y-52876307D01*
X180553463Y-52876307D01*
X180519196Y-52923475D01*
X180440592Y-53077740D01*
X180387085Y-53242415D01*
X180360000Y-53413428D01*
X134750500Y-53413428D01*
X134750500Y-51124500D01*
X134770185Y-51057461D01*
X134822989Y-51011706D01*
X134874500Y-51000500D01*
X198375500Y-51000500D01*
X198442539Y-51020185D01*
G37*
G04 #@! TD.AperFunction*
M02*
