M48
; DRILL file {KiCad 9.0.7} date 2026-06-14T13:12:17+0200
; FORMAT={-:-/ absolute / metric / decimal}
; #@! TF.CreationDate,2026-06-14T13:12:17+02:00
; #@! TF.GenerationSoftware,Kicad,Pcbnew,9.0.7
; #@! TF.FileFunction,MixedPlating,1,2
FMAT,2
METRIC
; #@! TA.AperFunction,Plated,PTH,ViaDrill
T1C0.300
; #@! TA.AperFunction,Plated,PTH,ComponentDrill
T2C0.700
; #@! TA.AperFunction,Plated,PTH,ComponentDrill
T3C1.000
; #@! TA.AperFunction,Plated,PTH,ComponentDrill
T4C1.300
; #@! TA.AperFunction,NonPlated,NPTH,ComponentDrill
T5C4.300
%
G90
G05
T1
X151.0Y-63.75
X152.25Y-62.25
X152.25Y-65.25
X156.5Y-88.0
X157.5Y-90.75
X161.0Y-82.0
X161.0Y-84.5
X162.0Y-87.25
X162.0Y-89.0
X162.25Y-60.75
X162.25Y-83.25
X162.75Y-87.25
X162.75Y-89.0
X165.25Y-92.25
X166.0Y-94.75
X166.5Y-91.75
X169.5Y-66.5
X169.5Y-68.5
X169.5Y-70.25
X170.0Y-62.5
X171.0Y-66.5
X171.0Y-68.5
X171.0Y-70.25
X172.25Y-75.75
X173.0Y-63.5
X173.0Y-73.25
X173.0Y-88.25
X173.5Y-75.75
X174.75Y-72.5
X176.959Y-72.831
X177.0Y-61.0
X177.25Y-62.5
X178.25Y-72.25
X179.0Y-71.25
X180.25Y-93.5
X182.75Y-66.5
X184.0Y-56.0
X191.0Y-99.25
X191.75Y-68.0
X195.5Y-87.0
T2
X158.46Y-93.5
X163.54Y-93.5
T3
X141.25Y-75.75
X148.46Y-85.0
X151.0Y-85.0
X153.54Y-85.0
X157.46Y-56.0
X158.5Y-77.75
X158.96Y-97.25
X160.0Y-56.0
X161.5Y-97.25
X162.54Y-56.0
X164.04Y-97.25
X181.46Y-53.5
X182.75Y-93.25
X184.0Y-53.5
X184.5Y-61.0
X185.25Y-80.25
X186.54Y-53.5
X192.5Y-61.5
T4
X139.5Y-83.0
X139.5Y-88.0
X139.75Y-65.0
X139.75Y-70.0
X192.922Y-78.75
X192.922Y-83.75
X193.0Y-90.25
X193.0Y-95.25
T5
X140.0Y-56.5
X140.0Y-95.75
X193.5Y-55.0
T3
G00X151.3Y-89.75
M15
G01X148.8Y-89.75
M16
G05
G00X151.05Y-95.75
M15
G01X149.05Y-95.75
M16
G05
G00X154.75Y-91.75
M15
G01X154.75Y-93.75
M16
G05
M30
