G04 #@! TF.GenerationSoftware,KiCad,Pcbnew,9.0.7*
G04 #@! TF.CreationDate,2026-06-14T13:12:15+02:00*
G04 #@! TF.ProjectId,Battery_and_DCDC,42617474-6572-4795-9f61-6e645f444344,rev?*
G04 #@! TF.SameCoordinates,Original*
G04 #@! TF.FileFunction,Legend,Top*
G04 #@! TF.FilePolarity,Positive*
%FSLAX46Y46*%
G04 Gerber Fmt 4.6, Leading zero omitted, Abs format (unit mm)*
G04 Created by KiCad (PCBNEW 9.0.7) date 2026-06-14 13:12:15*
%MOMM*%
%LPD*%
G01*
G04 APERTURE LIST*
%ADD10C,0.150000*%
%ADD11C,0.078740*%
%ADD12C,0.120000*%
%ADD13C,0.200000*%
%ADD14C,0.400000*%
%ADD15C,0.127000*%
%ADD16C,0.152400*%
G04 APERTURE END LIST*
D10*
X194833333Y-63704819D02*
X194500000Y-63228628D01*
X194261905Y-63704819D02*
X194261905Y-62704819D01*
X194261905Y-62704819D02*
X194642857Y-62704819D01*
X194642857Y-62704819D02*
X194738095Y-62752438D01*
X194738095Y-62752438D02*
X194785714Y-62800057D01*
X194785714Y-62800057D02*
X194833333Y-62895295D01*
X194833333Y-62895295D02*
X194833333Y-63038152D01*
X194833333Y-63038152D02*
X194785714Y-63133390D01*
X194785714Y-63133390D02*
X194738095Y-63181009D01*
X194738095Y-63181009D02*
X194642857Y-63228628D01*
X194642857Y-63228628D02*
X194261905Y-63228628D01*
X195166667Y-62704819D02*
X195785714Y-62704819D01*
X195785714Y-62704819D02*
X195452381Y-63085771D01*
X195452381Y-63085771D02*
X195595238Y-63085771D01*
X195595238Y-63085771D02*
X195690476Y-63133390D01*
X195690476Y-63133390D02*
X195738095Y-63181009D01*
X195738095Y-63181009D02*
X195785714Y-63276247D01*
X195785714Y-63276247D02*
X195785714Y-63514342D01*
X195785714Y-63514342D02*
X195738095Y-63609580D01*
X195738095Y-63609580D02*
X195690476Y-63657200D01*
X195690476Y-63657200D02*
X195595238Y-63704819D01*
X195595238Y-63704819D02*
X195309524Y-63704819D01*
X195309524Y-63704819D02*
X195214286Y-63657200D01*
X195214286Y-63657200D02*
X195166667Y-63609580D01*
X174509580Y-63666666D02*
X174557200Y-63714285D01*
X174557200Y-63714285D02*
X174604819Y-63857142D01*
X174604819Y-63857142D02*
X174604819Y-63952380D01*
X174604819Y-63952380D02*
X174557200Y-64095237D01*
X174557200Y-64095237D02*
X174461961Y-64190475D01*
X174461961Y-64190475D02*
X174366723Y-64238094D01*
X174366723Y-64238094D02*
X174176247Y-64285713D01*
X174176247Y-64285713D02*
X174033390Y-64285713D01*
X174033390Y-64285713D02*
X173842914Y-64238094D01*
X173842914Y-64238094D02*
X173747676Y-64190475D01*
X173747676Y-64190475D02*
X173652438Y-64095237D01*
X173652438Y-64095237D02*
X173604819Y-63952380D01*
X173604819Y-63952380D02*
X173604819Y-63857142D01*
X173604819Y-63857142D02*
X173652438Y-63714285D01*
X173652438Y-63714285D02*
X173700057Y-63666666D01*
X174033390Y-63095237D02*
X173985771Y-63190475D01*
X173985771Y-63190475D02*
X173938152Y-63238094D01*
X173938152Y-63238094D02*
X173842914Y-63285713D01*
X173842914Y-63285713D02*
X173795295Y-63285713D01*
X173795295Y-63285713D02*
X173700057Y-63238094D01*
X173700057Y-63238094D02*
X173652438Y-63190475D01*
X173652438Y-63190475D02*
X173604819Y-63095237D01*
X173604819Y-63095237D02*
X173604819Y-62904761D01*
X173604819Y-62904761D02*
X173652438Y-62809523D01*
X173652438Y-62809523D02*
X173700057Y-62761904D01*
X173700057Y-62761904D02*
X173795295Y-62714285D01*
X173795295Y-62714285D02*
X173842914Y-62714285D01*
X173842914Y-62714285D02*
X173938152Y-62761904D01*
X173938152Y-62761904D02*
X173985771Y-62809523D01*
X173985771Y-62809523D02*
X174033390Y-62904761D01*
X174033390Y-62904761D02*
X174033390Y-63095237D01*
X174033390Y-63095237D02*
X174081009Y-63190475D01*
X174081009Y-63190475D02*
X174128628Y-63238094D01*
X174128628Y-63238094D02*
X174223866Y-63285713D01*
X174223866Y-63285713D02*
X174414342Y-63285713D01*
X174414342Y-63285713D02*
X174509580Y-63238094D01*
X174509580Y-63238094D02*
X174557200Y-63190475D01*
X174557200Y-63190475D02*
X174604819Y-63095237D01*
X174604819Y-63095237D02*
X174604819Y-62904761D01*
X174604819Y-62904761D02*
X174557200Y-62809523D01*
X174557200Y-62809523D02*
X174509580Y-62761904D01*
X174509580Y-62761904D02*
X174414342Y-62714285D01*
X174414342Y-62714285D02*
X174223866Y-62714285D01*
X174223866Y-62714285D02*
X174128628Y-62761904D01*
X174128628Y-62761904D02*
X174081009Y-62809523D01*
X174081009Y-62809523D02*
X174033390Y-62904761D01*
X180333333Y-76784819D02*
X180000000Y-76308628D01*
X179761905Y-76784819D02*
X179761905Y-75784819D01*
X179761905Y-75784819D02*
X180142857Y-75784819D01*
X180142857Y-75784819D02*
X180238095Y-75832438D01*
X180238095Y-75832438D02*
X180285714Y-75880057D01*
X180285714Y-75880057D02*
X180333333Y-75975295D01*
X180333333Y-75975295D02*
X180333333Y-76118152D01*
X180333333Y-76118152D02*
X180285714Y-76213390D01*
X180285714Y-76213390D02*
X180238095Y-76261009D01*
X180238095Y-76261009D02*
X180142857Y-76308628D01*
X180142857Y-76308628D02*
X179761905Y-76308628D01*
X180809524Y-76784819D02*
X181000000Y-76784819D01*
X181000000Y-76784819D02*
X181095238Y-76737200D01*
X181095238Y-76737200D02*
X181142857Y-76689580D01*
X181142857Y-76689580D02*
X181238095Y-76546723D01*
X181238095Y-76546723D02*
X181285714Y-76356247D01*
X181285714Y-76356247D02*
X181285714Y-75975295D01*
X181285714Y-75975295D02*
X181238095Y-75880057D01*
X181238095Y-75880057D02*
X181190476Y-75832438D01*
X181190476Y-75832438D02*
X181095238Y-75784819D01*
X181095238Y-75784819D02*
X180904762Y-75784819D01*
X180904762Y-75784819D02*
X180809524Y-75832438D01*
X180809524Y-75832438D02*
X180761905Y-75880057D01*
X180761905Y-75880057D02*
X180714286Y-75975295D01*
X180714286Y-75975295D02*
X180714286Y-76213390D01*
X180714286Y-76213390D02*
X180761905Y-76308628D01*
X180761905Y-76308628D02*
X180809524Y-76356247D01*
X180809524Y-76356247D02*
X180904762Y-76403866D01*
X180904762Y-76403866D02*
X181095238Y-76403866D01*
X181095238Y-76403866D02*
X181190476Y-76356247D01*
X181190476Y-76356247D02*
X181238095Y-76308628D01*
X181238095Y-76308628D02*
X181285714Y-76213390D01*
X182083333Y-88954819D02*
X181607143Y-88954819D01*
X181607143Y-88954819D02*
X181607143Y-87954819D01*
X182940476Y-88954819D02*
X182369048Y-88954819D01*
X182654762Y-88954819D02*
X182654762Y-87954819D01*
X182654762Y-87954819D02*
X182559524Y-88097676D01*
X182559524Y-88097676D02*
X182464286Y-88192914D01*
X182464286Y-88192914D02*
X182369048Y-88240533D01*
X195744166Y-98454819D02*
X195744166Y-99169104D01*
X195744166Y-99169104D02*
X195696547Y-99311961D01*
X195696547Y-99311961D02*
X195601309Y-99407200D01*
X195601309Y-99407200D02*
X195458452Y-99454819D01*
X195458452Y-99454819D02*
X195363214Y-99454819D01*
X196744166Y-99454819D02*
X196172738Y-99454819D01*
X196458452Y-99454819D02*
X196458452Y-98454819D01*
X196458452Y-98454819D02*
X196363214Y-98597676D01*
X196363214Y-98597676D02*
X196267976Y-98692914D01*
X196267976Y-98692914D02*
X196172738Y-98740533D01*
X171333333Y-61339819D02*
X170857143Y-61339819D01*
X170857143Y-61339819D02*
X170857143Y-60339819D01*
X171619048Y-60435057D02*
X171666667Y-60387438D01*
X171666667Y-60387438D02*
X171761905Y-60339819D01*
X171761905Y-60339819D02*
X172000000Y-60339819D01*
X172000000Y-60339819D02*
X172095238Y-60387438D01*
X172095238Y-60387438D02*
X172142857Y-60435057D01*
X172142857Y-60435057D02*
X172190476Y-60530295D01*
X172190476Y-60530295D02*
X172190476Y-60625533D01*
X172190476Y-60625533D02*
X172142857Y-60768390D01*
X172142857Y-60768390D02*
X171571429Y-61339819D01*
X171571429Y-61339819D02*
X172190476Y-61339819D01*
X184954819Y-73642857D02*
X184478628Y-73976190D01*
X184954819Y-74214285D02*
X183954819Y-74214285D01*
X183954819Y-74214285D02*
X183954819Y-73833333D01*
X183954819Y-73833333D02*
X184002438Y-73738095D01*
X184002438Y-73738095D02*
X184050057Y-73690476D01*
X184050057Y-73690476D02*
X184145295Y-73642857D01*
X184145295Y-73642857D02*
X184288152Y-73642857D01*
X184288152Y-73642857D02*
X184383390Y-73690476D01*
X184383390Y-73690476D02*
X184431009Y-73738095D01*
X184431009Y-73738095D02*
X184478628Y-73833333D01*
X184478628Y-73833333D02*
X184478628Y-74214285D01*
X184954819Y-72690476D02*
X184954819Y-73261904D01*
X184954819Y-72976190D02*
X183954819Y-72976190D01*
X183954819Y-72976190D02*
X184097676Y-73071428D01*
X184097676Y-73071428D02*
X184192914Y-73166666D01*
X184192914Y-73166666D02*
X184240533Y-73261904D01*
X183954819Y-72071428D02*
X183954819Y-71976190D01*
X183954819Y-71976190D02*
X184002438Y-71880952D01*
X184002438Y-71880952D02*
X184050057Y-71833333D01*
X184050057Y-71833333D02*
X184145295Y-71785714D01*
X184145295Y-71785714D02*
X184335771Y-71738095D01*
X184335771Y-71738095D02*
X184573866Y-71738095D01*
X184573866Y-71738095D02*
X184764342Y-71785714D01*
X184764342Y-71785714D02*
X184859580Y-71833333D01*
X184859580Y-71833333D02*
X184907200Y-71880952D01*
X184907200Y-71880952D02*
X184954819Y-71976190D01*
X184954819Y-71976190D02*
X184954819Y-72071428D01*
X184954819Y-72071428D02*
X184907200Y-72166666D01*
X184907200Y-72166666D02*
X184859580Y-72214285D01*
X184859580Y-72214285D02*
X184764342Y-72261904D01*
X184764342Y-72261904D02*
X184573866Y-72309523D01*
X184573866Y-72309523D02*
X184335771Y-72309523D01*
X184335771Y-72309523D02*
X184145295Y-72261904D01*
X184145295Y-72261904D02*
X184050057Y-72214285D01*
X184050057Y-72214285D02*
X184002438Y-72166666D01*
X184002438Y-72166666D02*
X183954819Y-72071428D01*
X167333333Y-92009580D02*
X167285714Y-92057200D01*
X167285714Y-92057200D02*
X167142857Y-92104819D01*
X167142857Y-92104819D02*
X167047619Y-92104819D01*
X167047619Y-92104819D02*
X166904762Y-92057200D01*
X166904762Y-92057200D02*
X166809524Y-91961961D01*
X166809524Y-91961961D02*
X166761905Y-91866723D01*
X166761905Y-91866723D02*
X166714286Y-91676247D01*
X166714286Y-91676247D02*
X166714286Y-91533390D01*
X166714286Y-91533390D02*
X166761905Y-91342914D01*
X166761905Y-91342914D02*
X166809524Y-91247676D01*
X166809524Y-91247676D02*
X166904762Y-91152438D01*
X166904762Y-91152438D02*
X167047619Y-91104819D01*
X167047619Y-91104819D02*
X167142857Y-91104819D01*
X167142857Y-91104819D02*
X167285714Y-91152438D01*
X167285714Y-91152438D02*
X167333333Y-91200057D01*
X167714286Y-91200057D02*
X167761905Y-91152438D01*
X167761905Y-91152438D02*
X167857143Y-91104819D01*
X167857143Y-91104819D02*
X168095238Y-91104819D01*
X168095238Y-91104819D02*
X168190476Y-91152438D01*
X168190476Y-91152438D02*
X168238095Y-91200057D01*
X168238095Y-91200057D02*
X168285714Y-91295295D01*
X168285714Y-91295295D02*
X168285714Y-91390533D01*
X168285714Y-91390533D02*
X168238095Y-91533390D01*
X168238095Y-91533390D02*
X167666667Y-92104819D01*
X167666667Y-92104819D02*
X168285714Y-92104819D01*
X172859580Y-86666666D02*
X172907200Y-86714285D01*
X172907200Y-86714285D02*
X172954819Y-86857142D01*
X172954819Y-86857142D02*
X172954819Y-86952380D01*
X172954819Y-86952380D02*
X172907200Y-87095237D01*
X172907200Y-87095237D02*
X172811961Y-87190475D01*
X172811961Y-87190475D02*
X172716723Y-87238094D01*
X172716723Y-87238094D02*
X172526247Y-87285713D01*
X172526247Y-87285713D02*
X172383390Y-87285713D01*
X172383390Y-87285713D02*
X172192914Y-87238094D01*
X172192914Y-87238094D02*
X172097676Y-87190475D01*
X172097676Y-87190475D02*
X172002438Y-87095237D01*
X172002438Y-87095237D02*
X171954819Y-86952380D01*
X171954819Y-86952380D02*
X171954819Y-86857142D01*
X171954819Y-86857142D02*
X172002438Y-86714285D01*
X172002438Y-86714285D02*
X172050057Y-86666666D01*
X172954819Y-85714285D02*
X172954819Y-86285713D01*
X172954819Y-85999999D02*
X171954819Y-85999999D01*
X171954819Y-85999999D02*
X172097676Y-86095237D01*
X172097676Y-86095237D02*
X172192914Y-86190475D01*
X172192914Y-86190475D02*
X172240533Y-86285713D01*
X184916666Y-77324819D02*
X184916666Y-78039104D01*
X184916666Y-78039104D02*
X184869047Y-78181961D01*
X184869047Y-78181961D02*
X184773809Y-78277200D01*
X184773809Y-78277200D02*
X184630952Y-78324819D01*
X184630952Y-78324819D02*
X184535714Y-78324819D01*
X185297619Y-77324819D02*
X185916666Y-77324819D01*
X185916666Y-77324819D02*
X185583333Y-77705771D01*
X185583333Y-77705771D02*
X185726190Y-77705771D01*
X185726190Y-77705771D02*
X185821428Y-77753390D01*
X185821428Y-77753390D02*
X185869047Y-77801009D01*
X185869047Y-77801009D02*
X185916666Y-77896247D01*
X185916666Y-77896247D02*
X185916666Y-78134342D01*
X185916666Y-78134342D02*
X185869047Y-78229580D01*
X185869047Y-78229580D02*
X185821428Y-78277200D01*
X185821428Y-78277200D02*
X185726190Y-78324819D01*
X185726190Y-78324819D02*
X185440476Y-78324819D01*
X185440476Y-78324819D02*
X185345238Y-78277200D01*
X185345238Y-78277200D02*
X185297619Y-78229580D01*
X160833333Y-68454819D02*
X160500000Y-67978628D01*
X160261905Y-68454819D02*
X160261905Y-67454819D01*
X160261905Y-67454819D02*
X160642857Y-67454819D01*
X160642857Y-67454819D02*
X160738095Y-67502438D01*
X160738095Y-67502438D02*
X160785714Y-67550057D01*
X160785714Y-67550057D02*
X160833333Y-67645295D01*
X160833333Y-67645295D02*
X160833333Y-67788152D01*
X160833333Y-67788152D02*
X160785714Y-67883390D01*
X160785714Y-67883390D02*
X160738095Y-67931009D01*
X160738095Y-67931009D02*
X160642857Y-67978628D01*
X160642857Y-67978628D02*
X160261905Y-67978628D01*
X161166667Y-67454819D02*
X161833333Y-67454819D01*
X161833333Y-67454819D02*
X161404762Y-68454819D01*
X150261905Y-77204819D02*
X150261905Y-76204819D01*
X150261905Y-76204819D02*
X150500000Y-76204819D01*
X150500000Y-76204819D02*
X150642857Y-76252438D01*
X150642857Y-76252438D02*
X150738095Y-76347676D01*
X150738095Y-76347676D02*
X150785714Y-76442914D01*
X150785714Y-76442914D02*
X150833333Y-76633390D01*
X150833333Y-76633390D02*
X150833333Y-76776247D01*
X150833333Y-76776247D02*
X150785714Y-76966723D01*
X150785714Y-76966723D02*
X150738095Y-77061961D01*
X150738095Y-77061961D02*
X150642857Y-77157200D01*
X150642857Y-77157200D02*
X150500000Y-77204819D01*
X150500000Y-77204819D02*
X150261905Y-77204819D01*
X151785714Y-77204819D02*
X151214286Y-77204819D01*
X151500000Y-77204819D02*
X151500000Y-76204819D01*
X151500000Y-76204819D02*
X151404762Y-76347676D01*
X151404762Y-76347676D02*
X151309524Y-76442914D01*
X151309524Y-76442914D02*
X151214286Y-76490533D01*
X168285714Y-64394819D02*
X168285714Y-63394819D01*
X168285714Y-63394819D02*
X168666666Y-63394819D01*
X168666666Y-63394819D02*
X168761904Y-63442438D01*
X168761904Y-63442438D02*
X168809523Y-63490057D01*
X168809523Y-63490057D02*
X168857142Y-63585295D01*
X168857142Y-63585295D02*
X168857142Y-63728152D01*
X168857142Y-63728152D02*
X168809523Y-63823390D01*
X168809523Y-63823390D02*
X168761904Y-63871009D01*
X168761904Y-63871009D02*
X168666666Y-63918628D01*
X168666666Y-63918628D02*
X168285714Y-63918628D01*
X169238095Y-64347200D02*
X169380952Y-64394819D01*
X169380952Y-64394819D02*
X169619047Y-64394819D01*
X169619047Y-64394819D02*
X169714285Y-64347200D01*
X169714285Y-64347200D02*
X169761904Y-64299580D01*
X169761904Y-64299580D02*
X169809523Y-64204342D01*
X169809523Y-64204342D02*
X169809523Y-64109104D01*
X169809523Y-64109104D02*
X169761904Y-64013866D01*
X169761904Y-64013866D02*
X169714285Y-63966247D01*
X169714285Y-63966247D02*
X169619047Y-63918628D01*
X169619047Y-63918628D02*
X169428571Y-63871009D01*
X169428571Y-63871009D02*
X169333333Y-63823390D01*
X169333333Y-63823390D02*
X169285714Y-63775771D01*
X169285714Y-63775771D02*
X169238095Y-63680533D01*
X169238095Y-63680533D02*
X169238095Y-63585295D01*
X169238095Y-63585295D02*
X169285714Y-63490057D01*
X169285714Y-63490057D02*
X169333333Y-63442438D01*
X169333333Y-63442438D02*
X169428571Y-63394819D01*
X169428571Y-63394819D02*
X169666666Y-63394819D01*
X169666666Y-63394819D02*
X169809523Y-63442438D01*
X170761904Y-64394819D02*
X170190476Y-64394819D01*
X170476190Y-64394819D02*
X170476190Y-63394819D01*
X170476190Y-63394819D02*
X170380952Y-63537676D01*
X170380952Y-63537676D02*
X170285714Y-63632914D01*
X170285714Y-63632914D02*
X170190476Y-63680533D01*
X165874819Y-97583333D02*
X166589104Y-97583333D01*
X166589104Y-97583333D02*
X166731961Y-97630952D01*
X166731961Y-97630952D02*
X166827200Y-97726190D01*
X166827200Y-97726190D02*
X166874819Y-97869047D01*
X166874819Y-97869047D02*
X166874819Y-97964285D01*
X166303390Y-96964285D02*
X166255771Y-97059523D01*
X166255771Y-97059523D02*
X166208152Y-97107142D01*
X166208152Y-97107142D02*
X166112914Y-97154761D01*
X166112914Y-97154761D02*
X166065295Y-97154761D01*
X166065295Y-97154761D02*
X165970057Y-97107142D01*
X165970057Y-97107142D02*
X165922438Y-97059523D01*
X165922438Y-97059523D02*
X165874819Y-96964285D01*
X165874819Y-96964285D02*
X165874819Y-96773809D01*
X165874819Y-96773809D02*
X165922438Y-96678571D01*
X165922438Y-96678571D02*
X165970057Y-96630952D01*
X165970057Y-96630952D02*
X166065295Y-96583333D01*
X166065295Y-96583333D02*
X166112914Y-96583333D01*
X166112914Y-96583333D02*
X166208152Y-96630952D01*
X166208152Y-96630952D02*
X166255771Y-96678571D01*
X166255771Y-96678571D02*
X166303390Y-96773809D01*
X166303390Y-96773809D02*
X166303390Y-96964285D01*
X166303390Y-96964285D02*
X166351009Y-97059523D01*
X166351009Y-97059523D02*
X166398628Y-97107142D01*
X166398628Y-97107142D02*
X166493866Y-97154761D01*
X166493866Y-97154761D02*
X166684342Y-97154761D01*
X166684342Y-97154761D02*
X166779580Y-97107142D01*
X166779580Y-97107142D02*
X166827200Y-97059523D01*
X166827200Y-97059523D02*
X166874819Y-96964285D01*
X166874819Y-96964285D02*
X166874819Y-96773809D01*
X166874819Y-96773809D02*
X166827200Y-96678571D01*
X166827200Y-96678571D02*
X166779580Y-96630952D01*
X166779580Y-96630952D02*
X166684342Y-96583333D01*
X166684342Y-96583333D02*
X166493866Y-96583333D01*
X166493866Y-96583333D02*
X166398628Y-96630952D01*
X166398628Y-96630952D02*
X166351009Y-96678571D01*
X166351009Y-96678571D02*
X166303390Y-96773809D01*
X156166666Y-79454819D02*
X156166666Y-80169104D01*
X156166666Y-80169104D02*
X156119047Y-80311961D01*
X156119047Y-80311961D02*
X156023809Y-80407200D01*
X156023809Y-80407200D02*
X155880952Y-80454819D01*
X155880952Y-80454819D02*
X155785714Y-80454819D01*
X157071428Y-79788152D02*
X157071428Y-80454819D01*
X156833333Y-79407200D02*
X156595238Y-80121485D01*
X156595238Y-80121485D02*
X157214285Y-80121485D01*
X145738095Y-53056819D02*
X146309523Y-53056819D01*
X146023809Y-54056819D02*
X146023809Y-53056819D01*
X146642857Y-54056819D02*
X146642857Y-53056819D01*
X146642857Y-53056819D02*
X147023809Y-53056819D01*
X147023809Y-53056819D02*
X147119047Y-53104438D01*
X147119047Y-53104438D02*
X147166666Y-53152057D01*
X147166666Y-53152057D02*
X147214285Y-53247295D01*
X147214285Y-53247295D02*
X147214285Y-53390152D01*
X147214285Y-53390152D02*
X147166666Y-53485390D01*
X147166666Y-53485390D02*
X147119047Y-53533009D01*
X147119047Y-53533009D02*
X147023809Y-53580628D01*
X147023809Y-53580628D02*
X146642857Y-53580628D01*
X147595238Y-53152057D02*
X147642857Y-53104438D01*
X147642857Y-53104438D02*
X147738095Y-53056819D01*
X147738095Y-53056819D02*
X147976190Y-53056819D01*
X147976190Y-53056819D02*
X148071428Y-53104438D01*
X148071428Y-53104438D02*
X148119047Y-53152057D01*
X148119047Y-53152057D02*
X148166666Y-53247295D01*
X148166666Y-53247295D02*
X148166666Y-53342533D01*
X148166666Y-53342533D02*
X148119047Y-53485390D01*
X148119047Y-53485390D02*
X147547619Y-54056819D01*
X147547619Y-54056819D02*
X148166666Y-54056819D01*
X155583333Y-69859580D02*
X155535714Y-69907200D01*
X155535714Y-69907200D02*
X155392857Y-69954819D01*
X155392857Y-69954819D02*
X155297619Y-69954819D01*
X155297619Y-69954819D02*
X155154762Y-69907200D01*
X155154762Y-69907200D02*
X155059524Y-69811961D01*
X155059524Y-69811961D02*
X155011905Y-69716723D01*
X155011905Y-69716723D02*
X154964286Y-69526247D01*
X154964286Y-69526247D02*
X154964286Y-69383390D01*
X154964286Y-69383390D02*
X155011905Y-69192914D01*
X155011905Y-69192914D02*
X155059524Y-69097676D01*
X155059524Y-69097676D02*
X155154762Y-69002438D01*
X155154762Y-69002438D02*
X155297619Y-68954819D01*
X155297619Y-68954819D02*
X155392857Y-68954819D01*
X155392857Y-68954819D02*
X155535714Y-69002438D01*
X155535714Y-69002438D02*
X155583333Y-69050057D01*
X156059524Y-69954819D02*
X156250000Y-69954819D01*
X156250000Y-69954819D02*
X156345238Y-69907200D01*
X156345238Y-69907200D02*
X156392857Y-69859580D01*
X156392857Y-69859580D02*
X156488095Y-69716723D01*
X156488095Y-69716723D02*
X156535714Y-69526247D01*
X156535714Y-69526247D02*
X156535714Y-69145295D01*
X156535714Y-69145295D02*
X156488095Y-69050057D01*
X156488095Y-69050057D02*
X156440476Y-69002438D01*
X156440476Y-69002438D02*
X156345238Y-68954819D01*
X156345238Y-68954819D02*
X156154762Y-68954819D01*
X156154762Y-68954819D02*
X156059524Y-69002438D01*
X156059524Y-69002438D02*
X156011905Y-69050057D01*
X156011905Y-69050057D02*
X155964286Y-69145295D01*
X155964286Y-69145295D02*
X155964286Y-69383390D01*
X155964286Y-69383390D02*
X156011905Y-69478628D01*
X156011905Y-69478628D02*
X156059524Y-69526247D01*
X156059524Y-69526247D02*
X156154762Y-69573866D01*
X156154762Y-69573866D02*
X156345238Y-69573866D01*
X156345238Y-69573866D02*
X156440476Y-69526247D01*
X156440476Y-69526247D02*
X156488095Y-69478628D01*
X156488095Y-69478628D02*
X156535714Y-69383390D01*
X159333333Y-82109580D02*
X159285714Y-82157200D01*
X159285714Y-82157200D02*
X159142857Y-82204819D01*
X159142857Y-82204819D02*
X159047619Y-82204819D01*
X159047619Y-82204819D02*
X158904762Y-82157200D01*
X158904762Y-82157200D02*
X158809524Y-82061961D01*
X158809524Y-82061961D02*
X158761905Y-81966723D01*
X158761905Y-81966723D02*
X158714286Y-81776247D01*
X158714286Y-81776247D02*
X158714286Y-81633390D01*
X158714286Y-81633390D02*
X158761905Y-81442914D01*
X158761905Y-81442914D02*
X158809524Y-81347676D01*
X158809524Y-81347676D02*
X158904762Y-81252438D01*
X158904762Y-81252438D02*
X159047619Y-81204819D01*
X159047619Y-81204819D02*
X159142857Y-81204819D01*
X159142857Y-81204819D02*
X159285714Y-81252438D01*
X159285714Y-81252438D02*
X159333333Y-81300057D01*
X160190476Y-81538152D02*
X160190476Y-82204819D01*
X159952381Y-81157200D02*
X159714286Y-81871485D01*
X159714286Y-81871485D02*
X160333333Y-81871485D01*
X155188972Y-95453821D02*
X155188972Y-96169434D01*
X155188972Y-96169434D02*
X155141265Y-96312556D01*
X155141265Y-96312556D02*
X155045850Y-96407972D01*
X155045850Y-96407972D02*
X154902727Y-96455679D01*
X154902727Y-96455679D02*
X154807312Y-96455679D01*
X156190830Y-96455679D02*
X155618340Y-96455679D01*
X155904585Y-96455679D02*
X155904585Y-95453821D01*
X155904585Y-95453821D02*
X155809170Y-95596944D01*
X155809170Y-95596944D02*
X155713755Y-95692359D01*
X155713755Y-95692359D02*
X155618340Y-95740066D01*
X156572490Y-95549236D02*
X156620197Y-95501529D01*
X156620197Y-95501529D02*
X156715612Y-95453821D01*
X156715612Y-95453821D02*
X156954150Y-95453821D01*
X156954150Y-95453821D02*
X157049565Y-95501529D01*
X157049565Y-95501529D02*
X157097272Y-95549236D01*
X157097272Y-95549236D02*
X157144980Y-95644651D01*
X157144980Y-95644651D02*
X157144980Y-95740066D01*
X157144980Y-95740066D02*
X157097272Y-95883189D01*
X157097272Y-95883189D02*
X156524782Y-96455679D01*
X156524782Y-96455679D02*
X157144980Y-96455679D01*
X159714286Y-94704819D02*
X160285714Y-94704819D01*
X160000000Y-95704819D02*
X160000000Y-94704819D01*
X160619048Y-95704819D02*
X160619048Y-94704819D01*
X160619048Y-95181009D02*
X161190476Y-95181009D01*
X161190476Y-95704819D02*
X161190476Y-94704819D01*
X162190476Y-95704819D02*
X161619048Y-95704819D01*
X161904762Y-95704819D02*
X161904762Y-94704819D01*
X161904762Y-94704819D02*
X161809524Y-94847676D01*
X161809524Y-94847676D02*
X161714286Y-94942914D01*
X161714286Y-94942914D02*
X161619048Y-94990533D01*
X173857142Y-76859580D02*
X173809523Y-76907200D01*
X173809523Y-76907200D02*
X173666666Y-76954819D01*
X173666666Y-76954819D02*
X173571428Y-76954819D01*
X173571428Y-76954819D02*
X173428571Y-76907200D01*
X173428571Y-76907200D02*
X173333333Y-76811961D01*
X173333333Y-76811961D02*
X173285714Y-76716723D01*
X173285714Y-76716723D02*
X173238095Y-76526247D01*
X173238095Y-76526247D02*
X173238095Y-76383390D01*
X173238095Y-76383390D02*
X173285714Y-76192914D01*
X173285714Y-76192914D02*
X173333333Y-76097676D01*
X173333333Y-76097676D02*
X173428571Y-76002438D01*
X173428571Y-76002438D02*
X173571428Y-75954819D01*
X173571428Y-75954819D02*
X173666666Y-75954819D01*
X173666666Y-75954819D02*
X173809523Y-76002438D01*
X173809523Y-76002438D02*
X173857142Y-76050057D01*
X174809523Y-76954819D02*
X174238095Y-76954819D01*
X174523809Y-76954819D02*
X174523809Y-75954819D01*
X174523809Y-75954819D02*
X174428571Y-76097676D01*
X174428571Y-76097676D02*
X174333333Y-76192914D01*
X174333333Y-76192914D02*
X174238095Y-76240533D01*
X175428571Y-75954819D02*
X175523809Y-75954819D01*
X175523809Y-75954819D02*
X175619047Y-76002438D01*
X175619047Y-76002438D02*
X175666666Y-76050057D01*
X175666666Y-76050057D02*
X175714285Y-76145295D01*
X175714285Y-76145295D02*
X175761904Y-76335771D01*
X175761904Y-76335771D02*
X175761904Y-76573866D01*
X175761904Y-76573866D02*
X175714285Y-76764342D01*
X175714285Y-76764342D02*
X175666666Y-76859580D01*
X175666666Y-76859580D02*
X175619047Y-76907200D01*
X175619047Y-76907200D02*
X175523809Y-76954819D01*
X175523809Y-76954819D02*
X175428571Y-76954819D01*
X175428571Y-76954819D02*
X175333333Y-76907200D01*
X175333333Y-76907200D02*
X175285714Y-76859580D01*
X175285714Y-76859580D02*
X175238095Y-76764342D01*
X175238095Y-76764342D02*
X175190476Y-76573866D01*
X175190476Y-76573866D02*
X175190476Y-76335771D01*
X175190476Y-76335771D02*
X175238095Y-76145295D01*
X175238095Y-76145295D02*
X175285714Y-76050057D01*
X175285714Y-76050057D02*
X175333333Y-76002438D01*
X175333333Y-76002438D02*
X175428571Y-75954819D01*
X150738095Y-53056819D02*
X151309523Y-53056819D01*
X151023809Y-54056819D02*
X151023809Y-53056819D01*
X151642857Y-54056819D02*
X151642857Y-53056819D01*
X151642857Y-53056819D02*
X152023809Y-53056819D01*
X152023809Y-53056819D02*
X152119047Y-53104438D01*
X152119047Y-53104438D02*
X152166666Y-53152057D01*
X152166666Y-53152057D02*
X152214285Y-53247295D01*
X152214285Y-53247295D02*
X152214285Y-53390152D01*
X152214285Y-53390152D02*
X152166666Y-53485390D01*
X152166666Y-53485390D02*
X152119047Y-53533009D01*
X152119047Y-53533009D02*
X152023809Y-53580628D01*
X152023809Y-53580628D02*
X151642857Y-53580628D01*
X153166666Y-54056819D02*
X152595238Y-54056819D01*
X152880952Y-54056819D02*
X152880952Y-53056819D01*
X152880952Y-53056819D02*
X152785714Y-53199676D01*
X152785714Y-53199676D02*
X152690476Y-53294914D01*
X152690476Y-53294914D02*
X152595238Y-53342533D01*
X139166666Y-77454819D02*
X139166666Y-78169104D01*
X139166666Y-78169104D02*
X139119047Y-78311961D01*
X139119047Y-78311961D02*
X139023809Y-78407200D01*
X139023809Y-78407200D02*
X138880952Y-78454819D01*
X138880952Y-78454819D02*
X138785714Y-78454819D01*
X139690476Y-78454819D02*
X139880952Y-78454819D01*
X139880952Y-78454819D02*
X139976190Y-78407200D01*
X139976190Y-78407200D02*
X140023809Y-78359580D01*
X140023809Y-78359580D02*
X140119047Y-78216723D01*
X140119047Y-78216723D02*
X140166666Y-78026247D01*
X140166666Y-78026247D02*
X140166666Y-77645295D01*
X140166666Y-77645295D02*
X140119047Y-77550057D01*
X140119047Y-77550057D02*
X140071428Y-77502438D01*
X140071428Y-77502438D02*
X139976190Y-77454819D01*
X139976190Y-77454819D02*
X139785714Y-77454819D01*
X139785714Y-77454819D02*
X139690476Y-77502438D01*
X139690476Y-77502438D02*
X139642857Y-77550057D01*
X139642857Y-77550057D02*
X139595238Y-77645295D01*
X139595238Y-77645295D02*
X139595238Y-77883390D01*
X139595238Y-77883390D02*
X139642857Y-77978628D01*
X139642857Y-77978628D02*
X139690476Y-78026247D01*
X139690476Y-78026247D02*
X139785714Y-78073866D01*
X139785714Y-78073866D02*
X139976190Y-78073866D01*
X139976190Y-78073866D02*
X140071428Y-78026247D01*
X140071428Y-78026247D02*
X140119047Y-77978628D01*
X140119047Y-77978628D02*
X140166666Y-77883390D01*
X158333333Y-75454819D02*
X158000000Y-74978628D01*
X157761905Y-75454819D02*
X157761905Y-74454819D01*
X157761905Y-74454819D02*
X158142857Y-74454819D01*
X158142857Y-74454819D02*
X158238095Y-74502438D01*
X158238095Y-74502438D02*
X158285714Y-74550057D01*
X158285714Y-74550057D02*
X158333333Y-74645295D01*
X158333333Y-74645295D02*
X158333333Y-74788152D01*
X158333333Y-74788152D02*
X158285714Y-74883390D01*
X158285714Y-74883390D02*
X158238095Y-74931009D01*
X158238095Y-74931009D02*
X158142857Y-74978628D01*
X158142857Y-74978628D02*
X157761905Y-74978628D01*
X159190476Y-74454819D02*
X159000000Y-74454819D01*
X159000000Y-74454819D02*
X158904762Y-74502438D01*
X158904762Y-74502438D02*
X158857143Y-74550057D01*
X158857143Y-74550057D02*
X158761905Y-74692914D01*
X158761905Y-74692914D02*
X158714286Y-74883390D01*
X158714286Y-74883390D02*
X158714286Y-75264342D01*
X158714286Y-75264342D02*
X158761905Y-75359580D01*
X158761905Y-75359580D02*
X158809524Y-75407200D01*
X158809524Y-75407200D02*
X158904762Y-75454819D01*
X158904762Y-75454819D02*
X159095238Y-75454819D01*
X159095238Y-75454819D02*
X159190476Y-75407200D01*
X159190476Y-75407200D02*
X159238095Y-75359580D01*
X159238095Y-75359580D02*
X159285714Y-75264342D01*
X159285714Y-75264342D02*
X159285714Y-75026247D01*
X159285714Y-75026247D02*
X159238095Y-74931009D01*
X159238095Y-74931009D02*
X159190476Y-74883390D01*
X159190476Y-74883390D02*
X159095238Y-74835771D01*
X159095238Y-74835771D02*
X158904762Y-74835771D01*
X158904762Y-74835771D02*
X158809524Y-74883390D01*
X158809524Y-74883390D02*
X158761905Y-74931009D01*
X158761905Y-74931009D02*
X158714286Y-75026247D01*
X178759580Y-67416666D02*
X178807200Y-67464285D01*
X178807200Y-67464285D02*
X178854819Y-67607142D01*
X178854819Y-67607142D02*
X178854819Y-67702380D01*
X178854819Y-67702380D02*
X178807200Y-67845237D01*
X178807200Y-67845237D02*
X178711961Y-67940475D01*
X178711961Y-67940475D02*
X178616723Y-67988094D01*
X178616723Y-67988094D02*
X178426247Y-68035713D01*
X178426247Y-68035713D02*
X178283390Y-68035713D01*
X178283390Y-68035713D02*
X178092914Y-67988094D01*
X178092914Y-67988094D02*
X177997676Y-67940475D01*
X177997676Y-67940475D02*
X177902438Y-67845237D01*
X177902438Y-67845237D02*
X177854819Y-67702380D01*
X177854819Y-67702380D02*
X177854819Y-67607142D01*
X177854819Y-67607142D02*
X177902438Y-67464285D01*
X177902438Y-67464285D02*
X177950057Y-67416666D01*
X177854819Y-67083332D02*
X177854819Y-66464285D01*
X177854819Y-66464285D02*
X178235771Y-66797618D01*
X178235771Y-66797618D02*
X178235771Y-66654761D01*
X178235771Y-66654761D02*
X178283390Y-66559523D01*
X178283390Y-66559523D02*
X178331009Y-66511904D01*
X178331009Y-66511904D02*
X178426247Y-66464285D01*
X178426247Y-66464285D02*
X178664342Y-66464285D01*
X178664342Y-66464285D02*
X178759580Y-66511904D01*
X178759580Y-66511904D02*
X178807200Y-66559523D01*
X178807200Y-66559523D02*
X178854819Y-66654761D01*
X178854819Y-66654761D02*
X178854819Y-66940475D01*
X178854819Y-66940475D02*
X178807200Y-67035713D01*
X178807200Y-67035713D02*
X178759580Y-67083332D01*
X170874819Y-92166666D02*
X170398628Y-92499999D01*
X170874819Y-92738094D02*
X169874819Y-92738094D01*
X169874819Y-92738094D02*
X169874819Y-92357142D01*
X169874819Y-92357142D02*
X169922438Y-92261904D01*
X169922438Y-92261904D02*
X169970057Y-92214285D01*
X169970057Y-92214285D02*
X170065295Y-92166666D01*
X170065295Y-92166666D02*
X170208152Y-92166666D01*
X170208152Y-92166666D02*
X170303390Y-92214285D01*
X170303390Y-92214285D02*
X170351009Y-92261904D01*
X170351009Y-92261904D02*
X170398628Y-92357142D01*
X170398628Y-92357142D02*
X170398628Y-92738094D01*
X170874819Y-91214285D02*
X170874819Y-91785713D01*
X170874819Y-91499999D02*
X169874819Y-91499999D01*
X169874819Y-91499999D02*
X170017676Y-91595237D01*
X170017676Y-91595237D02*
X170112914Y-91690475D01*
X170112914Y-91690475D02*
X170160533Y-91785713D01*
X176261905Y-95704819D02*
X176261905Y-94704819D01*
X176261905Y-94704819D02*
X176500000Y-94704819D01*
X176500000Y-94704819D02*
X176642857Y-94752438D01*
X176642857Y-94752438D02*
X176738095Y-94847676D01*
X176738095Y-94847676D02*
X176785714Y-94942914D01*
X176785714Y-94942914D02*
X176833333Y-95133390D01*
X176833333Y-95133390D02*
X176833333Y-95276247D01*
X176833333Y-95276247D02*
X176785714Y-95466723D01*
X176785714Y-95466723D02*
X176738095Y-95561961D01*
X176738095Y-95561961D02*
X176642857Y-95657200D01*
X176642857Y-95657200D02*
X176500000Y-95704819D01*
X176500000Y-95704819D02*
X176261905Y-95704819D01*
X177166667Y-94704819D02*
X177785714Y-94704819D01*
X177785714Y-94704819D02*
X177452381Y-95085771D01*
X177452381Y-95085771D02*
X177595238Y-95085771D01*
X177595238Y-95085771D02*
X177690476Y-95133390D01*
X177690476Y-95133390D02*
X177738095Y-95181009D01*
X177738095Y-95181009D02*
X177785714Y-95276247D01*
X177785714Y-95276247D02*
X177785714Y-95514342D01*
X177785714Y-95514342D02*
X177738095Y-95609580D01*
X177738095Y-95609580D02*
X177690476Y-95657200D01*
X177690476Y-95657200D02*
X177595238Y-95704819D01*
X177595238Y-95704819D02*
X177309524Y-95704819D01*
X177309524Y-95704819D02*
X177214286Y-95657200D01*
X177214286Y-95657200D02*
X177166667Y-95609580D01*
X150859580Y-62916666D02*
X150907200Y-62964285D01*
X150907200Y-62964285D02*
X150954819Y-63107142D01*
X150954819Y-63107142D02*
X150954819Y-63202380D01*
X150954819Y-63202380D02*
X150907200Y-63345237D01*
X150907200Y-63345237D02*
X150811961Y-63440475D01*
X150811961Y-63440475D02*
X150716723Y-63488094D01*
X150716723Y-63488094D02*
X150526247Y-63535713D01*
X150526247Y-63535713D02*
X150383390Y-63535713D01*
X150383390Y-63535713D02*
X150192914Y-63488094D01*
X150192914Y-63488094D02*
X150097676Y-63440475D01*
X150097676Y-63440475D02*
X150002438Y-63345237D01*
X150002438Y-63345237D02*
X149954819Y-63202380D01*
X149954819Y-63202380D02*
X149954819Y-63107142D01*
X149954819Y-63107142D02*
X150002438Y-62964285D01*
X150002438Y-62964285D02*
X150050057Y-62916666D01*
X149954819Y-62583332D02*
X149954819Y-61916666D01*
X149954819Y-61916666D02*
X150954819Y-62345237D01*
X140440476Y-61204819D02*
X140440476Y-61919104D01*
X140440476Y-61919104D02*
X140392857Y-62061961D01*
X140392857Y-62061961D02*
X140297619Y-62157200D01*
X140297619Y-62157200D02*
X140154762Y-62204819D01*
X140154762Y-62204819D02*
X140059524Y-62204819D01*
X141440476Y-62204819D02*
X140869048Y-62204819D01*
X141154762Y-62204819D02*
X141154762Y-61204819D01*
X141154762Y-61204819D02*
X141059524Y-61347676D01*
X141059524Y-61347676D02*
X140964286Y-61442914D01*
X140964286Y-61442914D02*
X140869048Y-61490533D01*
X142345238Y-61204819D02*
X141869048Y-61204819D01*
X141869048Y-61204819D02*
X141821429Y-61681009D01*
X141821429Y-61681009D02*
X141869048Y-61633390D01*
X141869048Y-61633390D02*
X141964286Y-61585771D01*
X141964286Y-61585771D02*
X142202381Y-61585771D01*
X142202381Y-61585771D02*
X142297619Y-61633390D01*
X142297619Y-61633390D02*
X142345238Y-61681009D01*
X142345238Y-61681009D02*
X142392857Y-61776247D01*
X142392857Y-61776247D02*
X142392857Y-62014342D01*
X142392857Y-62014342D02*
X142345238Y-62109580D01*
X142345238Y-62109580D02*
X142297619Y-62157200D01*
X142297619Y-62157200D02*
X142202381Y-62204819D01*
X142202381Y-62204819D02*
X141964286Y-62204819D01*
X141964286Y-62204819D02*
X141869048Y-62157200D01*
X141869048Y-62157200D02*
X141821429Y-62109580D01*
X150083333Y-66374819D02*
X149750000Y-65898628D01*
X149511905Y-66374819D02*
X149511905Y-65374819D01*
X149511905Y-65374819D02*
X149892857Y-65374819D01*
X149892857Y-65374819D02*
X149988095Y-65422438D01*
X149988095Y-65422438D02*
X150035714Y-65470057D01*
X150035714Y-65470057D02*
X150083333Y-65565295D01*
X150083333Y-65565295D02*
X150083333Y-65708152D01*
X150083333Y-65708152D02*
X150035714Y-65803390D01*
X150035714Y-65803390D02*
X149988095Y-65851009D01*
X149988095Y-65851009D02*
X149892857Y-65898628D01*
X149892857Y-65898628D02*
X149511905Y-65898628D01*
X150988095Y-65374819D02*
X150511905Y-65374819D01*
X150511905Y-65374819D02*
X150464286Y-65851009D01*
X150464286Y-65851009D02*
X150511905Y-65803390D01*
X150511905Y-65803390D02*
X150607143Y-65755771D01*
X150607143Y-65755771D02*
X150845238Y-65755771D01*
X150845238Y-65755771D02*
X150940476Y-65803390D01*
X150940476Y-65803390D02*
X150988095Y-65851009D01*
X150988095Y-65851009D02*
X151035714Y-65946247D01*
X151035714Y-65946247D02*
X151035714Y-66184342D01*
X151035714Y-66184342D02*
X150988095Y-66279580D01*
X150988095Y-66279580D02*
X150940476Y-66327200D01*
X150940476Y-66327200D02*
X150845238Y-66374819D01*
X150845238Y-66374819D02*
X150607143Y-66374819D01*
X150607143Y-66374819D02*
X150511905Y-66327200D01*
X150511905Y-66327200D02*
X150464286Y-66279580D01*
X192166666Y-58574819D02*
X192166666Y-59289104D01*
X192166666Y-59289104D02*
X192119047Y-59431961D01*
X192119047Y-59431961D02*
X192023809Y-59527200D01*
X192023809Y-59527200D02*
X191880952Y-59574819D01*
X191880952Y-59574819D02*
X191785714Y-59574819D01*
X193119047Y-58574819D02*
X192642857Y-58574819D01*
X192642857Y-58574819D02*
X192595238Y-59051009D01*
X192595238Y-59051009D02*
X192642857Y-59003390D01*
X192642857Y-59003390D02*
X192738095Y-58955771D01*
X192738095Y-58955771D02*
X192976190Y-58955771D01*
X192976190Y-58955771D02*
X193071428Y-59003390D01*
X193071428Y-59003390D02*
X193119047Y-59051009D01*
X193119047Y-59051009D02*
X193166666Y-59146247D01*
X193166666Y-59146247D02*
X193166666Y-59384342D01*
X193166666Y-59384342D02*
X193119047Y-59479580D01*
X193119047Y-59479580D02*
X193071428Y-59527200D01*
X193071428Y-59527200D02*
X192976190Y-59574819D01*
X192976190Y-59574819D02*
X192738095Y-59574819D01*
X192738095Y-59574819D02*
X192642857Y-59527200D01*
X192642857Y-59527200D02*
X192595238Y-59479580D01*
X194583333Y-70624819D02*
X194250000Y-70148628D01*
X194011905Y-70624819D02*
X194011905Y-69624819D01*
X194011905Y-69624819D02*
X194392857Y-69624819D01*
X194392857Y-69624819D02*
X194488095Y-69672438D01*
X194488095Y-69672438D02*
X194535714Y-69720057D01*
X194535714Y-69720057D02*
X194583333Y-69815295D01*
X194583333Y-69815295D02*
X194583333Y-69958152D01*
X194583333Y-69958152D02*
X194535714Y-70053390D01*
X194535714Y-70053390D02*
X194488095Y-70101009D01*
X194488095Y-70101009D02*
X194392857Y-70148628D01*
X194392857Y-70148628D02*
X194011905Y-70148628D01*
X194964286Y-69720057D02*
X195011905Y-69672438D01*
X195011905Y-69672438D02*
X195107143Y-69624819D01*
X195107143Y-69624819D02*
X195345238Y-69624819D01*
X195345238Y-69624819D02*
X195440476Y-69672438D01*
X195440476Y-69672438D02*
X195488095Y-69720057D01*
X195488095Y-69720057D02*
X195535714Y-69815295D01*
X195535714Y-69815295D02*
X195535714Y-69910533D01*
X195535714Y-69910533D02*
X195488095Y-70053390D01*
X195488095Y-70053390D02*
X194916667Y-70624819D01*
X194916667Y-70624819D02*
X195535714Y-70624819D01*
X160333333Y-65709580D02*
X160285714Y-65757200D01*
X160285714Y-65757200D02*
X160142857Y-65804819D01*
X160142857Y-65804819D02*
X160047619Y-65804819D01*
X160047619Y-65804819D02*
X159904762Y-65757200D01*
X159904762Y-65757200D02*
X159809524Y-65661961D01*
X159809524Y-65661961D02*
X159761905Y-65566723D01*
X159761905Y-65566723D02*
X159714286Y-65376247D01*
X159714286Y-65376247D02*
X159714286Y-65233390D01*
X159714286Y-65233390D02*
X159761905Y-65042914D01*
X159761905Y-65042914D02*
X159809524Y-64947676D01*
X159809524Y-64947676D02*
X159904762Y-64852438D01*
X159904762Y-64852438D02*
X160047619Y-64804819D01*
X160047619Y-64804819D02*
X160142857Y-64804819D01*
X160142857Y-64804819D02*
X160285714Y-64852438D01*
X160285714Y-64852438D02*
X160333333Y-64900057D01*
X161238095Y-64804819D02*
X160761905Y-64804819D01*
X160761905Y-64804819D02*
X160714286Y-65281009D01*
X160714286Y-65281009D02*
X160761905Y-65233390D01*
X160761905Y-65233390D02*
X160857143Y-65185771D01*
X160857143Y-65185771D02*
X161095238Y-65185771D01*
X161095238Y-65185771D02*
X161190476Y-65233390D01*
X161190476Y-65233390D02*
X161238095Y-65281009D01*
X161238095Y-65281009D02*
X161285714Y-65376247D01*
X161285714Y-65376247D02*
X161285714Y-65614342D01*
X161285714Y-65614342D02*
X161238095Y-65709580D01*
X161238095Y-65709580D02*
X161190476Y-65757200D01*
X161190476Y-65757200D02*
X161095238Y-65804819D01*
X161095238Y-65804819D02*
X160857143Y-65804819D01*
X160857143Y-65804819D02*
X160761905Y-65757200D01*
X160761905Y-65757200D02*
X160714286Y-65709580D01*
X178704819Y-52833333D02*
X179419104Y-52833333D01*
X179419104Y-52833333D02*
X179561961Y-52880952D01*
X179561961Y-52880952D02*
X179657200Y-52976190D01*
X179657200Y-52976190D02*
X179704819Y-53119047D01*
X179704819Y-53119047D02*
X179704819Y-53214285D01*
X178704819Y-51928571D02*
X178704819Y-52119047D01*
X178704819Y-52119047D02*
X178752438Y-52214285D01*
X178752438Y-52214285D02*
X178800057Y-52261904D01*
X178800057Y-52261904D02*
X178942914Y-52357142D01*
X178942914Y-52357142D02*
X179133390Y-52404761D01*
X179133390Y-52404761D02*
X179514342Y-52404761D01*
X179514342Y-52404761D02*
X179609580Y-52357142D01*
X179609580Y-52357142D02*
X179657200Y-52309523D01*
X179657200Y-52309523D02*
X179704819Y-52214285D01*
X179704819Y-52214285D02*
X179704819Y-52023809D01*
X179704819Y-52023809D02*
X179657200Y-51928571D01*
X179657200Y-51928571D02*
X179609580Y-51880952D01*
X179609580Y-51880952D02*
X179514342Y-51833333D01*
X179514342Y-51833333D02*
X179276247Y-51833333D01*
X179276247Y-51833333D02*
X179181009Y-51880952D01*
X179181009Y-51880952D02*
X179133390Y-51928571D01*
X179133390Y-51928571D02*
X179085771Y-52023809D01*
X179085771Y-52023809D02*
X179085771Y-52214285D01*
X179085771Y-52214285D02*
X179133390Y-52309523D01*
X179133390Y-52309523D02*
X179181009Y-52357142D01*
X179181009Y-52357142D02*
X179276247Y-52404761D01*
X153583333Y-65859580D02*
X153535714Y-65907200D01*
X153535714Y-65907200D02*
X153392857Y-65954819D01*
X153392857Y-65954819D02*
X153297619Y-65954819D01*
X153297619Y-65954819D02*
X153154762Y-65907200D01*
X153154762Y-65907200D02*
X153059524Y-65811961D01*
X153059524Y-65811961D02*
X153011905Y-65716723D01*
X153011905Y-65716723D02*
X152964286Y-65526247D01*
X152964286Y-65526247D02*
X152964286Y-65383390D01*
X152964286Y-65383390D02*
X153011905Y-65192914D01*
X153011905Y-65192914D02*
X153059524Y-65097676D01*
X153059524Y-65097676D02*
X153154762Y-65002438D01*
X153154762Y-65002438D02*
X153297619Y-64954819D01*
X153297619Y-64954819D02*
X153392857Y-64954819D01*
X153392857Y-64954819D02*
X153535714Y-65002438D01*
X153535714Y-65002438D02*
X153583333Y-65050057D01*
X154440476Y-64954819D02*
X154250000Y-64954819D01*
X154250000Y-64954819D02*
X154154762Y-65002438D01*
X154154762Y-65002438D02*
X154107143Y-65050057D01*
X154107143Y-65050057D02*
X154011905Y-65192914D01*
X154011905Y-65192914D02*
X153964286Y-65383390D01*
X153964286Y-65383390D02*
X153964286Y-65764342D01*
X153964286Y-65764342D02*
X154011905Y-65859580D01*
X154011905Y-65859580D02*
X154059524Y-65907200D01*
X154059524Y-65907200D02*
X154154762Y-65954819D01*
X154154762Y-65954819D02*
X154345238Y-65954819D01*
X154345238Y-65954819D02*
X154440476Y-65907200D01*
X154440476Y-65907200D02*
X154488095Y-65859580D01*
X154488095Y-65859580D02*
X154535714Y-65764342D01*
X154535714Y-65764342D02*
X154535714Y-65526247D01*
X154535714Y-65526247D02*
X154488095Y-65431009D01*
X154488095Y-65431009D02*
X154440476Y-65383390D01*
X154440476Y-65383390D02*
X154345238Y-65335771D01*
X154345238Y-65335771D02*
X154154762Y-65335771D01*
X154154762Y-65335771D02*
X154059524Y-65383390D01*
X154059524Y-65383390D02*
X154011905Y-65431009D01*
X154011905Y-65431009D02*
X153964286Y-65526247D01*
X153940476Y-86454819D02*
X153940476Y-87169104D01*
X153940476Y-87169104D02*
X153892857Y-87311961D01*
X153892857Y-87311961D02*
X153797619Y-87407200D01*
X153797619Y-87407200D02*
X153654762Y-87454819D01*
X153654762Y-87454819D02*
X153559524Y-87454819D01*
X154940476Y-87454819D02*
X154369048Y-87454819D01*
X154654762Y-87454819D02*
X154654762Y-86454819D01*
X154654762Y-86454819D02*
X154559524Y-86597676D01*
X154559524Y-86597676D02*
X154464286Y-86692914D01*
X154464286Y-86692914D02*
X154369048Y-86740533D01*
X155892857Y-87454819D02*
X155321429Y-87454819D01*
X155607143Y-87454819D02*
X155607143Y-86454819D01*
X155607143Y-86454819D02*
X155511905Y-86597676D01*
X155511905Y-86597676D02*
X155416667Y-86692914D01*
X155416667Y-86692914D02*
X155321429Y-86740533D01*
X187666666Y-58074819D02*
X187666666Y-58789104D01*
X187666666Y-58789104D02*
X187619047Y-58931961D01*
X187619047Y-58931961D02*
X187523809Y-59027200D01*
X187523809Y-59027200D02*
X187380952Y-59074819D01*
X187380952Y-59074819D02*
X187285714Y-59074819D01*
X188047619Y-58074819D02*
X188714285Y-58074819D01*
X188714285Y-58074819D02*
X188285714Y-59074819D01*
X145204819Y-82809523D02*
X145919104Y-82809523D01*
X145919104Y-82809523D02*
X146061961Y-82857142D01*
X146061961Y-82857142D02*
X146157200Y-82952380D01*
X146157200Y-82952380D02*
X146204819Y-83095237D01*
X146204819Y-83095237D02*
X146204819Y-83190475D01*
X146204819Y-81809523D02*
X146204819Y-82380951D01*
X146204819Y-82095237D02*
X145204819Y-82095237D01*
X145204819Y-82095237D02*
X145347676Y-82190475D01*
X145347676Y-82190475D02*
X145442914Y-82285713D01*
X145442914Y-82285713D02*
X145490533Y-82380951D01*
X145204819Y-81190475D02*
X145204819Y-81095237D01*
X145204819Y-81095237D02*
X145252438Y-80999999D01*
X145252438Y-80999999D02*
X145300057Y-80952380D01*
X145300057Y-80952380D02*
X145395295Y-80904761D01*
X145395295Y-80904761D02*
X145585771Y-80857142D01*
X145585771Y-80857142D02*
X145823866Y-80857142D01*
X145823866Y-80857142D02*
X146014342Y-80904761D01*
X146014342Y-80904761D02*
X146109580Y-80952380D01*
X146109580Y-80952380D02*
X146157200Y-80999999D01*
X146157200Y-80999999D02*
X146204819Y-81095237D01*
X146204819Y-81095237D02*
X146204819Y-81190475D01*
X146204819Y-81190475D02*
X146157200Y-81285713D01*
X146157200Y-81285713D02*
X146109580Y-81333332D01*
X146109580Y-81333332D02*
X146014342Y-81380951D01*
X146014342Y-81380951D02*
X145823866Y-81428570D01*
X145823866Y-81428570D02*
X145585771Y-81428570D01*
X145585771Y-81428570D02*
X145395295Y-81380951D01*
X145395295Y-81380951D02*
X145300057Y-81333332D01*
X145300057Y-81333332D02*
X145252438Y-81285713D01*
X145252438Y-81285713D02*
X145204819Y-81190475D01*
X167857142Y-73204819D02*
X167523809Y-72728628D01*
X167285714Y-73204819D02*
X167285714Y-72204819D01*
X167285714Y-72204819D02*
X167666666Y-72204819D01*
X167666666Y-72204819D02*
X167761904Y-72252438D01*
X167761904Y-72252438D02*
X167809523Y-72300057D01*
X167809523Y-72300057D02*
X167857142Y-72395295D01*
X167857142Y-72395295D02*
X167857142Y-72538152D01*
X167857142Y-72538152D02*
X167809523Y-72633390D01*
X167809523Y-72633390D02*
X167761904Y-72681009D01*
X167761904Y-72681009D02*
X167666666Y-72728628D01*
X167666666Y-72728628D02*
X167285714Y-72728628D01*
X168809523Y-73204819D02*
X168238095Y-73204819D01*
X168523809Y-73204819D02*
X168523809Y-72204819D01*
X168523809Y-72204819D02*
X168428571Y-72347676D01*
X168428571Y-72347676D02*
X168333333Y-72442914D01*
X168333333Y-72442914D02*
X168238095Y-72490533D01*
X169761904Y-73204819D02*
X169190476Y-73204819D01*
X169476190Y-73204819D02*
X169476190Y-72204819D01*
X169476190Y-72204819D02*
X169380952Y-72347676D01*
X169380952Y-72347676D02*
X169285714Y-72442914D01*
X169285714Y-72442914D02*
X169190476Y-72490533D01*
X162204819Y-75166666D02*
X161728628Y-75499999D01*
X162204819Y-75738094D02*
X161204819Y-75738094D01*
X161204819Y-75738094D02*
X161204819Y-75357142D01*
X161204819Y-75357142D02*
X161252438Y-75261904D01*
X161252438Y-75261904D02*
X161300057Y-75214285D01*
X161300057Y-75214285D02*
X161395295Y-75166666D01*
X161395295Y-75166666D02*
X161538152Y-75166666D01*
X161538152Y-75166666D02*
X161633390Y-75214285D01*
X161633390Y-75214285D02*
X161681009Y-75261904D01*
X161681009Y-75261904D02*
X161728628Y-75357142D01*
X161728628Y-75357142D02*
X161728628Y-75738094D01*
X161633390Y-74595237D02*
X161585771Y-74690475D01*
X161585771Y-74690475D02*
X161538152Y-74738094D01*
X161538152Y-74738094D02*
X161442914Y-74785713D01*
X161442914Y-74785713D02*
X161395295Y-74785713D01*
X161395295Y-74785713D02*
X161300057Y-74738094D01*
X161300057Y-74738094D02*
X161252438Y-74690475D01*
X161252438Y-74690475D02*
X161204819Y-74595237D01*
X161204819Y-74595237D02*
X161204819Y-74404761D01*
X161204819Y-74404761D02*
X161252438Y-74309523D01*
X161252438Y-74309523D02*
X161300057Y-74261904D01*
X161300057Y-74261904D02*
X161395295Y-74214285D01*
X161395295Y-74214285D02*
X161442914Y-74214285D01*
X161442914Y-74214285D02*
X161538152Y-74261904D01*
X161538152Y-74261904D02*
X161585771Y-74309523D01*
X161585771Y-74309523D02*
X161633390Y-74404761D01*
X161633390Y-74404761D02*
X161633390Y-74595237D01*
X161633390Y-74595237D02*
X161681009Y-74690475D01*
X161681009Y-74690475D02*
X161728628Y-74738094D01*
X161728628Y-74738094D02*
X161823866Y-74785713D01*
X161823866Y-74785713D02*
X162014342Y-74785713D01*
X162014342Y-74785713D02*
X162109580Y-74738094D01*
X162109580Y-74738094D02*
X162157200Y-74690475D01*
X162157200Y-74690475D02*
X162204819Y-74595237D01*
X162204819Y-74595237D02*
X162204819Y-74404761D01*
X162204819Y-74404761D02*
X162157200Y-74309523D01*
X162157200Y-74309523D02*
X162109580Y-74261904D01*
X162109580Y-74261904D02*
X162014342Y-74214285D01*
X162014342Y-74214285D02*
X161823866Y-74214285D01*
X161823866Y-74214285D02*
X161728628Y-74261904D01*
X161728628Y-74261904D02*
X161681009Y-74309523D01*
X161681009Y-74309523D02*
X161633390Y-74404761D01*
X194583333Y-66954819D02*
X194250000Y-66478628D01*
X194011905Y-66954819D02*
X194011905Y-65954819D01*
X194011905Y-65954819D02*
X194392857Y-65954819D01*
X194392857Y-65954819D02*
X194488095Y-66002438D01*
X194488095Y-66002438D02*
X194535714Y-66050057D01*
X194535714Y-66050057D02*
X194583333Y-66145295D01*
X194583333Y-66145295D02*
X194583333Y-66288152D01*
X194583333Y-66288152D02*
X194535714Y-66383390D01*
X194535714Y-66383390D02*
X194488095Y-66431009D01*
X194488095Y-66431009D02*
X194392857Y-66478628D01*
X194392857Y-66478628D02*
X194011905Y-66478628D01*
X195440476Y-66288152D02*
X195440476Y-66954819D01*
X195202381Y-65907200D02*
X194964286Y-66621485D01*
X194964286Y-66621485D02*
X195583333Y-66621485D01*
X161690476Y-57704819D02*
X161690476Y-58419104D01*
X161690476Y-58419104D02*
X161642857Y-58561961D01*
X161642857Y-58561961D02*
X161547619Y-58657200D01*
X161547619Y-58657200D02*
X161404762Y-58704819D01*
X161404762Y-58704819D02*
X161309524Y-58704819D01*
X162690476Y-58704819D02*
X162119048Y-58704819D01*
X162404762Y-58704819D02*
X162404762Y-57704819D01*
X162404762Y-57704819D02*
X162309524Y-57847676D01*
X162309524Y-57847676D02*
X162214286Y-57942914D01*
X162214286Y-57942914D02*
X162119048Y-57990533D01*
X163547619Y-58038152D02*
X163547619Y-58704819D01*
X163309524Y-57657200D02*
X163071429Y-58371485D01*
X163071429Y-58371485D02*
X163690476Y-58371485D01*
X188454819Y-82559523D02*
X189169104Y-82559523D01*
X189169104Y-82559523D02*
X189311961Y-82607142D01*
X189311961Y-82607142D02*
X189407200Y-82702380D01*
X189407200Y-82702380D02*
X189454819Y-82845237D01*
X189454819Y-82845237D02*
X189454819Y-82940475D01*
X189454819Y-81559523D02*
X189454819Y-82130951D01*
X189454819Y-81845237D02*
X188454819Y-81845237D01*
X188454819Y-81845237D02*
X188597676Y-81940475D01*
X188597676Y-81940475D02*
X188692914Y-82035713D01*
X188692914Y-82035713D02*
X188740533Y-82130951D01*
X188454819Y-80702380D02*
X188454819Y-80892856D01*
X188454819Y-80892856D02*
X188502438Y-80988094D01*
X188502438Y-80988094D02*
X188550057Y-81035713D01*
X188550057Y-81035713D02*
X188692914Y-81130951D01*
X188692914Y-81130951D02*
X188883390Y-81178570D01*
X188883390Y-81178570D02*
X189264342Y-81178570D01*
X189264342Y-81178570D02*
X189359580Y-81130951D01*
X189359580Y-81130951D02*
X189407200Y-81083332D01*
X189407200Y-81083332D02*
X189454819Y-80988094D01*
X189454819Y-80988094D02*
X189454819Y-80797618D01*
X189454819Y-80797618D02*
X189407200Y-80702380D01*
X189407200Y-80702380D02*
X189359580Y-80654761D01*
X189359580Y-80654761D02*
X189264342Y-80607142D01*
X189264342Y-80607142D02*
X189026247Y-80607142D01*
X189026247Y-80607142D02*
X188931009Y-80654761D01*
X188931009Y-80654761D02*
X188883390Y-80702380D01*
X188883390Y-80702380D02*
X188835771Y-80797618D01*
X188835771Y-80797618D02*
X188835771Y-80988094D01*
X188835771Y-80988094D02*
X188883390Y-81083332D01*
X188883390Y-81083332D02*
X188931009Y-81130951D01*
X188931009Y-81130951D02*
X189026247Y-81178570D01*
X166511905Y-78454819D02*
X166511905Y-77454819D01*
X166511905Y-77454819D02*
X166750000Y-77454819D01*
X166750000Y-77454819D02*
X166892857Y-77502438D01*
X166892857Y-77502438D02*
X166988095Y-77597676D01*
X166988095Y-77597676D02*
X167035714Y-77692914D01*
X167035714Y-77692914D02*
X167083333Y-77883390D01*
X167083333Y-77883390D02*
X167083333Y-78026247D01*
X167083333Y-78026247D02*
X167035714Y-78216723D01*
X167035714Y-78216723D02*
X166988095Y-78311961D01*
X166988095Y-78311961D02*
X166892857Y-78407200D01*
X166892857Y-78407200D02*
X166750000Y-78454819D01*
X166750000Y-78454819D02*
X166511905Y-78454819D01*
X167464286Y-77550057D02*
X167511905Y-77502438D01*
X167511905Y-77502438D02*
X167607143Y-77454819D01*
X167607143Y-77454819D02*
X167845238Y-77454819D01*
X167845238Y-77454819D02*
X167940476Y-77502438D01*
X167940476Y-77502438D02*
X167988095Y-77550057D01*
X167988095Y-77550057D02*
X168035714Y-77645295D01*
X168035714Y-77645295D02*
X168035714Y-77740533D01*
X168035714Y-77740533D02*
X167988095Y-77883390D01*
X167988095Y-77883390D02*
X167416667Y-78454819D01*
X167416667Y-78454819D02*
X168035714Y-78454819D01*
X183666666Y-90454819D02*
X183666666Y-91169104D01*
X183666666Y-91169104D02*
X183619047Y-91311961D01*
X183619047Y-91311961D02*
X183523809Y-91407200D01*
X183523809Y-91407200D02*
X183380952Y-91454819D01*
X183380952Y-91454819D02*
X183285714Y-91454819D01*
X184095238Y-90550057D02*
X184142857Y-90502438D01*
X184142857Y-90502438D02*
X184238095Y-90454819D01*
X184238095Y-90454819D02*
X184476190Y-90454819D01*
X184476190Y-90454819D02*
X184571428Y-90502438D01*
X184571428Y-90502438D02*
X184619047Y-90550057D01*
X184619047Y-90550057D02*
X184666666Y-90645295D01*
X184666666Y-90645295D02*
X184666666Y-90740533D01*
X184666666Y-90740533D02*
X184619047Y-90883390D01*
X184619047Y-90883390D02*
X184047619Y-91454819D01*
X184047619Y-91454819D02*
X184666666Y-91454819D01*
D11*
X160192729Y-85209551D02*
X160192729Y-85464519D01*
X160192729Y-85464519D02*
X160207727Y-85494515D01*
X160207727Y-85494515D02*
X160222726Y-85509514D01*
X160222726Y-85509514D02*
X160252722Y-85524512D01*
X160252722Y-85524512D02*
X160312714Y-85524512D01*
X160312714Y-85524512D02*
X160342711Y-85509514D01*
X160342711Y-85509514D02*
X160357709Y-85494515D01*
X160357709Y-85494515D02*
X160372707Y-85464519D01*
X160372707Y-85464519D02*
X160372707Y-85209551D01*
X160687668Y-85524512D02*
X160507690Y-85524512D01*
X160597679Y-85524512D02*
X160597679Y-85209551D01*
X160597679Y-85209551D02*
X160567683Y-85254545D01*
X160567683Y-85254545D02*
X160537686Y-85284541D01*
X160537686Y-85284541D02*
X160507690Y-85299540D01*
D12*
X195477064Y-63840000D02*
X194022936Y-63840000D01*
X195477064Y-65660000D02*
X194022936Y-65660000D01*
X175090000Y-64211252D02*
X175090000Y-62788748D01*
X176910000Y-64211252D02*
X176910000Y-62788748D01*
X181227064Y-73590000D02*
X179772936Y-73590000D01*
X181227064Y-75410000D02*
X179772936Y-75410000D01*
D13*
X174750000Y-82250000D02*
X174750000Y-81000000D01*
X174750000Y-85250000D02*
X174750000Y-86500000D01*
X175750000Y-80000000D02*
X181250000Y-80000000D01*
X175750000Y-87500000D02*
X181250000Y-87500000D01*
X182250000Y-81000000D02*
X182250000Y-82250000D01*
X182250000Y-86500000D02*
X182250000Y-85250000D01*
X174750000Y-81000000D02*
G75*
G02*
X175750000Y-80000000I999999J1D01*
G01*
X175750000Y-87500000D02*
G75*
G02*
X174750000Y-86500000I-1J999999D01*
G01*
X181250000Y-80000000D02*
G75*
G02*
X182250000Y-81000000I0J-1000000D01*
G01*
X182250000Y-86500000D02*
G75*
G02*
X181250000Y-87500000I-1000000J0D01*
G01*
D14*
X173700000Y-83750000D02*
G75*
G02*
X173300000Y-83750000I-200000J0D01*
G01*
X173300000Y-83750000D02*
G75*
G02*
X173700000Y-83750000I200000J0D01*
G01*
D12*
X187680000Y-87630000D02*
X197720000Y-87630000D01*
X187680000Y-97870000D02*
X187680000Y-87630000D01*
X190700000Y-97870000D02*
X190700000Y-87630000D01*
X195600000Y-97870000D02*
X195600000Y-87630000D01*
X197100000Y-97870000D02*
X197100000Y-87630000D01*
X197720000Y-87630000D02*
X197720000Y-94950000D01*
X197720000Y-95550000D02*
X197720000Y-97870000D01*
X197720000Y-97870000D02*
X187680000Y-97870000D01*
X198330000Y-95690000D02*
X197720000Y-95250000D01*
X198330000Y-94810000D01*
X198330000Y-95690000D01*
G36*
X198330000Y-95690000D02*
G01*
X197720000Y-95250000D01*
X198330000Y-94810000D01*
X198330000Y-95690000D01*
G37*
D13*
X167750000Y-53000000D02*
X167750000Y-54250000D01*
X167750000Y-58500000D02*
X167750000Y-57250000D01*
X174250000Y-52000000D02*
X168750000Y-52000000D01*
X174250000Y-59500000D02*
X168750000Y-59500000D01*
X175250000Y-54250000D02*
X175250000Y-53000000D01*
X175250000Y-57250000D02*
X175250000Y-58500000D01*
X167750000Y-53000000D02*
G75*
G02*
X168750000Y-52000000I1000000J0D01*
G01*
X168750000Y-59500000D02*
G75*
G02*
X167750000Y-58500000I0J1000000D01*
G01*
X174250000Y-52000000D02*
G75*
G02*
X175250000Y-53000000I1J-999999D01*
G01*
X175250000Y-58500000D02*
G75*
G02*
X174250000Y-59500000I-999999J-1D01*
G01*
D14*
X176700000Y-55750000D02*
G75*
G02*
X176300000Y-55750000I-200000J0D01*
G01*
X176300000Y-55750000D02*
G75*
G02*
X176700000Y-55750000I200000J0D01*
G01*
D12*
X185590000Y-72272936D02*
X185590000Y-73727064D01*
X187410000Y-72272936D02*
X187410000Y-73727064D01*
X166788748Y-92590000D02*
X168211252Y-92590000D01*
X166788748Y-94410000D02*
X168211252Y-94410000D01*
X169840000Y-87211252D02*
X169840000Y-85788748D01*
X171660000Y-87211252D02*
X171660000Y-85788748D01*
X183870000Y-78870000D02*
X185250000Y-78870000D01*
X183870000Y-80250000D02*
X183870000Y-78870000D01*
X183870000Y-81520000D02*
X183870000Y-81630000D01*
X183870000Y-81520000D02*
X186630000Y-81520000D01*
X183870000Y-81630000D02*
X186630000Y-81630000D01*
X186630000Y-81520000D02*
X186630000Y-81630000D01*
X161727064Y-68590000D02*
X160272936Y-68590000D01*
X161727064Y-70410000D02*
X160272936Y-70410000D01*
X154510000Y-77350000D02*
X148700000Y-77350000D01*
X154510000Y-81650000D02*
X148700000Y-81650000D01*
X154510000Y-81650000D02*
X154510000Y-77350000D01*
D15*
X168295000Y-64970000D02*
X172155000Y-64970000D01*
X172155000Y-71680000D02*
X168295000Y-71680000D01*
D13*
X166525000Y-65400000D02*
G75*
G02*
X166325000Y-65400000I-100000J0D01*
G01*
X166325000Y-65400000D02*
G75*
G02*
X166525000Y-65400000I100000J0D01*
G01*
D12*
X157580000Y-95870000D02*
X157580000Y-98630000D01*
X162770000Y-95870000D02*
X157580000Y-95870000D01*
X162770000Y-95870000D02*
X162770000Y-98630000D01*
X162770000Y-98630000D02*
X157580000Y-98630000D01*
X164040000Y-95870000D02*
X165420000Y-95870000D01*
X165420000Y-95870000D02*
X165420000Y-97250000D01*
X157120000Y-76370000D02*
X158500000Y-76370000D01*
X157120000Y-77750000D02*
X157120000Y-76370000D01*
X157120000Y-79020000D02*
X157120000Y-79130000D01*
X157120000Y-79020000D02*
X159880000Y-79020000D01*
X157120000Y-79130000D02*
X159880000Y-79130000D01*
X159880000Y-79020000D02*
X159880000Y-79130000D01*
X145300000Y-54300000D02*
X148700000Y-54300000D01*
X145300000Y-57700000D02*
X145300000Y-54300000D01*
X148700000Y-54300000D02*
X148700000Y-57700000D01*
X148700000Y-57700000D02*
X145300000Y-57700000D01*
X155038748Y-66840000D02*
X156461252Y-66840000D01*
X155038748Y-68660000D02*
X156461252Y-68660000D01*
X160211252Y-82340000D02*
X158788748Y-82340000D01*
X160211252Y-84160000D02*
X158788748Y-84160000D01*
D15*
X145550000Y-89050000D02*
X147400000Y-89050000D01*
X145550000Y-103450000D02*
X145550000Y-89050000D01*
X152600000Y-89050000D02*
X154550000Y-89050000D01*
X154550000Y-89050000D02*
X154550000Y-90200000D01*
X154550000Y-95300000D02*
X154550000Y-103450000D01*
X154550000Y-103450000D02*
X145550000Y-103450000D01*
D14*
X150250000Y-87750000D02*
G75*
G02*
X149850000Y-87750000I-200000J0D01*
G01*
X149850000Y-87750000D02*
G75*
G02*
X150250000Y-87750000I200000J0D01*
G01*
D12*
X162920000Y-92580000D02*
X159080000Y-92580000D01*
X162920000Y-94420000D02*
X159080000Y-94420000D01*
X175211252Y-73590000D02*
X173788748Y-73590000D01*
X175211252Y-75410000D02*
X173788748Y-75410000D01*
X150300000Y-54300000D02*
X153700000Y-54300000D01*
X150300000Y-57700000D02*
X150300000Y-54300000D01*
X153700000Y-54300000D02*
X153700000Y-57700000D01*
X153700000Y-57700000D02*
X150300000Y-57700000D01*
X139870000Y-74370000D02*
X141250000Y-74370000D01*
X139870000Y-75750000D02*
X139870000Y-74370000D01*
X139870000Y-77020000D02*
X139870000Y-77130000D01*
X139870000Y-77020000D02*
X142630000Y-77020000D01*
X139870000Y-77130000D02*
X142630000Y-77130000D01*
X142630000Y-77020000D02*
X142630000Y-77130000D01*
X157772936Y-72340000D02*
X159227064Y-72340000D01*
X157772936Y-74160000D02*
X159227064Y-74160000D01*
X179340000Y-67961252D02*
X179340000Y-66538748D01*
X181160000Y-67961252D02*
X181160000Y-66538748D01*
X171340000Y-92727064D02*
X171340000Y-91272936D01*
X173160000Y-92727064D02*
X173160000Y-91272936D01*
X179360000Y-92500000D02*
X175350000Y-92500000D01*
X179360000Y-94500000D02*
X175350000Y-94500000D01*
X179360000Y-94500000D02*
X179360000Y-92500000D01*
X147840000Y-63211252D02*
X147840000Y-61788748D01*
X149660000Y-63211252D02*
X149660000Y-61788748D01*
X135030000Y-62380000D02*
X145070000Y-62380000D01*
X135030000Y-64700000D02*
X135030000Y-62380000D01*
X135030000Y-72620000D02*
X135030000Y-65300000D01*
X135650000Y-62380000D02*
X135650000Y-72620000D01*
X137150000Y-62380000D02*
X137150000Y-72620000D01*
X142050000Y-62380000D02*
X142050000Y-72620000D01*
X145070000Y-62380000D02*
X145070000Y-72620000D01*
X145070000Y-72620000D02*
X135030000Y-72620000D01*
X135030000Y-65000000D02*
X134420000Y-65440000D01*
X134420000Y-64560000D01*
X135030000Y-65000000D01*
G36*
X135030000Y-65000000D02*
G01*
X134420000Y-65440000D01*
X134420000Y-64560000D01*
X135030000Y-65000000D01*
G37*
X149522936Y-66840000D02*
X150977064Y-66840000D01*
X149522936Y-68660000D02*
X150977064Y-68660000D01*
X191120000Y-60120000D02*
X192500000Y-60120000D01*
X191120000Y-61500000D02*
X191120000Y-60120000D01*
X191120000Y-62770000D02*
X191120000Y-62880000D01*
X191120000Y-62770000D02*
X193880000Y-62770000D01*
X191120000Y-62880000D02*
X193880000Y-62880000D01*
X193880000Y-62770000D02*
X193880000Y-62880000D01*
X194022936Y-71090000D02*
X195477064Y-71090000D01*
X194022936Y-72910000D02*
X195477064Y-72910000D01*
X161211252Y-62590000D02*
X159788748Y-62590000D01*
X161211252Y-64410000D02*
X159788748Y-64410000D01*
X180080000Y-52120000D02*
X180080000Y-54880000D01*
X185270000Y-52120000D02*
X180080000Y-52120000D01*
X185270000Y-52120000D02*
X185270000Y-54880000D01*
X185270000Y-54880000D02*
X180080000Y-54880000D01*
X186540000Y-52120000D02*
X187920000Y-52120000D01*
X187920000Y-52120000D02*
X187920000Y-53500000D01*
X154461252Y-62840000D02*
X153038748Y-62840000D01*
X154461252Y-64660000D02*
X153038748Y-64660000D01*
X147080000Y-83620000D02*
X147080000Y-86380000D01*
X152270000Y-83620000D02*
X147080000Y-83620000D01*
X152270000Y-83620000D02*
X152270000Y-86380000D01*
X152270000Y-86380000D02*
X147080000Y-86380000D01*
X153540000Y-83620000D02*
X154920000Y-83620000D01*
X154920000Y-83620000D02*
X154920000Y-85000000D01*
X183120000Y-59620000D02*
X184500000Y-59620000D01*
X183120000Y-61000000D02*
X183120000Y-59620000D01*
X183120000Y-62270000D02*
X183120000Y-62380000D01*
X183120000Y-62270000D02*
X185880000Y-62270000D01*
X183120000Y-62380000D02*
X185880000Y-62380000D01*
X185880000Y-62270000D02*
X185880000Y-62380000D01*
X134780000Y-80380000D02*
X144820000Y-80380000D01*
X134780000Y-82700000D02*
X134780000Y-80380000D01*
X134780000Y-90620000D02*
X134780000Y-83300000D01*
X135400000Y-80380000D02*
X135400000Y-90620000D01*
X136900000Y-80380000D02*
X136900000Y-90620000D01*
X141800000Y-80380000D02*
X141800000Y-90620000D01*
X144820000Y-80380000D02*
X144820000Y-90620000D01*
X144820000Y-90620000D02*
X134780000Y-90620000D01*
X134780000Y-83000000D02*
X134170000Y-83440000D01*
X134170000Y-82560000D01*
X134780000Y-83000000D01*
G36*
X134780000Y-83000000D02*
G01*
X134170000Y-83440000D01*
X134170000Y-82560000D01*
X134780000Y-83000000D01*
G37*
X169227064Y-73590000D02*
X167772936Y-73590000D01*
X169227064Y-75410000D02*
X167772936Y-75410000D01*
X162590000Y-74272936D02*
X162590000Y-75727064D01*
X164410000Y-74272936D02*
X164410000Y-75727064D01*
X194022936Y-67090000D02*
X195477064Y-67090000D01*
X194022936Y-68910000D02*
X195477064Y-68910000D01*
X156080000Y-54620000D02*
X156080000Y-57380000D01*
X161270000Y-54620000D02*
X156080000Y-54620000D01*
X161270000Y-54620000D02*
X161270000Y-57380000D01*
X161270000Y-57380000D02*
X156080000Y-57380000D01*
X162540000Y-54620000D02*
X163920000Y-54620000D01*
X163920000Y-54620000D02*
X163920000Y-56000000D01*
X187602500Y-76130000D02*
X197642500Y-76130000D01*
X187602500Y-86370000D02*
X187602500Y-76130000D01*
X190622500Y-86370000D02*
X190622500Y-76130000D01*
X195522500Y-86370000D02*
X195522500Y-76130000D01*
X197022500Y-86370000D02*
X197022500Y-76130000D01*
X197642500Y-76130000D02*
X197642500Y-83450000D01*
X197642500Y-84050000D02*
X197642500Y-86370000D01*
X197642500Y-86370000D02*
X187602500Y-86370000D01*
X198252500Y-84190000D02*
X197642500Y-83750000D01*
X198252500Y-83310000D01*
X198252500Y-84190000D01*
G36*
X198252500Y-84190000D02*
G01*
X197642500Y-83750000D01*
X198252500Y-83310000D01*
X198252500Y-84190000D01*
G37*
X170910000Y-78600000D02*
X165100000Y-78600000D01*
X170910000Y-82900000D02*
X165100000Y-82900000D01*
X170910000Y-82900000D02*
X170910000Y-78600000D01*
X181370000Y-91870000D02*
X182750000Y-91870000D01*
X181370000Y-93250000D02*
X181370000Y-91870000D01*
X181370000Y-94520000D02*
X181370000Y-94630000D01*
X181370000Y-94520000D02*
X184130000Y-94520000D01*
X181370000Y-94630000D02*
X184130000Y-94630000D01*
X184130000Y-94520000D02*
X184130000Y-94630000D01*
D16*
X160639200Y-90308800D02*
X163992000Y-90308800D01*
X163992000Y-85940000D02*
X160639200Y-85940000D01*
M02*
